G04 #@! TF.GenerationSoftware,KiCad,Pcbnew,7.0.9*
G04 #@! TF.CreationDate,2023-12-09T13:14:58+01:00*
G04 #@! TF.ProjectId,EuroMeasure-IonGaugeController,4575726f-4d65-4617-9375-72652d496f6e,1.0.0*
G04 #@! TF.SameCoordinates,Original*
G04 #@! TF.FileFunction,Soldermask,Bot*
G04 #@! TF.FilePolarity,Negative*
%FSLAX46Y46*%
G04 Gerber Fmt 4.6, Leading zero omitted, Abs format (unit mm)*
G04 Created by KiCad (PCBNEW 7.0.9) date 2023-12-09 13:14:58*
%MOMM*%
%LPD*%
G01*
G04 APERTURE LIST*
G04 Aperture macros list*
%AMRoundRect*
0 Rectangle with rounded corners*
0 $1 Rounding radius*
0 $2 $3 $4 $5 $6 $7 $8 $9 X,Y pos of 4 corners*
0 Add a 4 corners polygon primitive as box body*
4,1,4,$2,$3,$4,$5,$6,$7,$8,$9,$2,$3,0*
0 Add four circle primitives for the rounded corners*
1,1,$1+$1,$2,$3*
1,1,$1+$1,$4,$5*
1,1,$1+$1,$6,$7*
1,1,$1+$1,$8,$9*
0 Add four rect primitives between the rounded corners*
20,1,$1+$1,$2,$3,$4,$5,0*
20,1,$1+$1,$4,$5,$6,$7,0*
20,1,$1+$1,$6,$7,$8,$9,0*
20,1,$1+$1,$8,$9,$2,$3,0*%
G04 Aperture macros list end*
%ADD10C,0.010000*%
%ADD11RoundRect,0.250000X-0.600000X-0.600000X0.600000X-0.600000X0.600000X0.600000X-0.600000X0.600000X0*%
%ADD12C,1.700000*%
%ADD13C,5.600000*%
%ADD14R,2.000000X1.905000*%
%ADD15O,2.000000X1.905000*%
%ADD16C,1.000000*%
%ADD17R,2.000000X2.000000*%
%ADD18C,2.000000*%
%ADD19C,1.600000*%
%ADD20C,1.400000*%
%ADD21O,1.400000X1.400000*%
%ADD22RoundRect,0.250000X0.600000X0.600000X-0.600000X0.600000X-0.600000X-0.600000X0.600000X-0.600000X0*%
%ADD23RoundRect,0.125000X0.125000X0.125000X-0.125000X0.125000X-0.125000X-0.125000X0.125000X-0.125000X0*%
%ADD24RoundRect,0.250000X0.337500X0.475000X-0.337500X0.475000X-0.337500X-0.475000X0.337500X-0.475000X0*%
%ADD25RoundRect,0.250000X-0.350000X-0.450000X0.350000X-0.450000X0.350000X0.450000X-0.350000X0.450000X0*%
%ADD26RoundRect,0.250000X-0.475000X0.337500X-0.475000X-0.337500X0.475000X-0.337500X0.475000X0.337500X0*%
%ADD27RoundRect,0.250000X0.475000X-0.337500X0.475000X0.337500X-0.475000X0.337500X-0.475000X-0.337500X0*%
%ADD28RoundRect,0.250000X0.350000X0.450000X-0.350000X0.450000X-0.350000X-0.450000X0.350000X-0.450000X0*%
%ADD29RoundRect,0.250000X-0.325000X-0.450000X0.325000X-0.450000X0.325000X0.450000X-0.325000X0.450000X0*%
G04 APERTURE END LIST*
D10*
X100000000Y-50000000D02*
X200000000Y-50000000D01*
X200000000Y-50000000D02*
X200000000Y-52250000D01*
X200000000Y-52250000D02*
X100000000Y-52250000D01*
X100000000Y-52250000D02*
X100000000Y-50000000D01*
G36*
X100000000Y-50000000D02*
G01*
X200000000Y-50000000D01*
X200000000Y-52250000D01*
X100000000Y-52250000D01*
X100000000Y-50000000D01*
G37*
X100000000Y-147750000D02*
X200000000Y-147750000D01*
X200000000Y-147750000D02*
X200000000Y-150000000D01*
X200000000Y-150000000D02*
X100000000Y-150000000D01*
X100000000Y-150000000D02*
X100000000Y-147750000D01*
G36*
X100000000Y-147750000D02*
G01*
X200000000Y-147750000D01*
X200000000Y-150000000D01*
X100000000Y-150000000D01*
X100000000Y-147750000D01*
G37*
D11*
X194000000Y-66000000D03*
D12*
X196540000Y-66000000D03*
D13*
X105000000Y-55000000D03*
X105000000Y-145000000D03*
D12*
X194000000Y-68540000D03*
D13*
X195000000Y-55000000D03*
X195000000Y-145000000D03*
D12*
X196540000Y-68540000D03*
X194000000Y-71080000D03*
X196540000Y-71080000D03*
X194000000Y-73620000D03*
X196540000Y-73620000D03*
X194000000Y-76160000D03*
X196540000Y-76160000D03*
D11*
X194000000Y-91000000D03*
D12*
X196540000Y-91000000D03*
X194000000Y-93540000D03*
X196540000Y-93540000D03*
X194000000Y-96080000D03*
X196540000Y-96080000D03*
X194000000Y-98620000D03*
X196540000Y-98620000D03*
X194000000Y-101160000D03*
X196540000Y-101160000D03*
D11*
X194000000Y-123000000D03*
D12*
X196540000Y-123000000D03*
X194000000Y-125540000D03*
X196540000Y-125540000D03*
X194000000Y-128080000D03*
X196540000Y-128080000D03*
X194000000Y-130620000D03*
X196540000Y-130620000D03*
X194000000Y-133160000D03*
X196540000Y-133160000D03*
D14*
X114550000Y-142980000D03*
D15*
X114550000Y-140440000D03*
X114550000Y-137900000D03*
D16*
X169100000Y-92200000D03*
X180600000Y-83800000D03*
X171050000Y-92800000D03*
X184700000Y-83700000D03*
X172100000Y-94600000D03*
D17*
X106200000Y-108117677D03*
D18*
X106200000Y-111617677D03*
D16*
X190950000Y-101850000D03*
X166400000Y-89450000D03*
X182500000Y-83050000D03*
X178450000Y-82900000D03*
X173600000Y-91000000D03*
X167150000Y-91350000D03*
X178300000Y-62300000D03*
X174750000Y-62250000D03*
D17*
X119200000Y-108000000D03*
D18*
X119200000Y-111500000D03*
D16*
X173700000Y-93150000D03*
D19*
X147800000Y-97180000D03*
X147800000Y-92180000D03*
D16*
X166650000Y-87400000D03*
X172100000Y-96900000D03*
D20*
X112700000Y-115000000D03*
D21*
X112700000Y-107380000D03*
D16*
X175550000Y-90000000D03*
D22*
X106200000Y-84280000D03*
D12*
X103660000Y-84280000D03*
X106200000Y-81740000D03*
X103660000Y-81740000D03*
X106200000Y-79200000D03*
X103660000Y-79200000D03*
X106200000Y-76660000D03*
X103660000Y-76660000D03*
X106200000Y-74120000D03*
X103660000Y-74120000D03*
D23*
X197200000Y-88900000D03*
X195000000Y-88900000D03*
D24*
X186215000Y-92505000D03*
X184140000Y-92505000D03*
X196937500Y-85000000D03*
X194862500Y-85000000D03*
D25*
X194900000Y-87000000D03*
X196900000Y-87000000D03*
D26*
X140800000Y-91362500D03*
X140800000Y-93437500D03*
X145050000Y-137562500D03*
X145050000Y-139637500D03*
D24*
X186215000Y-94505000D03*
X184140000Y-94505000D03*
D27*
X140800000Y-97637500D03*
X140800000Y-95562500D03*
X145050000Y-143437500D03*
X145050000Y-141362500D03*
D28*
X192300000Y-83100000D03*
X190300000Y-83100000D03*
D29*
X184152500Y-90505000D03*
X186202500Y-90505000D03*
M02*
