G04 #@! TF.GenerationSoftware,KiCad,Pcbnew,7.0.9*
G04 #@! TF.CreationDate,2023-12-09T13:14:58+01:00*
G04 #@! TF.ProjectId,EuroMeasure-IonGaugeController,4575726f-4d65-4617-9375-72652d496f6e,1.0.0*
G04 #@! TF.SameCoordinates,Original*
G04 #@! TF.FileFunction,Soldermask,Top*
G04 #@! TF.FilePolarity,Negative*
%FSLAX46Y46*%
G04 Gerber Fmt 4.6, Leading zero omitted, Abs format (unit mm)*
G04 Created by KiCad (PCBNEW 7.0.9) date 2023-12-09 13:14:58*
%MOMM*%
%LPD*%
G01*
G04 APERTURE LIST*
G04 Aperture macros list*
%AMRoundRect*
0 Rectangle with rounded corners*
0 $1 Rounding radius*
0 $2 $3 $4 $5 $6 $7 $8 $9 X,Y pos of 4 corners*
0 Add a 4 corners polygon primitive as box body*
4,1,4,$2,$3,$4,$5,$6,$7,$8,$9,$2,$3,0*
0 Add four circle primitives for the rounded corners*
1,1,$1+$1,$2,$3*
1,1,$1+$1,$4,$5*
1,1,$1+$1,$6,$7*
1,1,$1+$1,$8,$9*
0 Add four rect primitives between the rounded corners*
20,1,$1+$1,$2,$3,$4,$5,0*
20,1,$1+$1,$4,$5,$6,$7,0*
20,1,$1+$1,$6,$7,$8,$9,0*
20,1,$1+$1,$8,$9,$2,$3,0*%
%AMFreePoly0*
4,1,15,0.512500,0.050000,0.512500,-0.050000,1.162500,-0.700000,-0.262500,-0.700000,-0.358171,-0.680970,-0.439277,-0.626777,-0.493470,-0.545671,-0.512500,-0.450000,-0.512500,0.450000,-0.493470,0.545671,-0.439277,0.626777,-0.358171,0.680970,-0.262500,0.700000,1.162500,0.700000,0.512500,0.050000,0.512500,0.050000,$1*%
%AMFreePoly1*
4,1,20,0.358171,0.680970,0.439277,0.626777,0.493470,0.545671,0.512500,0.450000,0.512500,-0.450000,0.493470,-0.545671,0.439277,-0.626777,0.358171,-0.680970,0.262500,-0.700000,-0.362500,-0.700000,-0.428566,-0.633933,-0.439277,-0.626777,-0.446433,-0.616066,-1.062500,0.000000,-0.446433,0.616066,-0.439277,0.626777,-0.428566,0.633933,-0.362500,0.700000,0.262500,0.700000,0.358171,0.680970,
0.358171,0.680970,$1*%
%AMFreePoly2*
4,1,13,0.125000,1.175000,0.165000,1.175000,0.165000,-1.175000,0.125000,-1.175000,0.125000,-1.700000,-0.125000,-1.700000,-0.125000,-1.175000,-0.165000,-1.175000,-0.165000,1.175000,-0.125000,1.175000,-0.125000,1.700000,0.125000,1.700000,0.125000,1.175000,0.125000,1.175000,$1*%
G04 Aperture macros list end*
%ADD10C,0.010000*%
%ADD11RoundRect,0.250000X-0.475000X0.337500X-0.475000X-0.337500X0.475000X-0.337500X0.475000X0.337500X0*%
%ADD12RoundRect,0.250000X-0.350000X-0.450000X0.350000X-0.450000X0.350000X0.450000X-0.350000X0.450000X0*%
%ADD13RoundRect,0.125000X-0.125000X0.125000X-0.125000X-0.125000X0.125000X-0.125000X0.125000X0.125000X0*%
%ADD14RoundRect,0.250000X0.350000X0.450000X-0.350000X0.450000X-0.350000X-0.450000X0.350000X-0.450000X0*%
%ADD15RoundRect,0.150000X0.512500X0.150000X-0.512500X0.150000X-0.512500X-0.150000X0.512500X-0.150000X0*%
%ADD16RoundRect,0.250000X0.450000X-0.350000X0.450000X0.350000X-0.450000X0.350000X-0.450000X-0.350000X0*%
%ADD17RoundRect,0.250000X0.475000X-0.337500X0.475000X0.337500X-0.475000X0.337500X-0.475000X-0.337500X0*%
%ADD18RoundRect,0.150000X-0.150000X0.587500X-0.150000X-0.587500X0.150000X-0.587500X0.150000X0.587500X0*%
%ADD19RoundRect,0.250000X0.262500X0.450000X-0.262500X0.450000X-0.262500X-0.450000X0.262500X-0.450000X0*%
%ADD20RoundRect,0.250000X-0.300000X-0.300000X0.300000X-0.300000X0.300000X0.300000X-0.300000X0.300000X0*%
%ADD21RoundRect,0.250000X-0.600000X-0.600000X0.600000X-0.600000X0.600000X0.600000X-0.600000X0.600000X0*%
%ADD22C,1.700000*%
%ADD23C,5.600000*%
%ADD24R,0.700000X0.700000*%
%ADD25RoundRect,0.250000X0.337500X0.475000X-0.337500X0.475000X-0.337500X-0.475000X0.337500X-0.475000X0*%
%ADD26RoundRect,0.250000X-2.050000X-0.300000X2.050000X-0.300000X2.050000X0.300000X-2.050000X0.300000X0*%
%ADD27RoundRect,0.250002X-4.449998X-5.149998X4.449998X-5.149998X4.449998X5.149998X-4.449998X5.149998X0*%
%ADD28RoundRect,0.324675X-0.925325X-2.975325X0.925325X-2.975325X0.925325X2.975325X-0.925325X2.975325X0*%
%ADD29RoundRect,0.250000X-1.500000X-0.550000X1.500000X-0.550000X1.500000X0.550000X-1.500000X0.550000X0*%
%ADD30RoundRect,0.250000X-0.337500X-0.475000X0.337500X-0.475000X0.337500X0.475000X-0.337500X0.475000X0*%
%ADD31R,2.000000X1.905000*%
%ADD32O,2.000000X1.905000*%
%ADD33FreePoly0,270.000000*%
%ADD34FreePoly1,270.000000*%
%ADD35C,1.000000*%
%ADD36RoundRect,0.250000X-0.450000X0.350000X-0.450000X-0.350000X0.450000X-0.350000X0.450000X0.350000X0*%
%ADD37RoundRect,0.317500X0.637500X0.317500X-0.637500X0.317500X-0.637500X-0.317500X0.637500X-0.317500X0*%
%ADD38R,0.650000X0.850000*%
%ADD39RoundRect,0.249999X1.075001X-0.450001X1.075001X0.450001X-1.075001X0.450001X-1.075001X-0.450001X0*%
%ADD40RoundRect,0.250000X0.650000X-0.412500X0.650000X0.412500X-0.650000X0.412500X-0.650000X-0.412500X0*%
%ADD41RoundRect,0.250000X0.300000X0.300000X-0.300000X0.300000X-0.300000X-0.300000X0.300000X-0.300000X0*%
%ADD42R,2.000000X1.500000*%
%ADD43R,2.000000X3.800000*%
%ADD44RoundRect,0.050000X-0.362500X-0.050000X0.362500X-0.050000X0.362500X0.050000X-0.362500X0.050000X0*%
%ADD45RoundRect,0.050000X-0.050000X-0.362500X0.050000X-0.362500X0.050000X0.362500X-0.050000X0.362500X0*%
%ADD46R,1.700000X1.700000*%
%ADD47RoundRect,0.150000X-0.825000X-0.150000X0.825000X-0.150000X0.825000X0.150000X-0.825000X0.150000X0*%
%ADD48RoundRect,0.075000X0.662500X0.075000X-0.662500X0.075000X-0.662500X-0.075000X0.662500X-0.075000X0*%
%ADD49RoundRect,0.075000X0.075000X0.662500X-0.075000X0.662500X-0.075000X-0.662500X0.075000X-0.662500X0*%
%ADD50RoundRect,0.250000X-0.412500X-1.100000X0.412500X-1.100000X0.412500X1.100000X-0.412500X1.100000X0*%
%ADD51RoundRect,0.250000X0.375000X1.075000X-0.375000X1.075000X-0.375000X-1.075000X0.375000X-1.075000X0*%
%ADD52RoundRect,0.250000X1.000000X-1.950000X1.000000X1.950000X-1.000000X1.950000X-1.000000X-1.950000X0*%
%ADD53R,1.550000X1.300000*%
%ADD54R,2.000000X2.000000*%
%ADD55C,2.000000*%
%ADD56R,5.400000X2.900000*%
%ADD57R,0.760000X1.250000*%
%ADD58RoundRect,0.250000X0.400000X1.075000X-0.400000X1.075000X-0.400000X-1.075000X0.400000X-1.075000X0*%
%ADD59RoundRect,0.122000X0.788000X0.488000X-0.788000X0.488000X-0.788000X-0.488000X0.788000X-0.488000X0*%
%ADD60RoundRect,0.250000X-0.450000X0.325000X-0.450000X-0.325000X0.450000X-0.325000X0.450000X0.325000X0*%
%ADD61R,0.400000X1.500000*%
%ADD62RoundRect,0.050000X0.075000X0.250000X-0.075000X0.250000X-0.075000X-0.250000X0.075000X-0.250000X0*%
%ADD63RoundRect,0.050000X-0.250000X0.075000X-0.250000X-0.075000X0.250000X-0.075000X0.250000X0.075000X0*%
%ADD64RoundRect,0.050000X-1.650000X0.075000X-1.650000X-0.075000X1.650000X-0.075000X1.650000X0.075000X0*%
%ADD65FreePoly2,90.000000*%
%ADD66RoundRect,0.050000X0.250000X-0.075000X0.250000X0.075000X-0.250000X0.075000X-0.250000X-0.075000X0*%
%ADD67RoundRect,0.250000X1.000000X0.900000X-1.000000X0.900000X-1.000000X-0.900000X1.000000X-0.900000X0*%
%ADD68RoundRect,0.075000X0.075000X-0.650000X0.075000X0.650000X-0.075000X0.650000X-0.075000X-0.650000X0*%
%ADD69RoundRect,0.000000X0.810000X-0.575000X0.810000X0.575000X-0.810000X0.575000X-0.810000X-0.575000X0*%
%ADD70RoundRect,0.250000X-1.000000X-0.900000X1.000000X-0.900000X1.000000X0.900000X-1.000000X0.900000X0*%
%ADD71R,1.500000X0.400000*%
%ADD72RoundRect,0.200000X-0.250000X0.200000X-0.250000X-0.200000X0.250000X-0.200000X0.250000X0.200000X0*%
%ADD73R,7.200000X2.300000*%
%ADD74RoundRect,0.250000X0.550000X-1.500000X0.550000X1.500000X-0.550000X1.500000X-0.550000X-1.500000X0*%
%ADD75RoundRect,0.250000X-1.000000X1.950000X-1.000000X-1.950000X1.000000X-1.950000X1.000000X1.950000X0*%
%ADD76RoundRect,0.050000X0.880000X-0.350000X0.880000X0.350000X-0.880000X0.350000X-0.880000X-0.350000X0*%
%ADD77RoundRect,0.250001X0.462499X1.074999X-0.462499X1.074999X-0.462499X-1.074999X0.462499X-1.074999X0*%
%ADD78C,1.600000*%
%ADD79RoundRect,0.324675X2.975325X-0.925325X2.975325X0.925325X-2.975325X0.925325X-2.975325X-0.925325X0*%
%ADD80C,1.400000*%
%ADD81O,1.400000X1.400000*%
%ADD82RoundRect,0.125000X0.125000X0.125000X-0.125000X0.125000X-0.125000X-0.125000X0.125000X-0.125000X0*%
%ADD83RoundRect,0.250000X-0.400000X-1.075000X0.400000X-1.075000X0.400000X1.075000X-0.400000X1.075000X0*%
%ADD84RoundRect,0.250000X1.500000X0.550000X-1.500000X0.550000X-1.500000X-0.550000X1.500000X-0.550000X0*%
%ADD85RoundRect,0.250000X0.600000X0.600000X-0.600000X0.600000X-0.600000X-0.600000X0.600000X-0.600000X0*%
%ADD86R,2.900000X5.400000*%
%ADD87RoundRect,0.150000X-0.725000X-0.150000X0.725000X-0.150000X0.725000X0.150000X-0.725000X0.150000X0*%
G04 APERTURE END LIST*
D10*
X100000000Y-50000000D02*
X200000000Y-50000000D01*
X200000000Y-50000000D02*
X200000000Y-52250000D01*
X200000000Y-52250000D02*
X100000000Y-52250000D01*
X100000000Y-52250000D02*
X100000000Y-50000000D01*
G36*
X100000000Y-50000000D02*
G01*
X200000000Y-50000000D01*
X200000000Y-52250000D01*
X100000000Y-52250000D01*
X100000000Y-50000000D01*
G37*
X100000000Y-147750000D02*
X200000000Y-147750000D01*
X200000000Y-147750000D02*
X200000000Y-150000000D01*
X200000000Y-150000000D02*
X100000000Y-150000000D01*
X100000000Y-150000000D02*
X100000000Y-147750000D01*
G36*
X100000000Y-147750000D02*
G01*
X200000000Y-147750000D01*
X200000000Y-150000000D01*
X100000000Y-150000000D01*
X100000000Y-147750000D01*
G37*
G36*
X183450000Y-101100000D02*
G01*
X182050000Y-101100000D01*
X182050000Y-102400000D01*
X183450000Y-102400000D01*
X183450000Y-101100000D01*
G37*
G36*
X176450000Y-101100000D02*
G01*
X175050000Y-101100000D01*
X175050000Y-102400000D01*
X176450000Y-102400000D01*
X176450000Y-101100000D01*
G37*
G36*
X181450000Y-101100000D02*
G01*
X180050000Y-101100000D01*
X180050000Y-102400000D01*
X181450000Y-102400000D01*
X181450000Y-101100000D01*
G37*
G36*
X179450000Y-101100000D02*
G01*
X178050000Y-101100000D01*
X178050000Y-102400000D01*
X179450000Y-102400000D01*
X179450000Y-101100000D01*
G37*
D11*
X124000000Y-60100000D03*
X124000000Y-62175000D03*
X115487500Y-122862500D03*
X115487500Y-124937500D03*
D12*
X129200000Y-104000000D03*
X131200000Y-104000000D03*
D13*
X120750000Y-139775000D03*
X120750000Y-141975000D03*
D14*
X154300000Y-85300000D03*
X152300000Y-85300000D03*
D15*
X135700000Y-105400000D03*
X135700000Y-103500000D03*
X133425000Y-104450000D03*
D16*
X137600000Y-114100000D03*
X137600000Y-112100000D03*
D17*
X121300000Y-69437500D03*
X121300000Y-67362500D03*
D14*
X155000000Y-145000000D03*
X153000000Y-145000000D03*
D16*
X152550000Y-141800000D03*
X152550000Y-139800000D03*
D18*
X135750000Y-111962500D03*
X133850000Y-111962500D03*
X134800000Y-113837500D03*
D19*
X119150000Y-124850000D03*
X117325000Y-124850000D03*
D20*
X128450000Y-136900000D03*
X131250000Y-136900000D03*
D21*
X194000000Y-66000000D03*
D22*
X196540000Y-66000000D03*
D23*
X105000000Y-55000000D03*
X105000000Y-145000000D03*
D22*
X194000000Y-68540000D03*
D23*
X195000000Y-55000000D03*
X195000000Y-145000000D03*
D22*
X196540000Y-68540000D03*
X194000000Y-71080000D03*
X196540000Y-71080000D03*
X194000000Y-73620000D03*
X196540000Y-73620000D03*
X194000000Y-76160000D03*
X196540000Y-76160000D03*
D21*
X194000000Y-91000000D03*
D22*
X196540000Y-91000000D03*
X194000000Y-93540000D03*
X196540000Y-93540000D03*
X194000000Y-96080000D03*
X196540000Y-96080000D03*
X194000000Y-98620000D03*
X196540000Y-98620000D03*
X194000000Y-101160000D03*
X196540000Y-101160000D03*
D21*
X194000000Y-123000000D03*
D22*
X196540000Y-123000000D03*
X194000000Y-125540000D03*
X196540000Y-125540000D03*
X194000000Y-128080000D03*
X196540000Y-128080000D03*
X194000000Y-130620000D03*
X196540000Y-130620000D03*
X194000000Y-133160000D03*
X196540000Y-133160000D03*
D24*
X109800000Y-54450000D03*
X109800000Y-55550000D03*
X111800000Y-55550000D03*
X111800000Y-54450000D03*
D25*
X191637500Y-91600000D03*
X189562500Y-91600000D03*
D26*
X143025000Y-119660000D03*
D27*
X152175000Y-122200000D03*
D26*
X143025000Y-124740000D03*
D14*
X126300000Y-55900000D03*
X124300000Y-55900000D03*
D28*
X153600000Y-63000000D03*
X161400000Y-63000000D03*
D14*
X122500000Y-55900000D03*
X120500000Y-55900000D03*
D29*
X179700000Y-137400000D03*
X185100000Y-137400000D03*
D19*
X161787500Y-80650000D03*
X159962500Y-80650000D03*
D14*
X158000000Y-84800000D03*
X156000000Y-84800000D03*
D16*
X126000000Y-65900000D03*
X126000000Y-63900000D03*
D30*
X189562500Y-89500000D03*
X191637500Y-89500000D03*
D31*
X114550000Y-142980000D03*
D32*
X114550000Y-140440000D03*
X114550000Y-137900000D03*
D14*
X124362500Y-79500000D03*
X122362500Y-79500000D03*
X162000000Y-74750000D03*
X160000000Y-74750000D03*
D11*
X151250000Y-134062500D03*
X151250000Y-136137500D03*
D17*
X115700000Y-55575000D03*
X115700000Y-53500000D03*
D33*
X182750000Y-100837500D03*
D34*
X182750000Y-102662500D03*
D14*
X143200000Y-134800000D03*
X141200000Y-134800000D03*
D11*
X124700000Y-75462500D03*
X124700000Y-77537500D03*
D35*
X169100000Y-92200000D03*
D36*
X126700000Y-75500000D03*
X126700000Y-77500000D03*
D37*
X143550000Y-99830000D03*
X143550000Y-97330000D03*
X143550000Y-94830000D03*
X143550000Y-92330000D03*
X143550000Y-89830000D03*
X143550000Y-87330000D03*
X120690000Y-87330000D03*
X120690000Y-89830000D03*
X120690000Y-97330000D03*
X120690000Y-99830000D03*
D17*
X130200000Y-69737500D03*
X130200000Y-67662500D03*
D11*
X128200000Y-71462500D03*
X128200000Y-73537500D03*
D25*
X191615000Y-87400000D03*
X189540000Y-87400000D03*
D38*
X191425000Y-93425000D03*
X189775000Y-93425000D03*
X189775000Y-94975000D03*
X191425000Y-94975000D03*
D30*
X170762500Y-85050000D03*
X172837500Y-85050000D03*
D35*
X180600000Y-83800000D03*
D14*
X122500000Y-57900000D03*
X120500000Y-57900000D03*
D30*
X173462500Y-87050000D03*
X175537500Y-87050000D03*
D16*
X124000000Y-65900000D03*
X124000000Y-63900000D03*
D30*
X166962500Y-85400000D03*
X169037500Y-85400000D03*
D25*
X119337500Y-63200000D03*
X117262500Y-63200000D03*
D39*
X128600000Y-65700000D03*
X128600000Y-60900000D03*
D14*
X128062500Y-79500000D03*
X126062500Y-79500000D03*
D11*
X122000000Y-59762500D03*
X122000000Y-61837500D03*
D16*
X115287500Y-128750000D03*
X115287500Y-126750000D03*
D35*
X171050000Y-92800000D03*
D33*
X175750000Y-100837500D03*
D34*
X175750000Y-102662500D03*
D14*
X143200000Y-146100000D03*
X141200000Y-146100000D03*
D40*
X123150000Y-143962500D03*
X123150000Y-140837500D03*
D30*
X133762500Y-109900000D03*
X135837500Y-109900000D03*
D14*
X119400000Y-116000000D03*
X117400000Y-116000000D03*
D35*
X184700000Y-83700000D03*
D25*
X122937500Y-124700000D03*
X120862500Y-124700000D03*
D41*
X131250000Y-139250000D03*
X128450000Y-139250000D03*
D25*
X122825000Y-132350000D03*
X120750000Y-132350000D03*
D42*
X185950000Y-74100000D03*
X185950000Y-71800000D03*
D43*
X179650000Y-71800000D03*
D42*
X185950000Y-69500000D03*
D44*
X168637500Y-87837500D03*
X168637500Y-88237500D03*
X168637500Y-88637500D03*
X168637500Y-89037500D03*
X168637500Y-89437500D03*
D45*
X169300000Y-90100000D03*
X169700000Y-90100000D03*
X170100000Y-90100000D03*
X170500000Y-90100000D03*
X170900000Y-90100000D03*
D44*
X171562500Y-89437500D03*
X171562500Y-89037500D03*
X171562500Y-88637500D03*
X171562500Y-88237500D03*
X171562500Y-87837500D03*
D45*
X170900000Y-87175000D03*
X170500000Y-87175000D03*
X170100000Y-87175000D03*
X169700000Y-87175000D03*
X169300000Y-87175000D03*
D46*
X170100000Y-88637500D03*
D47*
X119512500Y-126685000D03*
X119512500Y-127955000D03*
X119512500Y-129225000D03*
X119512500Y-130495000D03*
X124462500Y-130495000D03*
X124462500Y-129225000D03*
X124462500Y-127955000D03*
X124462500Y-126685000D03*
D48*
X186140000Y-95055000D03*
X186140000Y-94555000D03*
X186140000Y-94055000D03*
X186140000Y-93555000D03*
X186140000Y-93055000D03*
X186140000Y-92555000D03*
X186140000Y-92055000D03*
X186140000Y-91555000D03*
X186140000Y-91055000D03*
X186140000Y-90555000D03*
X186140000Y-90055000D03*
X186140000Y-89555000D03*
D49*
X184727500Y-88142500D03*
X184227500Y-88142500D03*
X183727500Y-88142500D03*
X183227500Y-88142500D03*
X182727500Y-88142500D03*
X182227500Y-88142500D03*
X181727500Y-88142500D03*
X181227500Y-88142500D03*
X180727500Y-88142500D03*
X180227500Y-88142500D03*
X179727500Y-88142500D03*
X179227500Y-88142500D03*
D48*
X177815000Y-89555000D03*
X177815000Y-90055000D03*
X177815000Y-90555000D03*
X177815000Y-91055000D03*
X177815000Y-91555000D03*
X177815000Y-92055000D03*
X177815000Y-92555000D03*
X177815000Y-93055000D03*
X177815000Y-93555000D03*
X177815000Y-94055000D03*
X177815000Y-94555000D03*
X177815000Y-95055000D03*
D49*
X179227500Y-96467500D03*
X179727500Y-96467500D03*
X180227500Y-96467500D03*
X180727500Y-96467500D03*
X181227500Y-96467500D03*
X181727500Y-96467500D03*
X182227500Y-96467500D03*
X182727500Y-96467500D03*
X183227500Y-96467500D03*
X183727500Y-96467500D03*
X184227500Y-96467500D03*
X184727500Y-96467500D03*
D30*
X138362500Y-104700000D03*
X140437500Y-104700000D03*
D16*
X114850000Y-134112500D03*
X114850000Y-132112500D03*
D35*
X172100000Y-94600000D03*
D50*
X124137500Y-104500000D03*
X127262500Y-104500000D03*
D13*
X118650000Y-136300000D03*
X118650000Y-138500000D03*
D51*
X191600000Y-71100000D03*
X188800000Y-71100000D03*
D52*
X136800000Y-79200000D03*
X136800000Y-70800000D03*
D53*
X178402500Y-54455000D03*
X186352500Y-54455000D03*
X178402500Y-58955000D03*
X186352500Y-58955000D03*
D54*
X106200000Y-108117677D03*
D55*
X106200000Y-111617677D03*
D56*
X149100000Y-69150000D03*
X149100000Y-79050000D03*
D35*
X190950000Y-101850000D03*
X166400000Y-89450000D03*
D40*
X111750000Y-143562500D03*
X111750000Y-140437500D03*
D36*
X118750000Y-139900000D03*
X118750000Y-141900000D03*
D57*
X182405000Y-99000000D03*
X181135000Y-99000000D03*
X179865000Y-99000000D03*
X178595000Y-99000000D03*
X178595000Y-105150000D03*
X179865000Y-105150000D03*
X181135000Y-105150000D03*
X182405000Y-105150000D03*
D35*
X182500000Y-83050000D03*
D30*
X189562500Y-73900000D03*
X191637500Y-73900000D03*
D16*
X162075000Y-78650000D03*
X162075000Y-76650000D03*
D11*
X145200000Y-106662500D03*
X145200000Y-108737500D03*
D25*
X147137500Y-134800000D03*
X145062500Y-134800000D03*
D36*
X143800000Y-113100000D03*
X143800000Y-115100000D03*
D41*
X131250000Y-141600000D03*
X128450000Y-141600000D03*
D17*
X128200000Y-69737500D03*
X128200000Y-67662500D03*
D14*
X151200000Y-145000000D03*
X149200000Y-145000000D03*
D25*
X120687500Y-143800000D03*
X118612500Y-143800000D03*
D35*
X178450000Y-82900000D03*
D11*
X121300000Y-71762500D03*
X121300000Y-73837500D03*
D58*
X114200000Y-104500000D03*
X111100000Y-104500000D03*
D35*
X173600000Y-91000000D03*
D42*
X150850000Y-88480000D03*
X150850000Y-90780000D03*
D43*
X157150000Y-90780000D03*
D42*
X150850000Y-93080000D03*
D59*
X147065000Y-143040000D03*
X147065000Y-140500000D03*
X147065000Y-137960000D03*
X133635000Y-137960000D03*
X133635000Y-140500000D03*
X133635000Y-143040000D03*
D14*
X119300000Y-65200000D03*
X117300000Y-65200000D03*
D60*
X188777500Y-53880000D03*
X188777500Y-55930000D03*
D35*
X167150000Y-91350000D03*
D30*
X174262500Y-82150000D03*
X176337500Y-82150000D03*
D33*
X180750000Y-100837500D03*
D34*
X180750000Y-102662500D03*
D61*
X157925000Y-75720000D03*
X157275000Y-75720000D03*
X156625000Y-75720000D03*
X156625000Y-78380000D03*
X157275000Y-78380000D03*
X157925000Y-78380000D03*
D17*
X126000000Y-62200000D03*
X126000000Y-60125000D03*
D12*
X188577500Y-57905000D03*
X190577500Y-57905000D03*
D16*
X117237500Y-128750000D03*
X117237500Y-126750000D03*
D62*
X123650000Y-73000000D03*
X124150000Y-73000000D03*
X124650000Y-73000000D03*
X125150000Y-73000000D03*
D63*
X125800000Y-72640000D03*
X125800000Y-72140000D03*
D64*
X124400000Y-71640000D03*
X124400000Y-71140000D03*
D65*
X124400000Y-70600000D03*
D64*
X124400000Y-70060000D03*
X124400000Y-69560000D03*
D63*
X125800000Y-69060000D03*
D66*
X125800000Y-68560000D03*
D62*
X125150000Y-68200000D03*
X124650000Y-68200000D03*
X124150000Y-68200000D03*
X123650000Y-68200000D03*
D66*
X123000000Y-68560000D03*
D63*
X123000000Y-69060000D03*
X123000000Y-72140000D03*
D66*
X123000000Y-72640000D03*
D35*
X178300000Y-62300000D03*
D67*
X116600000Y-96000000D03*
X112300000Y-96000000D03*
D40*
X125550000Y-143962500D03*
X125550000Y-140837500D03*
D42*
X150850000Y-95980000D03*
X150850000Y-98280000D03*
D43*
X157150000Y-98280000D03*
D42*
X150850000Y-100580000D03*
D33*
X178750000Y-100837500D03*
D34*
X178750000Y-102662500D03*
D11*
X130200000Y-71462500D03*
X130200000Y-73537500D03*
D68*
X148850000Y-142700000D03*
X149350000Y-142700000D03*
X149850000Y-142700000D03*
X150350000Y-142700000D03*
X150850000Y-142700000D03*
X150850000Y-138300000D03*
X150350000Y-138300000D03*
X149850000Y-138300000D03*
X149350000Y-138300000D03*
X148850000Y-138300000D03*
D69*
X149850000Y-140500000D03*
D70*
X112300000Y-86800000D03*
X116600000Y-86800000D03*
D17*
X159875000Y-78687500D03*
X159875000Y-76612500D03*
D11*
X188800000Y-96662500D03*
X188800000Y-98737500D03*
D71*
X120817500Y-122700000D03*
X120817500Y-122050000D03*
X120817500Y-121400000D03*
X118157500Y-121400000D03*
X118157500Y-122050000D03*
X118157500Y-122700000D03*
D72*
X176325000Y-83925000D03*
X174475000Y-83925000D03*
X174475000Y-85375000D03*
X176325000Y-85375000D03*
D25*
X119337500Y-78000000D03*
X117262500Y-78000000D03*
D11*
X126837500Y-127512500D03*
X126837500Y-129587500D03*
D73*
X116000000Y-73150000D03*
X116000000Y-68050000D03*
D74*
X188800000Y-67200000D03*
X188800000Y-61800000D03*
D11*
X121700000Y-63562500D03*
X121700000Y-65637500D03*
D25*
X147137500Y-146100000D03*
X145062500Y-146100000D03*
D75*
X136800000Y-57400000D03*
X136800000Y-65800000D03*
D76*
X171200000Y-120000000D03*
X171200000Y-116800000D03*
X171200000Y-114600000D03*
X171200000Y-112400000D03*
X164460000Y-112400000D03*
X164460000Y-114600000D03*
X164460000Y-116800000D03*
X164460000Y-120000000D03*
D29*
X185800000Y-79400000D03*
X191200000Y-79400000D03*
D30*
X181962500Y-76700000D03*
X184037500Y-76700000D03*
D35*
X174750000Y-62250000D03*
D54*
X119200000Y-108000000D03*
D55*
X119200000Y-111500000D03*
D77*
X125837500Y-138200000D03*
X122862500Y-138200000D03*
D70*
X112300000Y-100500000D03*
X116600000Y-100500000D03*
D17*
X116850000Y-134150000D03*
X116850000Y-132075000D03*
D20*
X128450000Y-143950000D03*
X131250000Y-143950000D03*
D14*
X126300000Y-57900000D03*
X124300000Y-57900000D03*
D12*
X118650000Y-145800000D03*
X120650000Y-145800000D03*
D35*
X173700000Y-93150000D03*
D78*
X147800000Y-97180000D03*
X147800000Y-92180000D03*
D74*
X189450000Y-118150000D03*
X189450000Y-112750000D03*
D12*
X133800000Y-107900000D03*
X135800000Y-107900000D03*
D35*
X166650000Y-87400000D03*
D56*
X154400000Y-104350000D03*
X154400000Y-114250000D03*
D11*
X191577500Y-96662500D03*
X191577500Y-98737500D03*
D79*
X181850000Y-118700000D03*
X181850000Y-110900000D03*
D35*
X172100000Y-96900000D03*
D67*
X116600000Y-91400000D03*
X112300000Y-91400000D03*
D80*
X112700000Y-115000000D03*
D81*
X112700000Y-107380000D03*
D16*
X170900000Y-83150000D03*
X170900000Y-81150000D03*
D30*
X122325000Y-81500000D03*
X124400000Y-81500000D03*
D82*
X168700000Y-123200000D03*
X166500000Y-123200000D03*
D14*
X119300000Y-76000000D03*
X117300000Y-76000000D03*
D16*
X168900000Y-83500000D03*
X168900000Y-81500000D03*
D35*
X175550000Y-90000000D03*
D83*
X143050000Y-104100000D03*
X146150000Y-104100000D03*
D36*
X149250000Y-134100000D03*
X149250000Y-136100000D03*
D84*
X149700000Y-63300000D03*
X144300000Y-63300000D03*
D25*
X141637500Y-112300000D03*
X139562500Y-112300000D03*
D85*
X106200000Y-84280000D03*
D22*
X103660000Y-84280000D03*
X106200000Y-81740000D03*
X103660000Y-81740000D03*
X106200000Y-79200000D03*
X103660000Y-79200000D03*
X106200000Y-76660000D03*
X103660000Y-76660000D03*
X106200000Y-74120000D03*
X103660000Y-74120000D03*
D86*
X189350000Y-127100000D03*
X179450000Y-127100000D03*
D36*
X153250000Y-134100000D03*
X153250000Y-136100000D03*
D87*
X137825000Y-106595000D03*
X137825000Y-107865000D03*
X137825000Y-109135000D03*
X137825000Y-110405000D03*
X142975000Y-110405000D03*
X142975000Y-109135000D03*
X142975000Y-107865000D03*
X142975000Y-106595000D03*
M02*
