M48
; DRILL file {KiCad 7.0.9} date sob, 9 gru 2023, 13:15:19
; FORMAT={-:-/ absolute / metric / decimal}
; #@! TF.CreationDate,2023-12-09T13:15:19+01:00
; #@! TF.GenerationSoftware,Kicad,Pcbnew,7.0.9
; #@! TF.FileFunction,Plated,1,2,PTH
FMAT,2
METRIC
; #@! TA.AperFunction,Plated,PTH,ViaDrill
T1C0.250
; #@! TA.AperFunction,Plated,PTH,ComponentDrill
T2C0.300
; #@! TA.AperFunction,Plated,PTH,ViaDrill
T3C0.400
; #@! TA.AperFunction,Plated,PTH,ComponentDrill
T4C0.700
; #@! TA.AperFunction,Plated,PTH,ComponentDrill
T5C0.800
; #@! TA.AperFunction,Plated,PTH,ComponentDrill
T6C1.000
; #@! TA.AperFunction,Plated,PTH,ComponentDrill
T7C1.100
; #@! TA.AperFunction,Plated,PTH,ComponentDrill
T8C3.200
%
G90
G05
T1
X100.5Y-90.0
X100.5Y-93.5
X100.5Y-97.0
X100.5Y-100.5
X100.5Y-104.0
X100.5Y-107.5
X100.5Y-110.5
X100.5Y-114.0
X100.5Y-117.5
X100.6Y-85.9
X102.2Y-87.2
X102.5Y-90.0
X102.5Y-93.5
X102.5Y-97.0
X102.5Y-100.5
X102.5Y-104.0
X102.5Y-107.5
X102.5Y-110.5
X102.5Y-114.0
X102.5Y-117.5
X102.5Y-120.0
X102.7Y-83.0
X103.6Y-85.8
X105.0Y-120.0
X106.6Y-65.0
X106.6Y-68.1
X106.6Y-69.9
X106.6Y-73.0
X107.4Y-60.8
X107.5Y-120.0
X109.9Y-65.0
X109.9Y-68.1
X109.9Y-69.9
X109.9Y-73.0
X110.0Y-120.0
X110.4Y-62.5
X110.6Y-57.6
X112.5Y-120.0
X112.9Y-60.0
X113.8Y-59.1
X114.0Y-125.7
X115.0Y-120.0
X116.1Y-63.2
X116.1Y-78.0
X116.2Y-121.5
X116.375Y-123.925
X117.2Y-130.1
X117.5Y-120.0
X117.6Y-56.8
X118.6Y-135.4
X119.1Y-58.3
X119.3Y-131.6
X120.0Y-70.6
X120.0Y-120.0
X120.8Y-120.5
X121.0Y-70.6
X121.048Y-62.91
X121.2Y-79.5
X121.2Y-81.5
X121.4Y-57.9
X121.4Y-55.8
X121.862Y-70.6
X121.9Y-128.9
X122.0Y-60.75
X122.4Y-130.8
X122.8Y-128.0
X123.0Y-73.2
X123.325Y-67.6
X123.649Y-77.5
X123.769Y-74.269
X123.8Y-69.0
X123.8Y-72.2
X123.9Y-122.9
X124.0Y-61.088
X124.05Y-67.128
X124.4Y-142.0
X124.4Y-142.8
X124.5Y-135.0
X124.5Y-136.5
X124.5Y-137.5
X124.5Y-138.5
X124.5Y-139.5
X124.5Y-145.5
X124.5Y-146.5
X124.5Y-147.5
X124.6Y-124.6
X124.65Y-74.306
X124.7Y-122.9
X124.8Y-125.4
X125.0Y-69.0
X125.0Y-72.2
X125.35Y-73.8
X125.6Y-125.0
X125.749Y-67.425
X126.0Y-81.1
X126.4Y-131.1
X126.8Y-126.2
X126.9Y-70.1
X126.9Y-71.1
X127.0Y-81.1
X127.0Y-135.0
X127.5Y-120.0
X127.6Y-55.8
X127.6Y-57.0
X127.6Y-58.2
X127.6Y-59.4
X127.9Y-77.5
X128.6Y-62.3
X128.8Y-55.8
X128.8Y-57.0
X128.8Y-58.2
X128.8Y-59.4
X129.0Y-135.0
X129.4Y-63.8
X130.0Y-55.8
X130.0Y-57.0
X130.0Y-58.2
X130.0Y-59.4
X130.0Y-120.0
X131.0Y-135.0
X132.4Y-106.0
X132.4Y-109.9
X132.5Y-120.0
X132.5Y-122.5
X132.5Y-125.0
X132.5Y-127.5
X132.5Y-130.0
X132.6Y-111.9
X133.0Y-135.0
X133.2Y-55.6
X134.2Y-103.4
X135.0Y-130.0
X135.0Y-135.0
X137.0Y-105.4
X137.0Y-131.0
X137.0Y-133.0
X137.0Y-135.0
X137.0Y-137.5
X137.0Y-140.0
X137.0Y-142.5
X137.0Y-145.0
X137.0Y-147.5
X137.5Y-130.0
X137.8Y-103.1
X138.3Y-92.9
X138.3Y-94.0
X138.3Y-95.2
X138.3Y-96.3
X138.7Y-115.3
X138.863Y-114.0
X139.4Y-92.9
X139.4Y-94.0
X139.4Y-95.2
X139.4Y-96.3
X139.4Y-106.4
X139.6Y-109.8
X139.7Y-108.7
X140.0Y-130.0
X140.6Y-114.4
X141.4Y-109.5
X141.6Y-55.6
X141.7Y-105.4
X141.8Y-114.4
X142.5Y-130.0
X143.8Y-139.3
X143.8Y-140.5
X143.8Y-141.9
X144.15Y-111.103
X144.3Y-101.6
X144.8Y-103.3
X144.8Y-110.3
X145.0Y-130.0
X145.1Y-140.5
X146.1Y-114.0
X146.5Y-139.3
X146.5Y-140.5
X146.5Y-141.9
X147.5Y-106.1
X147.5Y-130.0
X147.7Y-139.3
X147.7Y-140.5
X147.7Y-141.9
X147.8Y-100.4
X148.05Y-107.2
X148.05Y-108.05
X148.05Y-108.9
X149.1Y-140.0
X149.1Y-141.0
X149.15Y-107.2
X149.15Y-108.05
X149.15Y-108.9
X149.35Y-143.8
X149.6Y-103.2
X149.6Y-104.2
X149.6Y-105.2
X150.0Y-130.0
X150.25Y-107.2
X150.25Y-108.05
X150.25Y-108.9
X150.4Y-103.8
X150.4Y-104.8
X150.4Y-105.8
X150.6Y-140.0
X150.6Y-141.0
X151.1Y-85.0
X151.1Y-85.9
X151.2Y-103.2
X151.2Y-104.2
X151.2Y-105.2
X151.35Y-107.2
X151.35Y-108.05
X151.35Y-108.9
X151.685Y-83.5
X151.7Y-82.7
X152.425Y-143.425
X152.5Y-130.0
X152.6Y-92.3
X152.6Y-93.3
X152.6Y-94.3
X152.6Y-106.5
X153.8Y-92.3
X153.8Y-93.3
X153.8Y-94.3
X154.588Y-83.499
X154.7Y-137.35
X154.7Y-138.2
X154.7Y-139.05
X155.0Y-92.3
X155.0Y-93.3
X155.0Y-94.3
X155.0Y-130.0
X155.1Y-82.8
X155.45Y-143.7
X155.8Y-58.4
X155.8Y-137.35
X155.8Y-138.2
X155.8Y-139.05
X156.5Y-110.8
X156.9Y-137.35
X156.9Y-138.2
X156.9Y-139.05
X157.4Y-71.0
X157.5Y-130.0
X158.0Y-137.35
X158.0Y-138.2
X158.0Y-139.05
X158.4Y-58.6
X158.4Y-63.6
X158.4Y-86.4
X158.4Y-95.6
X158.6Y-88.2
X158.6Y-100.6
X158.6Y-101.8
X158.964Y-85.002
X159.15Y-85.875
X159.4Y-92.0
X159.4Y-93.1
X159.4Y-94.2
X159.4Y-95.3
X159.9Y-69.5
X159.9Y-82.8
X160.0Y-102.8
X160.0Y-130.0
X160.25Y-92.0
X160.25Y-93.1
X160.25Y-94.2
X160.25Y-95.3
X161.1Y-92.0
X161.1Y-93.1
X161.1Y-94.2
X161.1Y-95.3
X161.4Y-73.3
X161.8Y-96.4
X162.2Y-99.8
X162.4Y-88.8
X162.4Y-90.1
X162.4Y-91.0
X162.5Y-130.0
X163.4Y-75.5
X163.701Y-86.775
X163.8Y-106.6
X164.2Y-72.0
X164.4Y-77.0
X165.0Y-130.0
X165.4Y-103.2
X166.5Y-78.3
X166.8Y-76.0
X167.25Y-83.75
X167.5Y-130.0
X167.6Y-90.1
X168.35Y-86.65
X168.6Y-96.8
X168.6Y-109.0
X169.6Y-89.15
X169.8Y-105.4
X170.0Y-91.65
X170.0Y-130.0
X170.325Y-80.049
X170.6Y-88.2
X171.2Y-74.4
X171.2Y-91.0
X171.502Y-86.502
X171.65Y-77.65
X171.65Y-78.5
X171.65Y-79.35
X172.25Y-81.5
X172.25Y-83.25
X172.75Y-77.65
X172.75Y-78.5
X172.75Y-79.35
X172.8Y-105.4
X173.0Y-82.5
X173.0Y-115.25
X173.25Y-83.75
X173.6Y-74.4
X173.85Y-77.65
X173.85Y-78.5
X173.85Y-79.35
X174.877Y-94.305
X174.95Y-77.65
X174.95Y-78.5
X174.95Y-79.35
X175.0Y-130.0
X175.0Y-132.5
X175.0Y-135.0
X175.0Y-140.0
X175.0Y-142.5
X175.0Y-145.0
X175.0Y-147.5
X175.2Y-92.205
X175.25Y-60.5
X175.25Y-64.25
X175.25Y-66.25
X175.25Y-68.5
X175.25Y-70.5
X175.75Y-74.0
X175.868Y-94.296
X176.2Y-108.0
X176.75Y-86.5
X177.0Y-58.25
X177.75Y-96.75
X179.2Y-94.4
X179.486Y-90.437
X179.918Y-89.764
X180.1Y-84.95
X180.778Y-89.705
X180.8Y-85.35
X182.2Y-89.8
X183.8Y-81.2
X183.8Y-99.4
X184.14Y-93.46
X184.2Y-102.0
X184.75Y-101.0
X184.778Y-86.705
X184.778Y-99.705
X185.0Y-81.2
X185.0Y-92.105
X185.39Y-85.802
X185.577Y-87.105
X186.031Y-85.074
X186.2Y-81.2
X186.8Y-84.4
X187.0Y-96.25
X187.726Y-92.429
X187.729Y-93.751
X187.75Y-72.7
X188.177Y-93.089
X188.239Y-90.658
X188.282Y-89.825
X188.4Y-80.4
X188.95Y-81.15
X189.0Y-101.25
X190.6Y-81.6
X190.6Y-94.2
X190.675Y-85.7
X190.778Y-100.305
X191.15Y-68.45
X191.25Y-62.5
X191.25Y-64.25
X191.25Y-65.75
X191.977Y-59.305
X192.15Y-67.8
X192.15Y-69.0
X192.25Y-61.5
X192.25Y-63.25
X192.25Y-65.0
X192.3Y-85.4
X192.75Y-107.75
X193.45Y-79.5
X193.5Y-114.0
X193.977Y-103.905
X194.4Y-79.0
X194.85Y-82.1
X196.05Y-78.05
X197.25Y-108.0
X197.25Y-113.25
X198.2Y-116.2
T2
X166.4Y-89.45
X166.65Y-87.4
X167.15Y-91.35
X169.1Y-92.2
X171.05Y-92.8
X172.1Y-94.6
X172.1Y-96.9
X173.6Y-91.0
X173.7Y-93.15
X174.75Y-62.25
X175.55Y-90.0
X178.3Y-62.3
X178.45Y-82.9
X180.6Y-83.8
X182.5Y-83.05
X184.7Y-83.7
X190.95Y-101.85
T3
X123.4Y-58.2
X127.1Y-64.4
X145.6Y-93.68
X147.051Y-90.229
X176.25Y-72.25
X177.0Y-104.0
X184.5Y-53.0
X187.6Y-89.2
T4
X112.7Y-107.38
X112.7Y-115.0
T5
X147.8Y-92.18
X147.8Y-97.18
T6
X103.66Y-74.12
X103.66Y-76.66
X103.66Y-79.2
X103.66Y-81.74
X103.66Y-84.28
X106.2Y-74.12
X106.2Y-76.66
X106.2Y-79.2
X106.2Y-81.74
X106.2Y-84.28
X106.2Y-108.118
X106.2Y-111.618
X119.2Y-108.0
X119.2Y-111.5
X194.0Y-66.0
X194.0Y-68.54
X194.0Y-71.08
X194.0Y-73.62
X194.0Y-76.16
X194.0Y-91.0
X194.0Y-93.54
X194.0Y-96.08
X194.0Y-98.62
X194.0Y-101.16
X194.0Y-123.0
X194.0Y-125.54
X194.0Y-128.08
X194.0Y-130.62
X194.0Y-133.16
X196.54Y-66.0
X196.54Y-68.54
X196.54Y-71.08
X196.54Y-73.62
X196.54Y-76.16
X196.54Y-91.0
X196.54Y-93.54
X196.54Y-96.08
X196.54Y-98.62
X196.54Y-101.16
X196.54Y-123.0
X196.54Y-125.54
X196.54Y-128.08
X196.54Y-130.62
X196.54Y-133.16
T7
X114.55Y-137.9
X114.55Y-140.44
X114.55Y-142.98
T8
X105.0Y-55.0
X105.0Y-145.0
X195.0Y-55.0
X195.0Y-145.0
T0
M30
