%TF.GenerationSoftware,KiCad,Pcbnew,7.0.10*%
%TF.CreationDate,2024-01-28T11:03:54+01:00*%
%TF.ProjectId,EuroMeasure-IonGaugeController,4575726f-4d65-4617-9375-72652d496f6e,1.1.0*%
%TF.SameCoordinates,Original*%
%TF.FileFunction,Drillmap*%
%TF.FilePolarity,Positive*%
%FSLAX45Y45*%
G04 Gerber Fmt 4.5, Leading zero omitted, Abs format (unit mm)*
G04 Created by KiCad (PCBNEW 7.0.10) date 2024-01-28 11:03:54*
%MOMM*%
%LPD*%
G01*
G04 APERTURE LIST*
%ADD10C,0.100000*%
%ADD11C,0.200000*%
%ADD12C,0.110000*%
%ADD13C,0.320000*%
G04 APERTURE END LIST*
D10*
X10000000Y-5000000D02*
X20000000Y-5000000D01*
X20000000Y-15000000D01*
X10000000Y-15000000D01*
X10000000Y-5000000D01*
D11*
D10*
X10037500Y-8987500D02*
X10062500Y-9012500D01*
X10062500Y-8987500D02*
X10037500Y-9012500D01*
X10037500Y-9337500D02*
X10062500Y-9362500D01*
X10062500Y-9337500D02*
X10037500Y-9362500D01*
X10037500Y-9687500D02*
X10062500Y-9712500D01*
X10062500Y-9687500D02*
X10037500Y-9712500D01*
X10037500Y-10037500D02*
X10062500Y-10062500D01*
X10062500Y-10037500D02*
X10037500Y-10062500D01*
X10037500Y-10387500D02*
X10062500Y-10412500D01*
X10062500Y-10387500D02*
X10037500Y-10412500D01*
X10037500Y-10737500D02*
X10062500Y-10762500D01*
X10062500Y-10737500D02*
X10037500Y-10762500D01*
X10037500Y-11037500D02*
X10062500Y-11062500D01*
X10062500Y-11037500D02*
X10037500Y-11062500D01*
X10037500Y-11387500D02*
X10062500Y-11412500D01*
X10062500Y-11387500D02*
X10037500Y-11412500D01*
X10037500Y-11737500D02*
X10062500Y-11762500D01*
X10062500Y-11737500D02*
X10037500Y-11762500D01*
X10047500Y-8577500D02*
X10072500Y-8602500D01*
X10072500Y-8577500D02*
X10047500Y-8602500D01*
X10207500Y-8707500D02*
X10232500Y-8732500D01*
X10232500Y-8707500D02*
X10207500Y-8732500D01*
X10237500Y-8987500D02*
X10262500Y-9012500D01*
X10262500Y-8987500D02*
X10237500Y-9012500D01*
X10237500Y-9337500D02*
X10262500Y-9362500D01*
X10262500Y-9337500D02*
X10237500Y-9362500D01*
X10237500Y-9687500D02*
X10262500Y-9712500D01*
X10262500Y-9687500D02*
X10237500Y-9712500D01*
X10237500Y-10037500D02*
X10262500Y-10062500D01*
X10262500Y-10037500D02*
X10237500Y-10062500D01*
X10237500Y-10387500D02*
X10262500Y-10412500D01*
X10262500Y-10387500D02*
X10237500Y-10412500D01*
X10237500Y-10737500D02*
X10262500Y-10762500D01*
X10262500Y-10737500D02*
X10237500Y-10762500D01*
X10237500Y-11037500D02*
X10262500Y-11062500D01*
X10262500Y-11037500D02*
X10237500Y-11062500D01*
X10237500Y-11387500D02*
X10262500Y-11412500D01*
X10262500Y-11387500D02*
X10237500Y-11412500D01*
X10237500Y-11737500D02*
X10262500Y-11762500D01*
X10262500Y-11737500D02*
X10237500Y-11762500D01*
X10237500Y-11987500D02*
X10262500Y-12012500D01*
X10262500Y-11987500D02*
X10237500Y-12012500D01*
X10257500Y-8287500D02*
X10282500Y-8312500D01*
X10282500Y-8287500D02*
X10257500Y-8312500D01*
X10347500Y-8567500D02*
X10372500Y-8592500D01*
X10372500Y-8567500D02*
X10347500Y-8592500D01*
X10487500Y-11987500D02*
X10512500Y-12012500D01*
X10512500Y-11987500D02*
X10487500Y-12012500D01*
X10647500Y-6487500D02*
X10672500Y-6512500D01*
X10672500Y-6487500D02*
X10647500Y-6512500D01*
X10647500Y-6797500D02*
X10672500Y-6822500D01*
X10672500Y-6797500D02*
X10647500Y-6822500D01*
X10647500Y-6977500D02*
X10672500Y-7002500D01*
X10672500Y-6977500D02*
X10647500Y-7002500D01*
X10647500Y-7287500D02*
X10672500Y-7312500D01*
X10672500Y-7287500D02*
X10647500Y-7312500D01*
X10727500Y-6067500D02*
X10752500Y-6092500D01*
X10752500Y-6067500D02*
X10727500Y-6092500D01*
X10737500Y-11987500D02*
X10762500Y-12012500D01*
X10762500Y-11987500D02*
X10737500Y-12012500D01*
X10977500Y-6487500D02*
X11002500Y-6512500D01*
X11002500Y-6487500D02*
X10977500Y-6512500D01*
X10977500Y-6797500D02*
X11002500Y-6822500D01*
X11002500Y-6797500D02*
X10977500Y-6822500D01*
X10977500Y-6977500D02*
X11002500Y-7002500D01*
X11002500Y-6977500D02*
X10977500Y-7002500D01*
X10977500Y-7287500D02*
X11002500Y-7312500D01*
X11002500Y-7287500D02*
X10977500Y-7312500D01*
X10987500Y-11987500D02*
X11012500Y-12012500D01*
X11012500Y-11987500D02*
X10987500Y-12012500D01*
X11027500Y-6237500D02*
X11052500Y-6262500D01*
X11052500Y-6237500D02*
X11027500Y-6262500D01*
X11047500Y-5747500D02*
X11072500Y-5772500D01*
X11072500Y-5747500D02*
X11047500Y-5772500D01*
X11237500Y-11987500D02*
X11262500Y-12012500D01*
X11262500Y-11987500D02*
X11237500Y-12012500D01*
X11277500Y-5987500D02*
X11302500Y-6012500D01*
X11302500Y-5987500D02*
X11277500Y-6012500D01*
X11367500Y-5897500D02*
X11392500Y-5922500D01*
X11392500Y-5897500D02*
X11367500Y-5922500D01*
X11387500Y-12557500D02*
X11412500Y-12582500D01*
X11412500Y-12557500D02*
X11387500Y-12582500D01*
X11487500Y-11987500D02*
X11512500Y-12012500D01*
X11512500Y-11987500D02*
X11487500Y-12012500D01*
X11597500Y-6307500D02*
X11622500Y-6332500D01*
X11622500Y-6307500D02*
X11597500Y-6332500D01*
X11597500Y-7787500D02*
X11622500Y-7812500D01*
X11622500Y-7787500D02*
X11597500Y-7812500D01*
X11607500Y-12137500D02*
X11632500Y-12162500D01*
X11632500Y-12137500D02*
X11607500Y-12162500D01*
X11625000Y-12380000D02*
X11650000Y-12405000D01*
X11650000Y-12380000D02*
X11625000Y-12405000D01*
X11707500Y-12997500D02*
X11732500Y-13022500D01*
X11732500Y-12997500D02*
X11707500Y-13022500D01*
X11737500Y-11987500D02*
X11762500Y-12012500D01*
X11762500Y-11987500D02*
X11737500Y-12012500D01*
X11747500Y-5667500D02*
X11772500Y-5692500D01*
X11772500Y-5667500D02*
X11747500Y-5692500D01*
X11847500Y-13527500D02*
X11872500Y-13552500D01*
X11872500Y-13527500D02*
X11847500Y-13552500D01*
X11897500Y-5817500D02*
X11922500Y-5842500D01*
X11922500Y-5817500D02*
X11897500Y-5842500D01*
X11917500Y-13147500D02*
X11942500Y-13172500D01*
X11942500Y-13147500D02*
X11917500Y-13172500D01*
X11987500Y-7047500D02*
X12012500Y-7072500D01*
X12012500Y-7047500D02*
X11987500Y-7072500D01*
X11987500Y-11987500D02*
X12012500Y-12012500D01*
X12012500Y-11987500D02*
X11987500Y-12012500D01*
X12067500Y-12037500D02*
X12092500Y-12062500D01*
X12092500Y-12037500D02*
X12067500Y-12062500D01*
X12087500Y-7047500D02*
X12112500Y-7072500D01*
X12112500Y-7047500D02*
X12087500Y-7072500D01*
X12092263Y-6278513D02*
X12117263Y-6303513D01*
X12117263Y-6278513D02*
X12092263Y-6303513D01*
X12107500Y-7937500D02*
X12132500Y-7962500D01*
X12132500Y-7937500D02*
X12107500Y-7962500D01*
X12107500Y-8137500D02*
X12132500Y-8162500D01*
X12132500Y-8137500D02*
X12107500Y-8162500D01*
X12127500Y-5777500D02*
X12152500Y-5802500D01*
X12152500Y-5777500D02*
X12127500Y-5802500D01*
X12127550Y-5567500D02*
X12152550Y-5592500D01*
X12152550Y-5567500D02*
X12127550Y-5592500D01*
X12173686Y-7047482D02*
X12198686Y-7072482D01*
X12198686Y-7047482D02*
X12173686Y-7072482D01*
X12177500Y-12877500D02*
X12202500Y-12902500D01*
X12202500Y-12877500D02*
X12177500Y-12902500D01*
X12187500Y-6062550D02*
X12212500Y-6087550D01*
X12212500Y-6062550D02*
X12187500Y-6087550D01*
X12227500Y-13067500D02*
X12252500Y-13092500D01*
X12252500Y-13067500D02*
X12227500Y-13092500D01*
X12267500Y-12787500D02*
X12292500Y-12812500D01*
X12292500Y-12787500D02*
X12267500Y-12812500D01*
X12287500Y-7307500D02*
X12312500Y-7332500D01*
X12312500Y-7307500D02*
X12287500Y-7332500D01*
X12319950Y-6747500D02*
X12344950Y-6772500D01*
X12344950Y-6747500D02*
X12319950Y-6772500D01*
X12352450Y-7737500D02*
X12377450Y-7762500D01*
X12377450Y-7737500D02*
X12352450Y-7762500D01*
X12364389Y-7414389D02*
X12389389Y-7439389D01*
X12389389Y-7414389D02*
X12364389Y-7439389D01*
X12367500Y-6887500D02*
X12392500Y-6912500D01*
X12392500Y-6887500D02*
X12367500Y-6912500D01*
X12367500Y-7207500D02*
X12392500Y-7232500D01*
X12392500Y-7207500D02*
X12367500Y-7232500D01*
X12377500Y-12277500D02*
X12402500Y-12302500D01*
X12402500Y-12277500D02*
X12377500Y-12302500D01*
X12387500Y-6096300D02*
X12412500Y-6121300D01*
X12412500Y-6096300D02*
X12387500Y-6121300D01*
X12392550Y-6700338D02*
X12417550Y-6725338D01*
X12417550Y-6700338D02*
X12392550Y-6725338D01*
X12427500Y-14187500D02*
X12452500Y-14212500D01*
X12452500Y-14187500D02*
X12427500Y-14212500D01*
X12427500Y-14267500D02*
X12452500Y-14292500D01*
X12452500Y-14267500D02*
X12427500Y-14292500D01*
X12437500Y-13487500D02*
X12462500Y-13512500D01*
X12462500Y-13487500D02*
X12437500Y-13512500D01*
X12437500Y-13637500D02*
X12462500Y-13662500D01*
X12462500Y-13637500D02*
X12437500Y-13662500D01*
X12437500Y-13737500D02*
X12462500Y-13762500D01*
X12462500Y-13737500D02*
X12437500Y-13762500D01*
X12437500Y-13837500D02*
X12462500Y-13862500D01*
X12462500Y-13837500D02*
X12437500Y-13862500D01*
X12437500Y-13937500D02*
X12462500Y-13962500D01*
X12462500Y-13937500D02*
X12437500Y-13962500D01*
X12437500Y-14537500D02*
X12462500Y-14562500D01*
X12462500Y-14537500D02*
X12437500Y-14562500D01*
X12437500Y-14637500D02*
X12462500Y-14662500D01*
X12462500Y-14637500D02*
X12437500Y-14662500D01*
X12437500Y-14737500D02*
X12462500Y-14762500D01*
X12462500Y-14737500D02*
X12437500Y-14762500D01*
X12447500Y-12447500D02*
X12472500Y-12472500D01*
X12472500Y-12447500D02*
X12447500Y-12472500D01*
X12452500Y-7418130D02*
X12477500Y-7443130D01*
X12477500Y-7418130D02*
X12452500Y-7443130D01*
X12457500Y-12277500D02*
X12482500Y-12302500D01*
X12482500Y-12277500D02*
X12457500Y-12302500D01*
X12467500Y-12527500D02*
X12492500Y-12552500D01*
X12492500Y-12527500D02*
X12467500Y-12552500D01*
X12487500Y-6887500D02*
X12512500Y-6912500D01*
X12512500Y-6887500D02*
X12487500Y-6912500D01*
X12487500Y-7207500D02*
X12512500Y-7232500D01*
X12512500Y-7207500D02*
X12487500Y-7232500D01*
X12522550Y-7367500D02*
X12547550Y-7392500D01*
X12547550Y-7367500D02*
X12522550Y-7392500D01*
X12547500Y-12487500D02*
X12572500Y-12512500D01*
X12572500Y-12487500D02*
X12547500Y-12512500D01*
X12562450Y-6730000D02*
X12587450Y-6755000D01*
X12587450Y-6730000D02*
X12562450Y-6755000D01*
X12587500Y-8097500D02*
X12612500Y-8122500D01*
X12612500Y-8097500D02*
X12587500Y-8122500D01*
X12627500Y-13097500D02*
X12652500Y-13122500D01*
X12652500Y-13097500D02*
X12627500Y-13122500D01*
X12667500Y-12607500D02*
X12692500Y-12632500D01*
X12692500Y-12607500D02*
X12667500Y-12632500D01*
X12677500Y-6997500D02*
X12702500Y-7022500D01*
X12702500Y-6997500D02*
X12677500Y-7022500D01*
X12677500Y-7097500D02*
X12702500Y-7122500D01*
X12702500Y-7097500D02*
X12677500Y-7122500D01*
X12687500Y-8097500D02*
X12712500Y-8122500D01*
X12712500Y-8097500D02*
X12687500Y-8122500D01*
X12687500Y-13487500D02*
X12712500Y-13512500D01*
X12712500Y-13487500D02*
X12687500Y-13512500D01*
X12737500Y-11987500D02*
X12762500Y-12012500D01*
X12762500Y-11987500D02*
X12737500Y-12012500D01*
X12747500Y-5567500D02*
X12772500Y-5592500D01*
X12772500Y-5567500D02*
X12747500Y-5592500D01*
X12747500Y-5687500D02*
X12772500Y-5712500D01*
X12772500Y-5687500D02*
X12747500Y-5712500D01*
X12747500Y-5807500D02*
X12772500Y-5832500D01*
X12772500Y-5807500D02*
X12747500Y-5832500D01*
X12747500Y-5927500D02*
X12772500Y-5952500D01*
X12772500Y-5927500D02*
X12747500Y-5952500D01*
X12777500Y-7737500D02*
X12802500Y-7762500D01*
X12802500Y-7737500D02*
X12777500Y-7762500D01*
X12847500Y-6217500D02*
X12872500Y-6242500D01*
X12872500Y-6217500D02*
X12847500Y-6242500D01*
X12867500Y-5567500D02*
X12892500Y-5592500D01*
X12892500Y-5567500D02*
X12867500Y-5592500D01*
X12867500Y-5687500D02*
X12892500Y-5712500D01*
X12892500Y-5687500D02*
X12867500Y-5712500D01*
X12867500Y-5807500D02*
X12892500Y-5832500D01*
X12892500Y-5807500D02*
X12867500Y-5832500D01*
X12867500Y-5927500D02*
X12892500Y-5952500D01*
X12892500Y-5927500D02*
X12867500Y-5952500D01*
X12887500Y-13487500D02*
X12912500Y-13512500D01*
X12912500Y-13487500D02*
X12887500Y-13512500D01*
X12927500Y-6367500D02*
X12952500Y-6392500D01*
X12952500Y-6367500D02*
X12927500Y-6392500D01*
X12987500Y-5567500D02*
X13012500Y-5592500D01*
X13012500Y-5567500D02*
X12987500Y-5592500D01*
X12987500Y-5687500D02*
X13012500Y-5712500D01*
X13012500Y-5687500D02*
X12987500Y-5712500D01*
X12987500Y-5807500D02*
X13012500Y-5832500D01*
X13012500Y-5807500D02*
X12987500Y-5832500D01*
X12987500Y-5927500D02*
X13012500Y-5952500D01*
X13012500Y-5927500D02*
X12987500Y-5952500D01*
X12987500Y-11987500D02*
X13012500Y-12012500D01*
X13012500Y-11987500D02*
X12987500Y-12012500D01*
X13087500Y-13487500D02*
X13112500Y-13512500D01*
X13112500Y-13487500D02*
X13087500Y-13512500D01*
X13227500Y-10587500D02*
X13252500Y-10612500D01*
X13252500Y-10587500D02*
X13227500Y-10612500D01*
X13237500Y-11987500D02*
X13262500Y-12012500D01*
X13262500Y-11987500D02*
X13237500Y-12012500D01*
X13237500Y-12237500D02*
X13262500Y-12262500D01*
X13262500Y-12237500D02*
X13237500Y-12262500D01*
X13237500Y-12487500D02*
X13262500Y-12512500D01*
X13262500Y-12487500D02*
X13237500Y-12512500D01*
X13237500Y-12737500D02*
X13262500Y-12762500D01*
X13262500Y-12737500D02*
X13237500Y-12762500D01*
X13237500Y-12987500D02*
X13262500Y-13012500D01*
X13262500Y-12987500D02*
X13237500Y-13012500D01*
X13247500Y-11177500D02*
X13272500Y-11202500D01*
X13272500Y-11177500D02*
X13247500Y-11202500D01*
X13287500Y-13487500D02*
X13312500Y-13512500D01*
X13312500Y-13487500D02*
X13287500Y-13512500D01*
X13307500Y-5547500D02*
X13332500Y-5572500D01*
X13332500Y-5547500D02*
X13307500Y-5572500D01*
X13407500Y-10327500D02*
X13432500Y-10352500D01*
X13432500Y-10327500D02*
X13407500Y-10352500D01*
X13487500Y-12987500D02*
X13512500Y-13012500D01*
X13512500Y-12987500D02*
X13487500Y-13012500D01*
X13487500Y-13487500D02*
X13512500Y-13512500D01*
X13512500Y-13487500D02*
X13487500Y-13512500D01*
X13687500Y-10527500D02*
X13712500Y-10552500D01*
X13712500Y-10527500D02*
X13687500Y-10552500D01*
X13687500Y-13087500D02*
X13712500Y-13112500D01*
X13712500Y-13087500D02*
X13687500Y-13112500D01*
X13687500Y-13287500D02*
X13712500Y-13312500D01*
X13712500Y-13287500D02*
X13687500Y-13312500D01*
X13687500Y-13487500D02*
X13712500Y-13512500D01*
X13712500Y-13487500D02*
X13687500Y-13512500D01*
X13687500Y-13737500D02*
X13712500Y-13762500D01*
X13712500Y-13737500D02*
X13687500Y-13762500D01*
X13687500Y-13987500D02*
X13712500Y-14012500D01*
X13712500Y-13987500D02*
X13687500Y-14012500D01*
X13687500Y-14237500D02*
X13712500Y-14262500D01*
X13712500Y-14237500D02*
X13687500Y-14262500D01*
X13687500Y-14487500D02*
X13712500Y-14512500D01*
X13712500Y-14487500D02*
X13687500Y-14512500D01*
X13687500Y-14737500D02*
X13712500Y-14762500D01*
X13712500Y-14737500D02*
X13687500Y-14762500D01*
X13737500Y-12987500D02*
X13762500Y-13012500D01*
X13762500Y-12987500D02*
X13737500Y-13012500D01*
X13767500Y-10297500D02*
X13792500Y-10322500D01*
X13792500Y-10297500D02*
X13767500Y-10322500D01*
X13817500Y-9277500D02*
X13842500Y-9302500D01*
X13842500Y-9277500D02*
X13817500Y-9302500D01*
X13817500Y-9387500D02*
X13842500Y-9412500D01*
X13842500Y-9387500D02*
X13817500Y-9412500D01*
X13817500Y-9507500D02*
X13842500Y-9532500D01*
X13842500Y-9507500D02*
X13817500Y-9532500D01*
X13817500Y-9617500D02*
X13842500Y-9642500D01*
X13842500Y-9617500D02*
X13817500Y-9642500D01*
X13857500Y-11517500D02*
X13882500Y-11542500D01*
X13882500Y-11517500D02*
X13857500Y-11542500D01*
X13873800Y-11387500D02*
X13898800Y-11412500D01*
X13898800Y-11387500D02*
X13873800Y-11412500D01*
X13927500Y-9277500D02*
X13952500Y-9302500D01*
X13952500Y-9277500D02*
X13927500Y-9302500D01*
X13927500Y-9387500D02*
X13952500Y-9412500D01*
X13952500Y-9387500D02*
X13927500Y-9412500D01*
X13927500Y-9507500D02*
X13952500Y-9532500D01*
X13952500Y-9507500D02*
X13927500Y-9532500D01*
X13927500Y-9617500D02*
X13952500Y-9642500D01*
X13952500Y-9617500D02*
X13927500Y-9642500D01*
X13927500Y-10627500D02*
X13952500Y-10652500D01*
X13952500Y-10627500D02*
X13927500Y-10652500D01*
X13947500Y-10967500D02*
X13972500Y-10992500D01*
X13972500Y-10967500D02*
X13947500Y-10992500D01*
X13957500Y-10857500D02*
X13982500Y-10882500D01*
X13982500Y-10857500D02*
X13957500Y-10882500D01*
X13987500Y-12987500D02*
X14012500Y-13012500D01*
X14012500Y-12987500D02*
X13987500Y-13012500D01*
X14047500Y-11427500D02*
X14072500Y-11452500D01*
X14072500Y-11427500D02*
X14047500Y-11452500D01*
X14127500Y-10937500D02*
X14152500Y-10962500D01*
X14152500Y-10937500D02*
X14127500Y-10962500D01*
X14147500Y-5547500D02*
X14172500Y-5572500D01*
X14172500Y-5547500D02*
X14147500Y-5572500D01*
X14157500Y-10527500D02*
X14182500Y-10552500D01*
X14182500Y-10527500D02*
X14157500Y-10552500D01*
X14167500Y-11427500D02*
X14192500Y-11452500D01*
X14192500Y-11427500D02*
X14167500Y-11452500D01*
X14237500Y-12987500D02*
X14262500Y-13012500D01*
X14262500Y-12987500D02*
X14237500Y-13012500D01*
X14367500Y-13917500D02*
X14392500Y-13942500D01*
X14392500Y-13917500D02*
X14367500Y-13942500D01*
X14367500Y-14037500D02*
X14392500Y-14062500D01*
X14392500Y-14037500D02*
X14367500Y-14062500D01*
X14367500Y-14177500D02*
X14392500Y-14202500D01*
X14392500Y-14177500D02*
X14367500Y-14202500D01*
X14402500Y-11097831D02*
X14427500Y-11122831D01*
X14427500Y-11097831D02*
X14402500Y-11122831D01*
X14417500Y-10147500D02*
X14442500Y-10172500D01*
X14442500Y-10147500D02*
X14417500Y-10172500D01*
X14467500Y-10317500D02*
X14492500Y-10342500D01*
X14492500Y-10317500D02*
X14467500Y-10342500D01*
X14467500Y-11017500D02*
X14492500Y-11042500D01*
X14492500Y-11017500D02*
X14467500Y-11042500D01*
X14487500Y-12987500D02*
X14512500Y-13012500D01*
X14512500Y-12987500D02*
X14487500Y-13012500D01*
X14497500Y-14037500D02*
X14522500Y-14062500D01*
X14522500Y-14037500D02*
X14497500Y-14062500D01*
X14597500Y-11387500D02*
X14622500Y-11412500D01*
X14622500Y-11387500D02*
X14597500Y-11412500D01*
X14637500Y-13917500D02*
X14662500Y-13942500D01*
X14662500Y-13917500D02*
X14637500Y-13942500D01*
X14637500Y-14037500D02*
X14662500Y-14062500D01*
X14662500Y-14037500D02*
X14637500Y-14062500D01*
X14637500Y-14177500D02*
X14662500Y-14202500D01*
X14662500Y-14177500D02*
X14637500Y-14202500D01*
X14737500Y-10597500D02*
X14762500Y-10622500D01*
X14762500Y-10597500D02*
X14737500Y-10622500D01*
X14737500Y-12987500D02*
X14762500Y-13012500D01*
X14762500Y-12987500D02*
X14737500Y-13012500D01*
X14757500Y-13917500D02*
X14782500Y-13942500D01*
X14782500Y-13917500D02*
X14757500Y-13942500D01*
X14757500Y-14037500D02*
X14782500Y-14062500D01*
X14782500Y-14037500D02*
X14757500Y-14062500D01*
X14757500Y-14177500D02*
X14782500Y-14202500D01*
X14782500Y-14177500D02*
X14757500Y-14202500D01*
X14767500Y-10027500D02*
X14792500Y-10052500D01*
X14792500Y-10027500D02*
X14767500Y-10052500D01*
X14772500Y-11117500D02*
X14797500Y-11142500D01*
X14797500Y-11117500D02*
X14772500Y-11142500D01*
X14792500Y-10707500D02*
X14817500Y-10732500D01*
X14817500Y-10707500D02*
X14792500Y-10732500D01*
X14792500Y-10792500D02*
X14817500Y-10817500D01*
X14817500Y-10792500D02*
X14792500Y-10817500D01*
X14792500Y-10877500D02*
X14817500Y-10902500D01*
X14817500Y-10877500D02*
X14792500Y-10902500D01*
X14897500Y-13987500D02*
X14922500Y-14012500D01*
X14922500Y-13987500D02*
X14897500Y-14012500D01*
X14897500Y-14087500D02*
X14922500Y-14112500D01*
X14922500Y-14087500D02*
X14897500Y-14112500D01*
X14902500Y-10707500D02*
X14927500Y-10732500D01*
X14927500Y-10707500D02*
X14902500Y-10732500D01*
X14902500Y-10792500D02*
X14927500Y-10817500D01*
X14927500Y-10792500D02*
X14902500Y-10817500D01*
X14902500Y-10877500D02*
X14927500Y-10902500D01*
X14927500Y-10877500D02*
X14902500Y-10902500D01*
X14922500Y-14367500D02*
X14947500Y-14392500D01*
X14947500Y-14367500D02*
X14922500Y-14392500D01*
X14947500Y-10307500D02*
X14972500Y-10332500D01*
X14972500Y-10307500D02*
X14947500Y-10332500D01*
X14947500Y-10407500D02*
X14972500Y-10432500D01*
X14972500Y-10407500D02*
X14947500Y-10432500D01*
X14947500Y-10507500D02*
X14972500Y-10532500D01*
X14972500Y-10507500D02*
X14947500Y-10532500D01*
X14987500Y-12987500D02*
X15012500Y-13012500D01*
X15012500Y-12987500D02*
X14987500Y-13012500D01*
X15012500Y-10707500D02*
X15037500Y-10732500D01*
X15037500Y-10707500D02*
X15012500Y-10732500D01*
X15012500Y-10792500D02*
X15037500Y-10817500D01*
X15037500Y-10792500D02*
X15012500Y-10817500D01*
X15012500Y-10877500D02*
X15037500Y-10902500D01*
X15037500Y-10877500D02*
X15012500Y-10902500D01*
X15027500Y-10367500D02*
X15052500Y-10392500D01*
X15052500Y-10367500D02*
X15027500Y-10392500D01*
X15027500Y-10467500D02*
X15052500Y-10492500D01*
X15052500Y-10467500D02*
X15027500Y-10492500D01*
X15027500Y-10567500D02*
X15052500Y-10592500D01*
X15052500Y-10567500D02*
X15027500Y-10592500D01*
X15047500Y-13987500D02*
X15072500Y-14012500D01*
X15072500Y-13987500D02*
X15047500Y-14012500D01*
X15047500Y-14087500D02*
X15072500Y-14112500D01*
X15072500Y-14087500D02*
X15047500Y-14112500D01*
X15097500Y-8487500D02*
X15122500Y-8512500D01*
X15122500Y-8487500D02*
X15097500Y-8512500D01*
X15097500Y-8577500D02*
X15122500Y-8602500D01*
X15122500Y-8577500D02*
X15097500Y-8602500D01*
X15107500Y-10307500D02*
X15132500Y-10332500D01*
X15132500Y-10307500D02*
X15107500Y-10332500D01*
X15107500Y-10407500D02*
X15132500Y-10432500D01*
X15132500Y-10407500D02*
X15107500Y-10432500D01*
X15107500Y-10507500D02*
X15132500Y-10532500D01*
X15132500Y-10507500D02*
X15107500Y-10532500D01*
X15122500Y-10707500D02*
X15147500Y-10732500D01*
X15147500Y-10707500D02*
X15122500Y-10732500D01*
X15122500Y-10792500D02*
X15147500Y-10817500D01*
X15147500Y-10792500D02*
X15122500Y-10817500D01*
X15122500Y-10877500D02*
X15147500Y-10902500D01*
X15147500Y-10877500D02*
X15122500Y-10902500D01*
X15155988Y-8337486D02*
X15180988Y-8362486D01*
X15180988Y-8337486D02*
X15155988Y-8362486D01*
X15157500Y-8257550D02*
X15182500Y-8282550D01*
X15182500Y-8257550D02*
X15157500Y-8282550D01*
X15230000Y-14330000D02*
X15255000Y-14355000D01*
X15255000Y-14330000D02*
X15230000Y-14355000D01*
X15237500Y-12987500D02*
X15262500Y-13012500D01*
X15262500Y-12987500D02*
X15237500Y-13012500D01*
X15247500Y-9217500D02*
X15272500Y-9242500D01*
X15272500Y-9217500D02*
X15247500Y-9242500D01*
X15247500Y-9317500D02*
X15272500Y-9342500D01*
X15272500Y-9317500D02*
X15247500Y-9342500D01*
X15247500Y-9417500D02*
X15272500Y-9442500D01*
X15272500Y-9417500D02*
X15247500Y-9442500D01*
X15247500Y-10637500D02*
X15272500Y-10662500D01*
X15272500Y-10637500D02*
X15247500Y-10662500D01*
X15367500Y-9217500D02*
X15392500Y-9242500D01*
X15392500Y-9217500D02*
X15367500Y-9242500D01*
X15367500Y-9317500D02*
X15392500Y-9342500D01*
X15392500Y-9317500D02*
X15367500Y-9342500D01*
X15367500Y-9417500D02*
X15392500Y-9442500D01*
X15392500Y-9417500D02*
X15367500Y-9442500D01*
X15446317Y-8337450D02*
X15471317Y-8362450D01*
X15471317Y-8337450D02*
X15446317Y-8362450D01*
X15457500Y-13722500D02*
X15482500Y-13747500D01*
X15482500Y-13722500D02*
X15457500Y-13747500D01*
X15457500Y-13807500D02*
X15482500Y-13832500D01*
X15482500Y-13807500D02*
X15457500Y-13832500D01*
X15457500Y-13892500D02*
X15482500Y-13917500D01*
X15482500Y-13892500D02*
X15457500Y-13917500D01*
X15487500Y-9217500D02*
X15512500Y-9242500D01*
X15512500Y-9217500D02*
X15487500Y-9242500D01*
X15487500Y-9317500D02*
X15512500Y-9342500D01*
X15512500Y-9317500D02*
X15487500Y-9342500D01*
X15487500Y-9417500D02*
X15512500Y-9442500D01*
X15512500Y-9417500D02*
X15487500Y-9442500D01*
X15487500Y-12987500D02*
X15512500Y-13012500D01*
X15512500Y-12987500D02*
X15487500Y-13012500D01*
X15497500Y-8267500D02*
X15522500Y-8292500D01*
X15522500Y-8267500D02*
X15497500Y-8292500D01*
X15532500Y-14357500D02*
X15557500Y-14382500D01*
X15557500Y-14357500D02*
X15532500Y-14382500D01*
X15567500Y-5827500D02*
X15592500Y-5852500D01*
X15592500Y-5827500D02*
X15567500Y-5852500D01*
X15567500Y-13722500D02*
X15592500Y-13747500D01*
X15592500Y-13722500D02*
X15567500Y-13747500D01*
X15567500Y-13807500D02*
X15592500Y-13832500D01*
X15592500Y-13807500D02*
X15567500Y-13832500D01*
X15567500Y-13892500D02*
X15592500Y-13917500D01*
X15592500Y-13892500D02*
X15567500Y-13917500D01*
X15637500Y-11067500D02*
X15662500Y-11092500D01*
X15662500Y-11067500D02*
X15637500Y-11092500D01*
X15677500Y-13722500D02*
X15702500Y-13747500D01*
X15702500Y-13722500D02*
X15677500Y-13747500D01*
X15677500Y-13807500D02*
X15702500Y-13832500D01*
X15702500Y-13807500D02*
X15677500Y-13832500D01*
X15677500Y-13892500D02*
X15702500Y-13917500D01*
X15702500Y-13892500D02*
X15677500Y-13917500D01*
X15727500Y-7087500D02*
X15752500Y-7112500D01*
X15752500Y-7087500D02*
X15727500Y-7112500D01*
X15737500Y-12987500D02*
X15762500Y-13012500D01*
X15762500Y-12987500D02*
X15737500Y-13012500D01*
X15787500Y-13722500D02*
X15812500Y-13747500D01*
X15812500Y-13722500D02*
X15787500Y-13747500D01*
X15787500Y-13807500D02*
X15812500Y-13832500D01*
X15812500Y-13807500D02*
X15787500Y-13832500D01*
X15787500Y-13892500D02*
X15812500Y-13917500D01*
X15812500Y-13892500D02*
X15787500Y-13917500D01*
X15827500Y-5847500D02*
X15852500Y-5872500D01*
X15852500Y-5847500D02*
X15827500Y-5872500D01*
X15827500Y-6347500D02*
X15852500Y-6372500D01*
X15852500Y-6347500D02*
X15827500Y-6372500D01*
X15827500Y-8627500D02*
X15852500Y-8652500D01*
X15852500Y-8627500D02*
X15827500Y-8652500D01*
X15827500Y-9547500D02*
X15852500Y-9572500D01*
X15852500Y-9547500D02*
X15827500Y-9572500D01*
X15847500Y-8807500D02*
X15872500Y-8832500D01*
X15872500Y-8807500D02*
X15847500Y-8832500D01*
X15847500Y-10047500D02*
X15872500Y-10072500D01*
X15872500Y-10047500D02*
X15847500Y-10072500D01*
X15847500Y-10167500D02*
X15872500Y-10192500D01*
X15872500Y-10167500D02*
X15847500Y-10192500D01*
X15883892Y-8487669D02*
X15908892Y-8512669D01*
X15908892Y-8487669D02*
X15883892Y-8512669D01*
X15902500Y-8575000D02*
X15927500Y-8600000D01*
X15927500Y-8575000D02*
X15902500Y-8600000D01*
X15927500Y-9187500D02*
X15952500Y-9212500D01*
X15952500Y-9187500D02*
X15927500Y-9212500D01*
X15927500Y-9297500D02*
X15952500Y-9322500D01*
X15952500Y-9297500D02*
X15927500Y-9322500D01*
X15927500Y-9407500D02*
X15952500Y-9432500D01*
X15952500Y-9407500D02*
X15927500Y-9432500D01*
X15927500Y-9517500D02*
X15952500Y-9542500D01*
X15952500Y-9517500D02*
X15927500Y-9542500D01*
X15977500Y-6937500D02*
X16002500Y-6962500D01*
X16002500Y-6937500D02*
X15977500Y-6962500D01*
X15977500Y-8267500D02*
X16002500Y-8292500D01*
X16002500Y-8267500D02*
X15977500Y-8292500D01*
X15987500Y-10267500D02*
X16012500Y-10292500D01*
X16012500Y-10267500D02*
X15987500Y-10292500D01*
X15987500Y-12987500D02*
X16012500Y-13012500D01*
X16012500Y-12987500D02*
X15987500Y-13012500D01*
X16012500Y-9187500D02*
X16037500Y-9212500D01*
X16037500Y-9187500D02*
X16012500Y-9212500D01*
X16012500Y-9297500D02*
X16037500Y-9322500D01*
X16037500Y-9297500D02*
X16012500Y-9322500D01*
X16012500Y-9407500D02*
X16037500Y-9432500D01*
X16037500Y-9407500D02*
X16012500Y-9432500D01*
X16012500Y-9517500D02*
X16037500Y-9542500D01*
X16037500Y-9517500D02*
X16012500Y-9542500D01*
X16097500Y-9187500D02*
X16122500Y-9212500D01*
X16122500Y-9187500D02*
X16097500Y-9212500D01*
X16097500Y-9297500D02*
X16122500Y-9322500D01*
X16122500Y-9297500D02*
X16097500Y-9322500D01*
X16097500Y-9407500D02*
X16122500Y-9432500D01*
X16122500Y-9407500D02*
X16097500Y-9432500D01*
X16097500Y-9517500D02*
X16122500Y-9542500D01*
X16122500Y-9517500D02*
X16097500Y-9542500D01*
X16127500Y-7317500D02*
X16152500Y-7342500D01*
X16152500Y-7317500D02*
X16127500Y-7342500D01*
X16167500Y-9627500D02*
X16192500Y-9652500D01*
X16192500Y-9627500D02*
X16167500Y-9652500D01*
X16207500Y-9967500D02*
X16232500Y-9992500D01*
X16232500Y-9967500D02*
X16207500Y-9992500D01*
X16227550Y-8867500D02*
X16252550Y-8892500D01*
X16252550Y-8867500D02*
X16227550Y-8892500D01*
X16227550Y-8997500D02*
X16252550Y-9022500D01*
X16252550Y-8997500D02*
X16227550Y-9022500D01*
X16227550Y-9087500D02*
X16252550Y-9112500D01*
X16252550Y-9087500D02*
X16227550Y-9112500D01*
X16237500Y-12987500D02*
X16262500Y-13012500D01*
X16262500Y-12987500D02*
X16237500Y-13012500D01*
X16327500Y-7537500D02*
X16352500Y-7562500D01*
X16352500Y-7537500D02*
X16327500Y-7562500D01*
X16357550Y-8665000D02*
X16382550Y-8690000D01*
X16382550Y-8665000D02*
X16357550Y-8690000D01*
X16367500Y-10647500D02*
X16392500Y-10672500D01*
X16392500Y-10647500D02*
X16367500Y-10672500D01*
X16407500Y-7187500D02*
X16432500Y-7212500D01*
X16432500Y-7187500D02*
X16407500Y-7212500D01*
X16427500Y-7687500D02*
X16452500Y-7712500D01*
X16452500Y-7687500D02*
X16427500Y-7712500D01*
X16487500Y-12987500D02*
X16512500Y-13012500D01*
X16512500Y-12987500D02*
X16487500Y-13012500D01*
X16527500Y-10307500D02*
X16552500Y-10332500D01*
X16552500Y-10307500D02*
X16527500Y-10332500D01*
X16637500Y-7817500D02*
X16662500Y-7842500D01*
X16662500Y-7817500D02*
X16637500Y-7842500D01*
X16667500Y-7587500D02*
X16692500Y-7612500D01*
X16692500Y-7587500D02*
X16667500Y-7612500D01*
X16712500Y-8362500D02*
X16737500Y-8387500D01*
X16737500Y-8362500D02*
X16712500Y-8387500D01*
X16737500Y-12987500D02*
X16762500Y-13012500D01*
X16762500Y-12987500D02*
X16737500Y-13012500D01*
X16747500Y-8997500D02*
X16772500Y-9022500D01*
X16772500Y-8997500D02*
X16747500Y-9022500D01*
X16822500Y-8652500D02*
X16847500Y-8677500D01*
X16847500Y-8652500D02*
X16822500Y-8677500D01*
X16847500Y-9667500D02*
X16872500Y-9692500D01*
X16872500Y-9667500D02*
X16847500Y-9692500D01*
X16847500Y-10887500D02*
X16872500Y-10912500D01*
X16872500Y-10887500D02*
X16847500Y-10912500D01*
X16947500Y-8902500D02*
X16972500Y-8927500D01*
X16972500Y-8902500D02*
X16947500Y-8927500D01*
X16967500Y-10527500D02*
X16992500Y-10552500D01*
X16992500Y-10527500D02*
X16967500Y-10552500D01*
X16987500Y-9152500D02*
X17012500Y-9177500D01*
X17012500Y-9152500D02*
X16987500Y-9177500D01*
X16987500Y-12987500D02*
X17012500Y-13012500D01*
X17012500Y-12987500D02*
X16987500Y-13012500D01*
X17020000Y-7992450D02*
X17045000Y-8017450D01*
X17045000Y-7992450D02*
X17020000Y-8017450D01*
X17047500Y-8807500D02*
X17072500Y-8832500D01*
X17072500Y-8807500D02*
X17047500Y-8832500D01*
X17107500Y-7427500D02*
X17132500Y-7452500D01*
X17132500Y-7427500D02*
X17107500Y-7452500D01*
X17107500Y-9087500D02*
X17132500Y-9112500D01*
X17132500Y-9087500D02*
X17107500Y-9112500D01*
X17107500Y-12147500D02*
X17132500Y-12172500D01*
X17132500Y-12147500D02*
X17107500Y-12172500D01*
X17137656Y-8637733D02*
X17162656Y-8662733D01*
X17162656Y-8637733D02*
X17137656Y-8662733D01*
X17152500Y-7752500D02*
X17177500Y-7777500D01*
X17177500Y-7752500D02*
X17152500Y-7777500D01*
X17152500Y-7837500D02*
X17177500Y-7862500D01*
X17177500Y-7837500D02*
X17152500Y-7862500D01*
X17152500Y-7922500D02*
X17177500Y-7947500D01*
X17177500Y-7922500D02*
X17152500Y-7947500D01*
X17212500Y-8137500D02*
X17237500Y-8162500D01*
X17237500Y-8137500D02*
X17212500Y-8162500D01*
X17212500Y-8312500D02*
X17237500Y-8337500D01*
X17237500Y-8312500D02*
X17212500Y-8337500D01*
X17262500Y-7752500D02*
X17287500Y-7777500D01*
X17287500Y-7752500D02*
X17262500Y-7777500D01*
X17262500Y-7837500D02*
X17287500Y-7862500D01*
X17287500Y-7837500D02*
X17262500Y-7862500D01*
X17262500Y-7922500D02*
X17287500Y-7947500D01*
X17287500Y-7922500D02*
X17262500Y-7947500D01*
X17267500Y-10527500D02*
X17292500Y-10552500D01*
X17292500Y-10527500D02*
X17267500Y-10552500D01*
X17287500Y-8237500D02*
X17312500Y-8262500D01*
X17312500Y-8237500D02*
X17287500Y-8262500D01*
X17287500Y-11512500D02*
X17312500Y-11537500D01*
X17312500Y-11512500D02*
X17287500Y-11537500D01*
X17312500Y-8362500D02*
X17337500Y-8387500D01*
X17337500Y-8362500D02*
X17312500Y-8387500D01*
X17347500Y-7427500D02*
X17372500Y-7452500D01*
X17372500Y-7427500D02*
X17347500Y-7452500D01*
X17372500Y-7752500D02*
X17397500Y-7777500D01*
X17397500Y-7752500D02*
X17372500Y-7777500D01*
X17372500Y-7837500D02*
X17397500Y-7862500D01*
X17397500Y-7837500D02*
X17372500Y-7862500D01*
X17372500Y-7922500D02*
X17397500Y-7947500D01*
X17397500Y-7922500D02*
X17372500Y-7947500D01*
X17407500Y-11687500D02*
X17432500Y-11712500D01*
X17432500Y-11687500D02*
X17407500Y-11712500D01*
X17475250Y-9418000D02*
X17500250Y-9443000D01*
X17500250Y-9418000D02*
X17475250Y-9443000D01*
X17482500Y-7752500D02*
X17507500Y-7777500D01*
X17507500Y-7752500D02*
X17482500Y-7777500D01*
X17482500Y-7837500D02*
X17507500Y-7862500D01*
X17507500Y-7837500D02*
X17482500Y-7862500D01*
X17482500Y-7922500D02*
X17507500Y-7947500D01*
X17507500Y-7922500D02*
X17482500Y-7947500D01*
X17487500Y-11967500D02*
X17512500Y-11992500D01*
X17512500Y-11967500D02*
X17487500Y-11992500D01*
X17487500Y-12987500D02*
X17512500Y-13012500D01*
X17512500Y-12987500D02*
X17487500Y-13012500D01*
X17487500Y-13237500D02*
X17512500Y-13262500D01*
X17512500Y-13237500D02*
X17487500Y-13262500D01*
X17487500Y-13487500D02*
X17512500Y-13512500D01*
X17512500Y-13487500D02*
X17487500Y-13512500D01*
X17487500Y-13987500D02*
X17512500Y-14012500D01*
X17512500Y-13987500D02*
X17487500Y-14012500D01*
X17487500Y-14237500D02*
X17512500Y-14262500D01*
X17512500Y-14237500D02*
X17487500Y-14262500D01*
X17487500Y-14487500D02*
X17512500Y-14512500D01*
X17512500Y-14487500D02*
X17487500Y-14512500D01*
X17487500Y-14737500D02*
X17512500Y-14762500D01*
X17512500Y-14737500D02*
X17487500Y-14762500D01*
X17507500Y-9208000D02*
X17532500Y-9233000D01*
X17532500Y-9208000D02*
X17507500Y-9233000D01*
X17512500Y-6037500D02*
X17537500Y-6062500D01*
X17537500Y-6037500D02*
X17512500Y-6062500D01*
X17512500Y-6412500D02*
X17537500Y-6437500D01*
X17537500Y-6412500D02*
X17512500Y-6437500D01*
X17512500Y-6612500D02*
X17537500Y-6637500D01*
X17537500Y-6612500D02*
X17512500Y-6637500D01*
X17512500Y-6837500D02*
X17537500Y-6862500D01*
X17537500Y-6837500D02*
X17512500Y-6862500D01*
X17512500Y-7037500D02*
X17537500Y-7062500D01*
X17537500Y-7037500D02*
X17512500Y-7062500D01*
X17562500Y-7387500D02*
X17587500Y-7412500D01*
X17587500Y-7387500D02*
X17562500Y-7412500D01*
X17574323Y-9417073D02*
X17599323Y-9442073D01*
X17599323Y-9417073D02*
X17574323Y-9442073D01*
X17607500Y-10787500D02*
X17632500Y-10812500D01*
X17632500Y-10787500D02*
X17607500Y-10812500D01*
X17662500Y-8637500D02*
X17687500Y-8662500D01*
X17687500Y-8637500D02*
X17662500Y-8662500D01*
X17687500Y-5812500D02*
X17712500Y-5837500D01*
X17712500Y-5812500D02*
X17687500Y-5837500D01*
X17762500Y-9662500D02*
X17787500Y-9687500D01*
X17787500Y-9662500D02*
X17762500Y-9687500D01*
X17847500Y-11507500D02*
X17872500Y-11532500D01*
X17872500Y-11507500D02*
X17847500Y-11532500D01*
X17907500Y-9427500D02*
X17932500Y-9452500D01*
X17932500Y-9427500D02*
X17907500Y-9452500D01*
X17936101Y-9031187D02*
X17961101Y-9056187D01*
X17961101Y-9031187D02*
X17936101Y-9056187D01*
X17979323Y-8963927D02*
X18004323Y-8988927D01*
X18004323Y-8963927D02*
X17979323Y-8988927D01*
X17997500Y-8482500D02*
X18022500Y-8507500D01*
X18022500Y-8482500D02*
X17997500Y-8507500D01*
X18047500Y-11667500D02*
X18072500Y-11692500D01*
X18072500Y-11667500D02*
X18047500Y-11692500D01*
X18065250Y-8958000D02*
X18090250Y-8983000D01*
X18090250Y-8958000D02*
X18065250Y-8983000D01*
X18067500Y-8522500D02*
X18092500Y-8547500D01*
X18092500Y-8522500D02*
X18067500Y-8547500D01*
X18207500Y-8967500D02*
X18232500Y-8992500D01*
X18232500Y-8967500D02*
X18207500Y-8992500D01*
X18367500Y-8107500D02*
X18392500Y-8132500D01*
X18392500Y-8107500D02*
X18367500Y-8132500D01*
X18367500Y-9927500D02*
X18392500Y-9952500D01*
X18392500Y-9927500D02*
X18367500Y-9952500D01*
X18401500Y-9333500D02*
X18426500Y-9358500D01*
X18426500Y-9333500D02*
X18401500Y-9358500D01*
X18407500Y-10187500D02*
X18432500Y-10212500D01*
X18432500Y-10187500D02*
X18407500Y-10212500D01*
X18427500Y-11587500D02*
X18452500Y-11612500D01*
X18452500Y-11587500D02*
X18427500Y-11612500D01*
X18447500Y-10847500D02*
X18472500Y-10872500D01*
X18472500Y-10847500D02*
X18447500Y-10872500D01*
X18462500Y-10087500D02*
X18487500Y-10112500D01*
X18487500Y-10087500D02*
X18462500Y-10112500D01*
X18465250Y-8658000D02*
X18490250Y-8683000D01*
X18490250Y-8658000D02*
X18465250Y-8683000D01*
X18465250Y-9958000D02*
X18490250Y-9983000D01*
X18490250Y-9958000D02*
X18465250Y-9983000D01*
X18487500Y-8107500D02*
X18512500Y-8132500D01*
X18512500Y-8107500D02*
X18487500Y-8132500D01*
X18487500Y-9198000D02*
X18512500Y-9223000D01*
X18512500Y-9198000D02*
X18487500Y-9223000D01*
X18526483Y-8567668D02*
X18551483Y-8592668D01*
X18551483Y-8567668D02*
X18526483Y-8592668D01*
X18545250Y-8698000D02*
X18570250Y-8723000D01*
X18570250Y-8698000D02*
X18545250Y-8723000D01*
X18590561Y-8494881D02*
X18615561Y-8519881D01*
X18615561Y-8494881D02*
X18590561Y-8519881D01*
X18607500Y-8107500D02*
X18632500Y-8132500D01*
X18632500Y-8107500D02*
X18607500Y-8132500D01*
X18667500Y-8427500D02*
X18692500Y-8452500D01*
X18692500Y-8427500D02*
X18667500Y-8452500D01*
X18687500Y-9612500D02*
X18712500Y-9637500D01*
X18712500Y-9612500D02*
X18687500Y-9637500D01*
X18687500Y-10887500D02*
X18712500Y-10912500D01*
X18712500Y-10887500D02*
X18687500Y-10912500D01*
X18760052Y-9230415D02*
X18785052Y-9255415D01*
X18785052Y-9230415D02*
X18760052Y-9255415D01*
X18760431Y-9362569D02*
X18785431Y-9387569D01*
X18785431Y-9362569D02*
X18760431Y-9387569D01*
X18762500Y-7257500D02*
X18787500Y-7282500D01*
X18787500Y-7257500D02*
X18762500Y-7282500D01*
X18805250Y-9296363D02*
X18830250Y-9321363D01*
X18830250Y-9296363D02*
X18805250Y-9321363D01*
X18811447Y-9053300D02*
X18836447Y-9078300D01*
X18836447Y-9053300D02*
X18811447Y-9078300D01*
X18815715Y-8969950D02*
X18840715Y-8994950D01*
X18840715Y-8969950D02*
X18815715Y-8994950D01*
X18827500Y-8027500D02*
X18852500Y-8052500D01*
X18852500Y-8027500D02*
X18827500Y-8052500D01*
X18882500Y-8102500D02*
X18907500Y-8127500D01*
X18907500Y-8102500D02*
X18882500Y-8127500D01*
X18887500Y-10112500D02*
X18912500Y-10137500D01*
X18912500Y-10112500D02*
X18887500Y-10137500D01*
X19047500Y-8147500D02*
X19072500Y-8172500D01*
X19072500Y-8147500D02*
X19047500Y-8172500D01*
X19047500Y-9407500D02*
X19072500Y-9432500D01*
X19072500Y-9407500D02*
X19047500Y-9432500D01*
X19055050Y-8557500D02*
X19080050Y-8582500D01*
X19080050Y-8557500D02*
X19055050Y-8582500D01*
X19065250Y-10018000D02*
X19090250Y-10043000D01*
X19090250Y-10018000D02*
X19065250Y-10043000D01*
X19102500Y-6832500D02*
X19127500Y-6857500D01*
X19127500Y-6832500D02*
X19102500Y-6857500D01*
X19111500Y-10664500D02*
X19136500Y-10689500D01*
X19136500Y-10664500D02*
X19111500Y-10689500D01*
X19112500Y-6237500D02*
X19137500Y-6262500D01*
X19137500Y-6237500D02*
X19112500Y-6262500D01*
X19112500Y-6412500D02*
X19137500Y-6437500D01*
X19137500Y-6412500D02*
X19112500Y-6437500D01*
X19112500Y-6562500D02*
X19137500Y-6587500D01*
X19137500Y-6562500D02*
X19112500Y-6587500D01*
X19185250Y-5918000D02*
X19210250Y-5943000D01*
X19210250Y-5918000D02*
X19185250Y-5943000D01*
X19202500Y-6767500D02*
X19227500Y-6792500D01*
X19227500Y-6767500D02*
X19202500Y-6792500D01*
X19202500Y-6887500D02*
X19227500Y-6912500D01*
X19227500Y-6887500D02*
X19202500Y-6912500D01*
X19212500Y-6137500D02*
X19237500Y-6162500D01*
X19237500Y-6137500D02*
X19212500Y-6162500D01*
X19212500Y-6312500D02*
X19237500Y-6337500D01*
X19237500Y-6312500D02*
X19212500Y-6337500D01*
X19212500Y-6487500D02*
X19237500Y-6512500D01*
X19237500Y-6487500D02*
X19212500Y-6512500D01*
X19217500Y-8527500D02*
X19242500Y-8552500D01*
X19242500Y-8527500D02*
X19217500Y-8552500D01*
X19262500Y-10762500D02*
X19287500Y-10787500D01*
X19287500Y-10762500D02*
X19262500Y-10787500D01*
X19317500Y-10242500D02*
X19342500Y-10267500D01*
X19342500Y-10242500D02*
X19317500Y-10267500D01*
X19332450Y-7937500D02*
X19357450Y-7962500D01*
X19357450Y-7937500D02*
X19332450Y-7962500D01*
X19337500Y-11387500D02*
X19362500Y-11412500D01*
X19362500Y-11387500D02*
X19337500Y-11412500D01*
X19385250Y-10378000D02*
X19410250Y-10403000D01*
X19410250Y-10378000D02*
X19385250Y-10403000D01*
X19427500Y-7887500D02*
X19452500Y-7912500D01*
X19452500Y-7887500D02*
X19427500Y-7912500D01*
X19472500Y-8197500D02*
X19497500Y-8222500D01*
X19497500Y-8197500D02*
X19472500Y-8222500D01*
X19592500Y-7792500D02*
X19617500Y-7817500D01*
X19617500Y-7792500D02*
X19592500Y-7817500D01*
X19712500Y-10787500D02*
X19737500Y-10812500D01*
X19737500Y-10787500D02*
X19712500Y-10812500D01*
X19712500Y-11312500D02*
X19737500Y-11337500D01*
X19737500Y-11312500D02*
X19712500Y-11337500D01*
X19807500Y-11607500D02*
X19832500Y-11632500D01*
X19832500Y-11607500D02*
X19807500Y-11632500D01*
X16655000Y-8945000D02*
G75*
G03*
X16625000Y-8945000I-15000J0D01*
G01*
X16625000Y-8945000D02*
G75*
G03*
X16655000Y-8945000I15000J0D01*
G01*
X16680000Y-8740000D02*
G75*
G03*
X16650000Y-8740000I-15000J0D01*
G01*
X16650000Y-8740000D02*
G75*
G03*
X16680000Y-8740000I15000J0D01*
G01*
X16730000Y-9135000D02*
G75*
G03*
X16700000Y-9135000I-15000J0D01*
G01*
X16700000Y-9135000D02*
G75*
G03*
X16730000Y-9135000I15000J0D01*
G01*
X16925000Y-9220000D02*
G75*
G03*
X16895000Y-9220000I-15000J0D01*
G01*
X16895000Y-9220000D02*
G75*
G03*
X16925000Y-9220000I15000J0D01*
G01*
X17120000Y-9280000D02*
G75*
G03*
X17090000Y-9280000I-15000J0D01*
G01*
X17090000Y-9280000D02*
G75*
G03*
X17120000Y-9280000I15000J0D01*
G01*
X17225000Y-9460000D02*
G75*
G03*
X17195000Y-9460000I-15000J0D01*
G01*
X17195000Y-9460000D02*
G75*
G03*
X17225000Y-9460000I15000J0D01*
G01*
X17225000Y-9690000D02*
G75*
G03*
X17195000Y-9690000I-15000J0D01*
G01*
X17195000Y-9690000D02*
G75*
G03*
X17225000Y-9690000I15000J0D01*
G01*
X17375000Y-9100000D02*
G75*
G03*
X17345000Y-9100000I-15000J0D01*
G01*
X17345000Y-9100000D02*
G75*
G03*
X17375000Y-9100000I15000J0D01*
G01*
X17385000Y-9315000D02*
G75*
G03*
X17355000Y-9315000I-15000J0D01*
G01*
X17355000Y-9315000D02*
G75*
G03*
X17385000Y-9315000I15000J0D01*
G01*
X17490000Y-6225000D02*
G75*
G03*
X17460000Y-6225000I-15000J0D01*
G01*
X17460000Y-6225000D02*
G75*
G03*
X17490000Y-6225000I15000J0D01*
G01*
X17570000Y-9000000D02*
G75*
G03*
X17540000Y-9000000I-15000J0D01*
G01*
X17540000Y-9000000D02*
G75*
G03*
X17570000Y-9000000I15000J0D01*
G01*
X17845000Y-6230000D02*
G75*
G03*
X17815000Y-6230000I-15000J0D01*
G01*
X17815000Y-6230000D02*
G75*
G03*
X17845000Y-6230000I15000J0D01*
G01*
X17860000Y-8290000D02*
G75*
G03*
X17830000Y-8290000I-15000J0D01*
G01*
X17830000Y-8290000D02*
G75*
G03*
X17860000Y-8290000I15000J0D01*
G01*
X18075000Y-8380000D02*
G75*
G03*
X18045000Y-8380000I-15000J0D01*
G01*
X18045000Y-8380000D02*
G75*
G03*
X18075000Y-8380000I15000J0D01*
G01*
X18265000Y-8305000D02*
G75*
G03*
X18235000Y-8305000I-15000J0D01*
G01*
X18235000Y-8305000D02*
G75*
G03*
X18265000Y-8305000I15000J0D01*
G01*
X18485000Y-8370000D02*
G75*
G03*
X18455000Y-8370000I-15000J0D01*
G01*
X18455000Y-8370000D02*
G75*
G03*
X18485000Y-8370000I15000J0D01*
G01*
X19110000Y-10185000D02*
G75*
G03*
X19080000Y-10185000I-15000J0D01*
G01*
X19080000Y-10185000D02*
G75*
G03*
X19110000Y-10185000I15000J0D01*
G01*
X12340000Y-5800000D02*
X12340000Y-5840000D01*
X12320000Y-5820000D02*
X12360000Y-5820000D01*
X12710000Y-6420000D02*
X12710000Y-6460000D01*
X12690000Y-6440000D02*
X12730000Y-6440000D01*
X13225000Y-10945000D02*
X13225000Y-10985000D01*
X13205000Y-10965000D02*
X13245000Y-10965000D01*
X14560000Y-9348000D02*
X14560000Y-9388000D01*
X14540000Y-9368000D02*
X14580000Y-9368000D01*
X14705069Y-9002931D02*
X14705069Y-9042931D01*
X14685069Y-9022931D02*
X14725069Y-9022931D01*
X17625000Y-7205000D02*
X17625000Y-7245000D01*
X17605000Y-7225000D02*
X17645000Y-7225000D01*
X17700000Y-10380000D02*
X17700000Y-10420000D01*
X17680000Y-10400000D02*
X17720000Y-10400000D01*
X18450000Y-5280000D02*
X18450000Y-5320000D01*
X18430000Y-5300000D02*
X18470000Y-5300000D01*
X18760000Y-8900000D02*
X18760000Y-8940000D01*
X18740000Y-8920000D02*
X18780000Y-8920000D01*
X11294749Y-10762749D02*
X11294749Y-10713251D01*
X11245251Y-10713251D01*
X11245251Y-10762749D01*
X11294749Y-10762749D01*
X11294749Y-11524749D02*
X11294749Y-11475251D01*
X11245251Y-11475251D01*
X11245251Y-11524749D01*
X11294749Y-11524749D01*
X14780000Y-9258000D02*
X14820000Y-9218000D01*
X14780000Y-9178000D01*
X14740000Y-9218000D01*
X14780000Y-9258000D01*
X14780000Y-9758000D02*
X14820000Y-9718000D01*
X14780000Y-9678000D01*
X14740000Y-9718000D01*
X14780000Y-9758000D01*
X10315750Y-7367000D02*
X10415750Y-7467000D01*
X10415750Y-7367000D02*
X10315750Y-7467000D01*
X10415750Y-7417000D02*
G75*
G03*
X10315750Y-7417000I-50000J0D01*
G01*
X10315750Y-7417000D02*
G75*
G03*
X10415750Y-7417000I50000J0D01*
G01*
X10315750Y-7621000D02*
X10415750Y-7721000D01*
X10415750Y-7621000D02*
X10315750Y-7721000D01*
X10415750Y-7671000D02*
G75*
G03*
X10315750Y-7671000I-50000J0D01*
G01*
X10315750Y-7671000D02*
G75*
G03*
X10415750Y-7671000I50000J0D01*
G01*
X10315750Y-7875000D02*
X10415750Y-7975000D01*
X10415750Y-7875000D02*
X10315750Y-7975000D01*
X10415750Y-7925000D02*
G75*
G03*
X10315750Y-7925000I-50000J0D01*
G01*
X10315750Y-7925000D02*
G75*
G03*
X10415750Y-7925000I50000J0D01*
G01*
X10315750Y-8129000D02*
X10415750Y-8229000D01*
X10415750Y-8129000D02*
X10315750Y-8229000D01*
X10415750Y-8179000D02*
G75*
G03*
X10315750Y-8179000I-50000J0D01*
G01*
X10315750Y-8179000D02*
G75*
G03*
X10415750Y-8179000I50000J0D01*
G01*
X10315750Y-8383000D02*
X10415750Y-8483000D01*
X10415750Y-8383000D02*
X10315750Y-8483000D01*
X10415750Y-8433000D02*
G75*
G03*
X10315750Y-8433000I-50000J0D01*
G01*
X10315750Y-8433000D02*
G75*
G03*
X10415750Y-8433000I50000J0D01*
G01*
X10569750Y-7367000D02*
X10669750Y-7467000D01*
X10669750Y-7367000D02*
X10569750Y-7467000D01*
X10669750Y-7417000D02*
G75*
G03*
X10569750Y-7417000I-50000J0D01*
G01*
X10569750Y-7417000D02*
G75*
G03*
X10669750Y-7417000I50000J0D01*
G01*
X10569750Y-7621000D02*
X10669750Y-7721000D01*
X10669750Y-7621000D02*
X10569750Y-7721000D01*
X10669750Y-7671000D02*
G75*
G03*
X10569750Y-7671000I-50000J0D01*
G01*
X10569750Y-7671000D02*
G75*
G03*
X10669750Y-7671000I50000J0D01*
G01*
X10569750Y-7875000D02*
X10669750Y-7975000D01*
X10669750Y-7875000D02*
X10569750Y-7975000D01*
X10669750Y-7925000D02*
G75*
G03*
X10569750Y-7925000I-50000J0D01*
G01*
X10569750Y-7925000D02*
G75*
G03*
X10669750Y-7925000I50000J0D01*
G01*
X10569750Y-8129000D02*
X10669750Y-8229000D01*
X10669750Y-8129000D02*
X10569750Y-8229000D01*
X10669750Y-8179000D02*
G75*
G03*
X10569750Y-8179000I-50000J0D01*
G01*
X10569750Y-8179000D02*
G75*
G03*
X10669750Y-8179000I50000J0D01*
G01*
X10569750Y-8383000D02*
X10669750Y-8483000D01*
X10669750Y-8383000D02*
X10569750Y-8483000D01*
X10669750Y-8433000D02*
G75*
G03*
X10569750Y-8433000I-50000J0D01*
G01*
X10569750Y-8433000D02*
G75*
G03*
X10669750Y-8433000I50000J0D01*
G01*
X10570000Y-10761768D02*
X10670000Y-10861768D01*
X10670000Y-10761768D02*
X10570000Y-10861768D01*
X10670000Y-10811768D02*
G75*
G03*
X10570000Y-10811768I-50000J0D01*
G01*
X10570000Y-10811768D02*
G75*
G03*
X10670000Y-10811768I50000J0D01*
G01*
X10570000Y-11111768D02*
X10670000Y-11211768D01*
X10670000Y-11111768D02*
X10570000Y-11211768D01*
X10670000Y-11161768D02*
G75*
G03*
X10570000Y-11161768I-50000J0D01*
G01*
X10570000Y-11161768D02*
G75*
G03*
X10670000Y-11161768I50000J0D01*
G01*
X11870000Y-10750000D02*
X11970000Y-10850000D01*
X11970000Y-10750000D02*
X11870000Y-10850000D01*
X11970000Y-10800000D02*
G75*
G03*
X11870000Y-10800000I-50000J0D01*
G01*
X11870000Y-10800000D02*
G75*
G03*
X11970000Y-10800000I50000J0D01*
G01*
X11870000Y-11100000D02*
X11970000Y-11200000D01*
X11970000Y-11100000D02*
X11870000Y-11200000D01*
X11970000Y-11150000D02*
G75*
G03*
X11870000Y-11150000I-50000J0D01*
G01*
X11870000Y-11150000D02*
G75*
G03*
X11970000Y-11150000I50000J0D01*
G01*
X19346000Y-6550000D02*
X19446000Y-6650000D01*
X19446000Y-6550000D02*
X19346000Y-6650000D01*
X19446000Y-6600000D02*
G75*
G03*
X19346000Y-6600000I-50000J0D01*
G01*
X19346000Y-6600000D02*
G75*
G03*
X19446000Y-6600000I50000J0D01*
G01*
X19346000Y-6804000D02*
X19446000Y-6904000D01*
X19446000Y-6804000D02*
X19346000Y-6904000D01*
X19446000Y-6854000D02*
G75*
G03*
X19346000Y-6854000I-50000J0D01*
G01*
X19346000Y-6854000D02*
G75*
G03*
X19446000Y-6854000I50000J0D01*
G01*
X19346000Y-7058000D02*
X19446000Y-7158000D01*
X19446000Y-7058000D02*
X19346000Y-7158000D01*
X19446000Y-7108000D02*
G75*
G03*
X19346000Y-7108000I-50000J0D01*
G01*
X19346000Y-7108000D02*
G75*
G03*
X19446000Y-7108000I50000J0D01*
G01*
X19346000Y-7312000D02*
X19446000Y-7412000D01*
X19446000Y-7312000D02*
X19346000Y-7412000D01*
X19446000Y-7362000D02*
G75*
G03*
X19346000Y-7362000I-50000J0D01*
G01*
X19346000Y-7362000D02*
G75*
G03*
X19446000Y-7362000I50000J0D01*
G01*
X19346000Y-7566000D02*
X19446000Y-7666000D01*
X19446000Y-7566000D02*
X19346000Y-7666000D01*
X19446000Y-7616000D02*
G75*
G03*
X19346000Y-7616000I-50000J0D01*
G01*
X19346000Y-7616000D02*
G75*
G03*
X19446000Y-7616000I50000J0D01*
G01*
X19346000Y-9050000D02*
X19446000Y-9150000D01*
X19446000Y-9050000D02*
X19346000Y-9150000D01*
X19446000Y-9100000D02*
G75*
G03*
X19346000Y-9100000I-50000J0D01*
G01*
X19346000Y-9100000D02*
G75*
G03*
X19446000Y-9100000I50000J0D01*
G01*
X19346000Y-9304000D02*
X19446000Y-9404000D01*
X19446000Y-9304000D02*
X19346000Y-9404000D01*
X19446000Y-9354000D02*
G75*
G03*
X19346000Y-9354000I-50000J0D01*
G01*
X19346000Y-9354000D02*
G75*
G03*
X19446000Y-9354000I50000J0D01*
G01*
X19346000Y-9558000D02*
X19446000Y-9658000D01*
X19446000Y-9558000D02*
X19346000Y-9658000D01*
X19446000Y-9608000D02*
G75*
G03*
X19346000Y-9608000I-50000J0D01*
G01*
X19346000Y-9608000D02*
G75*
G03*
X19446000Y-9608000I50000J0D01*
G01*
X19346000Y-9812000D02*
X19446000Y-9912000D01*
X19446000Y-9812000D02*
X19346000Y-9912000D01*
X19446000Y-9862000D02*
G75*
G03*
X19346000Y-9862000I-50000J0D01*
G01*
X19346000Y-9862000D02*
G75*
G03*
X19446000Y-9862000I50000J0D01*
G01*
X19346000Y-10066000D02*
X19446000Y-10166000D01*
X19446000Y-10066000D02*
X19346000Y-10166000D01*
X19446000Y-10116000D02*
G75*
G03*
X19346000Y-10116000I-50000J0D01*
G01*
X19346000Y-10116000D02*
G75*
G03*
X19446000Y-10116000I50000J0D01*
G01*
X19346000Y-12250000D02*
X19446000Y-12350000D01*
X19446000Y-12250000D02*
X19346000Y-12350000D01*
X19446000Y-12300000D02*
G75*
G03*
X19346000Y-12300000I-50000J0D01*
G01*
X19346000Y-12300000D02*
G75*
G03*
X19446000Y-12300000I50000J0D01*
G01*
X19346000Y-12504000D02*
X19446000Y-12604000D01*
X19446000Y-12504000D02*
X19346000Y-12604000D01*
X19446000Y-12554000D02*
G75*
G03*
X19346000Y-12554000I-50000J0D01*
G01*
X19346000Y-12554000D02*
G75*
G03*
X19446000Y-12554000I50000J0D01*
G01*
X19346000Y-12758000D02*
X19446000Y-12858000D01*
X19446000Y-12758000D02*
X19346000Y-12858000D01*
X19446000Y-12808000D02*
G75*
G03*
X19346000Y-12808000I-50000J0D01*
G01*
X19346000Y-12808000D02*
G75*
G03*
X19446000Y-12808000I50000J0D01*
G01*
X19346000Y-13012000D02*
X19446000Y-13112000D01*
X19446000Y-13012000D02*
X19346000Y-13112000D01*
X19446000Y-13062000D02*
G75*
G03*
X19346000Y-13062000I-50000J0D01*
G01*
X19346000Y-13062000D02*
G75*
G03*
X19446000Y-13062000I50000J0D01*
G01*
X19346000Y-13266000D02*
X19446000Y-13366000D01*
X19446000Y-13266000D02*
X19346000Y-13366000D01*
X19446000Y-13316000D02*
G75*
G03*
X19346000Y-13316000I-50000J0D01*
G01*
X19346000Y-13316000D02*
G75*
G03*
X19446000Y-13316000I50000J0D01*
G01*
X19600000Y-6550000D02*
X19700000Y-6650000D01*
X19700000Y-6550000D02*
X19600000Y-6650000D01*
X19700000Y-6600000D02*
G75*
G03*
X19600000Y-6600000I-50000J0D01*
G01*
X19600000Y-6600000D02*
G75*
G03*
X19700000Y-6600000I50000J0D01*
G01*
X19600000Y-6804000D02*
X19700000Y-6904000D01*
X19700000Y-6804000D02*
X19600000Y-6904000D01*
X19700000Y-6854000D02*
G75*
G03*
X19600000Y-6854000I-50000J0D01*
G01*
X19600000Y-6854000D02*
G75*
G03*
X19700000Y-6854000I50000J0D01*
G01*
X19600000Y-7058000D02*
X19700000Y-7158000D01*
X19700000Y-7058000D02*
X19600000Y-7158000D01*
X19700000Y-7108000D02*
G75*
G03*
X19600000Y-7108000I-50000J0D01*
G01*
X19600000Y-7108000D02*
G75*
G03*
X19700000Y-7108000I50000J0D01*
G01*
X19600000Y-7312000D02*
X19700000Y-7412000D01*
X19700000Y-7312000D02*
X19600000Y-7412000D01*
X19700000Y-7362000D02*
G75*
G03*
X19600000Y-7362000I-50000J0D01*
G01*
X19600000Y-7362000D02*
G75*
G03*
X19700000Y-7362000I50000J0D01*
G01*
X19600000Y-7566000D02*
X19700000Y-7666000D01*
X19700000Y-7566000D02*
X19600000Y-7666000D01*
X19700000Y-7616000D02*
G75*
G03*
X19600000Y-7616000I-50000J0D01*
G01*
X19600000Y-7616000D02*
G75*
G03*
X19700000Y-7616000I50000J0D01*
G01*
X19600000Y-9050000D02*
X19700000Y-9150000D01*
X19700000Y-9050000D02*
X19600000Y-9150000D01*
X19700000Y-9100000D02*
G75*
G03*
X19600000Y-9100000I-50000J0D01*
G01*
X19600000Y-9100000D02*
G75*
G03*
X19700000Y-9100000I50000J0D01*
G01*
X19600000Y-9304000D02*
X19700000Y-9404000D01*
X19700000Y-9304000D02*
X19600000Y-9404000D01*
X19700000Y-9354000D02*
G75*
G03*
X19600000Y-9354000I-50000J0D01*
G01*
X19600000Y-9354000D02*
G75*
G03*
X19700000Y-9354000I50000J0D01*
G01*
X19600000Y-9558000D02*
X19700000Y-9658000D01*
X19700000Y-9558000D02*
X19600000Y-9658000D01*
X19700000Y-9608000D02*
G75*
G03*
X19600000Y-9608000I-50000J0D01*
G01*
X19600000Y-9608000D02*
G75*
G03*
X19700000Y-9608000I50000J0D01*
G01*
X19600000Y-9812000D02*
X19700000Y-9912000D01*
X19700000Y-9812000D02*
X19600000Y-9912000D01*
X19700000Y-9862000D02*
G75*
G03*
X19600000Y-9862000I-50000J0D01*
G01*
X19600000Y-9862000D02*
G75*
G03*
X19700000Y-9862000I50000J0D01*
G01*
X19600000Y-10066000D02*
X19700000Y-10166000D01*
X19700000Y-10066000D02*
X19600000Y-10166000D01*
X19700000Y-10116000D02*
G75*
G03*
X19600000Y-10116000I-50000J0D01*
G01*
X19600000Y-10116000D02*
G75*
G03*
X19700000Y-10116000I50000J0D01*
G01*
X19600000Y-12250000D02*
X19700000Y-12350000D01*
X19700000Y-12250000D02*
X19600000Y-12350000D01*
X19700000Y-12300000D02*
G75*
G03*
X19600000Y-12300000I-50000J0D01*
G01*
X19600000Y-12300000D02*
G75*
G03*
X19700000Y-12300000I50000J0D01*
G01*
X19600000Y-12504000D02*
X19700000Y-12604000D01*
X19700000Y-12504000D02*
X19600000Y-12604000D01*
X19700000Y-12554000D02*
G75*
G03*
X19600000Y-12554000I-50000J0D01*
G01*
X19600000Y-12554000D02*
G75*
G03*
X19700000Y-12554000I50000J0D01*
G01*
X19600000Y-12758000D02*
X19700000Y-12858000D01*
X19700000Y-12758000D02*
X19600000Y-12858000D01*
X19700000Y-12808000D02*
G75*
G03*
X19600000Y-12808000I-50000J0D01*
G01*
X19600000Y-12808000D02*
G75*
G03*
X19700000Y-12808000I50000J0D01*
G01*
X19600000Y-13012000D02*
X19700000Y-13112000D01*
X19700000Y-13012000D02*
X19600000Y-13112000D01*
X19700000Y-13062000D02*
G75*
G03*
X19600000Y-13062000I-50000J0D01*
G01*
X19600000Y-13062000D02*
G75*
G03*
X19700000Y-13062000I50000J0D01*
G01*
X19600000Y-13266000D02*
X19700000Y-13366000D01*
X19700000Y-13266000D02*
X19600000Y-13366000D01*
X19700000Y-13316000D02*
G75*
G03*
X19600000Y-13316000I-50000J0D01*
G01*
X19600000Y-13316000D02*
G75*
G03*
X19700000Y-13316000I50000J0D01*
G01*
D12*
X11400000Y-13735000D02*
X11510000Y-13845000D01*
X11510000Y-13735000D02*
X11400000Y-13845000D01*
X11455000Y-13735000D02*
X11455000Y-13845000D01*
X11400000Y-13790000D02*
X11510000Y-13790000D01*
X11400000Y-13989000D02*
X11510000Y-14099000D01*
X11510000Y-13989000D02*
X11400000Y-14099000D01*
X11455000Y-13989000D02*
X11455000Y-14099000D01*
X11400000Y-14044000D02*
X11510000Y-14044000D01*
X11400000Y-14243000D02*
X11510000Y-14353000D01*
X11510000Y-14243000D02*
X11400000Y-14353000D01*
X11455000Y-14243000D02*
X11455000Y-14353000D01*
X11400000Y-14298000D02*
X11510000Y-14298000D01*
D13*
X10336000Y-5340000D02*
X10656000Y-5660000D01*
X10656000Y-5340000D02*
X10336000Y-5660000D01*
X10609138Y-5613138D02*
X10609138Y-5386862D01*
X10382862Y-5386862D01*
X10382862Y-5613138D01*
X10609138Y-5613138D01*
X10336000Y-14340000D02*
X10656000Y-14660000D01*
X10656000Y-14340000D02*
X10336000Y-14660000D01*
X10609138Y-14613138D02*
X10609138Y-14386862D01*
X10382862Y-14386862D01*
X10382862Y-14613138D01*
X10609138Y-14613138D01*
X19336000Y-5340000D02*
X19656000Y-5660000D01*
X19656000Y-5340000D02*
X19336000Y-5660000D01*
X19609138Y-5613138D02*
X19609138Y-5386862D01*
X19382862Y-5386862D01*
X19382862Y-5613138D01*
X19609138Y-5613138D01*
X19336000Y-14340000D02*
X19656000Y-14660000D01*
X19656000Y-14340000D02*
X19336000Y-14660000D01*
X19609138Y-14613138D02*
X19609138Y-14386862D01*
X19382862Y-14386862D01*
X19382862Y-14613138D01*
X19609138Y-14613138D01*
D11*
X10255777Y-15316484D02*
X10255777Y-15116484D01*
X10255777Y-15116484D02*
X10303396Y-15116484D01*
X10303396Y-15116484D02*
X10331967Y-15126008D01*
X10331967Y-15126008D02*
X10351015Y-15145055D01*
X10351015Y-15145055D02*
X10360539Y-15164103D01*
X10360539Y-15164103D02*
X10370063Y-15202198D01*
X10370063Y-15202198D02*
X10370063Y-15230769D01*
X10370063Y-15230769D02*
X10360539Y-15268865D01*
X10360539Y-15268865D02*
X10351015Y-15287912D01*
X10351015Y-15287912D02*
X10331967Y-15306960D01*
X10331967Y-15306960D02*
X10303396Y-15316484D01*
X10303396Y-15316484D02*
X10255777Y-15316484D01*
X10455777Y-15316484D02*
X10455777Y-15183150D01*
X10455777Y-15221246D02*
X10465301Y-15202198D01*
X10465301Y-15202198D02*
X10474824Y-15192674D01*
X10474824Y-15192674D02*
X10493872Y-15183150D01*
X10493872Y-15183150D02*
X10512920Y-15183150D01*
X10579586Y-15316484D02*
X10579586Y-15183150D01*
X10579586Y-15116484D02*
X10570063Y-15126008D01*
X10570063Y-15126008D02*
X10579586Y-15135531D01*
X10579586Y-15135531D02*
X10589110Y-15126008D01*
X10589110Y-15126008D02*
X10579586Y-15116484D01*
X10579586Y-15116484D02*
X10579586Y-15135531D01*
X10703396Y-15316484D02*
X10684348Y-15306960D01*
X10684348Y-15306960D02*
X10674824Y-15287912D01*
X10674824Y-15287912D02*
X10674824Y-15116484D01*
X10808158Y-15316484D02*
X10789110Y-15306960D01*
X10789110Y-15306960D02*
X10779586Y-15287912D01*
X10779586Y-15287912D02*
X10779586Y-15116484D01*
X11036729Y-15316484D02*
X11036729Y-15116484D01*
X11036729Y-15116484D02*
X11103396Y-15259341D01*
X11103396Y-15259341D02*
X11170063Y-15116484D01*
X11170063Y-15116484D02*
X11170063Y-15316484D01*
X11351015Y-15316484D02*
X11351015Y-15211722D01*
X11351015Y-15211722D02*
X11341491Y-15192674D01*
X11341491Y-15192674D02*
X11322443Y-15183150D01*
X11322443Y-15183150D02*
X11284348Y-15183150D01*
X11284348Y-15183150D02*
X11265301Y-15192674D01*
X11351015Y-15306960D02*
X11331967Y-15316484D01*
X11331967Y-15316484D02*
X11284348Y-15316484D01*
X11284348Y-15316484D02*
X11265301Y-15306960D01*
X11265301Y-15306960D02*
X11255777Y-15287912D01*
X11255777Y-15287912D02*
X11255777Y-15268865D01*
X11255777Y-15268865D02*
X11265301Y-15249817D01*
X11265301Y-15249817D02*
X11284348Y-15240293D01*
X11284348Y-15240293D02*
X11331967Y-15240293D01*
X11331967Y-15240293D02*
X11351015Y-15230769D01*
X11446253Y-15183150D02*
X11446253Y-15383150D01*
X11446253Y-15192674D02*
X11465301Y-15183150D01*
X11465301Y-15183150D02*
X11503396Y-15183150D01*
X11503396Y-15183150D02*
X11522443Y-15192674D01*
X11522443Y-15192674D02*
X11531967Y-15202198D01*
X11531967Y-15202198D02*
X11541491Y-15221246D01*
X11541491Y-15221246D02*
X11541491Y-15278388D01*
X11541491Y-15278388D02*
X11531967Y-15297436D01*
X11531967Y-15297436D02*
X11522443Y-15306960D01*
X11522443Y-15306960D02*
X11503396Y-15316484D01*
X11503396Y-15316484D02*
X11465301Y-15316484D01*
X11465301Y-15316484D02*
X11446253Y-15306960D01*
X11627205Y-15297436D02*
X11636729Y-15306960D01*
X11636729Y-15306960D02*
X11627205Y-15316484D01*
X11627205Y-15316484D02*
X11617682Y-15306960D01*
X11617682Y-15306960D02*
X11627205Y-15297436D01*
X11627205Y-15297436D02*
X11627205Y-15316484D01*
X11627205Y-15192674D02*
X11636729Y-15202198D01*
X11636729Y-15202198D02*
X11627205Y-15211722D01*
X11627205Y-15211722D02*
X11617682Y-15202198D01*
X11617682Y-15202198D02*
X11627205Y-15192674D01*
X11627205Y-15192674D02*
X11627205Y-15211722D01*
D10*
X9970000Y-15632500D02*
X9995000Y-15657500D01*
X9995000Y-15632500D02*
X9970000Y-15657500D01*
D11*
X10293872Y-15536484D02*
X10312920Y-15536484D01*
X10312920Y-15536484D02*
X10331967Y-15546008D01*
X10331967Y-15546008D02*
X10341491Y-15555531D01*
X10341491Y-15555531D02*
X10351015Y-15574579D01*
X10351015Y-15574579D02*
X10360539Y-15612674D01*
X10360539Y-15612674D02*
X10360539Y-15660293D01*
X10360539Y-15660293D02*
X10351015Y-15698388D01*
X10351015Y-15698388D02*
X10341491Y-15717436D01*
X10341491Y-15717436D02*
X10331967Y-15726960D01*
X10331967Y-15726960D02*
X10312920Y-15736484D01*
X10312920Y-15736484D02*
X10293872Y-15736484D01*
X10293872Y-15736484D02*
X10274824Y-15726960D01*
X10274824Y-15726960D02*
X10265301Y-15717436D01*
X10265301Y-15717436D02*
X10255777Y-15698388D01*
X10255777Y-15698388D02*
X10246253Y-15660293D01*
X10246253Y-15660293D02*
X10246253Y-15612674D01*
X10246253Y-15612674D02*
X10255777Y-15574579D01*
X10255777Y-15574579D02*
X10265301Y-15555531D01*
X10265301Y-15555531D02*
X10274824Y-15546008D01*
X10274824Y-15546008D02*
X10293872Y-15536484D01*
X10446253Y-15717436D02*
X10455777Y-15726960D01*
X10455777Y-15726960D02*
X10446253Y-15736484D01*
X10446253Y-15736484D02*
X10436729Y-15726960D01*
X10436729Y-15726960D02*
X10446253Y-15717436D01*
X10446253Y-15717436D02*
X10446253Y-15736484D01*
X10531967Y-15555531D02*
X10541491Y-15546008D01*
X10541491Y-15546008D02*
X10560539Y-15536484D01*
X10560539Y-15536484D02*
X10608158Y-15536484D01*
X10608158Y-15536484D02*
X10627205Y-15546008D01*
X10627205Y-15546008D02*
X10636729Y-15555531D01*
X10636729Y-15555531D02*
X10646253Y-15574579D01*
X10646253Y-15574579D02*
X10646253Y-15593627D01*
X10646253Y-15593627D02*
X10636729Y-15622198D01*
X10636729Y-15622198D02*
X10522444Y-15736484D01*
X10522444Y-15736484D02*
X10646253Y-15736484D01*
X10827205Y-15536484D02*
X10731967Y-15536484D01*
X10731967Y-15536484D02*
X10722444Y-15631722D01*
X10722444Y-15631722D02*
X10731967Y-15622198D01*
X10731967Y-15622198D02*
X10751015Y-15612674D01*
X10751015Y-15612674D02*
X10798634Y-15612674D01*
X10798634Y-15612674D02*
X10817682Y-15622198D01*
X10817682Y-15622198D02*
X10827205Y-15631722D01*
X10827205Y-15631722D02*
X10836729Y-15650769D01*
X10836729Y-15650769D02*
X10836729Y-15698388D01*
X10836729Y-15698388D02*
X10827205Y-15717436D01*
X10827205Y-15717436D02*
X10817682Y-15726960D01*
X10817682Y-15726960D02*
X10798634Y-15736484D01*
X10798634Y-15736484D02*
X10751015Y-15736484D01*
X10751015Y-15736484D02*
X10731967Y-15726960D01*
X10731967Y-15726960D02*
X10722444Y-15717436D01*
X10960539Y-15536484D02*
X10979586Y-15536484D01*
X10979586Y-15536484D02*
X10998634Y-15546008D01*
X10998634Y-15546008D02*
X11008158Y-15555531D01*
X11008158Y-15555531D02*
X11017682Y-15574579D01*
X11017682Y-15574579D02*
X11027205Y-15612674D01*
X11027205Y-15612674D02*
X11027205Y-15660293D01*
X11027205Y-15660293D02*
X11017682Y-15698388D01*
X11017682Y-15698388D02*
X11008158Y-15717436D01*
X11008158Y-15717436D02*
X10998634Y-15726960D01*
X10998634Y-15726960D02*
X10979586Y-15736484D01*
X10979586Y-15736484D02*
X10960539Y-15736484D01*
X10960539Y-15736484D02*
X10941491Y-15726960D01*
X10941491Y-15726960D02*
X10931967Y-15717436D01*
X10931967Y-15717436D02*
X10922444Y-15698388D01*
X10922444Y-15698388D02*
X10912920Y-15660293D01*
X10912920Y-15660293D02*
X10912920Y-15612674D01*
X10912920Y-15612674D02*
X10922444Y-15574579D01*
X10922444Y-15574579D02*
X10931967Y-15555531D01*
X10931967Y-15555531D02*
X10941491Y-15546008D01*
X10941491Y-15546008D02*
X10960539Y-15536484D01*
X11112920Y-15736484D02*
X11112920Y-15603150D01*
X11112920Y-15622198D02*
X11122444Y-15612674D01*
X11122444Y-15612674D02*
X11141491Y-15603150D01*
X11141491Y-15603150D02*
X11170063Y-15603150D01*
X11170063Y-15603150D02*
X11189110Y-15612674D01*
X11189110Y-15612674D02*
X11198634Y-15631722D01*
X11198634Y-15631722D02*
X11198634Y-15736484D01*
X11198634Y-15631722D02*
X11208158Y-15612674D01*
X11208158Y-15612674D02*
X11227205Y-15603150D01*
X11227205Y-15603150D02*
X11255777Y-15603150D01*
X11255777Y-15603150D02*
X11274824Y-15612674D01*
X11274824Y-15612674D02*
X11284348Y-15631722D01*
X11284348Y-15631722D02*
X11284348Y-15736484D01*
X11379586Y-15736484D02*
X11379586Y-15603150D01*
X11379586Y-15622198D02*
X11389110Y-15612674D01*
X11389110Y-15612674D02*
X11408158Y-15603150D01*
X11408158Y-15603150D02*
X11436729Y-15603150D01*
X11436729Y-15603150D02*
X11455777Y-15612674D01*
X11455777Y-15612674D02*
X11465301Y-15631722D01*
X11465301Y-15631722D02*
X11465301Y-15736484D01*
X11465301Y-15631722D02*
X11474824Y-15612674D01*
X11474824Y-15612674D02*
X11493872Y-15603150D01*
X11493872Y-15603150D02*
X11522443Y-15603150D01*
X11522443Y-15603150D02*
X11541491Y-15612674D01*
X11541491Y-15612674D02*
X11551015Y-15631722D01*
X11551015Y-15631722D02*
X11551015Y-15736484D01*
X11941491Y-15526960D02*
X11770063Y-15784103D01*
X12198634Y-15536484D02*
X12217682Y-15536484D01*
X12217682Y-15536484D02*
X12236729Y-15546008D01*
X12236729Y-15546008D02*
X12246253Y-15555531D01*
X12246253Y-15555531D02*
X12255777Y-15574579D01*
X12255777Y-15574579D02*
X12265301Y-15612674D01*
X12265301Y-15612674D02*
X12265301Y-15660293D01*
X12265301Y-15660293D02*
X12255777Y-15698388D01*
X12255777Y-15698388D02*
X12246253Y-15717436D01*
X12246253Y-15717436D02*
X12236729Y-15726960D01*
X12236729Y-15726960D02*
X12217682Y-15736484D01*
X12217682Y-15736484D02*
X12198634Y-15736484D01*
X12198634Y-15736484D02*
X12179586Y-15726960D01*
X12179586Y-15726960D02*
X12170063Y-15717436D01*
X12170063Y-15717436D02*
X12160539Y-15698388D01*
X12160539Y-15698388D02*
X12151015Y-15660293D01*
X12151015Y-15660293D02*
X12151015Y-15612674D01*
X12151015Y-15612674D02*
X12160539Y-15574579D01*
X12160539Y-15574579D02*
X12170063Y-15555531D01*
X12170063Y-15555531D02*
X12179586Y-15546008D01*
X12179586Y-15546008D02*
X12198634Y-15536484D01*
X12351015Y-15717436D02*
X12360539Y-15726960D01*
X12360539Y-15726960D02*
X12351015Y-15736484D01*
X12351015Y-15736484D02*
X12341491Y-15726960D01*
X12341491Y-15726960D02*
X12351015Y-15717436D01*
X12351015Y-15717436D02*
X12351015Y-15736484D01*
X12484348Y-15536484D02*
X12503396Y-15536484D01*
X12503396Y-15536484D02*
X12522444Y-15546008D01*
X12522444Y-15546008D02*
X12531967Y-15555531D01*
X12531967Y-15555531D02*
X12541491Y-15574579D01*
X12541491Y-15574579D02*
X12551015Y-15612674D01*
X12551015Y-15612674D02*
X12551015Y-15660293D01*
X12551015Y-15660293D02*
X12541491Y-15698388D01*
X12541491Y-15698388D02*
X12531967Y-15717436D01*
X12531967Y-15717436D02*
X12522444Y-15726960D01*
X12522444Y-15726960D02*
X12503396Y-15736484D01*
X12503396Y-15736484D02*
X12484348Y-15736484D01*
X12484348Y-15736484D02*
X12465301Y-15726960D01*
X12465301Y-15726960D02*
X12455777Y-15717436D01*
X12455777Y-15717436D02*
X12446253Y-15698388D01*
X12446253Y-15698388D02*
X12436729Y-15660293D01*
X12436729Y-15660293D02*
X12436729Y-15612674D01*
X12436729Y-15612674D02*
X12446253Y-15574579D01*
X12446253Y-15574579D02*
X12455777Y-15555531D01*
X12455777Y-15555531D02*
X12465301Y-15546008D01*
X12465301Y-15546008D02*
X12484348Y-15536484D01*
X12674825Y-15536484D02*
X12693872Y-15536484D01*
X12693872Y-15536484D02*
X12712920Y-15546008D01*
X12712920Y-15546008D02*
X12722444Y-15555531D01*
X12722444Y-15555531D02*
X12731967Y-15574579D01*
X12731967Y-15574579D02*
X12741491Y-15612674D01*
X12741491Y-15612674D02*
X12741491Y-15660293D01*
X12741491Y-15660293D02*
X12731967Y-15698388D01*
X12731967Y-15698388D02*
X12722444Y-15717436D01*
X12722444Y-15717436D02*
X12712920Y-15726960D01*
X12712920Y-15726960D02*
X12693872Y-15736484D01*
X12693872Y-15736484D02*
X12674825Y-15736484D01*
X12674825Y-15736484D02*
X12655777Y-15726960D01*
X12655777Y-15726960D02*
X12646253Y-15717436D01*
X12646253Y-15717436D02*
X12636729Y-15698388D01*
X12636729Y-15698388D02*
X12627206Y-15660293D01*
X12627206Y-15660293D02*
X12627206Y-15612674D01*
X12627206Y-15612674D02*
X12636729Y-15574579D01*
X12636729Y-15574579D02*
X12646253Y-15555531D01*
X12646253Y-15555531D02*
X12655777Y-15546008D01*
X12655777Y-15546008D02*
X12674825Y-15536484D01*
X12836729Y-15736484D02*
X12874825Y-15736484D01*
X12874825Y-15736484D02*
X12893872Y-15726960D01*
X12893872Y-15726960D02*
X12903396Y-15717436D01*
X12903396Y-15717436D02*
X12922444Y-15688865D01*
X12922444Y-15688865D02*
X12931967Y-15650769D01*
X12931967Y-15650769D02*
X12931967Y-15574579D01*
X12931967Y-15574579D02*
X12922444Y-15555531D01*
X12922444Y-15555531D02*
X12912920Y-15546008D01*
X12912920Y-15546008D02*
X12893872Y-15536484D01*
X12893872Y-15536484D02*
X12855777Y-15536484D01*
X12855777Y-15536484D02*
X12836729Y-15546008D01*
X12836729Y-15546008D02*
X12827206Y-15555531D01*
X12827206Y-15555531D02*
X12817682Y-15574579D01*
X12817682Y-15574579D02*
X12817682Y-15622198D01*
X12817682Y-15622198D02*
X12827206Y-15641246D01*
X12827206Y-15641246D02*
X12836729Y-15650769D01*
X12836729Y-15650769D02*
X12855777Y-15660293D01*
X12855777Y-15660293D02*
X12893872Y-15660293D01*
X12893872Y-15660293D02*
X12912920Y-15650769D01*
X12912920Y-15650769D02*
X12922444Y-15641246D01*
X12922444Y-15641246D02*
X12931967Y-15622198D01*
X13046253Y-15622198D02*
X13027206Y-15612674D01*
X13027206Y-15612674D02*
X13017682Y-15603150D01*
X13017682Y-15603150D02*
X13008158Y-15584103D01*
X13008158Y-15584103D02*
X13008158Y-15574579D01*
X13008158Y-15574579D02*
X13017682Y-15555531D01*
X13017682Y-15555531D02*
X13027206Y-15546008D01*
X13027206Y-15546008D02*
X13046253Y-15536484D01*
X13046253Y-15536484D02*
X13084348Y-15536484D01*
X13084348Y-15536484D02*
X13103396Y-15546008D01*
X13103396Y-15546008D02*
X13112920Y-15555531D01*
X13112920Y-15555531D02*
X13122444Y-15574579D01*
X13122444Y-15574579D02*
X13122444Y-15584103D01*
X13122444Y-15584103D02*
X13112920Y-15603150D01*
X13112920Y-15603150D02*
X13103396Y-15612674D01*
X13103396Y-15612674D02*
X13084348Y-15622198D01*
X13084348Y-15622198D02*
X13046253Y-15622198D01*
X13046253Y-15622198D02*
X13027206Y-15631722D01*
X13027206Y-15631722D02*
X13017682Y-15641246D01*
X13017682Y-15641246D02*
X13008158Y-15660293D01*
X13008158Y-15660293D02*
X13008158Y-15698388D01*
X13008158Y-15698388D02*
X13017682Y-15717436D01*
X13017682Y-15717436D02*
X13027206Y-15726960D01*
X13027206Y-15726960D02*
X13046253Y-15736484D01*
X13046253Y-15736484D02*
X13084348Y-15736484D01*
X13084348Y-15736484D02*
X13103396Y-15726960D01*
X13103396Y-15726960D02*
X13112920Y-15717436D01*
X13112920Y-15717436D02*
X13122444Y-15698388D01*
X13122444Y-15698388D02*
X13122444Y-15660293D01*
X13122444Y-15660293D02*
X13112920Y-15641246D01*
X13112920Y-15641246D02*
X13103396Y-15631722D01*
X13103396Y-15631722D02*
X13084348Y-15622198D01*
X13198634Y-15536484D02*
X13198634Y-15574579D01*
X13274825Y-15536484D02*
X13274825Y-15574579D01*
X13570063Y-15812674D02*
X13560539Y-15803150D01*
X13560539Y-15803150D02*
X13541491Y-15774579D01*
X13541491Y-15774579D02*
X13531968Y-15755531D01*
X13531968Y-15755531D02*
X13522444Y-15726960D01*
X13522444Y-15726960D02*
X13512920Y-15679341D01*
X13512920Y-15679341D02*
X13512920Y-15641246D01*
X13512920Y-15641246D02*
X13522444Y-15593627D01*
X13522444Y-15593627D02*
X13531968Y-15565055D01*
X13531968Y-15565055D02*
X13541491Y-15546008D01*
X13541491Y-15546008D02*
X13560539Y-15517436D01*
X13560539Y-15517436D02*
X13570063Y-15507912D01*
X13731968Y-15603150D02*
X13731968Y-15736484D01*
X13684348Y-15526960D02*
X13636729Y-15669817D01*
X13636729Y-15669817D02*
X13760539Y-15669817D01*
X13874825Y-15536484D02*
X13893872Y-15536484D01*
X13893872Y-15536484D02*
X13912920Y-15546008D01*
X13912920Y-15546008D02*
X13922444Y-15555531D01*
X13922444Y-15555531D02*
X13931968Y-15574579D01*
X13931968Y-15574579D02*
X13941491Y-15612674D01*
X13941491Y-15612674D02*
X13941491Y-15660293D01*
X13941491Y-15660293D02*
X13931968Y-15698388D01*
X13931968Y-15698388D02*
X13922444Y-15717436D01*
X13922444Y-15717436D02*
X13912920Y-15726960D01*
X13912920Y-15726960D02*
X13893872Y-15736484D01*
X13893872Y-15736484D02*
X13874825Y-15736484D01*
X13874825Y-15736484D02*
X13855777Y-15726960D01*
X13855777Y-15726960D02*
X13846253Y-15717436D01*
X13846253Y-15717436D02*
X13836729Y-15698388D01*
X13836729Y-15698388D02*
X13827206Y-15660293D01*
X13827206Y-15660293D02*
X13827206Y-15612674D01*
X13827206Y-15612674D02*
X13836729Y-15574579D01*
X13836729Y-15574579D02*
X13846253Y-15555531D01*
X13846253Y-15555531D02*
X13855777Y-15546008D01*
X13855777Y-15546008D02*
X13874825Y-15536484D01*
X14008158Y-15536484D02*
X14141491Y-15536484D01*
X14141491Y-15536484D02*
X14055777Y-15736484D01*
X14370063Y-15736484D02*
X14370063Y-15536484D01*
X14455777Y-15736484D02*
X14455777Y-15631722D01*
X14455777Y-15631722D02*
X14446253Y-15612674D01*
X14446253Y-15612674D02*
X14427206Y-15603150D01*
X14427206Y-15603150D02*
X14398634Y-15603150D01*
X14398634Y-15603150D02*
X14379587Y-15612674D01*
X14379587Y-15612674D02*
X14370063Y-15622198D01*
X14579587Y-15736484D02*
X14560539Y-15726960D01*
X14560539Y-15726960D02*
X14551015Y-15717436D01*
X14551015Y-15717436D02*
X14541491Y-15698388D01*
X14541491Y-15698388D02*
X14541491Y-15641246D01*
X14541491Y-15641246D02*
X14551015Y-15622198D01*
X14551015Y-15622198D02*
X14560539Y-15612674D01*
X14560539Y-15612674D02*
X14579587Y-15603150D01*
X14579587Y-15603150D02*
X14608158Y-15603150D01*
X14608158Y-15603150D02*
X14627206Y-15612674D01*
X14627206Y-15612674D02*
X14636730Y-15622198D01*
X14636730Y-15622198D02*
X14646253Y-15641246D01*
X14646253Y-15641246D02*
X14646253Y-15698388D01*
X14646253Y-15698388D02*
X14636730Y-15717436D01*
X14636730Y-15717436D02*
X14627206Y-15726960D01*
X14627206Y-15726960D02*
X14608158Y-15736484D01*
X14608158Y-15736484D02*
X14579587Y-15736484D01*
X14760539Y-15736484D02*
X14741491Y-15726960D01*
X14741491Y-15726960D02*
X14731968Y-15707912D01*
X14731968Y-15707912D02*
X14731968Y-15536484D01*
X14912920Y-15726960D02*
X14893872Y-15736484D01*
X14893872Y-15736484D02*
X14855777Y-15736484D01*
X14855777Y-15736484D02*
X14836730Y-15726960D01*
X14836730Y-15726960D02*
X14827206Y-15707912D01*
X14827206Y-15707912D02*
X14827206Y-15631722D01*
X14827206Y-15631722D02*
X14836730Y-15612674D01*
X14836730Y-15612674D02*
X14855777Y-15603150D01*
X14855777Y-15603150D02*
X14893872Y-15603150D01*
X14893872Y-15603150D02*
X14912920Y-15612674D01*
X14912920Y-15612674D02*
X14922444Y-15631722D01*
X14922444Y-15631722D02*
X14922444Y-15650769D01*
X14922444Y-15650769D02*
X14827206Y-15669817D01*
X14998634Y-15726960D02*
X15017682Y-15736484D01*
X15017682Y-15736484D02*
X15055777Y-15736484D01*
X15055777Y-15736484D02*
X15074825Y-15726960D01*
X15074825Y-15726960D02*
X15084349Y-15707912D01*
X15084349Y-15707912D02*
X15084349Y-15698388D01*
X15084349Y-15698388D02*
X15074825Y-15679341D01*
X15074825Y-15679341D02*
X15055777Y-15669817D01*
X15055777Y-15669817D02*
X15027206Y-15669817D01*
X15027206Y-15669817D02*
X15008158Y-15660293D01*
X15008158Y-15660293D02*
X14998634Y-15641246D01*
X14998634Y-15641246D02*
X14998634Y-15631722D01*
X14998634Y-15631722D02*
X15008158Y-15612674D01*
X15008158Y-15612674D02*
X15027206Y-15603150D01*
X15027206Y-15603150D02*
X15055777Y-15603150D01*
X15055777Y-15603150D02*
X15074825Y-15612674D01*
X15151015Y-15812674D02*
X15160539Y-15803150D01*
X15160539Y-15803150D02*
X15179587Y-15774579D01*
X15179587Y-15774579D02*
X15189111Y-15755531D01*
X15189111Y-15755531D02*
X15198634Y-15726960D01*
X15198634Y-15726960D02*
X15208158Y-15679341D01*
X15208158Y-15679341D02*
X15208158Y-15641246D01*
X15208158Y-15641246D02*
X15198634Y-15593627D01*
X15198634Y-15593627D02*
X15189111Y-15565055D01*
X15189111Y-15565055D02*
X15179587Y-15546008D01*
X15179587Y-15546008D02*
X15160539Y-15517436D01*
X15160539Y-15517436D02*
X15151015Y-15507912D01*
D10*
X9995000Y-15909000D02*
G75*
G03*
X9965000Y-15909000I-15000J0D01*
G01*
X9965000Y-15909000D02*
G75*
G03*
X9995000Y-15909000I15000J0D01*
G01*
D11*
X10293872Y-15800484D02*
X10312920Y-15800484D01*
X10312920Y-15800484D02*
X10331967Y-15810008D01*
X10331967Y-15810008D02*
X10341491Y-15819531D01*
X10341491Y-15819531D02*
X10351015Y-15838579D01*
X10351015Y-15838579D02*
X10360539Y-15876674D01*
X10360539Y-15876674D02*
X10360539Y-15924293D01*
X10360539Y-15924293D02*
X10351015Y-15962388D01*
X10351015Y-15962388D02*
X10341491Y-15981436D01*
X10341491Y-15981436D02*
X10331967Y-15990960D01*
X10331967Y-15990960D02*
X10312920Y-16000484D01*
X10312920Y-16000484D02*
X10293872Y-16000484D01*
X10293872Y-16000484D02*
X10274824Y-15990960D01*
X10274824Y-15990960D02*
X10265301Y-15981436D01*
X10265301Y-15981436D02*
X10255777Y-15962388D01*
X10255777Y-15962388D02*
X10246253Y-15924293D01*
X10246253Y-15924293D02*
X10246253Y-15876674D01*
X10246253Y-15876674D02*
X10255777Y-15838579D01*
X10255777Y-15838579D02*
X10265301Y-15819531D01*
X10265301Y-15819531D02*
X10274824Y-15810008D01*
X10274824Y-15810008D02*
X10293872Y-15800484D01*
X10446253Y-15981436D02*
X10455777Y-15990960D01*
X10455777Y-15990960D02*
X10446253Y-16000484D01*
X10446253Y-16000484D02*
X10436729Y-15990960D01*
X10436729Y-15990960D02*
X10446253Y-15981436D01*
X10446253Y-15981436D02*
X10446253Y-16000484D01*
X10522444Y-15800484D02*
X10646253Y-15800484D01*
X10646253Y-15800484D02*
X10579586Y-15876674D01*
X10579586Y-15876674D02*
X10608158Y-15876674D01*
X10608158Y-15876674D02*
X10627205Y-15886198D01*
X10627205Y-15886198D02*
X10636729Y-15895722D01*
X10636729Y-15895722D02*
X10646253Y-15914769D01*
X10646253Y-15914769D02*
X10646253Y-15962388D01*
X10646253Y-15962388D02*
X10636729Y-15981436D01*
X10636729Y-15981436D02*
X10627205Y-15990960D01*
X10627205Y-15990960D02*
X10608158Y-16000484D01*
X10608158Y-16000484D02*
X10551015Y-16000484D01*
X10551015Y-16000484D02*
X10531967Y-15990960D01*
X10531967Y-15990960D02*
X10522444Y-15981436D01*
X10770063Y-15800484D02*
X10789110Y-15800484D01*
X10789110Y-15800484D02*
X10808158Y-15810008D01*
X10808158Y-15810008D02*
X10817682Y-15819531D01*
X10817682Y-15819531D02*
X10827205Y-15838579D01*
X10827205Y-15838579D02*
X10836729Y-15876674D01*
X10836729Y-15876674D02*
X10836729Y-15924293D01*
X10836729Y-15924293D02*
X10827205Y-15962388D01*
X10827205Y-15962388D02*
X10817682Y-15981436D01*
X10817682Y-15981436D02*
X10808158Y-15990960D01*
X10808158Y-15990960D02*
X10789110Y-16000484D01*
X10789110Y-16000484D02*
X10770063Y-16000484D01*
X10770063Y-16000484D02*
X10751015Y-15990960D01*
X10751015Y-15990960D02*
X10741491Y-15981436D01*
X10741491Y-15981436D02*
X10731967Y-15962388D01*
X10731967Y-15962388D02*
X10722444Y-15924293D01*
X10722444Y-15924293D02*
X10722444Y-15876674D01*
X10722444Y-15876674D02*
X10731967Y-15838579D01*
X10731967Y-15838579D02*
X10741491Y-15819531D01*
X10741491Y-15819531D02*
X10751015Y-15810008D01*
X10751015Y-15810008D02*
X10770063Y-15800484D01*
X10960539Y-15800484D02*
X10979586Y-15800484D01*
X10979586Y-15800484D02*
X10998634Y-15810008D01*
X10998634Y-15810008D02*
X11008158Y-15819531D01*
X11008158Y-15819531D02*
X11017682Y-15838579D01*
X11017682Y-15838579D02*
X11027205Y-15876674D01*
X11027205Y-15876674D02*
X11027205Y-15924293D01*
X11027205Y-15924293D02*
X11017682Y-15962388D01*
X11017682Y-15962388D02*
X11008158Y-15981436D01*
X11008158Y-15981436D02*
X10998634Y-15990960D01*
X10998634Y-15990960D02*
X10979586Y-16000484D01*
X10979586Y-16000484D02*
X10960539Y-16000484D01*
X10960539Y-16000484D02*
X10941491Y-15990960D01*
X10941491Y-15990960D02*
X10931967Y-15981436D01*
X10931967Y-15981436D02*
X10922444Y-15962388D01*
X10922444Y-15962388D02*
X10912920Y-15924293D01*
X10912920Y-15924293D02*
X10912920Y-15876674D01*
X10912920Y-15876674D02*
X10922444Y-15838579D01*
X10922444Y-15838579D02*
X10931967Y-15819531D01*
X10931967Y-15819531D02*
X10941491Y-15810008D01*
X10941491Y-15810008D02*
X10960539Y-15800484D01*
X11112920Y-16000484D02*
X11112920Y-15867150D01*
X11112920Y-15886198D02*
X11122444Y-15876674D01*
X11122444Y-15876674D02*
X11141491Y-15867150D01*
X11141491Y-15867150D02*
X11170063Y-15867150D01*
X11170063Y-15867150D02*
X11189110Y-15876674D01*
X11189110Y-15876674D02*
X11198634Y-15895722D01*
X11198634Y-15895722D02*
X11198634Y-16000484D01*
X11198634Y-15895722D02*
X11208158Y-15876674D01*
X11208158Y-15876674D02*
X11227205Y-15867150D01*
X11227205Y-15867150D02*
X11255777Y-15867150D01*
X11255777Y-15867150D02*
X11274824Y-15876674D01*
X11274824Y-15876674D02*
X11284348Y-15895722D01*
X11284348Y-15895722D02*
X11284348Y-16000484D01*
X11379586Y-16000484D02*
X11379586Y-15867150D01*
X11379586Y-15886198D02*
X11389110Y-15876674D01*
X11389110Y-15876674D02*
X11408158Y-15867150D01*
X11408158Y-15867150D02*
X11436729Y-15867150D01*
X11436729Y-15867150D02*
X11455777Y-15876674D01*
X11455777Y-15876674D02*
X11465301Y-15895722D01*
X11465301Y-15895722D02*
X11465301Y-16000484D01*
X11465301Y-15895722D02*
X11474824Y-15876674D01*
X11474824Y-15876674D02*
X11493872Y-15867150D01*
X11493872Y-15867150D02*
X11522443Y-15867150D01*
X11522443Y-15867150D02*
X11541491Y-15876674D01*
X11541491Y-15876674D02*
X11551015Y-15895722D01*
X11551015Y-15895722D02*
X11551015Y-16000484D01*
X11941491Y-15790960D02*
X11770063Y-16048103D01*
X12198634Y-15800484D02*
X12217682Y-15800484D01*
X12217682Y-15800484D02*
X12236729Y-15810008D01*
X12236729Y-15810008D02*
X12246253Y-15819531D01*
X12246253Y-15819531D02*
X12255777Y-15838579D01*
X12255777Y-15838579D02*
X12265301Y-15876674D01*
X12265301Y-15876674D02*
X12265301Y-15924293D01*
X12265301Y-15924293D02*
X12255777Y-15962388D01*
X12255777Y-15962388D02*
X12246253Y-15981436D01*
X12246253Y-15981436D02*
X12236729Y-15990960D01*
X12236729Y-15990960D02*
X12217682Y-16000484D01*
X12217682Y-16000484D02*
X12198634Y-16000484D01*
X12198634Y-16000484D02*
X12179586Y-15990960D01*
X12179586Y-15990960D02*
X12170063Y-15981436D01*
X12170063Y-15981436D02*
X12160539Y-15962388D01*
X12160539Y-15962388D02*
X12151015Y-15924293D01*
X12151015Y-15924293D02*
X12151015Y-15876674D01*
X12151015Y-15876674D02*
X12160539Y-15838579D01*
X12160539Y-15838579D02*
X12170063Y-15819531D01*
X12170063Y-15819531D02*
X12179586Y-15810008D01*
X12179586Y-15810008D02*
X12198634Y-15800484D01*
X12351015Y-15981436D02*
X12360539Y-15990960D01*
X12360539Y-15990960D02*
X12351015Y-16000484D01*
X12351015Y-16000484D02*
X12341491Y-15990960D01*
X12341491Y-15990960D02*
X12351015Y-15981436D01*
X12351015Y-15981436D02*
X12351015Y-16000484D01*
X12484348Y-15800484D02*
X12503396Y-15800484D01*
X12503396Y-15800484D02*
X12522444Y-15810008D01*
X12522444Y-15810008D02*
X12531967Y-15819531D01*
X12531967Y-15819531D02*
X12541491Y-15838579D01*
X12541491Y-15838579D02*
X12551015Y-15876674D01*
X12551015Y-15876674D02*
X12551015Y-15924293D01*
X12551015Y-15924293D02*
X12541491Y-15962388D01*
X12541491Y-15962388D02*
X12531967Y-15981436D01*
X12531967Y-15981436D02*
X12522444Y-15990960D01*
X12522444Y-15990960D02*
X12503396Y-16000484D01*
X12503396Y-16000484D02*
X12484348Y-16000484D01*
X12484348Y-16000484D02*
X12465301Y-15990960D01*
X12465301Y-15990960D02*
X12455777Y-15981436D01*
X12455777Y-15981436D02*
X12446253Y-15962388D01*
X12446253Y-15962388D02*
X12436729Y-15924293D01*
X12436729Y-15924293D02*
X12436729Y-15876674D01*
X12436729Y-15876674D02*
X12446253Y-15838579D01*
X12446253Y-15838579D02*
X12455777Y-15819531D01*
X12455777Y-15819531D02*
X12465301Y-15810008D01*
X12465301Y-15810008D02*
X12484348Y-15800484D01*
X12741491Y-16000484D02*
X12627206Y-16000484D01*
X12684348Y-16000484D02*
X12684348Y-15800484D01*
X12684348Y-15800484D02*
X12665301Y-15829055D01*
X12665301Y-15829055D02*
X12646253Y-15848103D01*
X12646253Y-15848103D02*
X12627206Y-15857627D01*
X12931967Y-16000484D02*
X12817682Y-16000484D01*
X12874825Y-16000484D02*
X12874825Y-15800484D01*
X12874825Y-15800484D02*
X12855777Y-15829055D01*
X12855777Y-15829055D02*
X12836729Y-15848103D01*
X12836729Y-15848103D02*
X12817682Y-15857627D01*
X13046253Y-15886198D02*
X13027206Y-15876674D01*
X13027206Y-15876674D02*
X13017682Y-15867150D01*
X13017682Y-15867150D02*
X13008158Y-15848103D01*
X13008158Y-15848103D02*
X13008158Y-15838579D01*
X13008158Y-15838579D02*
X13017682Y-15819531D01*
X13017682Y-15819531D02*
X13027206Y-15810008D01*
X13027206Y-15810008D02*
X13046253Y-15800484D01*
X13046253Y-15800484D02*
X13084348Y-15800484D01*
X13084348Y-15800484D02*
X13103396Y-15810008D01*
X13103396Y-15810008D02*
X13112920Y-15819531D01*
X13112920Y-15819531D02*
X13122444Y-15838579D01*
X13122444Y-15838579D02*
X13122444Y-15848103D01*
X13122444Y-15848103D02*
X13112920Y-15867150D01*
X13112920Y-15867150D02*
X13103396Y-15876674D01*
X13103396Y-15876674D02*
X13084348Y-15886198D01*
X13084348Y-15886198D02*
X13046253Y-15886198D01*
X13046253Y-15886198D02*
X13027206Y-15895722D01*
X13027206Y-15895722D02*
X13017682Y-15905246D01*
X13017682Y-15905246D02*
X13008158Y-15924293D01*
X13008158Y-15924293D02*
X13008158Y-15962388D01*
X13008158Y-15962388D02*
X13017682Y-15981436D01*
X13017682Y-15981436D02*
X13027206Y-15990960D01*
X13027206Y-15990960D02*
X13046253Y-16000484D01*
X13046253Y-16000484D02*
X13084348Y-16000484D01*
X13084348Y-16000484D02*
X13103396Y-15990960D01*
X13103396Y-15990960D02*
X13112920Y-15981436D01*
X13112920Y-15981436D02*
X13122444Y-15962388D01*
X13122444Y-15962388D02*
X13122444Y-15924293D01*
X13122444Y-15924293D02*
X13112920Y-15905246D01*
X13112920Y-15905246D02*
X13103396Y-15895722D01*
X13103396Y-15895722D02*
X13084348Y-15886198D01*
X13198634Y-15800484D02*
X13198634Y-15838579D01*
X13274825Y-15800484D02*
X13274825Y-15838579D01*
X13570063Y-16076674D02*
X13560539Y-16067150D01*
X13560539Y-16067150D02*
X13541491Y-16038579D01*
X13541491Y-16038579D02*
X13531968Y-16019531D01*
X13531968Y-16019531D02*
X13522444Y-15990960D01*
X13522444Y-15990960D02*
X13512920Y-15943341D01*
X13512920Y-15943341D02*
X13512920Y-15905246D01*
X13512920Y-15905246D02*
X13522444Y-15857627D01*
X13522444Y-15857627D02*
X13531968Y-15829055D01*
X13531968Y-15829055D02*
X13541491Y-15810008D01*
X13541491Y-15810008D02*
X13560539Y-15781436D01*
X13560539Y-15781436D02*
X13570063Y-15771912D01*
X13751015Y-16000484D02*
X13636729Y-16000484D01*
X13693872Y-16000484D02*
X13693872Y-15800484D01*
X13693872Y-15800484D02*
X13674825Y-15829055D01*
X13674825Y-15829055D02*
X13655777Y-15848103D01*
X13655777Y-15848103D02*
X13636729Y-15857627D01*
X13817682Y-15800484D02*
X13951015Y-15800484D01*
X13951015Y-15800484D02*
X13865301Y-16000484D01*
X14179587Y-16000484D02*
X14179587Y-15800484D01*
X14265301Y-16000484D02*
X14265301Y-15895722D01*
X14265301Y-15895722D02*
X14255777Y-15876674D01*
X14255777Y-15876674D02*
X14236730Y-15867150D01*
X14236730Y-15867150D02*
X14208158Y-15867150D01*
X14208158Y-15867150D02*
X14189110Y-15876674D01*
X14189110Y-15876674D02*
X14179587Y-15886198D01*
X14389110Y-16000484D02*
X14370063Y-15990960D01*
X14370063Y-15990960D02*
X14360539Y-15981436D01*
X14360539Y-15981436D02*
X14351015Y-15962388D01*
X14351015Y-15962388D02*
X14351015Y-15905246D01*
X14351015Y-15905246D02*
X14360539Y-15886198D01*
X14360539Y-15886198D02*
X14370063Y-15876674D01*
X14370063Y-15876674D02*
X14389110Y-15867150D01*
X14389110Y-15867150D02*
X14417682Y-15867150D01*
X14417682Y-15867150D02*
X14436730Y-15876674D01*
X14436730Y-15876674D02*
X14446253Y-15886198D01*
X14446253Y-15886198D02*
X14455777Y-15905246D01*
X14455777Y-15905246D02*
X14455777Y-15962388D01*
X14455777Y-15962388D02*
X14446253Y-15981436D01*
X14446253Y-15981436D02*
X14436730Y-15990960D01*
X14436730Y-15990960D02*
X14417682Y-16000484D01*
X14417682Y-16000484D02*
X14389110Y-16000484D01*
X14570063Y-16000484D02*
X14551015Y-15990960D01*
X14551015Y-15990960D02*
X14541491Y-15971912D01*
X14541491Y-15971912D02*
X14541491Y-15800484D01*
X14722444Y-15990960D02*
X14703396Y-16000484D01*
X14703396Y-16000484D02*
X14665301Y-16000484D01*
X14665301Y-16000484D02*
X14646253Y-15990960D01*
X14646253Y-15990960D02*
X14636730Y-15971912D01*
X14636730Y-15971912D02*
X14636730Y-15895722D01*
X14636730Y-15895722D02*
X14646253Y-15876674D01*
X14646253Y-15876674D02*
X14665301Y-15867150D01*
X14665301Y-15867150D02*
X14703396Y-15867150D01*
X14703396Y-15867150D02*
X14722444Y-15876674D01*
X14722444Y-15876674D02*
X14731968Y-15895722D01*
X14731968Y-15895722D02*
X14731968Y-15914769D01*
X14731968Y-15914769D02*
X14636730Y-15933817D01*
X14808158Y-15990960D02*
X14827206Y-16000484D01*
X14827206Y-16000484D02*
X14865301Y-16000484D01*
X14865301Y-16000484D02*
X14884349Y-15990960D01*
X14884349Y-15990960D02*
X14893872Y-15971912D01*
X14893872Y-15971912D02*
X14893872Y-15962388D01*
X14893872Y-15962388D02*
X14884349Y-15943341D01*
X14884349Y-15943341D02*
X14865301Y-15933817D01*
X14865301Y-15933817D02*
X14836730Y-15933817D01*
X14836730Y-15933817D02*
X14817682Y-15924293D01*
X14817682Y-15924293D02*
X14808158Y-15905246D01*
X14808158Y-15905246D02*
X14808158Y-15895722D01*
X14808158Y-15895722D02*
X14817682Y-15876674D01*
X14817682Y-15876674D02*
X14836730Y-15867150D01*
X14836730Y-15867150D02*
X14865301Y-15867150D01*
X14865301Y-15867150D02*
X14884349Y-15876674D01*
X14960539Y-16076674D02*
X14970063Y-16067150D01*
X14970063Y-16067150D02*
X14989111Y-16038579D01*
X14989111Y-16038579D02*
X14998634Y-16019531D01*
X14998634Y-16019531D02*
X15008158Y-15990960D01*
X15008158Y-15990960D02*
X15017682Y-15943341D01*
X15017682Y-15943341D02*
X15017682Y-15905246D01*
X15017682Y-15905246D02*
X15008158Y-15857627D01*
X15008158Y-15857627D02*
X14998634Y-15829055D01*
X14998634Y-15829055D02*
X14989111Y-15810008D01*
X14989111Y-15810008D02*
X14970063Y-15781436D01*
X14970063Y-15781436D02*
X14960539Y-15771912D01*
D10*
X9975000Y-16153000D02*
X9975000Y-16193000D01*
X9955000Y-16173000D02*
X9995000Y-16173000D01*
D11*
X10293872Y-16064484D02*
X10312920Y-16064484D01*
X10312920Y-16064484D02*
X10331967Y-16074008D01*
X10331967Y-16074008D02*
X10341491Y-16083531D01*
X10341491Y-16083531D02*
X10351015Y-16102579D01*
X10351015Y-16102579D02*
X10360539Y-16140674D01*
X10360539Y-16140674D02*
X10360539Y-16188293D01*
X10360539Y-16188293D02*
X10351015Y-16226388D01*
X10351015Y-16226388D02*
X10341491Y-16245436D01*
X10341491Y-16245436D02*
X10331967Y-16254960D01*
X10331967Y-16254960D02*
X10312920Y-16264484D01*
X10312920Y-16264484D02*
X10293872Y-16264484D01*
X10293872Y-16264484D02*
X10274824Y-16254960D01*
X10274824Y-16254960D02*
X10265301Y-16245436D01*
X10265301Y-16245436D02*
X10255777Y-16226388D01*
X10255777Y-16226388D02*
X10246253Y-16188293D01*
X10246253Y-16188293D02*
X10246253Y-16140674D01*
X10246253Y-16140674D02*
X10255777Y-16102579D01*
X10255777Y-16102579D02*
X10265301Y-16083531D01*
X10265301Y-16083531D02*
X10274824Y-16074008D01*
X10274824Y-16074008D02*
X10293872Y-16064484D01*
X10446253Y-16245436D02*
X10455777Y-16254960D01*
X10455777Y-16254960D02*
X10446253Y-16264484D01*
X10446253Y-16264484D02*
X10436729Y-16254960D01*
X10436729Y-16254960D02*
X10446253Y-16245436D01*
X10446253Y-16245436D02*
X10446253Y-16264484D01*
X10627205Y-16131150D02*
X10627205Y-16264484D01*
X10579586Y-16054960D02*
X10531967Y-16197817D01*
X10531967Y-16197817D02*
X10655777Y-16197817D01*
X10770063Y-16064484D02*
X10789110Y-16064484D01*
X10789110Y-16064484D02*
X10808158Y-16074008D01*
X10808158Y-16074008D02*
X10817682Y-16083531D01*
X10817682Y-16083531D02*
X10827205Y-16102579D01*
X10827205Y-16102579D02*
X10836729Y-16140674D01*
X10836729Y-16140674D02*
X10836729Y-16188293D01*
X10836729Y-16188293D02*
X10827205Y-16226388D01*
X10827205Y-16226388D02*
X10817682Y-16245436D01*
X10817682Y-16245436D02*
X10808158Y-16254960D01*
X10808158Y-16254960D02*
X10789110Y-16264484D01*
X10789110Y-16264484D02*
X10770063Y-16264484D01*
X10770063Y-16264484D02*
X10751015Y-16254960D01*
X10751015Y-16254960D02*
X10741491Y-16245436D01*
X10741491Y-16245436D02*
X10731967Y-16226388D01*
X10731967Y-16226388D02*
X10722444Y-16188293D01*
X10722444Y-16188293D02*
X10722444Y-16140674D01*
X10722444Y-16140674D02*
X10731967Y-16102579D01*
X10731967Y-16102579D02*
X10741491Y-16083531D01*
X10741491Y-16083531D02*
X10751015Y-16074008D01*
X10751015Y-16074008D02*
X10770063Y-16064484D01*
X10960539Y-16064484D02*
X10979586Y-16064484D01*
X10979586Y-16064484D02*
X10998634Y-16074008D01*
X10998634Y-16074008D02*
X11008158Y-16083531D01*
X11008158Y-16083531D02*
X11017682Y-16102579D01*
X11017682Y-16102579D02*
X11027205Y-16140674D01*
X11027205Y-16140674D02*
X11027205Y-16188293D01*
X11027205Y-16188293D02*
X11017682Y-16226388D01*
X11017682Y-16226388D02*
X11008158Y-16245436D01*
X11008158Y-16245436D02*
X10998634Y-16254960D01*
X10998634Y-16254960D02*
X10979586Y-16264484D01*
X10979586Y-16264484D02*
X10960539Y-16264484D01*
X10960539Y-16264484D02*
X10941491Y-16254960D01*
X10941491Y-16254960D02*
X10931967Y-16245436D01*
X10931967Y-16245436D02*
X10922444Y-16226388D01*
X10922444Y-16226388D02*
X10912920Y-16188293D01*
X10912920Y-16188293D02*
X10912920Y-16140674D01*
X10912920Y-16140674D02*
X10922444Y-16102579D01*
X10922444Y-16102579D02*
X10931967Y-16083531D01*
X10931967Y-16083531D02*
X10941491Y-16074008D01*
X10941491Y-16074008D02*
X10960539Y-16064484D01*
X11112920Y-16264484D02*
X11112920Y-16131150D01*
X11112920Y-16150198D02*
X11122444Y-16140674D01*
X11122444Y-16140674D02*
X11141491Y-16131150D01*
X11141491Y-16131150D02*
X11170063Y-16131150D01*
X11170063Y-16131150D02*
X11189110Y-16140674D01*
X11189110Y-16140674D02*
X11198634Y-16159722D01*
X11198634Y-16159722D02*
X11198634Y-16264484D01*
X11198634Y-16159722D02*
X11208158Y-16140674D01*
X11208158Y-16140674D02*
X11227205Y-16131150D01*
X11227205Y-16131150D02*
X11255777Y-16131150D01*
X11255777Y-16131150D02*
X11274824Y-16140674D01*
X11274824Y-16140674D02*
X11284348Y-16159722D01*
X11284348Y-16159722D02*
X11284348Y-16264484D01*
X11379586Y-16264484D02*
X11379586Y-16131150D01*
X11379586Y-16150198D02*
X11389110Y-16140674D01*
X11389110Y-16140674D02*
X11408158Y-16131150D01*
X11408158Y-16131150D02*
X11436729Y-16131150D01*
X11436729Y-16131150D02*
X11455777Y-16140674D01*
X11455777Y-16140674D02*
X11465301Y-16159722D01*
X11465301Y-16159722D02*
X11465301Y-16264484D01*
X11465301Y-16159722D02*
X11474824Y-16140674D01*
X11474824Y-16140674D02*
X11493872Y-16131150D01*
X11493872Y-16131150D02*
X11522443Y-16131150D01*
X11522443Y-16131150D02*
X11541491Y-16140674D01*
X11541491Y-16140674D02*
X11551015Y-16159722D01*
X11551015Y-16159722D02*
X11551015Y-16264484D01*
X11941491Y-16054960D02*
X11770063Y-16312103D01*
X12198634Y-16064484D02*
X12217682Y-16064484D01*
X12217682Y-16064484D02*
X12236729Y-16074008D01*
X12236729Y-16074008D02*
X12246253Y-16083531D01*
X12246253Y-16083531D02*
X12255777Y-16102579D01*
X12255777Y-16102579D02*
X12265301Y-16140674D01*
X12265301Y-16140674D02*
X12265301Y-16188293D01*
X12265301Y-16188293D02*
X12255777Y-16226388D01*
X12255777Y-16226388D02*
X12246253Y-16245436D01*
X12246253Y-16245436D02*
X12236729Y-16254960D01*
X12236729Y-16254960D02*
X12217682Y-16264484D01*
X12217682Y-16264484D02*
X12198634Y-16264484D01*
X12198634Y-16264484D02*
X12179586Y-16254960D01*
X12179586Y-16254960D02*
X12170063Y-16245436D01*
X12170063Y-16245436D02*
X12160539Y-16226388D01*
X12160539Y-16226388D02*
X12151015Y-16188293D01*
X12151015Y-16188293D02*
X12151015Y-16140674D01*
X12151015Y-16140674D02*
X12160539Y-16102579D01*
X12160539Y-16102579D02*
X12170063Y-16083531D01*
X12170063Y-16083531D02*
X12179586Y-16074008D01*
X12179586Y-16074008D02*
X12198634Y-16064484D01*
X12351015Y-16245436D02*
X12360539Y-16254960D01*
X12360539Y-16254960D02*
X12351015Y-16264484D01*
X12351015Y-16264484D02*
X12341491Y-16254960D01*
X12341491Y-16254960D02*
X12351015Y-16245436D01*
X12351015Y-16245436D02*
X12351015Y-16264484D01*
X12484348Y-16064484D02*
X12503396Y-16064484D01*
X12503396Y-16064484D02*
X12522444Y-16074008D01*
X12522444Y-16074008D02*
X12531967Y-16083531D01*
X12531967Y-16083531D02*
X12541491Y-16102579D01*
X12541491Y-16102579D02*
X12551015Y-16140674D01*
X12551015Y-16140674D02*
X12551015Y-16188293D01*
X12551015Y-16188293D02*
X12541491Y-16226388D01*
X12541491Y-16226388D02*
X12531967Y-16245436D01*
X12531967Y-16245436D02*
X12522444Y-16254960D01*
X12522444Y-16254960D02*
X12503396Y-16264484D01*
X12503396Y-16264484D02*
X12484348Y-16264484D01*
X12484348Y-16264484D02*
X12465301Y-16254960D01*
X12465301Y-16254960D02*
X12455777Y-16245436D01*
X12455777Y-16245436D02*
X12446253Y-16226388D01*
X12446253Y-16226388D02*
X12436729Y-16188293D01*
X12436729Y-16188293D02*
X12436729Y-16140674D01*
X12436729Y-16140674D02*
X12446253Y-16102579D01*
X12446253Y-16102579D02*
X12455777Y-16083531D01*
X12455777Y-16083531D02*
X12465301Y-16074008D01*
X12465301Y-16074008D02*
X12484348Y-16064484D01*
X12741491Y-16264484D02*
X12627206Y-16264484D01*
X12684348Y-16264484D02*
X12684348Y-16064484D01*
X12684348Y-16064484D02*
X12665301Y-16093055D01*
X12665301Y-16093055D02*
X12646253Y-16112103D01*
X12646253Y-16112103D02*
X12627206Y-16121627D01*
X12922444Y-16064484D02*
X12827206Y-16064484D01*
X12827206Y-16064484D02*
X12817682Y-16159722D01*
X12817682Y-16159722D02*
X12827206Y-16150198D01*
X12827206Y-16150198D02*
X12846253Y-16140674D01*
X12846253Y-16140674D02*
X12893872Y-16140674D01*
X12893872Y-16140674D02*
X12912920Y-16150198D01*
X12912920Y-16150198D02*
X12922444Y-16159722D01*
X12922444Y-16159722D02*
X12931967Y-16178769D01*
X12931967Y-16178769D02*
X12931967Y-16226388D01*
X12931967Y-16226388D02*
X12922444Y-16245436D01*
X12922444Y-16245436D02*
X12912920Y-16254960D01*
X12912920Y-16254960D02*
X12893872Y-16264484D01*
X12893872Y-16264484D02*
X12846253Y-16264484D01*
X12846253Y-16264484D02*
X12827206Y-16254960D01*
X12827206Y-16254960D02*
X12817682Y-16245436D01*
X12998634Y-16064484D02*
X13131967Y-16064484D01*
X13131967Y-16064484D02*
X13046253Y-16264484D01*
X13198634Y-16064484D02*
X13198634Y-16102579D01*
X13274825Y-16064484D02*
X13274825Y-16102579D01*
X13570063Y-16340674D02*
X13560539Y-16331150D01*
X13560539Y-16331150D02*
X13541491Y-16302579D01*
X13541491Y-16302579D02*
X13531968Y-16283531D01*
X13531968Y-16283531D02*
X13522444Y-16254960D01*
X13522444Y-16254960D02*
X13512920Y-16207341D01*
X13512920Y-16207341D02*
X13512920Y-16169246D01*
X13512920Y-16169246D02*
X13522444Y-16121627D01*
X13522444Y-16121627D02*
X13531968Y-16093055D01*
X13531968Y-16093055D02*
X13541491Y-16074008D01*
X13541491Y-16074008D02*
X13560539Y-16045436D01*
X13560539Y-16045436D02*
X13570063Y-16035912D01*
X13655777Y-16264484D02*
X13693872Y-16264484D01*
X13693872Y-16264484D02*
X13712920Y-16254960D01*
X13712920Y-16254960D02*
X13722444Y-16245436D01*
X13722444Y-16245436D02*
X13741491Y-16216865D01*
X13741491Y-16216865D02*
X13751015Y-16178769D01*
X13751015Y-16178769D02*
X13751015Y-16102579D01*
X13751015Y-16102579D02*
X13741491Y-16083531D01*
X13741491Y-16083531D02*
X13731968Y-16074008D01*
X13731968Y-16074008D02*
X13712920Y-16064484D01*
X13712920Y-16064484D02*
X13674825Y-16064484D01*
X13674825Y-16064484D02*
X13655777Y-16074008D01*
X13655777Y-16074008D02*
X13646253Y-16083531D01*
X13646253Y-16083531D02*
X13636729Y-16102579D01*
X13636729Y-16102579D02*
X13636729Y-16150198D01*
X13636729Y-16150198D02*
X13646253Y-16169246D01*
X13646253Y-16169246D02*
X13655777Y-16178769D01*
X13655777Y-16178769D02*
X13674825Y-16188293D01*
X13674825Y-16188293D02*
X13712920Y-16188293D01*
X13712920Y-16188293D02*
X13731968Y-16178769D01*
X13731968Y-16178769D02*
X13741491Y-16169246D01*
X13741491Y-16169246D02*
X13751015Y-16150198D01*
X13989110Y-16264484D02*
X13989110Y-16064484D01*
X14074825Y-16264484D02*
X14074825Y-16159722D01*
X14074825Y-16159722D02*
X14065301Y-16140674D01*
X14065301Y-16140674D02*
X14046253Y-16131150D01*
X14046253Y-16131150D02*
X14017682Y-16131150D01*
X14017682Y-16131150D02*
X13998634Y-16140674D01*
X13998634Y-16140674D02*
X13989110Y-16150198D01*
X14198634Y-16264484D02*
X14179587Y-16254960D01*
X14179587Y-16254960D02*
X14170063Y-16245436D01*
X14170063Y-16245436D02*
X14160539Y-16226388D01*
X14160539Y-16226388D02*
X14160539Y-16169246D01*
X14160539Y-16169246D02*
X14170063Y-16150198D01*
X14170063Y-16150198D02*
X14179587Y-16140674D01*
X14179587Y-16140674D02*
X14198634Y-16131150D01*
X14198634Y-16131150D02*
X14227206Y-16131150D01*
X14227206Y-16131150D02*
X14246253Y-16140674D01*
X14246253Y-16140674D02*
X14255777Y-16150198D01*
X14255777Y-16150198D02*
X14265301Y-16169246D01*
X14265301Y-16169246D02*
X14265301Y-16226388D01*
X14265301Y-16226388D02*
X14255777Y-16245436D01*
X14255777Y-16245436D02*
X14246253Y-16254960D01*
X14246253Y-16254960D02*
X14227206Y-16264484D01*
X14227206Y-16264484D02*
X14198634Y-16264484D01*
X14379587Y-16264484D02*
X14360539Y-16254960D01*
X14360539Y-16254960D02*
X14351015Y-16235912D01*
X14351015Y-16235912D02*
X14351015Y-16064484D01*
X14531968Y-16254960D02*
X14512920Y-16264484D01*
X14512920Y-16264484D02*
X14474825Y-16264484D01*
X14474825Y-16264484D02*
X14455777Y-16254960D01*
X14455777Y-16254960D02*
X14446253Y-16235912D01*
X14446253Y-16235912D02*
X14446253Y-16159722D01*
X14446253Y-16159722D02*
X14455777Y-16140674D01*
X14455777Y-16140674D02*
X14474825Y-16131150D01*
X14474825Y-16131150D02*
X14512920Y-16131150D01*
X14512920Y-16131150D02*
X14531968Y-16140674D01*
X14531968Y-16140674D02*
X14541491Y-16159722D01*
X14541491Y-16159722D02*
X14541491Y-16178769D01*
X14541491Y-16178769D02*
X14446253Y-16197817D01*
X14617682Y-16254960D02*
X14636730Y-16264484D01*
X14636730Y-16264484D02*
X14674825Y-16264484D01*
X14674825Y-16264484D02*
X14693872Y-16254960D01*
X14693872Y-16254960D02*
X14703396Y-16235912D01*
X14703396Y-16235912D02*
X14703396Y-16226388D01*
X14703396Y-16226388D02*
X14693872Y-16207341D01*
X14693872Y-16207341D02*
X14674825Y-16197817D01*
X14674825Y-16197817D02*
X14646253Y-16197817D01*
X14646253Y-16197817D02*
X14627206Y-16188293D01*
X14627206Y-16188293D02*
X14617682Y-16169246D01*
X14617682Y-16169246D02*
X14617682Y-16159722D01*
X14617682Y-16159722D02*
X14627206Y-16140674D01*
X14627206Y-16140674D02*
X14646253Y-16131150D01*
X14646253Y-16131150D02*
X14674825Y-16131150D01*
X14674825Y-16131150D02*
X14693872Y-16140674D01*
X14770063Y-16340674D02*
X14779587Y-16331150D01*
X14779587Y-16331150D02*
X14798634Y-16302579D01*
X14798634Y-16302579D02*
X14808158Y-16283531D01*
X14808158Y-16283531D02*
X14817682Y-16254960D01*
X14817682Y-16254960D02*
X14827206Y-16207341D01*
X14827206Y-16207341D02*
X14827206Y-16169246D01*
X14827206Y-16169246D02*
X14817682Y-16121627D01*
X14817682Y-16121627D02*
X14808158Y-16093055D01*
X14808158Y-16093055D02*
X14798634Y-16074008D01*
X14798634Y-16074008D02*
X14779587Y-16045436D01*
X14779587Y-16045436D02*
X14770063Y-16035912D01*
D10*
X9984749Y-16461749D02*
X9984749Y-16412251D01*
X9935251Y-16412251D01*
X9935251Y-16461749D01*
X9984749Y-16461749D01*
D11*
X10293872Y-16328484D02*
X10312920Y-16328484D01*
X10312920Y-16328484D02*
X10331967Y-16338008D01*
X10331967Y-16338008D02*
X10341491Y-16347531D01*
X10341491Y-16347531D02*
X10351015Y-16366579D01*
X10351015Y-16366579D02*
X10360539Y-16404674D01*
X10360539Y-16404674D02*
X10360539Y-16452293D01*
X10360539Y-16452293D02*
X10351015Y-16490388D01*
X10351015Y-16490388D02*
X10341491Y-16509436D01*
X10341491Y-16509436D02*
X10331967Y-16518960D01*
X10331967Y-16518960D02*
X10312920Y-16528484D01*
X10312920Y-16528484D02*
X10293872Y-16528484D01*
X10293872Y-16528484D02*
X10274824Y-16518960D01*
X10274824Y-16518960D02*
X10265301Y-16509436D01*
X10265301Y-16509436D02*
X10255777Y-16490388D01*
X10255777Y-16490388D02*
X10246253Y-16452293D01*
X10246253Y-16452293D02*
X10246253Y-16404674D01*
X10246253Y-16404674D02*
X10255777Y-16366579D01*
X10255777Y-16366579D02*
X10265301Y-16347531D01*
X10265301Y-16347531D02*
X10274824Y-16338008D01*
X10274824Y-16338008D02*
X10293872Y-16328484D01*
X10446253Y-16509436D02*
X10455777Y-16518960D01*
X10455777Y-16518960D02*
X10446253Y-16528484D01*
X10446253Y-16528484D02*
X10436729Y-16518960D01*
X10436729Y-16518960D02*
X10446253Y-16509436D01*
X10446253Y-16509436D02*
X10446253Y-16528484D01*
X10522444Y-16328484D02*
X10655777Y-16328484D01*
X10655777Y-16328484D02*
X10570063Y-16528484D01*
X10770063Y-16328484D02*
X10789110Y-16328484D01*
X10789110Y-16328484D02*
X10808158Y-16338008D01*
X10808158Y-16338008D02*
X10817682Y-16347531D01*
X10817682Y-16347531D02*
X10827205Y-16366579D01*
X10827205Y-16366579D02*
X10836729Y-16404674D01*
X10836729Y-16404674D02*
X10836729Y-16452293D01*
X10836729Y-16452293D02*
X10827205Y-16490388D01*
X10827205Y-16490388D02*
X10817682Y-16509436D01*
X10817682Y-16509436D02*
X10808158Y-16518960D01*
X10808158Y-16518960D02*
X10789110Y-16528484D01*
X10789110Y-16528484D02*
X10770063Y-16528484D01*
X10770063Y-16528484D02*
X10751015Y-16518960D01*
X10751015Y-16518960D02*
X10741491Y-16509436D01*
X10741491Y-16509436D02*
X10731967Y-16490388D01*
X10731967Y-16490388D02*
X10722444Y-16452293D01*
X10722444Y-16452293D02*
X10722444Y-16404674D01*
X10722444Y-16404674D02*
X10731967Y-16366579D01*
X10731967Y-16366579D02*
X10741491Y-16347531D01*
X10741491Y-16347531D02*
X10751015Y-16338008D01*
X10751015Y-16338008D02*
X10770063Y-16328484D01*
X10960539Y-16328484D02*
X10979586Y-16328484D01*
X10979586Y-16328484D02*
X10998634Y-16338008D01*
X10998634Y-16338008D02*
X11008158Y-16347531D01*
X11008158Y-16347531D02*
X11017682Y-16366579D01*
X11017682Y-16366579D02*
X11027205Y-16404674D01*
X11027205Y-16404674D02*
X11027205Y-16452293D01*
X11027205Y-16452293D02*
X11017682Y-16490388D01*
X11017682Y-16490388D02*
X11008158Y-16509436D01*
X11008158Y-16509436D02*
X10998634Y-16518960D01*
X10998634Y-16518960D02*
X10979586Y-16528484D01*
X10979586Y-16528484D02*
X10960539Y-16528484D01*
X10960539Y-16528484D02*
X10941491Y-16518960D01*
X10941491Y-16518960D02*
X10931967Y-16509436D01*
X10931967Y-16509436D02*
X10922444Y-16490388D01*
X10922444Y-16490388D02*
X10912920Y-16452293D01*
X10912920Y-16452293D02*
X10912920Y-16404674D01*
X10912920Y-16404674D02*
X10922444Y-16366579D01*
X10922444Y-16366579D02*
X10931967Y-16347531D01*
X10931967Y-16347531D02*
X10941491Y-16338008D01*
X10941491Y-16338008D02*
X10960539Y-16328484D01*
X11112920Y-16528484D02*
X11112920Y-16395150D01*
X11112920Y-16414198D02*
X11122444Y-16404674D01*
X11122444Y-16404674D02*
X11141491Y-16395150D01*
X11141491Y-16395150D02*
X11170063Y-16395150D01*
X11170063Y-16395150D02*
X11189110Y-16404674D01*
X11189110Y-16404674D02*
X11198634Y-16423722D01*
X11198634Y-16423722D02*
X11198634Y-16528484D01*
X11198634Y-16423722D02*
X11208158Y-16404674D01*
X11208158Y-16404674D02*
X11227205Y-16395150D01*
X11227205Y-16395150D02*
X11255777Y-16395150D01*
X11255777Y-16395150D02*
X11274824Y-16404674D01*
X11274824Y-16404674D02*
X11284348Y-16423722D01*
X11284348Y-16423722D02*
X11284348Y-16528484D01*
X11379586Y-16528484D02*
X11379586Y-16395150D01*
X11379586Y-16414198D02*
X11389110Y-16404674D01*
X11389110Y-16404674D02*
X11408158Y-16395150D01*
X11408158Y-16395150D02*
X11436729Y-16395150D01*
X11436729Y-16395150D02*
X11455777Y-16404674D01*
X11455777Y-16404674D02*
X11465301Y-16423722D01*
X11465301Y-16423722D02*
X11465301Y-16528484D01*
X11465301Y-16423722D02*
X11474824Y-16404674D01*
X11474824Y-16404674D02*
X11493872Y-16395150D01*
X11493872Y-16395150D02*
X11522443Y-16395150D01*
X11522443Y-16395150D02*
X11541491Y-16404674D01*
X11541491Y-16404674D02*
X11551015Y-16423722D01*
X11551015Y-16423722D02*
X11551015Y-16528484D01*
X11941491Y-16318960D02*
X11770063Y-16576103D01*
X12198634Y-16328484D02*
X12217682Y-16328484D01*
X12217682Y-16328484D02*
X12236729Y-16338008D01*
X12236729Y-16338008D02*
X12246253Y-16347531D01*
X12246253Y-16347531D02*
X12255777Y-16366579D01*
X12255777Y-16366579D02*
X12265301Y-16404674D01*
X12265301Y-16404674D02*
X12265301Y-16452293D01*
X12265301Y-16452293D02*
X12255777Y-16490388D01*
X12255777Y-16490388D02*
X12246253Y-16509436D01*
X12246253Y-16509436D02*
X12236729Y-16518960D01*
X12236729Y-16518960D02*
X12217682Y-16528484D01*
X12217682Y-16528484D02*
X12198634Y-16528484D01*
X12198634Y-16528484D02*
X12179586Y-16518960D01*
X12179586Y-16518960D02*
X12170063Y-16509436D01*
X12170063Y-16509436D02*
X12160539Y-16490388D01*
X12160539Y-16490388D02*
X12151015Y-16452293D01*
X12151015Y-16452293D02*
X12151015Y-16404674D01*
X12151015Y-16404674D02*
X12160539Y-16366579D01*
X12160539Y-16366579D02*
X12170063Y-16347531D01*
X12170063Y-16347531D02*
X12179586Y-16338008D01*
X12179586Y-16338008D02*
X12198634Y-16328484D01*
X12351015Y-16509436D02*
X12360539Y-16518960D01*
X12360539Y-16518960D02*
X12351015Y-16528484D01*
X12351015Y-16528484D02*
X12341491Y-16518960D01*
X12341491Y-16518960D02*
X12351015Y-16509436D01*
X12351015Y-16509436D02*
X12351015Y-16528484D01*
X12484348Y-16328484D02*
X12503396Y-16328484D01*
X12503396Y-16328484D02*
X12522444Y-16338008D01*
X12522444Y-16338008D02*
X12531967Y-16347531D01*
X12531967Y-16347531D02*
X12541491Y-16366579D01*
X12541491Y-16366579D02*
X12551015Y-16404674D01*
X12551015Y-16404674D02*
X12551015Y-16452293D01*
X12551015Y-16452293D02*
X12541491Y-16490388D01*
X12541491Y-16490388D02*
X12531967Y-16509436D01*
X12531967Y-16509436D02*
X12522444Y-16518960D01*
X12522444Y-16518960D02*
X12503396Y-16528484D01*
X12503396Y-16528484D02*
X12484348Y-16528484D01*
X12484348Y-16528484D02*
X12465301Y-16518960D01*
X12465301Y-16518960D02*
X12455777Y-16509436D01*
X12455777Y-16509436D02*
X12446253Y-16490388D01*
X12446253Y-16490388D02*
X12436729Y-16452293D01*
X12436729Y-16452293D02*
X12436729Y-16404674D01*
X12436729Y-16404674D02*
X12446253Y-16366579D01*
X12446253Y-16366579D02*
X12455777Y-16347531D01*
X12455777Y-16347531D02*
X12465301Y-16338008D01*
X12465301Y-16338008D02*
X12484348Y-16328484D01*
X12627206Y-16347531D02*
X12636729Y-16338008D01*
X12636729Y-16338008D02*
X12655777Y-16328484D01*
X12655777Y-16328484D02*
X12703396Y-16328484D01*
X12703396Y-16328484D02*
X12722444Y-16338008D01*
X12722444Y-16338008D02*
X12731967Y-16347531D01*
X12731967Y-16347531D02*
X12741491Y-16366579D01*
X12741491Y-16366579D02*
X12741491Y-16385627D01*
X12741491Y-16385627D02*
X12731967Y-16414198D01*
X12731967Y-16414198D02*
X12617682Y-16528484D01*
X12617682Y-16528484D02*
X12741491Y-16528484D01*
X12808158Y-16328484D02*
X12941491Y-16328484D01*
X12941491Y-16328484D02*
X12855777Y-16528484D01*
X13103396Y-16328484D02*
X13065301Y-16328484D01*
X13065301Y-16328484D02*
X13046253Y-16338008D01*
X13046253Y-16338008D02*
X13036729Y-16347531D01*
X13036729Y-16347531D02*
X13017682Y-16376103D01*
X13017682Y-16376103D02*
X13008158Y-16414198D01*
X13008158Y-16414198D02*
X13008158Y-16490388D01*
X13008158Y-16490388D02*
X13017682Y-16509436D01*
X13017682Y-16509436D02*
X13027206Y-16518960D01*
X13027206Y-16518960D02*
X13046253Y-16528484D01*
X13046253Y-16528484D02*
X13084348Y-16528484D01*
X13084348Y-16528484D02*
X13103396Y-16518960D01*
X13103396Y-16518960D02*
X13112920Y-16509436D01*
X13112920Y-16509436D02*
X13122444Y-16490388D01*
X13122444Y-16490388D02*
X13122444Y-16442769D01*
X13122444Y-16442769D02*
X13112920Y-16423722D01*
X13112920Y-16423722D02*
X13103396Y-16414198D01*
X13103396Y-16414198D02*
X13084348Y-16404674D01*
X13084348Y-16404674D02*
X13046253Y-16404674D01*
X13046253Y-16404674D02*
X13027206Y-16414198D01*
X13027206Y-16414198D02*
X13017682Y-16423722D01*
X13017682Y-16423722D02*
X13008158Y-16442769D01*
X13198634Y-16328484D02*
X13198634Y-16366579D01*
X13274825Y-16328484D02*
X13274825Y-16366579D01*
X13570063Y-16604674D02*
X13560539Y-16595150D01*
X13560539Y-16595150D02*
X13541491Y-16566579D01*
X13541491Y-16566579D02*
X13531968Y-16547531D01*
X13531968Y-16547531D02*
X13522444Y-16518960D01*
X13522444Y-16518960D02*
X13512920Y-16471341D01*
X13512920Y-16471341D02*
X13512920Y-16433246D01*
X13512920Y-16433246D02*
X13522444Y-16385627D01*
X13522444Y-16385627D02*
X13531968Y-16357055D01*
X13531968Y-16357055D02*
X13541491Y-16338008D01*
X13541491Y-16338008D02*
X13560539Y-16309436D01*
X13560539Y-16309436D02*
X13570063Y-16299912D01*
X13636729Y-16347531D02*
X13646253Y-16338008D01*
X13646253Y-16338008D02*
X13665301Y-16328484D01*
X13665301Y-16328484D02*
X13712920Y-16328484D01*
X13712920Y-16328484D02*
X13731968Y-16338008D01*
X13731968Y-16338008D02*
X13741491Y-16347531D01*
X13741491Y-16347531D02*
X13751015Y-16366579D01*
X13751015Y-16366579D02*
X13751015Y-16385627D01*
X13751015Y-16385627D02*
X13741491Y-16414198D01*
X13741491Y-16414198D02*
X13627206Y-16528484D01*
X13627206Y-16528484D02*
X13751015Y-16528484D01*
X13989110Y-16528484D02*
X13989110Y-16328484D01*
X14074825Y-16528484D02*
X14074825Y-16423722D01*
X14074825Y-16423722D02*
X14065301Y-16404674D01*
X14065301Y-16404674D02*
X14046253Y-16395150D01*
X14046253Y-16395150D02*
X14017682Y-16395150D01*
X14017682Y-16395150D02*
X13998634Y-16404674D01*
X13998634Y-16404674D02*
X13989110Y-16414198D01*
X14198634Y-16528484D02*
X14179587Y-16518960D01*
X14179587Y-16518960D02*
X14170063Y-16509436D01*
X14170063Y-16509436D02*
X14160539Y-16490388D01*
X14160539Y-16490388D02*
X14160539Y-16433246D01*
X14160539Y-16433246D02*
X14170063Y-16414198D01*
X14170063Y-16414198D02*
X14179587Y-16404674D01*
X14179587Y-16404674D02*
X14198634Y-16395150D01*
X14198634Y-16395150D02*
X14227206Y-16395150D01*
X14227206Y-16395150D02*
X14246253Y-16404674D01*
X14246253Y-16404674D02*
X14255777Y-16414198D01*
X14255777Y-16414198D02*
X14265301Y-16433246D01*
X14265301Y-16433246D02*
X14265301Y-16490388D01*
X14265301Y-16490388D02*
X14255777Y-16509436D01*
X14255777Y-16509436D02*
X14246253Y-16518960D01*
X14246253Y-16518960D02*
X14227206Y-16528484D01*
X14227206Y-16528484D02*
X14198634Y-16528484D01*
X14379587Y-16528484D02*
X14360539Y-16518960D01*
X14360539Y-16518960D02*
X14351015Y-16499912D01*
X14351015Y-16499912D02*
X14351015Y-16328484D01*
X14531968Y-16518960D02*
X14512920Y-16528484D01*
X14512920Y-16528484D02*
X14474825Y-16528484D01*
X14474825Y-16528484D02*
X14455777Y-16518960D01*
X14455777Y-16518960D02*
X14446253Y-16499912D01*
X14446253Y-16499912D02*
X14446253Y-16423722D01*
X14446253Y-16423722D02*
X14455777Y-16404674D01*
X14455777Y-16404674D02*
X14474825Y-16395150D01*
X14474825Y-16395150D02*
X14512920Y-16395150D01*
X14512920Y-16395150D02*
X14531968Y-16404674D01*
X14531968Y-16404674D02*
X14541491Y-16423722D01*
X14541491Y-16423722D02*
X14541491Y-16442769D01*
X14541491Y-16442769D02*
X14446253Y-16461817D01*
X14617682Y-16518960D02*
X14636730Y-16528484D01*
X14636730Y-16528484D02*
X14674825Y-16528484D01*
X14674825Y-16528484D02*
X14693872Y-16518960D01*
X14693872Y-16518960D02*
X14703396Y-16499912D01*
X14703396Y-16499912D02*
X14703396Y-16490388D01*
X14703396Y-16490388D02*
X14693872Y-16471341D01*
X14693872Y-16471341D02*
X14674825Y-16461817D01*
X14674825Y-16461817D02*
X14646253Y-16461817D01*
X14646253Y-16461817D02*
X14627206Y-16452293D01*
X14627206Y-16452293D02*
X14617682Y-16433246D01*
X14617682Y-16433246D02*
X14617682Y-16423722D01*
X14617682Y-16423722D02*
X14627206Y-16404674D01*
X14627206Y-16404674D02*
X14646253Y-16395150D01*
X14646253Y-16395150D02*
X14674825Y-16395150D01*
X14674825Y-16395150D02*
X14693872Y-16404674D01*
X14770063Y-16604674D02*
X14779587Y-16595150D01*
X14779587Y-16595150D02*
X14798634Y-16566579D01*
X14798634Y-16566579D02*
X14808158Y-16547531D01*
X14808158Y-16547531D02*
X14817682Y-16518960D01*
X14817682Y-16518960D02*
X14827206Y-16471341D01*
X14827206Y-16471341D02*
X14827206Y-16433246D01*
X14827206Y-16433246D02*
X14817682Y-16385627D01*
X14817682Y-16385627D02*
X14808158Y-16357055D01*
X14808158Y-16357055D02*
X14798634Y-16338008D01*
X14798634Y-16338008D02*
X14779587Y-16309436D01*
X14779587Y-16309436D02*
X14770063Y-16299912D01*
D10*
X9955000Y-16741000D02*
X9995000Y-16701000D01*
X9955000Y-16661000D01*
X9915000Y-16701000D01*
X9955000Y-16741000D01*
D11*
X10293872Y-16592484D02*
X10312920Y-16592484D01*
X10312920Y-16592484D02*
X10331967Y-16602008D01*
X10331967Y-16602008D02*
X10341491Y-16611531D01*
X10341491Y-16611531D02*
X10351015Y-16630579D01*
X10351015Y-16630579D02*
X10360539Y-16668674D01*
X10360539Y-16668674D02*
X10360539Y-16716293D01*
X10360539Y-16716293D02*
X10351015Y-16754388D01*
X10351015Y-16754388D02*
X10341491Y-16773436D01*
X10341491Y-16773436D02*
X10331967Y-16782960D01*
X10331967Y-16782960D02*
X10312920Y-16792484D01*
X10312920Y-16792484D02*
X10293872Y-16792484D01*
X10293872Y-16792484D02*
X10274824Y-16782960D01*
X10274824Y-16782960D02*
X10265301Y-16773436D01*
X10265301Y-16773436D02*
X10255777Y-16754388D01*
X10255777Y-16754388D02*
X10246253Y-16716293D01*
X10246253Y-16716293D02*
X10246253Y-16668674D01*
X10246253Y-16668674D02*
X10255777Y-16630579D01*
X10255777Y-16630579D02*
X10265301Y-16611531D01*
X10265301Y-16611531D02*
X10274824Y-16602008D01*
X10274824Y-16602008D02*
X10293872Y-16592484D01*
X10446253Y-16773436D02*
X10455777Y-16782960D01*
X10455777Y-16782960D02*
X10446253Y-16792484D01*
X10446253Y-16792484D02*
X10436729Y-16782960D01*
X10436729Y-16782960D02*
X10446253Y-16773436D01*
X10446253Y-16773436D02*
X10446253Y-16792484D01*
X10570063Y-16678198D02*
X10551015Y-16668674D01*
X10551015Y-16668674D02*
X10541491Y-16659150D01*
X10541491Y-16659150D02*
X10531967Y-16640103D01*
X10531967Y-16640103D02*
X10531967Y-16630579D01*
X10531967Y-16630579D02*
X10541491Y-16611531D01*
X10541491Y-16611531D02*
X10551015Y-16602008D01*
X10551015Y-16602008D02*
X10570063Y-16592484D01*
X10570063Y-16592484D02*
X10608158Y-16592484D01*
X10608158Y-16592484D02*
X10627205Y-16602008D01*
X10627205Y-16602008D02*
X10636729Y-16611531D01*
X10636729Y-16611531D02*
X10646253Y-16630579D01*
X10646253Y-16630579D02*
X10646253Y-16640103D01*
X10646253Y-16640103D02*
X10636729Y-16659150D01*
X10636729Y-16659150D02*
X10627205Y-16668674D01*
X10627205Y-16668674D02*
X10608158Y-16678198D01*
X10608158Y-16678198D02*
X10570063Y-16678198D01*
X10570063Y-16678198D02*
X10551015Y-16687722D01*
X10551015Y-16687722D02*
X10541491Y-16697246D01*
X10541491Y-16697246D02*
X10531967Y-16716293D01*
X10531967Y-16716293D02*
X10531967Y-16754388D01*
X10531967Y-16754388D02*
X10541491Y-16773436D01*
X10541491Y-16773436D02*
X10551015Y-16782960D01*
X10551015Y-16782960D02*
X10570063Y-16792484D01*
X10570063Y-16792484D02*
X10608158Y-16792484D01*
X10608158Y-16792484D02*
X10627205Y-16782960D01*
X10627205Y-16782960D02*
X10636729Y-16773436D01*
X10636729Y-16773436D02*
X10646253Y-16754388D01*
X10646253Y-16754388D02*
X10646253Y-16716293D01*
X10646253Y-16716293D02*
X10636729Y-16697246D01*
X10636729Y-16697246D02*
X10627205Y-16687722D01*
X10627205Y-16687722D02*
X10608158Y-16678198D01*
X10770063Y-16592484D02*
X10789110Y-16592484D01*
X10789110Y-16592484D02*
X10808158Y-16602008D01*
X10808158Y-16602008D02*
X10817682Y-16611531D01*
X10817682Y-16611531D02*
X10827205Y-16630579D01*
X10827205Y-16630579D02*
X10836729Y-16668674D01*
X10836729Y-16668674D02*
X10836729Y-16716293D01*
X10836729Y-16716293D02*
X10827205Y-16754388D01*
X10827205Y-16754388D02*
X10817682Y-16773436D01*
X10817682Y-16773436D02*
X10808158Y-16782960D01*
X10808158Y-16782960D02*
X10789110Y-16792484D01*
X10789110Y-16792484D02*
X10770063Y-16792484D01*
X10770063Y-16792484D02*
X10751015Y-16782960D01*
X10751015Y-16782960D02*
X10741491Y-16773436D01*
X10741491Y-16773436D02*
X10731967Y-16754388D01*
X10731967Y-16754388D02*
X10722444Y-16716293D01*
X10722444Y-16716293D02*
X10722444Y-16668674D01*
X10722444Y-16668674D02*
X10731967Y-16630579D01*
X10731967Y-16630579D02*
X10741491Y-16611531D01*
X10741491Y-16611531D02*
X10751015Y-16602008D01*
X10751015Y-16602008D02*
X10770063Y-16592484D01*
X10960539Y-16592484D02*
X10979586Y-16592484D01*
X10979586Y-16592484D02*
X10998634Y-16602008D01*
X10998634Y-16602008D02*
X11008158Y-16611531D01*
X11008158Y-16611531D02*
X11017682Y-16630579D01*
X11017682Y-16630579D02*
X11027205Y-16668674D01*
X11027205Y-16668674D02*
X11027205Y-16716293D01*
X11027205Y-16716293D02*
X11017682Y-16754388D01*
X11017682Y-16754388D02*
X11008158Y-16773436D01*
X11008158Y-16773436D02*
X10998634Y-16782960D01*
X10998634Y-16782960D02*
X10979586Y-16792484D01*
X10979586Y-16792484D02*
X10960539Y-16792484D01*
X10960539Y-16792484D02*
X10941491Y-16782960D01*
X10941491Y-16782960D02*
X10931967Y-16773436D01*
X10931967Y-16773436D02*
X10922444Y-16754388D01*
X10922444Y-16754388D02*
X10912920Y-16716293D01*
X10912920Y-16716293D02*
X10912920Y-16668674D01*
X10912920Y-16668674D02*
X10922444Y-16630579D01*
X10922444Y-16630579D02*
X10931967Y-16611531D01*
X10931967Y-16611531D02*
X10941491Y-16602008D01*
X10941491Y-16602008D02*
X10960539Y-16592484D01*
X11112920Y-16792484D02*
X11112920Y-16659150D01*
X11112920Y-16678198D02*
X11122444Y-16668674D01*
X11122444Y-16668674D02*
X11141491Y-16659150D01*
X11141491Y-16659150D02*
X11170063Y-16659150D01*
X11170063Y-16659150D02*
X11189110Y-16668674D01*
X11189110Y-16668674D02*
X11198634Y-16687722D01*
X11198634Y-16687722D02*
X11198634Y-16792484D01*
X11198634Y-16687722D02*
X11208158Y-16668674D01*
X11208158Y-16668674D02*
X11227205Y-16659150D01*
X11227205Y-16659150D02*
X11255777Y-16659150D01*
X11255777Y-16659150D02*
X11274824Y-16668674D01*
X11274824Y-16668674D02*
X11284348Y-16687722D01*
X11284348Y-16687722D02*
X11284348Y-16792484D01*
X11379586Y-16792484D02*
X11379586Y-16659150D01*
X11379586Y-16678198D02*
X11389110Y-16668674D01*
X11389110Y-16668674D02*
X11408158Y-16659150D01*
X11408158Y-16659150D02*
X11436729Y-16659150D01*
X11436729Y-16659150D02*
X11455777Y-16668674D01*
X11455777Y-16668674D02*
X11465301Y-16687722D01*
X11465301Y-16687722D02*
X11465301Y-16792484D01*
X11465301Y-16687722D02*
X11474824Y-16668674D01*
X11474824Y-16668674D02*
X11493872Y-16659150D01*
X11493872Y-16659150D02*
X11522443Y-16659150D01*
X11522443Y-16659150D02*
X11541491Y-16668674D01*
X11541491Y-16668674D02*
X11551015Y-16687722D01*
X11551015Y-16687722D02*
X11551015Y-16792484D01*
X11941491Y-16582960D02*
X11770063Y-16840103D01*
X12198634Y-16592484D02*
X12217682Y-16592484D01*
X12217682Y-16592484D02*
X12236729Y-16602008D01*
X12236729Y-16602008D02*
X12246253Y-16611531D01*
X12246253Y-16611531D02*
X12255777Y-16630579D01*
X12255777Y-16630579D02*
X12265301Y-16668674D01*
X12265301Y-16668674D02*
X12265301Y-16716293D01*
X12265301Y-16716293D02*
X12255777Y-16754388D01*
X12255777Y-16754388D02*
X12246253Y-16773436D01*
X12246253Y-16773436D02*
X12236729Y-16782960D01*
X12236729Y-16782960D02*
X12217682Y-16792484D01*
X12217682Y-16792484D02*
X12198634Y-16792484D01*
X12198634Y-16792484D02*
X12179586Y-16782960D01*
X12179586Y-16782960D02*
X12170063Y-16773436D01*
X12170063Y-16773436D02*
X12160539Y-16754388D01*
X12160539Y-16754388D02*
X12151015Y-16716293D01*
X12151015Y-16716293D02*
X12151015Y-16668674D01*
X12151015Y-16668674D02*
X12160539Y-16630579D01*
X12160539Y-16630579D02*
X12170063Y-16611531D01*
X12170063Y-16611531D02*
X12179586Y-16602008D01*
X12179586Y-16602008D02*
X12198634Y-16592484D01*
X12351015Y-16773436D02*
X12360539Y-16782960D01*
X12360539Y-16782960D02*
X12351015Y-16792484D01*
X12351015Y-16792484D02*
X12341491Y-16782960D01*
X12341491Y-16782960D02*
X12351015Y-16773436D01*
X12351015Y-16773436D02*
X12351015Y-16792484D01*
X12484348Y-16592484D02*
X12503396Y-16592484D01*
X12503396Y-16592484D02*
X12522444Y-16602008D01*
X12522444Y-16602008D02*
X12531967Y-16611531D01*
X12531967Y-16611531D02*
X12541491Y-16630579D01*
X12541491Y-16630579D02*
X12551015Y-16668674D01*
X12551015Y-16668674D02*
X12551015Y-16716293D01*
X12551015Y-16716293D02*
X12541491Y-16754388D01*
X12541491Y-16754388D02*
X12531967Y-16773436D01*
X12531967Y-16773436D02*
X12522444Y-16782960D01*
X12522444Y-16782960D02*
X12503396Y-16792484D01*
X12503396Y-16792484D02*
X12484348Y-16792484D01*
X12484348Y-16792484D02*
X12465301Y-16782960D01*
X12465301Y-16782960D02*
X12455777Y-16773436D01*
X12455777Y-16773436D02*
X12446253Y-16754388D01*
X12446253Y-16754388D02*
X12436729Y-16716293D01*
X12436729Y-16716293D02*
X12436729Y-16668674D01*
X12436729Y-16668674D02*
X12446253Y-16630579D01*
X12446253Y-16630579D02*
X12455777Y-16611531D01*
X12455777Y-16611531D02*
X12465301Y-16602008D01*
X12465301Y-16602008D02*
X12484348Y-16592484D01*
X12617682Y-16592484D02*
X12741491Y-16592484D01*
X12741491Y-16592484D02*
X12674825Y-16668674D01*
X12674825Y-16668674D02*
X12703396Y-16668674D01*
X12703396Y-16668674D02*
X12722444Y-16678198D01*
X12722444Y-16678198D02*
X12731967Y-16687722D01*
X12731967Y-16687722D02*
X12741491Y-16706769D01*
X12741491Y-16706769D02*
X12741491Y-16754388D01*
X12741491Y-16754388D02*
X12731967Y-16773436D01*
X12731967Y-16773436D02*
X12722444Y-16782960D01*
X12722444Y-16782960D02*
X12703396Y-16792484D01*
X12703396Y-16792484D02*
X12646253Y-16792484D01*
X12646253Y-16792484D02*
X12627206Y-16782960D01*
X12627206Y-16782960D02*
X12617682Y-16773436D01*
X12931967Y-16792484D02*
X12817682Y-16792484D01*
X12874825Y-16792484D02*
X12874825Y-16592484D01*
X12874825Y-16592484D02*
X12855777Y-16621055D01*
X12855777Y-16621055D02*
X12836729Y-16640103D01*
X12836729Y-16640103D02*
X12817682Y-16649627D01*
X13112920Y-16592484D02*
X13017682Y-16592484D01*
X13017682Y-16592484D02*
X13008158Y-16687722D01*
X13008158Y-16687722D02*
X13017682Y-16678198D01*
X13017682Y-16678198D02*
X13036729Y-16668674D01*
X13036729Y-16668674D02*
X13084348Y-16668674D01*
X13084348Y-16668674D02*
X13103396Y-16678198D01*
X13103396Y-16678198D02*
X13112920Y-16687722D01*
X13112920Y-16687722D02*
X13122444Y-16706769D01*
X13122444Y-16706769D02*
X13122444Y-16754388D01*
X13122444Y-16754388D02*
X13112920Y-16773436D01*
X13112920Y-16773436D02*
X13103396Y-16782960D01*
X13103396Y-16782960D02*
X13084348Y-16792484D01*
X13084348Y-16792484D02*
X13036729Y-16792484D01*
X13036729Y-16792484D02*
X13017682Y-16782960D01*
X13017682Y-16782960D02*
X13008158Y-16773436D01*
X13198634Y-16592484D02*
X13198634Y-16630579D01*
X13274825Y-16592484D02*
X13274825Y-16630579D01*
X13570063Y-16868674D02*
X13560539Y-16859150D01*
X13560539Y-16859150D02*
X13541491Y-16830579D01*
X13541491Y-16830579D02*
X13531968Y-16811531D01*
X13531968Y-16811531D02*
X13522444Y-16782960D01*
X13522444Y-16782960D02*
X13512920Y-16735341D01*
X13512920Y-16735341D02*
X13512920Y-16697246D01*
X13512920Y-16697246D02*
X13522444Y-16649627D01*
X13522444Y-16649627D02*
X13531968Y-16621055D01*
X13531968Y-16621055D02*
X13541491Y-16602008D01*
X13541491Y-16602008D02*
X13560539Y-16573436D01*
X13560539Y-16573436D02*
X13570063Y-16563912D01*
X13636729Y-16611531D02*
X13646253Y-16602008D01*
X13646253Y-16602008D02*
X13665301Y-16592484D01*
X13665301Y-16592484D02*
X13712920Y-16592484D01*
X13712920Y-16592484D02*
X13731968Y-16602008D01*
X13731968Y-16602008D02*
X13741491Y-16611531D01*
X13741491Y-16611531D02*
X13751015Y-16630579D01*
X13751015Y-16630579D02*
X13751015Y-16649627D01*
X13751015Y-16649627D02*
X13741491Y-16678198D01*
X13741491Y-16678198D02*
X13627206Y-16792484D01*
X13627206Y-16792484D02*
X13751015Y-16792484D01*
X13989110Y-16792484D02*
X13989110Y-16592484D01*
X14074825Y-16792484D02*
X14074825Y-16687722D01*
X14074825Y-16687722D02*
X14065301Y-16668674D01*
X14065301Y-16668674D02*
X14046253Y-16659150D01*
X14046253Y-16659150D02*
X14017682Y-16659150D01*
X14017682Y-16659150D02*
X13998634Y-16668674D01*
X13998634Y-16668674D02*
X13989110Y-16678198D01*
X14198634Y-16792484D02*
X14179587Y-16782960D01*
X14179587Y-16782960D02*
X14170063Y-16773436D01*
X14170063Y-16773436D02*
X14160539Y-16754388D01*
X14160539Y-16754388D02*
X14160539Y-16697246D01*
X14160539Y-16697246D02*
X14170063Y-16678198D01*
X14170063Y-16678198D02*
X14179587Y-16668674D01*
X14179587Y-16668674D02*
X14198634Y-16659150D01*
X14198634Y-16659150D02*
X14227206Y-16659150D01*
X14227206Y-16659150D02*
X14246253Y-16668674D01*
X14246253Y-16668674D02*
X14255777Y-16678198D01*
X14255777Y-16678198D02*
X14265301Y-16697246D01*
X14265301Y-16697246D02*
X14265301Y-16754388D01*
X14265301Y-16754388D02*
X14255777Y-16773436D01*
X14255777Y-16773436D02*
X14246253Y-16782960D01*
X14246253Y-16782960D02*
X14227206Y-16792484D01*
X14227206Y-16792484D02*
X14198634Y-16792484D01*
X14379587Y-16792484D02*
X14360539Y-16782960D01*
X14360539Y-16782960D02*
X14351015Y-16763912D01*
X14351015Y-16763912D02*
X14351015Y-16592484D01*
X14531968Y-16782960D02*
X14512920Y-16792484D01*
X14512920Y-16792484D02*
X14474825Y-16792484D01*
X14474825Y-16792484D02*
X14455777Y-16782960D01*
X14455777Y-16782960D02*
X14446253Y-16763912D01*
X14446253Y-16763912D02*
X14446253Y-16687722D01*
X14446253Y-16687722D02*
X14455777Y-16668674D01*
X14455777Y-16668674D02*
X14474825Y-16659150D01*
X14474825Y-16659150D02*
X14512920Y-16659150D01*
X14512920Y-16659150D02*
X14531968Y-16668674D01*
X14531968Y-16668674D02*
X14541491Y-16687722D01*
X14541491Y-16687722D02*
X14541491Y-16706769D01*
X14541491Y-16706769D02*
X14446253Y-16725817D01*
X14617682Y-16782960D02*
X14636730Y-16792484D01*
X14636730Y-16792484D02*
X14674825Y-16792484D01*
X14674825Y-16792484D02*
X14693872Y-16782960D01*
X14693872Y-16782960D02*
X14703396Y-16763912D01*
X14703396Y-16763912D02*
X14703396Y-16754388D01*
X14703396Y-16754388D02*
X14693872Y-16735341D01*
X14693872Y-16735341D02*
X14674825Y-16725817D01*
X14674825Y-16725817D02*
X14646253Y-16725817D01*
X14646253Y-16725817D02*
X14627206Y-16716293D01*
X14627206Y-16716293D02*
X14617682Y-16697246D01*
X14617682Y-16697246D02*
X14617682Y-16687722D01*
X14617682Y-16687722D02*
X14627206Y-16668674D01*
X14627206Y-16668674D02*
X14646253Y-16659150D01*
X14646253Y-16659150D02*
X14674825Y-16659150D01*
X14674825Y-16659150D02*
X14693872Y-16668674D01*
X14770063Y-16868674D02*
X14779587Y-16859150D01*
X14779587Y-16859150D02*
X14798634Y-16830579D01*
X14798634Y-16830579D02*
X14808158Y-16811531D01*
X14808158Y-16811531D02*
X14817682Y-16782960D01*
X14817682Y-16782960D02*
X14827206Y-16735341D01*
X14827206Y-16735341D02*
X14827206Y-16697246D01*
X14827206Y-16697246D02*
X14817682Y-16649627D01*
X14817682Y-16649627D02*
X14808158Y-16621055D01*
X14808158Y-16621055D02*
X14798634Y-16602008D01*
X14798634Y-16602008D02*
X14779587Y-16573436D01*
X14779587Y-16573436D02*
X14770063Y-16563912D01*
D10*
X9895000Y-16915000D02*
X9995000Y-17015000D01*
X9995000Y-16915000D02*
X9895000Y-17015000D01*
X9995000Y-16965000D02*
G75*
G03*
X9895000Y-16965000I-50000J0D01*
G01*
X9895000Y-16965000D02*
G75*
G03*
X9995000Y-16965000I50000J0D01*
G01*
D11*
X10360539Y-17056484D02*
X10246253Y-17056484D01*
X10303396Y-17056484D02*
X10303396Y-16856484D01*
X10303396Y-16856484D02*
X10284348Y-16885055D01*
X10284348Y-16885055D02*
X10265301Y-16904103D01*
X10265301Y-16904103D02*
X10246253Y-16913627D01*
X10446253Y-17037436D02*
X10455777Y-17046960D01*
X10455777Y-17046960D02*
X10446253Y-17056484D01*
X10446253Y-17056484D02*
X10436729Y-17046960D01*
X10436729Y-17046960D02*
X10446253Y-17037436D01*
X10446253Y-17037436D02*
X10446253Y-17056484D01*
X10579586Y-16856484D02*
X10598634Y-16856484D01*
X10598634Y-16856484D02*
X10617682Y-16866008D01*
X10617682Y-16866008D02*
X10627205Y-16875531D01*
X10627205Y-16875531D02*
X10636729Y-16894579D01*
X10636729Y-16894579D02*
X10646253Y-16932674D01*
X10646253Y-16932674D02*
X10646253Y-16980293D01*
X10646253Y-16980293D02*
X10636729Y-17018389D01*
X10636729Y-17018389D02*
X10627205Y-17037436D01*
X10627205Y-17037436D02*
X10617682Y-17046960D01*
X10617682Y-17046960D02*
X10598634Y-17056484D01*
X10598634Y-17056484D02*
X10579586Y-17056484D01*
X10579586Y-17056484D02*
X10560539Y-17046960D01*
X10560539Y-17046960D02*
X10551015Y-17037436D01*
X10551015Y-17037436D02*
X10541491Y-17018389D01*
X10541491Y-17018389D02*
X10531967Y-16980293D01*
X10531967Y-16980293D02*
X10531967Y-16932674D01*
X10531967Y-16932674D02*
X10541491Y-16894579D01*
X10541491Y-16894579D02*
X10551015Y-16875531D01*
X10551015Y-16875531D02*
X10560539Y-16866008D01*
X10560539Y-16866008D02*
X10579586Y-16856484D01*
X10770063Y-16856484D02*
X10789110Y-16856484D01*
X10789110Y-16856484D02*
X10808158Y-16866008D01*
X10808158Y-16866008D02*
X10817682Y-16875531D01*
X10817682Y-16875531D02*
X10827205Y-16894579D01*
X10827205Y-16894579D02*
X10836729Y-16932674D01*
X10836729Y-16932674D02*
X10836729Y-16980293D01*
X10836729Y-16980293D02*
X10827205Y-17018389D01*
X10827205Y-17018389D02*
X10817682Y-17037436D01*
X10817682Y-17037436D02*
X10808158Y-17046960D01*
X10808158Y-17046960D02*
X10789110Y-17056484D01*
X10789110Y-17056484D02*
X10770063Y-17056484D01*
X10770063Y-17056484D02*
X10751015Y-17046960D01*
X10751015Y-17046960D02*
X10741491Y-17037436D01*
X10741491Y-17037436D02*
X10731967Y-17018389D01*
X10731967Y-17018389D02*
X10722444Y-16980293D01*
X10722444Y-16980293D02*
X10722444Y-16932674D01*
X10722444Y-16932674D02*
X10731967Y-16894579D01*
X10731967Y-16894579D02*
X10741491Y-16875531D01*
X10741491Y-16875531D02*
X10751015Y-16866008D01*
X10751015Y-16866008D02*
X10770063Y-16856484D01*
X10960539Y-16856484D02*
X10979586Y-16856484D01*
X10979586Y-16856484D02*
X10998634Y-16866008D01*
X10998634Y-16866008D02*
X11008158Y-16875531D01*
X11008158Y-16875531D02*
X11017682Y-16894579D01*
X11017682Y-16894579D02*
X11027205Y-16932674D01*
X11027205Y-16932674D02*
X11027205Y-16980293D01*
X11027205Y-16980293D02*
X11017682Y-17018389D01*
X11017682Y-17018389D02*
X11008158Y-17037436D01*
X11008158Y-17037436D02*
X10998634Y-17046960D01*
X10998634Y-17046960D02*
X10979586Y-17056484D01*
X10979586Y-17056484D02*
X10960539Y-17056484D01*
X10960539Y-17056484D02*
X10941491Y-17046960D01*
X10941491Y-17046960D02*
X10931967Y-17037436D01*
X10931967Y-17037436D02*
X10922444Y-17018389D01*
X10922444Y-17018389D02*
X10912920Y-16980293D01*
X10912920Y-16980293D02*
X10912920Y-16932674D01*
X10912920Y-16932674D02*
X10922444Y-16894579D01*
X10922444Y-16894579D02*
X10931967Y-16875531D01*
X10931967Y-16875531D02*
X10941491Y-16866008D01*
X10941491Y-16866008D02*
X10960539Y-16856484D01*
X11112920Y-17056484D02*
X11112920Y-16923150D01*
X11112920Y-16942198D02*
X11122444Y-16932674D01*
X11122444Y-16932674D02*
X11141491Y-16923150D01*
X11141491Y-16923150D02*
X11170063Y-16923150D01*
X11170063Y-16923150D02*
X11189110Y-16932674D01*
X11189110Y-16932674D02*
X11198634Y-16951722D01*
X11198634Y-16951722D02*
X11198634Y-17056484D01*
X11198634Y-16951722D02*
X11208158Y-16932674D01*
X11208158Y-16932674D02*
X11227205Y-16923150D01*
X11227205Y-16923150D02*
X11255777Y-16923150D01*
X11255777Y-16923150D02*
X11274824Y-16932674D01*
X11274824Y-16932674D02*
X11284348Y-16951722D01*
X11284348Y-16951722D02*
X11284348Y-17056484D01*
X11379586Y-17056484D02*
X11379586Y-16923150D01*
X11379586Y-16942198D02*
X11389110Y-16932674D01*
X11389110Y-16932674D02*
X11408158Y-16923150D01*
X11408158Y-16923150D02*
X11436729Y-16923150D01*
X11436729Y-16923150D02*
X11455777Y-16932674D01*
X11455777Y-16932674D02*
X11465301Y-16951722D01*
X11465301Y-16951722D02*
X11465301Y-17056484D01*
X11465301Y-16951722D02*
X11474824Y-16932674D01*
X11474824Y-16932674D02*
X11493872Y-16923150D01*
X11493872Y-16923150D02*
X11522443Y-16923150D01*
X11522443Y-16923150D02*
X11541491Y-16932674D01*
X11541491Y-16932674D02*
X11551015Y-16951722D01*
X11551015Y-16951722D02*
X11551015Y-17056484D01*
X11941491Y-16846960D02*
X11770063Y-17104103D01*
X12198634Y-16856484D02*
X12217682Y-16856484D01*
X12217682Y-16856484D02*
X12236729Y-16866008D01*
X12236729Y-16866008D02*
X12246253Y-16875531D01*
X12246253Y-16875531D02*
X12255777Y-16894579D01*
X12255777Y-16894579D02*
X12265301Y-16932674D01*
X12265301Y-16932674D02*
X12265301Y-16980293D01*
X12265301Y-16980293D02*
X12255777Y-17018389D01*
X12255777Y-17018389D02*
X12246253Y-17037436D01*
X12246253Y-17037436D02*
X12236729Y-17046960D01*
X12236729Y-17046960D02*
X12217682Y-17056484D01*
X12217682Y-17056484D02*
X12198634Y-17056484D01*
X12198634Y-17056484D02*
X12179586Y-17046960D01*
X12179586Y-17046960D02*
X12170063Y-17037436D01*
X12170063Y-17037436D02*
X12160539Y-17018389D01*
X12160539Y-17018389D02*
X12151015Y-16980293D01*
X12151015Y-16980293D02*
X12151015Y-16932674D01*
X12151015Y-16932674D02*
X12160539Y-16894579D01*
X12160539Y-16894579D02*
X12170063Y-16875531D01*
X12170063Y-16875531D02*
X12179586Y-16866008D01*
X12179586Y-16866008D02*
X12198634Y-16856484D01*
X12351015Y-17037436D02*
X12360539Y-17046960D01*
X12360539Y-17046960D02*
X12351015Y-17056484D01*
X12351015Y-17056484D02*
X12341491Y-17046960D01*
X12341491Y-17046960D02*
X12351015Y-17037436D01*
X12351015Y-17037436D02*
X12351015Y-17056484D01*
X12484348Y-16856484D02*
X12503396Y-16856484D01*
X12503396Y-16856484D02*
X12522444Y-16866008D01*
X12522444Y-16866008D02*
X12531967Y-16875531D01*
X12531967Y-16875531D02*
X12541491Y-16894579D01*
X12541491Y-16894579D02*
X12551015Y-16932674D01*
X12551015Y-16932674D02*
X12551015Y-16980293D01*
X12551015Y-16980293D02*
X12541491Y-17018389D01*
X12541491Y-17018389D02*
X12531967Y-17037436D01*
X12531967Y-17037436D02*
X12522444Y-17046960D01*
X12522444Y-17046960D02*
X12503396Y-17056484D01*
X12503396Y-17056484D02*
X12484348Y-17056484D01*
X12484348Y-17056484D02*
X12465301Y-17046960D01*
X12465301Y-17046960D02*
X12455777Y-17037436D01*
X12455777Y-17037436D02*
X12446253Y-17018389D01*
X12446253Y-17018389D02*
X12436729Y-16980293D01*
X12436729Y-16980293D02*
X12436729Y-16932674D01*
X12436729Y-16932674D02*
X12446253Y-16894579D01*
X12446253Y-16894579D02*
X12455777Y-16875531D01*
X12455777Y-16875531D02*
X12465301Y-16866008D01*
X12465301Y-16866008D02*
X12484348Y-16856484D01*
X12617682Y-16856484D02*
X12741491Y-16856484D01*
X12741491Y-16856484D02*
X12674825Y-16932674D01*
X12674825Y-16932674D02*
X12703396Y-16932674D01*
X12703396Y-16932674D02*
X12722444Y-16942198D01*
X12722444Y-16942198D02*
X12731967Y-16951722D01*
X12731967Y-16951722D02*
X12741491Y-16970770D01*
X12741491Y-16970770D02*
X12741491Y-17018389D01*
X12741491Y-17018389D02*
X12731967Y-17037436D01*
X12731967Y-17037436D02*
X12722444Y-17046960D01*
X12722444Y-17046960D02*
X12703396Y-17056484D01*
X12703396Y-17056484D02*
X12646253Y-17056484D01*
X12646253Y-17056484D02*
X12627206Y-17046960D01*
X12627206Y-17046960D02*
X12617682Y-17037436D01*
X12836729Y-17056484D02*
X12874825Y-17056484D01*
X12874825Y-17056484D02*
X12893872Y-17046960D01*
X12893872Y-17046960D02*
X12903396Y-17037436D01*
X12903396Y-17037436D02*
X12922444Y-17008865D01*
X12922444Y-17008865D02*
X12931967Y-16970770D01*
X12931967Y-16970770D02*
X12931967Y-16894579D01*
X12931967Y-16894579D02*
X12922444Y-16875531D01*
X12922444Y-16875531D02*
X12912920Y-16866008D01*
X12912920Y-16866008D02*
X12893872Y-16856484D01*
X12893872Y-16856484D02*
X12855777Y-16856484D01*
X12855777Y-16856484D02*
X12836729Y-16866008D01*
X12836729Y-16866008D02*
X12827206Y-16875531D01*
X12827206Y-16875531D02*
X12817682Y-16894579D01*
X12817682Y-16894579D02*
X12817682Y-16942198D01*
X12817682Y-16942198D02*
X12827206Y-16961246D01*
X12827206Y-16961246D02*
X12836729Y-16970770D01*
X12836729Y-16970770D02*
X12855777Y-16980293D01*
X12855777Y-16980293D02*
X12893872Y-16980293D01*
X12893872Y-16980293D02*
X12912920Y-16970770D01*
X12912920Y-16970770D02*
X12922444Y-16961246D01*
X12922444Y-16961246D02*
X12931967Y-16942198D01*
X13103396Y-16923150D02*
X13103396Y-17056484D01*
X13055777Y-16846960D02*
X13008158Y-16989817D01*
X13008158Y-16989817D02*
X13131967Y-16989817D01*
X13198634Y-16856484D02*
X13198634Y-16894579D01*
X13274825Y-16856484D02*
X13274825Y-16894579D01*
X13570063Y-17132674D02*
X13560539Y-17123150D01*
X13560539Y-17123150D02*
X13541491Y-17094579D01*
X13541491Y-17094579D02*
X13531968Y-17075531D01*
X13531968Y-17075531D02*
X13522444Y-17046960D01*
X13522444Y-17046960D02*
X13512920Y-16999341D01*
X13512920Y-16999341D02*
X13512920Y-16961246D01*
X13512920Y-16961246D02*
X13522444Y-16913627D01*
X13522444Y-16913627D02*
X13531968Y-16885055D01*
X13531968Y-16885055D02*
X13541491Y-16866008D01*
X13541491Y-16866008D02*
X13560539Y-16837436D01*
X13560539Y-16837436D02*
X13570063Y-16827912D01*
X13731968Y-16923150D02*
X13731968Y-17056484D01*
X13684348Y-16846960D02*
X13636729Y-16989817D01*
X13636729Y-16989817D02*
X13760539Y-16989817D01*
X13922444Y-16923150D02*
X13922444Y-17056484D01*
X13874825Y-16846960D02*
X13827206Y-16989817D01*
X13827206Y-16989817D02*
X13951015Y-16989817D01*
X14179587Y-17056484D02*
X14179587Y-16856484D01*
X14265301Y-17056484D02*
X14265301Y-16951722D01*
X14265301Y-16951722D02*
X14255777Y-16932674D01*
X14255777Y-16932674D02*
X14236730Y-16923150D01*
X14236730Y-16923150D02*
X14208158Y-16923150D01*
X14208158Y-16923150D02*
X14189110Y-16932674D01*
X14189110Y-16932674D02*
X14179587Y-16942198D01*
X14389110Y-17056484D02*
X14370063Y-17046960D01*
X14370063Y-17046960D02*
X14360539Y-17037436D01*
X14360539Y-17037436D02*
X14351015Y-17018389D01*
X14351015Y-17018389D02*
X14351015Y-16961246D01*
X14351015Y-16961246D02*
X14360539Y-16942198D01*
X14360539Y-16942198D02*
X14370063Y-16932674D01*
X14370063Y-16932674D02*
X14389110Y-16923150D01*
X14389110Y-16923150D02*
X14417682Y-16923150D01*
X14417682Y-16923150D02*
X14436730Y-16932674D01*
X14436730Y-16932674D02*
X14446253Y-16942198D01*
X14446253Y-16942198D02*
X14455777Y-16961246D01*
X14455777Y-16961246D02*
X14455777Y-17018389D01*
X14455777Y-17018389D02*
X14446253Y-17037436D01*
X14446253Y-17037436D02*
X14436730Y-17046960D01*
X14436730Y-17046960D02*
X14417682Y-17056484D01*
X14417682Y-17056484D02*
X14389110Y-17056484D01*
X14570063Y-17056484D02*
X14551015Y-17046960D01*
X14551015Y-17046960D02*
X14541491Y-17027912D01*
X14541491Y-17027912D02*
X14541491Y-16856484D01*
X14722444Y-17046960D02*
X14703396Y-17056484D01*
X14703396Y-17056484D02*
X14665301Y-17056484D01*
X14665301Y-17056484D02*
X14646253Y-17046960D01*
X14646253Y-17046960D02*
X14636730Y-17027912D01*
X14636730Y-17027912D02*
X14636730Y-16951722D01*
X14636730Y-16951722D02*
X14646253Y-16932674D01*
X14646253Y-16932674D02*
X14665301Y-16923150D01*
X14665301Y-16923150D02*
X14703396Y-16923150D01*
X14703396Y-16923150D02*
X14722444Y-16932674D01*
X14722444Y-16932674D02*
X14731968Y-16951722D01*
X14731968Y-16951722D02*
X14731968Y-16970770D01*
X14731968Y-16970770D02*
X14636730Y-16989817D01*
X14808158Y-17046960D02*
X14827206Y-17056484D01*
X14827206Y-17056484D02*
X14865301Y-17056484D01*
X14865301Y-17056484D02*
X14884349Y-17046960D01*
X14884349Y-17046960D02*
X14893872Y-17027912D01*
X14893872Y-17027912D02*
X14893872Y-17018389D01*
X14893872Y-17018389D02*
X14884349Y-16999341D01*
X14884349Y-16999341D02*
X14865301Y-16989817D01*
X14865301Y-16989817D02*
X14836730Y-16989817D01*
X14836730Y-16989817D02*
X14817682Y-16980293D01*
X14817682Y-16980293D02*
X14808158Y-16961246D01*
X14808158Y-16961246D02*
X14808158Y-16951722D01*
X14808158Y-16951722D02*
X14817682Y-16932674D01*
X14817682Y-16932674D02*
X14836730Y-16923150D01*
X14836730Y-16923150D02*
X14865301Y-16923150D01*
X14865301Y-16923150D02*
X14884349Y-16932674D01*
X14960539Y-17132674D02*
X14970063Y-17123150D01*
X14970063Y-17123150D02*
X14989111Y-17094579D01*
X14989111Y-17094579D02*
X14998634Y-17075531D01*
X14998634Y-17075531D02*
X15008158Y-17046960D01*
X15008158Y-17046960D02*
X15017682Y-16999341D01*
X15017682Y-16999341D02*
X15017682Y-16961246D01*
X15017682Y-16961246D02*
X15008158Y-16913627D01*
X15008158Y-16913627D02*
X14998634Y-16885055D01*
X14998634Y-16885055D02*
X14989111Y-16866008D01*
X14989111Y-16866008D02*
X14970063Y-16837436D01*
X14970063Y-16837436D02*
X14960539Y-16827912D01*
D12*
X9885000Y-17174000D02*
X9995000Y-17284000D01*
X9995000Y-17174000D02*
X9885000Y-17284000D01*
X9940000Y-17174000D02*
X9940000Y-17284000D01*
X9885000Y-17229000D02*
X9995000Y-17229000D01*
D11*
X10360539Y-17320484D02*
X10246253Y-17320484D01*
X10303396Y-17320484D02*
X10303396Y-17120484D01*
X10303396Y-17120484D02*
X10284348Y-17149055D01*
X10284348Y-17149055D02*
X10265301Y-17168103D01*
X10265301Y-17168103D02*
X10246253Y-17177627D01*
X10446253Y-17301436D02*
X10455777Y-17310960D01*
X10455777Y-17310960D02*
X10446253Y-17320484D01*
X10446253Y-17320484D02*
X10436729Y-17310960D01*
X10436729Y-17310960D02*
X10446253Y-17301436D01*
X10446253Y-17301436D02*
X10446253Y-17320484D01*
X10646253Y-17320484D02*
X10531967Y-17320484D01*
X10589110Y-17320484D02*
X10589110Y-17120484D01*
X10589110Y-17120484D02*
X10570063Y-17149055D01*
X10570063Y-17149055D02*
X10551015Y-17168103D01*
X10551015Y-17168103D02*
X10531967Y-17177627D01*
X10770063Y-17120484D02*
X10789110Y-17120484D01*
X10789110Y-17120484D02*
X10808158Y-17130008D01*
X10808158Y-17130008D02*
X10817682Y-17139531D01*
X10817682Y-17139531D02*
X10827205Y-17158579D01*
X10827205Y-17158579D02*
X10836729Y-17196674D01*
X10836729Y-17196674D02*
X10836729Y-17244293D01*
X10836729Y-17244293D02*
X10827205Y-17282389D01*
X10827205Y-17282389D02*
X10817682Y-17301436D01*
X10817682Y-17301436D02*
X10808158Y-17310960D01*
X10808158Y-17310960D02*
X10789110Y-17320484D01*
X10789110Y-17320484D02*
X10770063Y-17320484D01*
X10770063Y-17320484D02*
X10751015Y-17310960D01*
X10751015Y-17310960D02*
X10741491Y-17301436D01*
X10741491Y-17301436D02*
X10731967Y-17282389D01*
X10731967Y-17282389D02*
X10722444Y-17244293D01*
X10722444Y-17244293D02*
X10722444Y-17196674D01*
X10722444Y-17196674D02*
X10731967Y-17158579D01*
X10731967Y-17158579D02*
X10741491Y-17139531D01*
X10741491Y-17139531D02*
X10751015Y-17130008D01*
X10751015Y-17130008D02*
X10770063Y-17120484D01*
X10960539Y-17120484D02*
X10979586Y-17120484D01*
X10979586Y-17120484D02*
X10998634Y-17130008D01*
X10998634Y-17130008D02*
X11008158Y-17139531D01*
X11008158Y-17139531D02*
X11017682Y-17158579D01*
X11017682Y-17158579D02*
X11027205Y-17196674D01*
X11027205Y-17196674D02*
X11027205Y-17244293D01*
X11027205Y-17244293D02*
X11017682Y-17282389D01*
X11017682Y-17282389D02*
X11008158Y-17301436D01*
X11008158Y-17301436D02*
X10998634Y-17310960D01*
X10998634Y-17310960D02*
X10979586Y-17320484D01*
X10979586Y-17320484D02*
X10960539Y-17320484D01*
X10960539Y-17320484D02*
X10941491Y-17310960D01*
X10941491Y-17310960D02*
X10931967Y-17301436D01*
X10931967Y-17301436D02*
X10922444Y-17282389D01*
X10922444Y-17282389D02*
X10912920Y-17244293D01*
X10912920Y-17244293D02*
X10912920Y-17196674D01*
X10912920Y-17196674D02*
X10922444Y-17158579D01*
X10922444Y-17158579D02*
X10931967Y-17139531D01*
X10931967Y-17139531D02*
X10941491Y-17130008D01*
X10941491Y-17130008D02*
X10960539Y-17120484D01*
X11112920Y-17320484D02*
X11112920Y-17187150D01*
X11112920Y-17206198D02*
X11122444Y-17196674D01*
X11122444Y-17196674D02*
X11141491Y-17187150D01*
X11141491Y-17187150D02*
X11170063Y-17187150D01*
X11170063Y-17187150D02*
X11189110Y-17196674D01*
X11189110Y-17196674D02*
X11198634Y-17215722D01*
X11198634Y-17215722D02*
X11198634Y-17320484D01*
X11198634Y-17215722D02*
X11208158Y-17196674D01*
X11208158Y-17196674D02*
X11227205Y-17187150D01*
X11227205Y-17187150D02*
X11255777Y-17187150D01*
X11255777Y-17187150D02*
X11274824Y-17196674D01*
X11274824Y-17196674D02*
X11284348Y-17215722D01*
X11284348Y-17215722D02*
X11284348Y-17320484D01*
X11379586Y-17320484D02*
X11379586Y-17187150D01*
X11379586Y-17206198D02*
X11389110Y-17196674D01*
X11389110Y-17196674D02*
X11408158Y-17187150D01*
X11408158Y-17187150D02*
X11436729Y-17187150D01*
X11436729Y-17187150D02*
X11455777Y-17196674D01*
X11455777Y-17196674D02*
X11465301Y-17215722D01*
X11465301Y-17215722D02*
X11465301Y-17320484D01*
X11465301Y-17215722D02*
X11474824Y-17196674D01*
X11474824Y-17196674D02*
X11493872Y-17187150D01*
X11493872Y-17187150D02*
X11522443Y-17187150D01*
X11522443Y-17187150D02*
X11541491Y-17196674D01*
X11541491Y-17196674D02*
X11551015Y-17215722D01*
X11551015Y-17215722D02*
X11551015Y-17320484D01*
X11941491Y-17110960D02*
X11770063Y-17368103D01*
X12198634Y-17120484D02*
X12217682Y-17120484D01*
X12217682Y-17120484D02*
X12236729Y-17130008D01*
X12236729Y-17130008D02*
X12246253Y-17139531D01*
X12246253Y-17139531D02*
X12255777Y-17158579D01*
X12255777Y-17158579D02*
X12265301Y-17196674D01*
X12265301Y-17196674D02*
X12265301Y-17244293D01*
X12265301Y-17244293D02*
X12255777Y-17282389D01*
X12255777Y-17282389D02*
X12246253Y-17301436D01*
X12246253Y-17301436D02*
X12236729Y-17310960D01*
X12236729Y-17310960D02*
X12217682Y-17320484D01*
X12217682Y-17320484D02*
X12198634Y-17320484D01*
X12198634Y-17320484D02*
X12179586Y-17310960D01*
X12179586Y-17310960D02*
X12170063Y-17301436D01*
X12170063Y-17301436D02*
X12160539Y-17282389D01*
X12160539Y-17282389D02*
X12151015Y-17244293D01*
X12151015Y-17244293D02*
X12151015Y-17196674D01*
X12151015Y-17196674D02*
X12160539Y-17158579D01*
X12160539Y-17158579D02*
X12170063Y-17139531D01*
X12170063Y-17139531D02*
X12179586Y-17130008D01*
X12179586Y-17130008D02*
X12198634Y-17120484D01*
X12351015Y-17301436D02*
X12360539Y-17310960D01*
X12360539Y-17310960D02*
X12351015Y-17320484D01*
X12351015Y-17320484D02*
X12341491Y-17310960D01*
X12341491Y-17310960D02*
X12351015Y-17301436D01*
X12351015Y-17301436D02*
X12351015Y-17320484D01*
X12484348Y-17120484D02*
X12503396Y-17120484D01*
X12503396Y-17120484D02*
X12522444Y-17130008D01*
X12522444Y-17130008D02*
X12531967Y-17139531D01*
X12531967Y-17139531D02*
X12541491Y-17158579D01*
X12541491Y-17158579D02*
X12551015Y-17196674D01*
X12551015Y-17196674D02*
X12551015Y-17244293D01*
X12551015Y-17244293D02*
X12541491Y-17282389D01*
X12541491Y-17282389D02*
X12531967Y-17301436D01*
X12531967Y-17301436D02*
X12522444Y-17310960D01*
X12522444Y-17310960D02*
X12503396Y-17320484D01*
X12503396Y-17320484D02*
X12484348Y-17320484D01*
X12484348Y-17320484D02*
X12465301Y-17310960D01*
X12465301Y-17310960D02*
X12455777Y-17301436D01*
X12455777Y-17301436D02*
X12446253Y-17282389D01*
X12446253Y-17282389D02*
X12436729Y-17244293D01*
X12436729Y-17244293D02*
X12436729Y-17196674D01*
X12436729Y-17196674D02*
X12446253Y-17158579D01*
X12446253Y-17158579D02*
X12455777Y-17139531D01*
X12455777Y-17139531D02*
X12465301Y-17130008D01*
X12465301Y-17130008D02*
X12484348Y-17120484D01*
X12722444Y-17187150D02*
X12722444Y-17320484D01*
X12674825Y-17110960D02*
X12627206Y-17253817D01*
X12627206Y-17253817D02*
X12751015Y-17253817D01*
X12808158Y-17120484D02*
X12931967Y-17120484D01*
X12931967Y-17120484D02*
X12865301Y-17196674D01*
X12865301Y-17196674D02*
X12893872Y-17196674D01*
X12893872Y-17196674D02*
X12912920Y-17206198D01*
X12912920Y-17206198D02*
X12922444Y-17215722D01*
X12922444Y-17215722D02*
X12931967Y-17234770D01*
X12931967Y-17234770D02*
X12931967Y-17282389D01*
X12931967Y-17282389D02*
X12922444Y-17301436D01*
X12922444Y-17301436D02*
X12912920Y-17310960D01*
X12912920Y-17310960D02*
X12893872Y-17320484D01*
X12893872Y-17320484D02*
X12836729Y-17320484D01*
X12836729Y-17320484D02*
X12817682Y-17310960D01*
X12817682Y-17310960D02*
X12808158Y-17301436D01*
X12998634Y-17120484D02*
X13122444Y-17120484D01*
X13122444Y-17120484D02*
X13055777Y-17196674D01*
X13055777Y-17196674D02*
X13084348Y-17196674D01*
X13084348Y-17196674D02*
X13103396Y-17206198D01*
X13103396Y-17206198D02*
X13112920Y-17215722D01*
X13112920Y-17215722D02*
X13122444Y-17234770D01*
X13122444Y-17234770D02*
X13122444Y-17282389D01*
X13122444Y-17282389D02*
X13112920Y-17301436D01*
X13112920Y-17301436D02*
X13103396Y-17310960D01*
X13103396Y-17310960D02*
X13084348Y-17320484D01*
X13084348Y-17320484D02*
X13027206Y-17320484D01*
X13027206Y-17320484D02*
X13008158Y-17310960D01*
X13008158Y-17310960D02*
X12998634Y-17301436D01*
X13198634Y-17120484D02*
X13198634Y-17158579D01*
X13274825Y-17120484D02*
X13274825Y-17158579D01*
X13570063Y-17396674D02*
X13560539Y-17387150D01*
X13560539Y-17387150D02*
X13541491Y-17358579D01*
X13541491Y-17358579D02*
X13531968Y-17339531D01*
X13531968Y-17339531D02*
X13522444Y-17310960D01*
X13522444Y-17310960D02*
X13512920Y-17263341D01*
X13512920Y-17263341D02*
X13512920Y-17225246D01*
X13512920Y-17225246D02*
X13522444Y-17177627D01*
X13522444Y-17177627D02*
X13531968Y-17149055D01*
X13531968Y-17149055D02*
X13541491Y-17130008D01*
X13541491Y-17130008D02*
X13560539Y-17101436D01*
X13560539Y-17101436D02*
X13570063Y-17091912D01*
X13627206Y-17120484D02*
X13751015Y-17120484D01*
X13751015Y-17120484D02*
X13684348Y-17196674D01*
X13684348Y-17196674D02*
X13712920Y-17196674D01*
X13712920Y-17196674D02*
X13731968Y-17206198D01*
X13731968Y-17206198D02*
X13741491Y-17215722D01*
X13741491Y-17215722D02*
X13751015Y-17234770D01*
X13751015Y-17234770D02*
X13751015Y-17282389D01*
X13751015Y-17282389D02*
X13741491Y-17301436D01*
X13741491Y-17301436D02*
X13731968Y-17310960D01*
X13731968Y-17310960D02*
X13712920Y-17320484D01*
X13712920Y-17320484D02*
X13655777Y-17320484D01*
X13655777Y-17320484D02*
X13636729Y-17310960D01*
X13636729Y-17310960D02*
X13627206Y-17301436D01*
X13989110Y-17320484D02*
X13989110Y-17120484D01*
X14074825Y-17320484D02*
X14074825Y-17215722D01*
X14074825Y-17215722D02*
X14065301Y-17196674D01*
X14065301Y-17196674D02*
X14046253Y-17187150D01*
X14046253Y-17187150D02*
X14017682Y-17187150D01*
X14017682Y-17187150D02*
X13998634Y-17196674D01*
X13998634Y-17196674D02*
X13989110Y-17206198D01*
X14198634Y-17320484D02*
X14179587Y-17310960D01*
X14179587Y-17310960D02*
X14170063Y-17301436D01*
X14170063Y-17301436D02*
X14160539Y-17282389D01*
X14160539Y-17282389D02*
X14160539Y-17225246D01*
X14160539Y-17225246D02*
X14170063Y-17206198D01*
X14170063Y-17206198D02*
X14179587Y-17196674D01*
X14179587Y-17196674D02*
X14198634Y-17187150D01*
X14198634Y-17187150D02*
X14227206Y-17187150D01*
X14227206Y-17187150D02*
X14246253Y-17196674D01*
X14246253Y-17196674D02*
X14255777Y-17206198D01*
X14255777Y-17206198D02*
X14265301Y-17225246D01*
X14265301Y-17225246D02*
X14265301Y-17282389D01*
X14265301Y-17282389D02*
X14255777Y-17301436D01*
X14255777Y-17301436D02*
X14246253Y-17310960D01*
X14246253Y-17310960D02*
X14227206Y-17320484D01*
X14227206Y-17320484D02*
X14198634Y-17320484D01*
X14379587Y-17320484D02*
X14360539Y-17310960D01*
X14360539Y-17310960D02*
X14351015Y-17291912D01*
X14351015Y-17291912D02*
X14351015Y-17120484D01*
X14531968Y-17310960D02*
X14512920Y-17320484D01*
X14512920Y-17320484D02*
X14474825Y-17320484D01*
X14474825Y-17320484D02*
X14455777Y-17310960D01*
X14455777Y-17310960D02*
X14446253Y-17291912D01*
X14446253Y-17291912D02*
X14446253Y-17215722D01*
X14446253Y-17215722D02*
X14455777Y-17196674D01*
X14455777Y-17196674D02*
X14474825Y-17187150D01*
X14474825Y-17187150D02*
X14512920Y-17187150D01*
X14512920Y-17187150D02*
X14531968Y-17196674D01*
X14531968Y-17196674D02*
X14541491Y-17215722D01*
X14541491Y-17215722D02*
X14541491Y-17234770D01*
X14541491Y-17234770D02*
X14446253Y-17253817D01*
X14617682Y-17310960D02*
X14636730Y-17320484D01*
X14636730Y-17320484D02*
X14674825Y-17320484D01*
X14674825Y-17320484D02*
X14693872Y-17310960D01*
X14693872Y-17310960D02*
X14703396Y-17291912D01*
X14703396Y-17291912D02*
X14703396Y-17282389D01*
X14703396Y-17282389D02*
X14693872Y-17263341D01*
X14693872Y-17263341D02*
X14674825Y-17253817D01*
X14674825Y-17253817D02*
X14646253Y-17253817D01*
X14646253Y-17253817D02*
X14627206Y-17244293D01*
X14627206Y-17244293D02*
X14617682Y-17225246D01*
X14617682Y-17225246D02*
X14617682Y-17215722D01*
X14617682Y-17215722D02*
X14627206Y-17196674D01*
X14627206Y-17196674D02*
X14646253Y-17187150D01*
X14646253Y-17187150D02*
X14674825Y-17187150D01*
X14674825Y-17187150D02*
X14693872Y-17196674D01*
X14770063Y-17396674D02*
X14779587Y-17387150D01*
X14779587Y-17387150D02*
X14798634Y-17358579D01*
X14798634Y-17358579D02*
X14808158Y-17339531D01*
X14808158Y-17339531D02*
X14817682Y-17310960D01*
X14817682Y-17310960D02*
X14827206Y-17263341D01*
X14827206Y-17263341D02*
X14827206Y-17225246D01*
X14827206Y-17225246D02*
X14817682Y-17177627D01*
X14817682Y-17177627D02*
X14808158Y-17149055D01*
X14808158Y-17149055D02*
X14798634Y-17130008D01*
X14798634Y-17130008D02*
X14779587Y-17101436D01*
X14779587Y-17101436D02*
X14770063Y-17091912D01*
X9795000Y-17393000D02*
X9995000Y-17593000D01*
X9995000Y-17393000D02*
X9795000Y-17593000D01*
X9965711Y-17563711D02*
X9965711Y-17422289D01*
X9824289Y-17422289D01*
X9824289Y-17563711D01*
X9965711Y-17563711D01*
X10236729Y-17384484D02*
X10360539Y-17384484D01*
X10360539Y-17384484D02*
X10293872Y-17460674D01*
X10293872Y-17460674D02*
X10322444Y-17460674D01*
X10322444Y-17460674D02*
X10341491Y-17470198D01*
X10341491Y-17470198D02*
X10351015Y-17479722D01*
X10351015Y-17479722D02*
X10360539Y-17498770D01*
X10360539Y-17498770D02*
X10360539Y-17546389D01*
X10360539Y-17546389D02*
X10351015Y-17565436D01*
X10351015Y-17565436D02*
X10341491Y-17574960D01*
X10341491Y-17574960D02*
X10322444Y-17584484D01*
X10322444Y-17584484D02*
X10265301Y-17584484D01*
X10265301Y-17584484D02*
X10246253Y-17574960D01*
X10246253Y-17574960D02*
X10236729Y-17565436D01*
X10446253Y-17565436D02*
X10455777Y-17574960D01*
X10455777Y-17574960D02*
X10446253Y-17584484D01*
X10446253Y-17584484D02*
X10436729Y-17574960D01*
X10436729Y-17574960D02*
X10446253Y-17565436D01*
X10446253Y-17565436D02*
X10446253Y-17584484D01*
X10531967Y-17403531D02*
X10541491Y-17394008D01*
X10541491Y-17394008D02*
X10560539Y-17384484D01*
X10560539Y-17384484D02*
X10608158Y-17384484D01*
X10608158Y-17384484D02*
X10627205Y-17394008D01*
X10627205Y-17394008D02*
X10636729Y-17403531D01*
X10636729Y-17403531D02*
X10646253Y-17422579D01*
X10646253Y-17422579D02*
X10646253Y-17441627D01*
X10646253Y-17441627D02*
X10636729Y-17470198D01*
X10636729Y-17470198D02*
X10522444Y-17584484D01*
X10522444Y-17584484D02*
X10646253Y-17584484D01*
X10770063Y-17384484D02*
X10789110Y-17384484D01*
X10789110Y-17384484D02*
X10808158Y-17394008D01*
X10808158Y-17394008D02*
X10817682Y-17403531D01*
X10817682Y-17403531D02*
X10827205Y-17422579D01*
X10827205Y-17422579D02*
X10836729Y-17460674D01*
X10836729Y-17460674D02*
X10836729Y-17508293D01*
X10836729Y-17508293D02*
X10827205Y-17546389D01*
X10827205Y-17546389D02*
X10817682Y-17565436D01*
X10817682Y-17565436D02*
X10808158Y-17574960D01*
X10808158Y-17574960D02*
X10789110Y-17584484D01*
X10789110Y-17584484D02*
X10770063Y-17584484D01*
X10770063Y-17584484D02*
X10751015Y-17574960D01*
X10751015Y-17574960D02*
X10741491Y-17565436D01*
X10741491Y-17565436D02*
X10731967Y-17546389D01*
X10731967Y-17546389D02*
X10722444Y-17508293D01*
X10722444Y-17508293D02*
X10722444Y-17460674D01*
X10722444Y-17460674D02*
X10731967Y-17422579D01*
X10731967Y-17422579D02*
X10741491Y-17403531D01*
X10741491Y-17403531D02*
X10751015Y-17394008D01*
X10751015Y-17394008D02*
X10770063Y-17384484D01*
X10960539Y-17384484D02*
X10979586Y-17384484D01*
X10979586Y-17384484D02*
X10998634Y-17394008D01*
X10998634Y-17394008D02*
X11008158Y-17403531D01*
X11008158Y-17403531D02*
X11017682Y-17422579D01*
X11017682Y-17422579D02*
X11027205Y-17460674D01*
X11027205Y-17460674D02*
X11027205Y-17508293D01*
X11027205Y-17508293D02*
X11017682Y-17546389D01*
X11017682Y-17546389D02*
X11008158Y-17565436D01*
X11008158Y-17565436D02*
X10998634Y-17574960D01*
X10998634Y-17574960D02*
X10979586Y-17584484D01*
X10979586Y-17584484D02*
X10960539Y-17584484D01*
X10960539Y-17584484D02*
X10941491Y-17574960D01*
X10941491Y-17574960D02*
X10931967Y-17565436D01*
X10931967Y-17565436D02*
X10922444Y-17546389D01*
X10922444Y-17546389D02*
X10912920Y-17508293D01*
X10912920Y-17508293D02*
X10912920Y-17460674D01*
X10912920Y-17460674D02*
X10922444Y-17422579D01*
X10922444Y-17422579D02*
X10931967Y-17403531D01*
X10931967Y-17403531D02*
X10941491Y-17394008D01*
X10941491Y-17394008D02*
X10960539Y-17384484D01*
X11112920Y-17584484D02*
X11112920Y-17451150D01*
X11112920Y-17470198D02*
X11122444Y-17460674D01*
X11122444Y-17460674D02*
X11141491Y-17451150D01*
X11141491Y-17451150D02*
X11170063Y-17451150D01*
X11170063Y-17451150D02*
X11189110Y-17460674D01*
X11189110Y-17460674D02*
X11198634Y-17479722D01*
X11198634Y-17479722D02*
X11198634Y-17584484D01*
X11198634Y-17479722D02*
X11208158Y-17460674D01*
X11208158Y-17460674D02*
X11227205Y-17451150D01*
X11227205Y-17451150D02*
X11255777Y-17451150D01*
X11255777Y-17451150D02*
X11274824Y-17460674D01*
X11274824Y-17460674D02*
X11284348Y-17479722D01*
X11284348Y-17479722D02*
X11284348Y-17584484D01*
X11379586Y-17584484D02*
X11379586Y-17451150D01*
X11379586Y-17470198D02*
X11389110Y-17460674D01*
X11389110Y-17460674D02*
X11408158Y-17451150D01*
X11408158Y-17451150D02*
X11436729Y-17451150D01*
X11436729Y-17451150D02*
X11455777Y-17460674D01*
X11455777Y-17460674D02*
X11465301Y-17479722D01*
X11465301Y-17479722D02*
X11465301Y-17584484D01*
X11465301Y-17479722D02*
X11474824Y-17460674D01*
X11474824Y-17460674D02*
X11493872Y-17451150D01*
X11493872Y-17451150D02*
X11522443Y-17451150D01*
X11522443Y-17451150D02*
X11541491Y-17460674D01*
X11541491Y-17460674D02*
X11551015Y-17479722D01*
X11551015Y-17479722D02*
X11551015Y-17584484D01*
X11941491Y-17374960D02*
X11770063Y-17632103D01*
X12198634Y-17384484D02*
X12217682Y-17384484D01*
X12217682Y-17384484D02*
X12236729Y-17394008D01*
X12236729Y-17394008D02*
X12246253Y-17403531D01*
X12246253Y-17403531D02*
X12255777Y-17422579D01*
X12255777Y-17422579D02*
X12265301Y-17460674D01*
X12265301Y-17460674D02*
X12265301Y-17508293D01*
X12265301Y-17508293D02*
X12255777Y-17546389D01*
X12255777Y-17546389D02*
X12246253Y-17565436D01*
X12246253Y-17565436D02*
X12236729Y-17574960D01*
X12236729Y-17574960D02*
X12217682Y-17584484D01*
X12217682Y-17584484D02*
X12198634Y-17584484D01*
X12198634Y-17584484D02*
X12179586Y-17574960D01*
X12179586Y-17574960D02*
X12170063Y-17565436D01*
X12170063Y-17565436D02*
X12160539Y-17546389D01*
X12160539Y-17546389D02*
X12151015Y-17508293D01*
X12151015Y-17508293D02*
X12151015Y-17460674D01*
X12151015Y-17460674D02*
X12160539Y-17422579D01*
X12160539Y-17422579D02*
X12170063Y-17403531D01*
X12170063Y-17403531D02*
X12179586Y-17394008D01*
X12179586Y-17394008D02*
X12198634Y-17384484D01*
X12351015Y-17565436D02*
X12360539Y-17574960D01*
X12360539Y-17574960D02*
X12351015Y-17584484D01*
X12351015Y-17584484D02*
X12341491Y-17574960D01*
X12341491Y-17574960D02*
X12351015Y-17565436D01*
X12351015Y-17565436D02*
X12351015Y-17584484D01*
X12551015Y-17584484D02*
X12436729Y-17584484D01*
X12493872Y-17584484D02*
X12493872Y-17384484D01*
X12493872Y-17384484D02*
X12474825Y-17413055D01*
X12474825Y-17413055D02*
X12455777Y-17432103D01*
X12455777Y-17432103D02*
X12436729Y-17441627D01*
X12627206Y-17403531D02*
X12636729Y-17394008D01*
X12636729Y-17394008D02*
X12655777Y-17384484D01*
X12655777Y-17384484D02*
X12703396Y-17384484D01*
X12703396Y-17384484D02*
X12722444Y-17394008D01*
X12722444Y-17394008D02*
X12731967Y-17403531D01*
X12731967Y-17403531D02*
X12741491Y-17422579D01*
X12741491Y-17422579D02*
X12741491Y-17441627D01*
X12741491Y-17441627D02*
X12731967Y-17470198D01*
X12731967Y-17470198D02*
X12617682Y-17584484D01*
X12617682Y-17584484D02*
X12741491Y-17584484D01*
X12912920Y-17384484D02*
X12874825Y-17384484D01*
X12874825Y-17384484D02*
X12855777Y-17394008D01*
X12855777Y-17394008D02*
X12846253Y-17403531D01*
X12846253Y-17403531D02*
X12827206Y-17432103D01*
X12827206Y-17432103D02*
X12817682Y-17470198D01*
X12817682Y-17470198D02*
X12817682Y-17546389D01*
X12817682Y-17546389D02*
X12827206Y-17565436D01*
X12827206Y-17565436D02*
X12836729Y-17574960D01*
X12836729Y-17574960D02*
X12855777Y-17584484D01*
X12855777Y-17584484D02*
X12893872Y-17584484D01*
X12893872Y-17584484D02*
X12912920Y-17574960D01*
X12912920Y-17574960D02*
X12922444Y-17565436D01*
X12922444Y-17565436D02*
X12931967Y-17546389D01*
X12931967Y-17546389D02*
X12931967Y-17498770D01*
X12931967Y-17498770D02*
X12922444Y-17479722D01*
X12922444Y-17479722D02*
X12912920Y-17470198D01*
X12912920Y-17470198D02*
X12893872Y-17460674D01*
X12893872Y-17460674D02*
X12855777Y-17460674D01*
X12855777Y-17460674D02*
X12836729Y-17470198D01*
X12836729Y-17470198D02*
X12827206Y-17479722D01*
X12827206Y-17479722D02*
X12817682Y-17498770D01*
X13055777Y-17384484D02*
X13074825Y-17384484D01*
X13074825Y-17384484D02*
X13093872Y-17394008D01*
X13093872Y-17394008D02*
X13103396Y-17403531D01*
X13103396Y-17403531D02*
X13112920Y-17422579D01*
X13112920Y-17422579D02*
X13122444Y-17460674D01*
X13122444Y-17460674D02*
X13122444Y-17508293D01*
X13122444Y-17508293D02*
X13112920Y-17546389D01*
X13112920Y-17546389D02*
X13103396Y-17565436D01*
X13103396Y-17565436D02*
X13093872Y-17574960D01*
X13093872Y-17574960D02*
X13074825Y-17584484D01*
X13074825Y-17584484D02*
X13055777Y-17584484D01*
X13055777Y-17584484D02*
X13036729Y-17574960D01*
X13036729Y-17574960D02*
X13027206Y-17565436D01*
X13027206Y-17565436D02*
X13017682Y-17546389D01*
X13017682Y-17546389D02*
X13008158Y-17508293D01*
X13008158Y-17508293D02*
X13008158Y-17460674D01*
X13008158Y-17460674D02*
X13017682Y-17422579D01*
X13017682Y-17422579D02*
X13027206Y-17403531D01*
X13027206Y-17403531D02*
X13036729Y-17394008D01*
X13036729Y-17394008D02*
X13055777Y-17384484D01*
X13198634Y-17384484D02*
X13198634Y-17422579D01*
X13274825Y-17384484D02*
X13274825Y-17422579D01*
X13570063Y-17660674D02*
X13560539Y-17651150D01*
X13560539Y-17651150D02*
X13541491Y-17622579D01*
X13541491Y-17622579D02*
X13531968Y-17603531D01*
X13531968Y-17603531D02*
X13522444Y-17574960D01*
X13522444Y-17574960D02*
X13512920Y-17527341D01*
X13512920Y-17527341D02*
X13512920Y-17489246D01*
X13512920Y-17489246D02*
X13522444Y-17441627D01*
X13522444Y-17441627D02*
X13531968Y-17413055D01*
X13531968Y-17413055D02*
X13541491Y-17394008D01*
X13541491Y-17394008D02*
X13560539Y-17365436D01*
X13560539Y-17365436D02*
X13570063Y-17355912D01*
X13731968Y-17451150D02*
X13731968Y-17584484D01*
X13684348Y-17374960D02*
X13636729Y-17517817D01*
X13636729Y-17517817D02*
X13760539Y-17517817D01*
X13989110Y-17584484D02*
X13989110Y-17384484D01*
X14074825Y-17584484D02*
X14074825Y-17479722D01*
X14074825Y-17479722D02*
X14065301Y-17460674D01*
X14065301Y-17460674D02*
X14046253Y-17451150D01*
X14046253Y-17451150D02*
X14017682Y-17451150D01*
X14017682Y-17451150D02*
X13998634Y-17460674D01*
X13998634Y-17460674D02*
X13989110Y-17470198D01*
X14198634Y-17584484D02*
X14179587Y-17574960D01*
X14179587Y-17574960D02*
X14170063Y-17565436D01*
X14170063Y-17565436D02*
X14160539Y-17546389D01*
X14160539Y-17546389D02*
X14160539Y-17489246D01*
X14160539Y-17489246D02*
X14170063Y-17470198D01*
X14170063Y-17470198D02*
X14179587Y-17460674D01*
X14179587Y-17460674D02*
X14198634Y-17451150D01*
X14198634Y-17451150D02*
X14227206Y-17451150D01*
X14227206Y-17451150D02*
X14246253Y-17460674D01*
X14246253Y-17460674D02*
X14255777Y-17470198D01*
X14255777Y-17470198D02*
X14265301Y-17489246D01*
X14265301Y-17489246D02*
X14265301Y-17546389D01*
X14265301Y-17546389D02*
X14255777Y-17565436D01*
X14255777Y-17565436D02*
X14246253Y-17574960D01*
X14246253Y-17574960D02*
X14227206Y-17584484D01*
X14227206Y-17584484D02*
X14198634Y-17584484D01*
X14379587Y-17584484D02*
X14360539Y-17574960D01*
X14360539Y-17574960D02*
X14351015Y-17555912D01*
X14351015Y-17555912D02*
X14351015Y-17384484D01*
X14531968Y-17574960D02*
X14512920Y-17584484D01*
X14512920Y-17584484D02*
X14474825Y-17584484D01*
X14474825Y-17584484D02*
X14455777Y-17574960D01*
X14455777Y-17574960D02*
X14446253Y-17555912D01*
X14446253Y-17555912D02*
X14446253Y-17479722D01*
X14446253Y-17479722D02*
X14455777Y-17460674D01*
X14455777Y-17460674D02*
X14474825Y-17451150D01*
X14474825Y-17451150D02*
X14512920Y-17451150D01*
X14512920Y-17451150D02*
X14531968Y-17460674D01*
X14531968Y-17460674D02*
X14541491Y-17479722D01*
X14541491Y-17479722D02*
X14541491Y-17498770D01*
X14541491Y-17498770D02*
X14446253Y-17517817D01*
X14617682Y-17574960D02*
X14636730Y-17584484D01*
X14636730Y-17584484D02*
X14674825Y-17584484D01*
X14674825Y-17584484D02*
X14693872Y-17574960D01*
X14693872Y-17574960D02*
X14703396Y-17555912D01*
X14703396Y-17555912D02*
X14703396Y-17546389D01*
X14703396Y-17546389D02*
X14693872Y-17527341D01*
X14693872Y-17527341D02*
X14674825Y-17517817D01*
X14674825Y-17517817D02*
X14646253Y-17517817D01*
X14646253Y-17517817D02*
X14627206Y-17508293D01*
X14627206Y-17508293D02*
X14617682Y-17489246D01*
X14617682Y-17489246D02*
X14617682Y-17479722D01*
X14617682Y-17479722D02*
X14627206Y-17460674D01*
X14627206Y-17460674D02*
X14646253Y-17451150D01*
X14646253Y-17451150D02*
X14674825Y-17451150D01*
X14674825Y-17451150D02*
X14693872Y-17460674D01*
X14770063Y-17660674D02*
X14779587Y-17651150D01*
X14779587Y-17651150D02*
X14798634Y-17622579D01*
X14798634Y-17622579D02*
X14808158Y-17603531D01*
X14808158Y-17603531D02*
X14817682Y-17574960D01*
X14817682Y-17574960D02*
X14827206Y-17527341D01*
X14827206Y-17527341D02*
X14827206Y-17489246D01*
X14827206Y-17489246D02*
X14817682Y-17441627D01*
X14817682Y-17441627D02*
X14808158Y-17413055D01*
X14808158Y-17413055D02*
X14798634Y-17394008D01*
X14798634Y-17394008D02*
X14779587Y-17365436D01*
X14779587Y-17365436D02*
X14770063Y-17355912D01*
M02*
