G04 #@! TF.GenerationSoftware,KiCad,Pcbnew,7.0.10*
G04 #@! TF.CreationDate,2024-01-28T11:03:42+01:00*
G04 #@! TF.ProjectId,EuroMeasure-IonGaugeController,4575726f-4d65-4617-9375-72652d496f6e,1.1.0*
G04 #@! TF.SameCoordinates,Original*
G04 #@! TF.FileFunction,Legend,Bot*
G04 #@! TF.FilePolarity,Positive*
%FSLAX46Y46*%
G04 Gerber Fmt 4.6, Leading zero omitted, Abs format (unit mm)*
G04 Created by KiCad (PCBNEW 7.0.10) date 2024-01-28 11:03:42*
%MOMM*%
%LPD*%
G01*
G04 APERTURE LIST*
G04 Aperture macros list*
%AMRoundRect*
0 Rectangle with rounded corners*
0 $1 Rounding radius*
0 $2 $3 $4 $5 $6 $7 $8 $9 X,Y pos of 4 corners*
0 Add a 4 corners polygon primitive as box body*
4,1,4,$2,$3,$4,$5,$6,$7,$8,$9,$2,$3,0*
0 Add four circle primitives for the rounded corners*
1,1,$1+$1,$2,$3*
1,1,$1+$1,$4,$5*
1,1,$1+$1,$6,$7*
1,1,$1+$1,$8,$9*
0 Add four rect primitives between the rounded corners*
20,1,$1+$1,$2,$3,$4,$5,0*
20,1,$1+$1,$4,$5,$6,$7,0*
20,1,$1+$1,$6,$7,$8,$9,0*
20,1,$1+$1,$8,$9,$2,$3,0*%
G04 Aperture macros list end*
%ADD10C,0.300000*%
%ADD11C,0.150000*%
%ADD12C,0.120000*%
%ADD13C,0.010000*%
%ADD14RoundRect,0.250000X0.600000X0.600000X-0.600000X0.600000X-0.600000X-0.600000X0.600000X-0.600000X0*%
%ADD15C,1.700000*%
%ADD16C,1.000000*%
%ADD17R,2.000000X1.905000*%
%ADD18O,2.000000X1.905000*%
%ADD19R,2.000000X2.000000*%
%ADD20C,2.000000*%
%ADD21RoundRect,0.250000X-0.600000X-0.600000X0.600000X-0.600000X0.600000X0.600000X-0.600000X0.600000X0*%
%ADD22C,5.600000*%
%ADD23C,1.600000*%
%ADD24C,1.400000*%
%ADD25O,1.400000X1.400000*%
%ADD26RoundRect,0.125000X0.125000X0.125000X-0.125000X0.125000X-0.125000X-0.125000X0.125000X-0.125000X0*%
%ADD27RoundRect,0.250000X0.337500X0.475000X-0.337500X0.475000X-0.337500X-0.475000X0.337500X-0.475000X0*%
%ADD28RoundRect,0.250000X-0.350000X-0.450000X0.350000X-0.450000X0.350000X0.450000X-0.350000X0.450000X0*%
%ADD29RoundRect,0.250000X-0.475000X0.337500X-0.475000X-0.337500X0.475000X-0.337500X0.475000X0.337500X0*%
%ADD30RoundRect,0.250000X0.475000X-0.337500X0.475000X0.337500X-0.475000X0.337500X-0.475000X-0.337500X0*%
%ADD31RoundRect,0.250000X0.350000X0.450000X-0.350000X0.450000X-0.350000X-0.450000X0.350000X-0.450000X0*%
%ADD32RoundRect,0.250000X-0.325000X-0.450000X0.325000X-0.450000X0.325000X0.450000X-0.325000X0.450000X0*%
G04 APERTURE END LIST*
D10*
X190645489Y-140092614D02*
X190145489Y-140092614D01*
X189931203Y-140878328D02*
X190645489Y-140878328D01*
X190645489Y-140878328D02*
X190645489Y-139378328D01*
X190645489Y-139378328D02*
X189931203Y-139378328D01*
X188645489Y-139878328D02*
X188645489Y-140878328D01*
X189288346Y-139878328D02*
X189288346Y-140664042D01*
X189288346Y-140664042D02*
X189216917Y-140806900D01*
X189216917Y-140806900D02*
X189074060Y-140878328D01*
X189074060Y-140878328D02*
X188859774Y-140878328D01*
X188859774Y-140878328D02*
X188716917Y-140806900D01*
X188716917Y-140806900D02*
X188645489Y-140735471D01*
X187931203Y-140878328D02*
X187931203Y-139878328D01*
X187931203Y-140164042D02*
X187859774Y-140021185D01*
X187859774Y-140021185D02*
X187788346Y-139949757D01*
X187788346Y-139949757D02*
X187645488Y-139878328D01*
X187645488Y-139878328D02*
X187502631Y-139878328D01*
X186788346Y-140878328D02*
X186931203Y-140806900D01*
X186931203Y-140806900D02*
X187002632Y-140735471D01*
X187002632Y-140735471D02*
X187074060Y-140592614D01*
X187074060Y-140592614D02*
X187074060Y-140164042D01*
X187074060Y-140164042D02*
X187002632Y-140021185D01*
X187002632Y-140021185D02*
X186931203Y-139949757D01*
X186931203Y-139949757D02*
X186788346Y-139878328D01*
X186788346Y-139878328D02*
X186574060Y-139878328D01*
X186574060Y-139878328D02*
X186431203Y-139949757D01*
X186431203Y-139949757D02*
X186359775Y-140021185D01*
X186359775Y-140021185D02*
X186288346Y-140164042D01*
X186288346Y-140164042D02*
X186288346Y-140592614D01*
X186288346Y-140592614D02*
X186359775Y-140735471D01*
X186359775Y-140735471D02*
X186431203Y-140806900D01*
X186431203Y-140806900D02*
X186574060Y-140878328D01*
X186574060Y-140878328D02*
X186788346Y-140878328D01*
X185645489Y-140878328D02*
X185645489Y-139378328D01*
X185645489Y-139378328D02*
X185145489Y-140449757D01*
X185145489Y-140449757D02*
X184645489Y-139378328D01*
X184645489Y-139378328D02*
X184645489Y-140878328D01*
X183359774Y-140806900D02*
X183502631Y-140878328D01*
X183502631Y-140878328D02*
X183788346Y-140878328D01*
X183788346Y-140878328D02*
X183931203Y-140806900D01*
X183931203Y-140806900D02*
X184002631Y-140664042D01*
X184002631Y-140664042D02*
X184002631Y-140092614D01*
X184002631Y-140092614D02*
X183931203Y-139949757D01*
X183931203Y-139949757D02*
X183788346Y-139878328D01*
X183788346Y-139878328D02*
X183502631Y-139878328D01*
X183502631Y-139878328D02*
X183359774Y-139949757D01*
X183359774Y-139949757D02*
X183288346Y-140092614D01*
X183288346Y-140092614D02*
X183288346Y-140235471D01*
X183288346Y-140235471D02*
X184002631Y-140378328D01*
X182002632Y-140878328D02*
X182002632Y-140092614D01*
X182002632Y-140092614D02*
X182074060Y-139949757D01*
X182074060Y-139949757D02*
X182216917Y-139878328D01*
X182216917Y-139878328D02*
X182502632Y-139878328D01*
X182502632Y-139878328D02*
X182645489Y-139949757D01*
X182002632Y-140806900D02*
X182145489Y-140878328D01*
X182145489Y-140878328D02*
X182502632Y-140878328D01*
X182502632Y-140878328D02*
X182645489Y-140806900D01*
X182645489Y-140806900D02*
X182716917Y-140664042D01*
X182716917Y-140664042D02*
X182716917Y-140521185D01*
X182716917Y-140521185D02*
X182645489Y-140378328D01*
X182645489Y-140378328D02*
X182502632Y-140306900D01*
X182502632Y-140306900D02*
X182145489Y-140306900D01*
X182145489Y-140306900D02*
X182002632Y-140235471D01*
X181359774Y-140806900D02*
X181216917Y-140878328D01*
X181216917Y-140878328D02*
X180931203Y-140878328D01*
X180931203Y-140878328D02*
X180788346Y-140806900D01*
X180788346Y-140806900D02*
X180716917Y-140664042D01*
X180716917Y-140664042D02*
X180716917Y-140592614D01*
X180716917Y-140592614D02*
X180788346Y-140449757D01*
X180788346Y-140449757D02*
X180931203Y-140378328D01*
X180931203Y-140378328D02*
X181145489Y-140378328D01*
X181145489Y-140378328D02*
X181288346Y-140306900D01*
X181288346Y-140306900D02*
X181359774Y-140164042D01*
X181359774Y-140164042D02*
X181359774Y-140092614D01*
X181359774Y-140092614D02*
X181288346Y-139949757D01*
X181288346Y-139949757D02*
X181145489Y-139878328D01*
X181145489Y-139878328D02*
X180931203Y-139878328D01*
X180931203Y-139878328D02*
X180788346Y-139949757D01*
X179431203Y-139878328D02*
X179431203Y-140878328D01*
X180074060Y-139878328D02*
X180074060Y-140664042D01*
X180074060Y-140664042D02*
X180002631Y-140806900D01*
X180002631Y-140806900D02*
X179859774Y-140878328D01*
X179859774Y-140878328D02*
X179645488Y-140878328D01*
X179645488Y-140878328D02*
X179502631Y-140806900D01*
X179502631Y-140806900D02*
X179431203Y-140735471D01*
X178716917Y-140878328D02*
X178716917Y-139878328D01*
X178716917Y-140164042D02*
X178645488Y-140021185D01*
X178645488Y-140021185D02*
X178574060Y-139949757D01*
X178574060Y-139949757D02*
X178431202Y-139878328D01*
X178431202Y-139878328D02*
X178288345Y-139878328D01*
X177216917Y-140806900D02*
X177359774Y-140878328D01*
X177359774Y-140878328D02*
X177645489Y-140878328D01*
X177645489Y-140878328D02*
X177788346Y-140806900D01*
X177788346Y-140806900D02*
X177859774Y-140664042D01*
X177859774Y-140664042D02*
X177859774Y-140092614D01*
X177859774Y-140092614D02*
X177788346Y-139949757D01*
X177788346Y-139949757D02*
X177645489Y-139878328D01*
X177645489Y-139878328D02*
X177359774Y-139878328D01*
X177359774Y-139878328D02*
X177216917Y-139949757D01*
X177216917Y-139949757D02*
X177145489Y-140092614D01*
X177145489Y-140092614D02*
X177145489Y-140235471D01*
X177145489Y-140235471D02*
X177859774Y-140378328D01*
X175359775Y-140878328D02*
X175359775Y-139378328D01*
X174431203Y-140878328D02*
X174574060Y-140806900D01*
X174574060Y-140806900D02*
X174645489Y-140735471D01*
X174645489Y-140735471D02*
X174716917Y-140592614D01*
X174716917Y-140592614D02*
X174716917Y-140164042D01*
X174716917Y-140164042D02*
X174645489Y-140021185D01*
X174645489Y-140021185D02*
X174574060Y-139949757D01*
X174574060Y-139949757D02*
X174431203Y-139878328D01*
X174431203Y-139878328D02*
X174216917Y-139878328D01*
X174216917Y-139878328D02*
X174074060Y-139949757D01*
X174074060Y-139949757D02*
X174002632Y-140021185D01*
X174002632Y-140021185D02*
X173931203Y-140164042D01*
X173931203Y-140164042D02*
X173931203Y-140592614D01*
X173931203Y-140592614D02*
X174002632Y-140735471D01*
X174002632Y-140735471D02*
X174074060Y-140806900D01*
X174074060Y-140806900D02*
X174216917Y-140878328D01*
X174216917Y-140878328D02*
X174431203Y-140878328D01*
X173288346Y-139878328D02*
X173288346Y-140878328D01*
X173288346Y-140021185D02*
X173216917Y-139949757D01*
X173216917Y-139949757D02*
X173074060Y-139878328D01*
X173074060Y-139878328D02*
X172859774Y-139878328D01*
X172859774Y-139878328D02*
X172716917Y-139949757D01*
X172716917Y-139949757D02*
X172645489Y-140092614D01*
X172645489Y-140092614D02*
X172645489Y-140878328D01*
X170002631Y-139449757D02*
X170145489Y-139378328D01*
X170145489Y-139378328D02*
X170359774Y-139378328D01*
X170359774Y-139378328D02*
X170574060Y-139449757D01*
X170574060Y-139449757D02*
X170716917Y-139592614D01*
X170716917Y-139592614D02*
X170788346Y-139735471D01*
X170788346Y-139735471D02*
X170859774Y-140021185D01*
X170859774Y-140021185D02*
X170859774Y-140235471D01*
X170859774Y-140235471D02*
X170788346Y-140521185D01*
X170788346Y-140521185D02*
X170716917Y-140664042D01*
X170716917Y-140664042D02*
X170574060Y-140806900D01*
X170574060Y-140806900D02*
X170359774Y-140878328D01*
X170359774Y-140878328D02*
X170216917Y-140878328D01*
X170216917Y-140878328D02*
X170002631Y-140806900D01*
X170002631Y-140806900D02*
X169931203Y-140735471D01*
X169931203Y-140735471D02*
X169931203Y-140235471D01*
X169931203Y-140235471D02*
X170216917Y-140235471D01*
X168645489Y-140878328D02*
X168645489Y-140092614D01*
X168645489Y-140092614D02*
X168716917Y-139949757D01*
X168716917Y-139949757D02*
X168859774Y-139878328D01*
X168859774Y-139878328D02*
X169145489Y-139878328D01*
X169145489Y-139878328D02*
X169288346Y-139949757D01*
X168645489Y-140806900D02*
X168788346Y-140878328D01*
X168788346Y-140878328D02*
X169145489Y-140878328D01*
X169145489Y-140878328D02*
X169288346Y-140806900D01*
X169288346Y-140806900D02*
X169359774Y-140664042D01*
X169359774Y-140664042D02*
X169359774Y-140521185D01*
X169359774Y-140521185D02*
X169288346Y-140378328D01*
X169288346Y-140378328D02*
X169145489Y-140306900D01*
X169145489Y-140306900D02*
X168788346Y-140306900D01*
X168788346Y-140306900D02*
X168645489Y-140235471D01*
X167288346Y-139878328D02*
X167288346Y-140878328D01*
X167931203Y-139878328D02*
X167931203Y-140664042D01*
X167931203Y-140664042D02*
X167859774Y-140806900D01*
X167859774Y-140806900D02*
X167716917Y-140878328D01*
X167716917Y-140878328D02*
X167502631Y-140878328D01*
X167502631Y-140878328D02*
X167359774Y-140806900D01*
X167359774Y-140806900D02*
X167288346Y-140735471D01*
X165931203Y-139878328D02*
X165931203Y-141092614D01*
X165931203Y-141092614D02*
X166002631Y-141235471D01*
X166002631Y-141235471D02*
X166074060Y-141306900D01*
X166074060Y-141306900D02*
X166216917Y-141378328D01*
X166216917Y-141378328D02*
X166431203Y-141378328D01*
X166431203Y-141378328D02*
X166574060Y-141306900D01*
X165931203Y-140806900D02*
X166074060Y-140878328D01*
X166074060Y-140878328D02*
X166359774Y-140878328D01*
X166359774Y-140878328D02*
X166502631Y-140806900D01*
X166502631Y-140806900D02*
X166574060Y-140735471D01*
X166574060Y-140735471D02*
X166645488Y-140592614D01*
X166645488Y-140592614D02*
X166645488Y-140164042D01*
X166645488Y-140164042D02*
X166574060Y-140021185D01*
X166574060Y-140021185D02*
X166502631Y-139949757D01*
X166502631Y-139949757D02*
X166359774Y-139878328D01*
X166359774Y-139878328D02*
X166074060Y-139878328D01*
X166074060Y-139878328D02*
X165931203Y-139949757D01*
X164645488Y-140806900D02*
X164788345Y-140878328D01*
X164788345Y-140878328D02*
X165074060Y-140878328D01*
X165074060Y-140878328D02*
X165216917Y-140806900D01*
X165216917Y-140806900D02*
X165288345Y-140664042D01*
X165288345Y-140664042D02*
X165288345Y-140092614D01*
X165288345Y-140092614D02*
X165216917Y-139949757D01*
X165216917Y-139949757D02*
X165074060Y-139878328D01*
X165074060Y-139878328D02*
X164788345Y-139878328D01*
X164788345Y-139878328D02*
X164645488Y-139949757D01*
X164645488Y-139949757D02*
X164574060Y-140092614D01*
X164574060Y-140092614D02*
X164574060Y-140235471D01*
X164574060Y-140235471D02*
X165288345Y-140378328D01*
X161931203Y-140735471D02*
X162002631Y-140806900D01*
X162002631Y-140806900D02*
X162216917Y-140878328D01*
X162216917Y-140878328D02*
X162359774Y-140878328D01*
X162359774Y-140878328D02*
X162574060Y-140806900D01*
X162574060Y-140806900D02*
X162716917Y-140664042D01*
X162716917Y-140664042D02*
X162788346Y-140521185D01*
X162788346Y-140521185D02*
X162859774Y-140235471D01*
X162859774Y-140235471D02*
X162859774Y-140021185D01*
X162859774Y-140021185D02*
X162788346Y-139735471D01*
X162788346Y-139735471D02*
X162716917Y-139592614D01*
X162716917Y-139592614D02*
X162574060Y-139449757D01*
X162574060Y-139449757D02*
X162359774Y-139378328D01*
X162359774Y-139378328D02*
X162216917Y-139378328D01*
X162216917Y-139378328D02*
X162002631Y-139449757D01*
X162002631Y-139449757D02*
X161931203Y-139521185D01*
X161074060Y-140878328D02*
X161216917Y-140806900D01*
X161216917Y-140806900D02*
X161288346Y-140735471D01*
X161288346Y-140735471D02*
X161359774Y-140592614D01*
X161359774Y-140592614D02*
X161359774Y-140164042D01*
X161359774Y-140164042D02*
X161288346Y-140021185D01*
X161288346Y-140021185D02*
X161216917Y-139949757D01*
X161216917Y-139949757D02*
X161074060Y-139878328D01*
X161074060Y-139878328D02*
X160859774Y-139878328D01*
X160859774Y-139878328D02*
X160716917Y-139949757D01*
X160716917Y-139949757D02*
X160645489Y-140021185D01*
X160645489Y-140021185D02*
X160574060Y-140164042D01*
X160574060Y-140164042D02*
X160574060Y-140592614D01*
X160574060Y-140592614D02*
X160645489Y-140735471D01*
X160645489Y-140735471D02*
X160716917Y-140806900D01*
X160716917Y-140806900D02*
X160859774Y-140878328D01*
X160859774Y-140878328D02*
X161074060Y-140878328D01*
X159931203Y-139878328D02*
X159931203Y-140878328D01*
X159931203Y-140021185D02*
X159859774Y-139949757D01*
X159859774Y-139949757D02*
X159716917Y-139878328D01*
X159716917Y-139878328D02*
X159502631Y-139878328D01*
X159502631Y-139878328D02*
X159359774Y-139949757D01*
X159359774Y-139949757D02*
X159288346Y-140092614D01*
X159288346Y-140092614D02*
X159288346Y-140878328D01*
X158788345Y-139878328D02*
X158216917Y-139878328D01*
X158574060Y-139378328D02*
X158574060Y-140664042D01*
X158574060Y-140664042D02*
X158502631Y-140806900D01*
X158502631Y-140806900D02*
X158359774Y-140878328D01*
X158359774Y-140878328D02*
X158216917Y-140878328D01*
X157716917Y-140878328D02*
X157716917Y-139878328D01*
X157716917Y-140164042D02*
X157645488Y-140021185D01*
X157645488Y-140021185D02*
X157574060Y-139949757D01*
X157574060Y-139949757D02*
X157431202Y-139878328D01*
X157431202Y-139878328D02*
X157288345Y-139878328D01*
X156574060Y-140878328D02*
X156716917Y-140806900D01*
X156716917Y-140806900D02*
X156788346Y-140735471D01*
X156788346Y-140735471D02*
X156859774Y-140592614D01*
X156859774Y-140592614D02*
X156859774Y-140164042D01*
X156859774Y-140164042D02*
X156788346Y-140021185D01*
X156788346Y-140021185D02*
X156716917Y-139949757D01*
X156716917Y-139949757D02*
X156574060Y-139878328D01*
X156574060Y-139878328D02*
X156359774Y-139878328D01*
X156359774Y-139878328D02*
X156216917Y-139949757D01*
X156216917Y-139949757D02*
X156145489Y-140021185D01*
X156145489Y-140021185D02*
X156074060Y-140164042D01*
X156074060Y-140164042D02*
X156074060Y-140592614D01*
X156074060Y-140592614D02*
X156145489Y-140735471D01*
X156145489Y-140735471D02*
X156216917Y-140806900D01*
X156216917Y-140806900D02*
X156359774Y-140878328D01*
X156359774Y-140878328D02*
X156574060Y-140878328D01*
X155216917Y-140878328D02*
X155359774Y-140806900D01*
X155359774Y-140806900D02*
X155431203Y-140664042D01*
X155431203Y-140664042D02*
X155431203Y-139378328D01*
X154431203Y-140878328D02*
X154574060Y-140806900D01*
X154574060Y-140806900D02*
X154645489Y-140664042D01*
X154645489Y-140664042D02*
X154645489Y-139378328D01*
X153288346Y-140806900D02*
X153431203Y-140878328D01*
X153431203Y-140878328D02*
X153716918Y-140878328D01*
X153716918Y-140878328D02*
X153859775Y-140806900D01*
X153859775Y-140806900D02*
X153931203Y-140664042D01*
X153931203Y-140664042D02*
X153931203Y-140092614D01*
X153931203Y-140092614D02*
X153859775Y-139949757D01*
X153859775Y-139949757D02*
X153716918Y-139878328D01*
X153716918Y-139878328D02*
X153431203Y-139878328D01*
X153431203Y-139878328D02*
X153288346Y-139949757D01*
X153288346Y-139949757D02*
X153216918Y-140092614D01*
X153216918Y-140092614D02*
X153216918Y-140235471D01*
X153216918Y-140235471D02*
X153931203Y-140378328D01*
X152574061Y-140878328D02*
X152574061Y-139878328D01*
X152574061Y-140164042D02*
X152502632Y-140021185D01*
X152502632Y-140021185D02*
X152431204Y-139949757D01*
X152431204Y-139949757D02*
X152288346Y-139878328D01*
X152288346Y-139878328D02*
X152145489Y-139878328D01*
D11*
X154670839Y-142407200D02*
X154527982Y-142454819D01*
X154527982Y-142454819D02*
X154289887Y-142454819D01*
X154289887Y-142454819D02*
X154194649Y-142407200D01*
X154194649Y-142407200D02*
X154147030Y-142359580D01*
X154147030Y-142359580D02*
X154099411Y-142264342D01*
X154099411Y-142264342D02*
X154099411Y-142169104D01*
X154099411Y-142169104D02*
X154147030Y-142073866D01*
X154147030Y-142073866D02*
X154194649Y-142026247D01*
X154194649Y-142026247D02*
X154289887Y-141978628D01*
X154289887Y-141978628D02*
X154480363Y-141931009D01*
X154480363Y-141931009D02*
X154575601Y-141883390D01*
X154575601Y-141883390D02*
X154623220Y-141835771D01*
X154623220Y-141835771D02*
X154670839Y-141740533D01*
X154670839Y-141740533D02*
X154670839Y-141645295D01*
X154670839Y-141645295D02*
X154623220Y-141550057D01*
X154623220Y-141550057D02*
X154575601Y-141502438D01*
X154575601Y-141502438D02*
X154480363Y-141454819D01*
X154480363Y-141454819D02*
X154242268Y-141454819D01*
X154242268Y-141454819D02*
X154099411Y-141502438D01*
X153289887Y-142407200D02*
X153385125Y-142454819D01*
X153385125Y-142454819D02*
X153575601Y-142454819D01*
X153575601Y-142454819D02*
X153670839Y-142407200D01*
X153670839Y-142407200D02*
X153718458Y-142311961D01*
X153718458Y-142311961D02*
X153718458Y-141931009D01*
X153718458Y-141931009D02*
X153670839Y-141835771D01*
X153670839Y-141835771D02*
X153575601Y-141788152D01*
X153575601Y-141788152D02*
X153385125Y-141788152D01*
X153385125Y-141788152D02*
X153289887Y-141835771D01*
X153289887Y-141835771D02*
X153242268Y-141931009D01*
X153242268Y-141931009D02*
X153242268Y-142026247D01*
X153242268Y-142026247D02*
X153718458Y-142121485D01*
X152813696Y-142454819D02*
X152813696Y-141788152D01*
X152813696Y-141978628D02*
X152766077Y-141883390D01*
X152766077Y-141883390D02*
X152718458Y-141835771D01*
X152718458Y-141835771D02*
X152623220Y-141788152D01*
X152623220Y-141788152D02*
X152527982Y-141788152D01*
X152194648Y-142454819D02*
X152194648Y-141788152D01*
X152194648Y-141454819D02*
X152242267Y-141502438D01*
X152242267Y-141502438D02*
X152194648Y-141550057D01*
X152194648Y-141550057D02*
X152147029Y-141502438D01*
X152147029Y-141502438D02*
X152194648Y-141454819D01*
X152194648Y-141454819D02*
X152194648Y-141550057D01*
X151289887Y-142454819D02*
X151289887Y-141931009D01*
X151289887Y-141931009D02*
X151337506Y-141835771D01*
X151337506Y-141835771D02*
X151432744Y-141788152D01*
X151432744Y-141788152D02*
X151623220Y-141788152D01*
X151623220Y-141788152D02*
X151718458Y-141835771D01*
X151289887Y-142407200D02*
X151385125Y-142454819D01*
X151385125Y-142454819D02*
X151623220Y-142454819D01*
X151623220Y-142454819D02*
X151718458Y-142407200D01*
X151718458Y-142407200D02*
X151766077Y-142311961D01*
X151766077Y-142311961D02*
X151766077Y-142216723D01*
X151766077Y-142216723D02*
X151718458Y-142121485D01*
X151718458Y-142121485D02*
X151623220Y-142073866D01*
X151623220Y-142073866D02*
X151385125Y-142073866D01*
X151385125Y-142073866D02*
X151289887Y-142026247D01*
X150670839Y-142454819D02*
X150766077Y-142407200D01*
X150766077Y-142407200D02*
X150813696Y-142311961D01*
X150813696Y-142311961D02*
X150813696Y-141454819D01*
X149527981Y-142454819D02*
X149527981Y-141454819D01*
X149527981Y-141454819D02*
X148956553Y-142454819D01*
X148956553Y-142454819D02*
X148956553Y-141454819D01*
X148337505Y-142454819D02*
X148432743Y-142407200D01*
X148432743Y-142407200D02*
X148480362Y-142359580D01*
X148480362Y-142359580D02*
X148527981Y-142264342D01*
X148527981Y-142264342D02*
X148527981Y-141978628D01*
X148527981Y-141978628D02*
X148480362Y-141883390D01*
X148480362Y-141883390D02*
X148432743Y-141835771D01*
X148432743Y-141835771D02*
X148337505Y-141788152D01*
X148337505Y-141788152D02*
X148194648Y-141788152D01*
X148194648Y-141788152D02*
X148099410Y-141835771D01*
X148099410Y-141835771D02*
X148051791Y-141883390D01*
X148051791Y-141883390D02*
X148004172Y-141978628D01*
X148004172Y-141978628D02*
X148004172Y-142264342D01*
X148004172Y-142264342D02*
X148051791Y-142359580D01*
X148051791Y-142359580D02*
X148099410Y-142407200D01*
X148099410Y-142407200D02*
X148194648Y-142454819D01*
X148194648Y-142454819D02*
X148337505Y-142454819D01*
X147575600Y-142359580D02*
X147527981Y-142407200D01*
X147527981Y-142407200D02*
X147575600Y-142454819D01*
X147575600Y-142454819D02*
X147623219Y-142407200D01*
X147623219Y-142407200D02*
X147575600Y-142359580D01*
X147575600Y-142359580D02*
X147575600Y-142454819D01*
X190863220Y-144654819D02*
X190863220Y-143654819D01*
X190863220Y-143654819D02*
X190482268Y-143654819D01*
X190482268Y-143654819D02*
X190387030Y-143702438D01*
X190387030Y-143702438D02*
X190339411Y-143750057D01*
X190339411Y-143750057D02*
X190291792Y-143845295D01*
X190291792Y-143845295D02*
X190291792Y-143988152D01*
X190291792Y-143988152D02*
X190339411Y-144083390D01*
X190339411Y-144083390D02*
X190387030Y-144131009D01*
X190387030Y-144131009D02*
X190482268Y-144178628D01*
X190482268Y-144178628D02*
X190863220Y-144178628D01*
X189720363Y-144654819D02*
X189815601Y-144607200D01*
X189815601Y-144607200D02*
X189863220Y-144559580D01*
X189863220Y-144559580D02*
X189910839Y-144464342D01*
X189910839Y-144464342D02*
X189910839Y-144178628D01*
X189910839Y-144178628D02*
X189863220Y-144083390D01*
X189863220Y-144083390D02*
X189815601Y-144035771D01*
X189815601Y-144035771D02*
X189720363Y-143988152D01*
X189720363Y-143988152D02*
X189577506Y-143988152D01*
X189577506Y-143988152D02*
X189482268Y-144035771D01*
X189482268Y-144035771D02*
X189434649Y-144083390D01*
X189434649Y-144083390D02*
X189387030Y-144178628D01*
X189387030Y-144178628D02*
X189387030Y-144464342D01*
X189387030Y-144464342D02*
X189434649Y-144559580D01*
X189434649Y-144559580D02*
X189482268Y-144607200D01*
X189482268Y-144607200D02*
X189577506Y-144654819D01*
X189577506Y-144654819D02*
X189720363Y-144654819D01*
X188815601Y-144654819D02*
X188910839Y-144607200D01*
X188910839Y-144607200D02*
X188958458Y-144511961D01*
X188958458Y-144511961D02*
X188958458Y-143654819D01*
X188434648Y-144654819D02*
X188434648Y-143988152D01*
X188434648Y-143654819D02*
X188482267Y-143702438D01*
X188482267Y-143702438D02*
X188434648Y-143750057D01*
X188434648Y-143750057D02*
X188387029Y-143702438D01*
X188387029Y-143702438D02*
X188434648Y-143654819D01*
X188434648Y-143654819D02*
X188434648Y-143750057D01*
X188101315Y-143988152D02*
X187720363Y-143988152D01*
X187958458Y-143654819D02*
X187958458Y-144511961D01*
X187958458Y-144511961D02*
X187910839Y-144607200D01*
X187910839Y-144607200D02*
X187815601Y-144654819D01*
X187815601Y-144654819D02*
X187720363Y-144654819D01*
X187006077Y-144607200D02*
X187101315Y-144654819D01*
X187101315Y-144654819D02*
X187291791Y-144654819D01*
X187291791Y-144654819D02*
X187387029Y-144607200D01*
X187387029Y-144607200D02*
X187434648Y-144511961D01*
X187434648Y-144511961D02*
X187434648Y-144131009D01*
X187434648Y-144131009D02*
X187387029Y-144035771D01*
X187387029Y-144035771D02*
X187291791Y-143988152D01*
X187291791Y-143988152D02*
X187101315Y-143988152D01*
X187101315Y-143988152D02*
X187006077Y-144035771D01*
X187006077Y-144035771D02*
X186958458Y-144131009D01*
X186958458Y-144131009D02*
X186958458Y-144226247D01*
X186958458Y-144226247D02*
X187434648Y-144321485D01*
X186101315Y-144607200D02*
X186196553Y-144654819D01*
X186196553Y-144654819D02*
X186387029Y-144654819D01*
X186387029Y-144654819D02*
X186482267Y-144607200D01*
X186482267Y-144607200D02*
X186529886Y-144559580D01*
X186529886Y-144559580D02*
X186577505Y-144464342D01*
X186577505Y-144464342D02*
X186577505Y-144178628D01*
X186577505Y-144178628D02*
X186529886Y-144083390D01*
X186529886Y-144083390D02*
X186482267Y-144035771D01*
X186482267Y-144035771D02*
X186387029Y-143988152D01*
X186387029Y-143988152D02*
X186196553Y-143988152D01*
X186196553Y-143988152D02*
X186101315Y-144035771D01*
X185672743Y-144654819D02*
X185672743Y-143654819D01*
X185244172Y-144654819D02*
X185244172Y-144131009D01*
X185244172Y-144131009D02*
X185291791Y-144035771D01*
X185291791Y-144035771D02*
X185387029Y-143988152D01*
X185387029Y-143988152D02*
X185529886Y-143988152D01*
X185529886Y-143988152D02*
X185625124Y-144035771D01*
X185625124Y-144035771D02*
X185672743Y-144083390D01*
X184767981Y-143988152D02*
X184767981Y-144654819D01*
X184767981Y-144083390D02*
X184720362Y-144035771D01*
X184720362Y-144035771D02*
X184625124Y-143988152D01*
X184625124Y-143988152D02*
X184482267Y-143988152D01*
X184482267Y-143988152D02*
X184387029Y-144035771D01*
X184387029Y-144035771D02*
X184339410Y-144131009D01*
X184339410Y-144131009D02*
X184339410Y-144654819D01*
X183863219Y-144654819D02*
X183863219Y-143988152D01*
X183863219Y-143654819D02*
X183910838Y-143702438D01*
X183910838Y-143702438D02*
X183863219Y-143750057D01*
X183863219Y-143750057D02*
X183815600Y-143702438D01*
X183815600Y-143702438D02*
X183863219Y-143654819D01*
X183863219Y-143654819D02*
X183863219Y-143750057D01*
X183387029Y-144654819D02*
X183387029Y-143654819D01*
X183291791Y-144273866D02*
X183006077Y-144654819D01*
X183006077Y-143988152D02*
X183387029Y-144369104D01*
X182148934Y-144654819D02*
X182148934Y-144131009D01*
X182148934Y-144131009D02*
X182196553Y-144035771D01*
X182196553Y-144035771D02*
X182291791Y-143988152D01*
X182291791Y-143988152D02*
X182482267Y-143988152D01*
X182482267Y-143988152D02*
X182577505Y-144035771D01*
X182148934Y-144607200D02*
X182244172Y-144654819D01*
X182244172Y-144654819D02*
X182482267Y-144654819D01*
X182482267Y-144654819D02*
X182577505Y-144607200D01*
X182577505Y-144607200D02*
X182625124Y-144511961D01*
X182625124Y-144511961D02*
X182625124Y-144416723D01*
X182625124Y-144416723D02*
X182577505Y-144321485D01*
X182577505Y-144321485D02*
X182482267Y-144273866D01*
X182482267Y-144273866D02*
X182244172Y-144273866D01*
X182244172Y-144273866D02*
X182148934Y-144226247D01*
X181006076Y-143654819D02*
X180767981Y-144654819D01*
X180767981Y-144654819D02*
X180577505Y-143940533D01*
X180577505Y-143940533D02*
X180387029Y-144654819D01*
X180387029Y-144654819D02*
X180148934Y-143654819D01*
X179767981Y-144654819D02*
X179767981Y-143988152D01*
X179767981Y-144178628D02*
X179720362Y-144083390D01*
X179720362Y-144083390D02*
X179672743Y-144035771D01*
X179672743Y-144035771D02*
X179577505Y-143988152D01*
X179577505Y-143988152D02*
X179482267Y-143988152D01*
X179006076Y-144654819D02*
X179101314Y-144607200D01*
X179101314Y-144607200D02*
X179148933Y-144559580D01*
X179148933Y-144559580D02*
X179196552Y-144464342D01*
X179196552Y-144464342D02*
X179196552Y-144178628D01*
X179196552Y-144178628D02*
X179148933Y-144083390D01*
X179148933Y-144083390D02*
X179101314Y-144035771D01*
X179101314Y-144035771D02*
X179006076Y-143988152D01*
X179006076Y-143988152D02*
X178863219Y-143988152D01*
X178863219Y-143988152D02*
X178767981Y-144035771D01*
X178767981Y-144035771D02*
X178720362Y-144083390D01*
X178720362Y-144083390D02*
X178672743Y-144178628D01*
X178672743Y-144178628D02*
X178672743Y-144464342D01*
X178672743Y-144464342D02*
X178720362Y-144559580D01*
X178720362Y-144559580D02*
X178767981Y-144607200D01*
X178767981Y-144607200D02*
X178863219Y-144654819D01*
X178863219Y-144654819D02*
X179006076Y-144654819D01*
X177815600Y-144607200D02*
X177910838Y-144654819D01*
X177910838Y-144654819D02*
X178101314Y-144654819D01*
X178101314Y-144654819D02*
X178196552Y-144607200D01*
X178196552Y-144607200D02*
X178244171Y-144559580D01*
X178244171Y-144559580D02*
X178291790Y-144464342D01*
X178291790Y-144464342D02*
X178291790Y-144178628D01*
X178291790Y-144178628D02*
X178244171Y-144083390D01*
X178244171Y-144083390D02*
X178196552Y-144035771D01*
X178196552Y-144035771D02*
X178101314Y-143988152D01*
X178101314Y-143988152D02*
X177910838Y-143988152D01*
X177910838Y-143988152D02*
X177815600Y-144035771D01*
X177244171Y-144654819D02*
X177339409Y-144607200D01*
X177339409Y-144607200D02*
X177387028Y-144511961D01*
X177387028Y-144511961D02*
X177387028Y-143654819D01*
X177529885Y-144178628D02*
X177244171Y-143988152D01*
X176434647Y-144654819D02*
X176434647Y-144131009D01*
X176434647Y-144131009D02*
X176482266Y-144035771D01*
X176482266Y-144035771D02*
X176577504Y-143988152D01*
X176577504Y-143988152D02*
X176767980Y-143988152D01*
X176767980Y-143988152D02*
X176863218Y-144035771D01*
X176434647Y-144607200D02*
X176529885Y-144654819D01*
X176529885Y-144654819D02*
X176767980Y-144654819D01*
X176767980Y-144654819D02*
X176863218Y-144607200D01*
X176863218Y-144607200D02*
X176910837Y-144511961D01*
X176910837Y-144511961D02*
X176910837Y-144416723D01*
X176910837Y-144416723D02*
X176863218Y-144321485D01*
X176863218Y-144321485D02*
X176767980Y-144273866D01*
X176767980Y-144273866D02*
X176529885Y-144273866D01*
X176529885Y-144273866D02*
X176434647Y-144226247D01*
X176053694Y-143988152D02*
X175863218Y-144654819D01*
X175863218Y-144654819D02*
X175672742Y-144178628D01*
X175672742Y-144178628D02*
X175482266Y-144654819D01*
X175482266Y-144654819D02*
X175291790Y-143988152D01*
X174958456Y-144607200D02*
X174863218Y-144654819D01*
X174863218Y-144654819D02*
X174672742Y-144654819D01*
X174672742Y-144654819D02*
X174577504Y-144607200D01*
X174577504Y-144607200D02*
X174529885Y-144511961D01*
X174529885Y-144511961D02*
X174529885Y-144464342D01*
X174529885Y-144464342D02*
X174577504Y-144369104D01*
X174577504Y-144369104D02*
X174672742Y-144321485D01*
X174672742Y-144321485D02*
X174815599Y-144321485D01*
X174815599Y-144321485D02*
X174910837Y-144273866D01*
X174910837Y-144273866D02*
X174958456Y-144178628D01*
X174958456Y-144178628D02*
X174958456Y-144131009D01*
X174958456Y-144131009D02*
X174910837Y-144035771D01*
X174910837Y-144035771D02*
X174815599Y-143988152D01*
X174815599Y-143988152D02*
X174672742Y-143988152D01*
X174672742Y-143988152D02*
X174577504Y-144035771D01*
X174101313Y-144654819D02*
X174101313Y-143654819D01*
X174006075Y-144273866D02*
X173720361Y-144654819D01*
X173720361Y-143988152D02*
X174101313Y-144369104D01*
X172863218Y-144654819D02*
X172863218Y-144131009D01*
X172863218Y-144131009D02*
X172910837Y-144035771D01*
X172910837Y-144035771D02*
X173006075Y-143988152D01*
X173006075Y-143988152D02*
X173196551Y-143988152D01*
X173196551Y-143988152D02*
X173291789Y-144035771D01*
X172863218Y-144607200D02*
X172958456Y-144654819D01*
X172958456Y-144654819D02*
X173196551Y-144654819D01*
X173196551Y-144654819D02*
X173291789Y-144607200D01*
X173291789Y-144607200D02*
X173339408Y-144511961D01*
X173339408Y-144511961D02*
X173339408Y-144416723D01*
X173339408Y-144416723D02*
X173291789Y-144321485D01*
X173291789Y-144321485D02*
X173196551Y-144273866D01*
X173196551Y-144273866D02*
X172958456Y-144273866D01*
X172958456Y-144273866D02*
X172863218Y-144226247D01*
X190291792Y-143154819D02*
X190625125Y-142678628D01*
X190863220Y-143154819D02*
X190863220Y-142154819D01*
X190863220Y-142154819D02*
X190482268Y-142154819D01*
X190482268Y-142154819D02*
X190387030Y-142202438D01*
X190387030Y-142202438D02*
X190339411Y-142250057D01*
X190339411Y-142250057D02*
X190291792Y-142345295D01*
X190291792Y-142345295D02*
X190291792Y-142488152D01*
X190291792Y-142488152D02*
X190339411Y-142583390D01*
X190339411Y-142583390D02*
X190387030Y-142631009D01*
X190387030Y-142631009D02*
X190482268Y-142678628D01*
X190482268Y-142678628D02*
X190863220Y-142678628D01*
X189482268Y-143107200D02*
X189577506Y-143154819D01*
X189577506Y-143154819D02*
X189767982Y-143154819D01*
X189767982Y-143154819D02*
X189863220Y-143107200D01*
X189863220Y-143107200D02*
X189910839Y-143011961D01*
X189910839Y-143011961D02*
X189910839Y-142631009D01*
X189910839Y-142631009D02*
X189863220Y-142535771D01*
X189863220Y-142535771D02*
X189767982Y-142488152D01*
X189767982Y-142488152D02*
X189577506Y-142488152D01*
X189577506Y-142488152D02*
X189482268Y-142535771D01*
X189482268Y-142535771D02*
X189434649Y-142631009D01*
X189434649Y-142631009D02*
X189434649Y-142726247D01*
X189434649Y-142726247D02*
X189910839Y-142821485D01*
X189101315Y-142488152D02*
X188863220Y-143154819D01*
X188863220Y-143154819D02*
X188625125Y-142488152D01*
X188244172Y-143059580D02*
X188196553Y-143107200D01*
X188196553Y-143107200D02*
X188244172Y-143154819D01*
X188244172Y-143154819D02*
X188291791Y-143107200D01*
X188291791Y-143107200D02*
X188244172Y-143059580D01*
X188244172Y-143059580D02*
X188244172Y-143154819D01*
X186482268Y-143154819D02*
X187053696Y-143154819D01*
X186767982Y-143154819D02*
X186767982Y-142154819D01*
X186767982Y-142154819D02*
X186863220Y-142297676D01*
X186863220Y-142297676D02*
X186958458Y-142392914D01*
X186958458Y-142392914D02*
X187053696Y-142440533D01*
X186053696Y-143059580D02*
X186006077Y-143107200D01*
X186006077Y-143107200D02*
X186053696Y-143154819D01*
X186053696Y-143154819D02*
X186101315Y-143107200D01*
X186101315Y-143107200D02*
X186053696Y-143059580D01*
X186053696Y-143059580D02*
X186053696Y-143154819D01*
X185053697Y-143154819D02*
X185625125Y-143154819D01*
X185339411Y-143154819D02*
X185339411Y-142154819D01*
X185339411Y-142154819D02*
X185434649Y-142297676D01*
X185434649Y-142297676D02*
X185529887Y-142392914D01*
X185529887Y-142392914D02*
X185625125Y-142440533D01*
X184625125Y-143059580D02*
X184577506Y-143107200D01*
X184577506Y-143107200D02*
X184625125Y-143154819D01*
X184625125Y-143154819D02*
X184672744Y-143107200D01*
X184672744Y-143107200D02*
X184625125Y-143059580D01*
X184625125Y-143059580D02*
X184625125Y-143154819D01*
X183958459Y-142154819D02*
X183863221Y-142154819D01*
X183863221Y-142154819D02*
X183767983Y-142202438D01*
X183767983Y-142202438D02*
X183720364Y-142250057D01*
X183720364Y-142250057D02*
X183672745Y-142345295D01*
X183672745Y-142345295D02*
X183625126Y-142535771D01*
X183625126Y-142535771D02*
X183625126Y-142773866D01*
X183625126Y-142773866D02*
X183672745Y-142964342D01*
X183672745Y-142964342D02*
X183720364Y-143059580D01*
X183720364Y-143059580D02*
X183767983Y-143107200D01*
X183767983Y-143107200D02*
X183863221Y-143154819D01*
X183863221Y-143154819D02*
X183958459Y-143154819D01*
X183958459Y-143154819D02*
X184053697Y-143107200D01*
X184053697Y-143107200D02*
X184101316Y-143059580D01*
X184101316Y-143059580D02*
X184148935Y-142964342D01*
X184148935Y-142964342D02*
X184196554Y-142773866D01*
X184196554Y-142773866D02*
X184196554Y-142535771D01*
X184196554Y-142535771D02*
X184148935Y-142345295D01*
X184148935Y-142345295D02*
X184101316Y-142250057D01*
X184101316Y-142250057D02*
X184053697Y-142202438D01*
X184053697Y-142202438D02*
X183958459Y-142154819D01*
X199438094Y-89354819D02*
X199438094Y-88354819D01*
X199438094Y-88354819D02*
X199199999Y-88354819D01*
X199199999Y-88354819D02*
X199057142Y-88402438D01*
X199057142Y-88402438D02*
X198961904Y-88497676D01*
X198961904Y-88497676D02*
X198914285Y-88592914D01*
X198914285Y-88592914D02*
X198866666Y-88783390D01*
X198866666Y-88783390D02*
X198866666Y-88926247D01*
X198866666Y-88926247D02*
X198914285Y-89116723D01*
X198914285Y-89116723D02*
X198961904Y-89211961D01*
X198961904Y-89211961D02*
X199057142Y-89307200D01*
X199057142Y-89307200D02*
X199199999Y-89354819D01*
X199199999Y-89354819D02*
X199438094Y-89354819D01*
X197914285Y-89354819D02*
X198485713Y-89354819D01*
X198199999Y-89354819D02*
X198199999Y-88354819D01*
X198199999Y-88354819D02*
X198295237Y-88497676D01*
X198295237Y-88497676D02*
X198390475Y-88592914D01*
X198390475Y-88592914D02*
X198485713Y-88640533D01*
X182166666Y-92959580D02*
X182214285Y-93007200D01*
X182214285Y-93007200D02*
X182357142Y-93054819D01*
X182357142Y-93054819D02*
X182452380Y-93054819D01*
X182452380Y-93054819D02*
X182595237Y-93007200D01*
X182595237Y-93007200D02*
X182690475Y-92911961D01*
X182690475Y-92911961D02*
X182738094Y-92816723D01*
X182738094Y-92816723D02*
X182785713Y-92626247D01*
X182785713Y-92626247D02*
X182785713Y-92483390D01*
X182785713Y-92483390D02*
X182738094Y-92292914D01*
X182738094Y-92292914D02*
X182690475Y-92197676D01*
X182690475Y-92197676D02*
X182595237Y-92102438D01*
X182595237Y-92102438D02*
X182452380Y-92054819D01*
X182452380Y-92054819D02*
X182357142Y-92054819D01*
X182357142Y-92054819D02*
X182214285Y-92102438D01*
X182214285Y-92102438D02*
X182166666Y-92150057D01*
X181309523Y-92054819D02*
X181499999Y-92054819D01*
X181499999Y-92054819D02*
X181595237Y-92102438D01*
X181595237Y-92102438D02*
X181642856Y-92150057D01*
X181642856Y-92150057D02*
X181738094Y-92292914D01*
X181738094Y-92292914D02*
X181785713Y-92483390D01*
X181785713Y-92483390D02*
X181785713Y-92864342D01*
X181785713Y-92864342D02*
X181738094Y-92959580D01*
X181738094Y-92959580D02*
X181690475Y-93007200D01*
X181690475Y-93007200D02*
X181595237Y-93054819D01*
X181595237Y-93054819D02*
X181404761Y-93054819D01*
X181404761Y-93054819D02*
X181309523Y-93007200D01*
X181309523Y-93007200D02*
X181261904Y-92959580D01*
X181261904Y-92959580D02*
X181214285Y-92864342D01*
X181214285Y-92864342D02*
X181214285Y-92626247D01*
X181214285Y-92626247D02*
X181261904Y-92531009D01*
X181261904Y-92531009D02*
X181309523Y-92483390D01*
X181309523Y-92483390D02*
X181404761Y-92435771D01*
X181404761Y-92435771D02*
X181595237Y-92435771D01*
X181595237Y-92435771D02*
X181690475Y-92483390D01*
X181690475Y-92483390D02*
X181738094Y-92531009D01*
X181738094Y-92531009D02*
X181785713Y-92626247D01*
X196066666Y-83679580D02*
X196114285Y-83727200D01*
X196114285Y-83727200D02*
X196257142Y-83774819D01*
X196257142Y-83774819D02*
X196352380Y-83774819D01*
X196352380Y-83774819D02*
X196495237Y-83727200D01*
X196495237Y-83727200D02*
X196590475Y-83631961D01*
X196590475Y-83631961D02*
X196638094Y-83536723D01*
X196638094Y-83536723D02*
X196685713Y-83346247D01*
X196685713Y-83346247D02*
X196685713Y-83203390D01*
X196685713Y-83203390D02*
X196638094Y-83012914D01*
X196638094Y-83012914D02*
X196590475Y-82917676D01*
X196590475Y-82917676D02*
X196495237Y-82822438D01*
X196495237Y-82822438D02*
X196352380Y-82774819D01*
X196352380Y-82774819D02*
X196257142Y-82774819D01*
X196257142Y-82774819D02*
X196114285Y-82822438D01*
X196114285Y-82822438D02*
X196066666Y-82870057D01*
X195209523Y-83108152D02*
X195209523Y-83774819D01*
X195447618Y-82727200D02*
X195685713Y-83441485D01*
X195685713Y-83441485D02*
X195066666Y-83441485D01*
X198866666Y-87454819D02*
X199199999Y-86978628D01*
X199438094Y-87454819D02*
X199438094Y-86454819D01*
X199438094Y-86454819D02*
X199057142Y-86454819D01*
X199057142Y-86454819D02*
X198961904Y-86502438D01*
X198961904Y-86502438D02*
X198914285Y-86550057D01*
X198914285Y-86550057D02*
X198866666Y-86645295D01*
X198866666Y-86645295D02*
X198866666Y-86788152D01*
X198866666Y-86788152D02*
X198914285Y-86883390D01*
X198914285Y-86883390D02*
X198961904Y-86931009D01*
X198961904Y-86931009D02*
X199057142Y-86978628D01*
X199057142Y-86978628D02*
X199438094Y-86978628D01*
X198485713Y-86550057D02*
X198438094Y-86502438D01*
X198438094Y-86502438D02*
X198342856Y-86454819D01*
X198342856Y-86454819D02*
X198104761Y-86454819D01*
X198104761Y-86454819D02*
X198009523Y-86502438D01*
X198009523Y-86502438D02*
X197961904Y-86550057D01*
X197961904Y-86550057D02*
X197914285Y-86645295D01*
X197914285Y-86645295D02*
X197914285Y-86740533D01*
X197914285Y-86740533D02*
X197961904Y-86883390D01*
X197961904Y-86883390D02*
X198533332Y-87454819D01*
X198533332Y-87454819D02*
X197914285Y-87454819D01*
X139479580Y-92233333D02*
X139527200Y-92185714D01*
X139527200Y-92185714D02*
X139574819Y-92042857D01*
X139574819Y-92042857D02*
X139574819Y-91947619D01*
X139574819Y-91947619D02*
X139527200Y-91804762D01*
X139527200Y-91804762D02*
X139431961Y-91709524D01*
X139431961Y-91709524D02*
X139336723Y-91661905D01*
X139336723Y-91661905D02*
X139146247Y-91614286D01*
X139146247Y-91614286D02*
X139003390Y-91614286D01*
X139003390Y-91614286D02*
X138812914Y-91661905D01*
X138812914Y-91661905D02*
X138717676Y-91709524D01*
X138717676Y-91709524D02*
X138622438Y-91804762D01*
X138622438Y-91804762D02*
X138574819Y-91947619D01*
X138574819Y-91947619D02*
X138574819Y-92042857D01*
X138574819Y-92042857D02*
X138622438Y-92185714D01*
X138622438Y-92185714D02*
X138670057Y-92233333D01*
X138574819Y-92566667D02*
X138574819Y-93233333D01*
X138574819Y-93233333D02*
X139574819Y-92804762D01*
X143729580Y-137957142D02*
X143777200Y-137909523D01*
X143777200Y-137909523D02*
X143824819Y-137766666D01*
X143824819Y-137766666D02*
X143824819Y-137671428D01*
X143824819Y-137671428D02*
X143777200Y-137528571D01*
X143777200Y-137528571D02*
X143681961Y-137433333D01*
X143681961Y-137433333D02*
X143586723Y-137385714D01*
X143586723Y-137385714D02*
X143396247Y-137338095D01*
X143396247Y-137338095D02*
X143253390Y-137338095D01*
X143253390Y-137338095D02*
X143062914Y-137385714D01*
X143062914Y-137385714D02*
X142967676Y-137433333D01*
X142967676Y-137433333D02*
X142872438Y-137528571D01*
X142872438Y-137528571D02*
X142824819Y-137671428D01*
X142824819Y-137671428D02*
X142824819Y-137766666D01*
X142824819Y-137766666D02*
X142872438Y-137909523D01*
X142872438Y-137909523D02*
X142920057Y-137957142D01*
X143824819Y-138909523D02*
X143824819Y-138338095D01*
X143824819Y-138623809D02*
X142824819Y-138623809D01*
X142824819Y-138623809D02*
X142967676Y-138528571D01*
X142967676Y-138528571D02*
X143062914Y-138433333D01*
X143062914Y-138433333D02*
X143110533Y-138338095D01*
X143253390Y-139480952D02*
X143205771Y-139385714D01*
X143205771Y-139385714D02*
X143158152Y-139338095D01*
X143158152Y-139338095D02*
X143062914Y-139290476D01*
X143062914Y-139290476D02*
X143015295Y-139290476D01*
X143015295Y-139290476D02*
X142920057Y-139338095D01*
X142920057Y-139338095D02*
X142872438Y-139385714D01*
X142872438Y-139385714D02*
X142824819Y-139480952D01*
X142824819Y-139480952D02*
X142824819Y-139671428D01*
X142824819Y-139671428D02*
X142872438Y-139766666D01*
X142872438Y-139766666D02*
X142920057Y-139814285D01*
X142920057Y-139814285D02*
X143015295Y-139861904D01*
X143015295Y-139861904D02*
X143062914Y-139861904D01*
X143062914Y-139861904D02*
X143158152Y-139814285D01*
X143158152Y-139814285D02*
X143205771Y-139766666D01*
X143205771Y-139766666D02*
X143253390Y-139671428D01*
X143253390Y-139671428D02*
X143253390Y-139480952D01*
X143253390Y-139480952D02*
X143301009Y-139385714D01*
X143301009Y-139385714D02*
X143348628Y-139338095D01*
X143348628Y-139338095D02*
X143443866Y-139290476D01*
X143443866Y-139290476D02*
X143634342Y-139290476D01*
X143634342Y-139290476D02*
X143729580Y-139338095D01*
X143729580Y-139338095D02*
X143777200Y-139385714D01*
X143777200Y-139385714D02*
X143824819Y-139480952D01*
X143824819Y-139480952D02*
X143824819Y-139671428D01*
X143824819Y-139671428D02*
X143777200Y-139766666D01*
X143777200Y-139766666D02*
X143729580Y-139814285D01*
X143729580Y-139814285D02*
X143634342Y-139861904D01*
X143634342Y-139861904D02*
X143443866Y-139861904D01*
X143443866Y-139861904D02*
X143348628Y-139814285D01*
X143348628Y-139814285D02*
X143301009Y-139766666D01*
X143301009Y-139766666D02*
X143253390Y-139671428D01*
X182566666Y-94809580D02*
X182614285Y-94857200D01*
X182614285Y-94857200D02*
X182757142Y-94904819D01*
X182757142Y-94904819D02*
X182852380Y-94904819D01*
X182852380Y-94904819D02*
X182995237Y-94857200D01*
X182995237Y-94857200D02*
X183090475Y-94761961D01*
X183090475Y-94761961D02*
X183138094Y-94666723D01*
X183138094Y-94666723D02*
X183185713Y-94476247D01*
X183185713Y-94476247D02*
X183185713Y-94333390D01*
X183185713Y-94333390D02*
X183138094Y-94142914D01*
X183138094Y-94142914D02*
X183090475Y-94047676D01*
X183090475Y-94047676D02*
X182995237Y-93952438D01*
X182995237Y-93952438D02*
X182852380Y-93904819D01*
X182852380Y-93904819D02*
X182757142Y-93904819D01*
X182757142Y-93904819D02*
X182614285Y-93952438D01*
X182614285Y-93952438D02*
X182566666Y-94000057D01*
X181661904Y-93904819D02*
X182138094Y-93904819D01*
X182138094Y-93904819D02*
X182185713Y-94381009D01*
X182185713Y-94381009D02*
X182138094Y-94333390D01*
X182138094Y-94333390D02*
X182042856Y-94285771D01*
X182042856Y-94285771D02*
X181804761Y-94285771D01*
X181804761Y-94285771D02*
X181709523Y-94333390D01*
X181709523Y-94333390D02*
X181661904Y-94381009D01*
X181661904Y-94381009D02*
X181614285Y-94476247D01*
X181614285Y-94476247D02*
X181614285Y-94714342D01*
X181614285Y-94714342D02*
X181661904Y-94809580D01*
X181661904Y-94809580D02*
X181709523Y-94857200D01*
X181709523Y-94857200D02*
X181804761Y-94904819D01*
X181804761Y-94904819D02*
X182042856Y-94904819D01*
X182042856Y-94904819D02*
X182138094Y-94857200D01*
X182138094Y-94857200D02*
X182185713Y-94809580D01*
X142839580Y-96433333D02*
X142887200Y-96385714D01*
X142887200Y-96385714D02*
X142934819Y-96242857D01*
X142934819Y-96242857D02*
X142934819Y-96147619D01*
X142934819Y-96147619D02*
X142887200Y-96004762D01*
X142887200Y-96004762D02*
X142791961Y-95909524D01*
X142791961Y-95909524D02*
X142696723Y-95861905D01*
X142696723Y-95861905D02*
X142506247Y-95814286D01*
X142506247Y-95814286D02*
X142363390Y-95814286D01*
X142363390Y-95814286D02*
X142172914Y-95861905D01*
X142172914Y-95861905D02*
X142077676Y-95909524D01*
X142077676Y-95909524D02*
X141982438Y-96004762D01*
X141982438Y-96004762D02*
X141934819Y-96147619D01*
X141934819Y-96147619D02*
X141934819Y-96242857D01*
X141934819Y-96242857D02*
X141982438Y-96385714D01*
X141982438Y-96385714D02*
X142030057Y-96433333D01*
X142363390Y-97004762D02*
X142315771Y-96909524D01*
X142315771Y-96909524D02*
X142268152Y-96861905D01*
X142268152Y-96861905D02*
X142172914Y-96814286D01*
X142172914Y-96814286D02*
X142125295Y-96814286D01*
X142125295Y-96814286D02*
X142030057Y-96861905D01*
X142030057Y-96861905D02*
X141982438Y-96909524D01*
X141982438Y-96909524D02*
X141934819Y-97004762D01*
X141934819Y-97004762D02*
X141934819Y-97195238D01*
X141934819Y-97195238D02*
X141982438Y-97290476D01*
X141982438Y-97290476D02*
X142030057Y-97338095D01*
X142030057Y-97338095D02*
X142125295Y-97385714D01*
X142125295Y-97385714D02*
X142172914Y-97385714D01*
X142172914Y-97385714D02*
X142268152Y-97338095D01*
X142268152Y-97338095D02*
X142315771Y-97290476D01*
X142315771Y-97290476D02*
X142363390Y-97195238D01*
X142363390Y-97195238D02*
X142363390Y-97004762D01*
X142363390Y-97004762D02*
X142411009Y-96909524D01*
X142411009Y-96909524D02*
X142458628Y-96861905D01*
X142458628Y-96861905D02*
X142553866Y-96814286D01*
X142553866Y-96814286D02*
X142744342Y-96814286D01*
X142744342Y-96814286D02*
X142839580Y-96861905D01*
X142839580Y-96861905D02*
X142887200Y-96909524D01*
X142887200Y-96909524D02*
X142934819Y-97004762D01*
X142934819Y-97004762D02*
X142934819Y-97195238D01*
X142934819Y-97195238D02*
X142887200Y-97290476D01*
X142887200Y-97290476D02*
X142839580Y-97338095D01*
X142839580Y-97338095D02*
X142744342Y-97385714D01*
X142744342Y-97385714D02*
X142553866Y-97385714D01*
X142553866Y-97385714D02*
X142458628Y-97338095D01*
X142458628Y-97338095D02*
X142411009Y-97290476D01*
X142411009Y-97290476D02*
X142363390Y-97195238D01*
X143984580Y-141782142D02*
X144032200Y-141734523D01*
X144032200Y-141734523D02*
X144079819Y-141591666D01*
X144079819Y-141591666D02*
X144079819Y-141496428D01*
X144079819Y-141496428D02*
X144032200Y-141353571D01*
X144032200Y-141353571D02*
X143936961Y-141258333D01*
X143936961Y-141258333D02*
X143841723Y-141210714D01*
X143841723Y-141210714D02*
X143651247Y-141163095D01*
X143651247Y-141163095D02*
X143508390Y-141163095D01*
X143508390Y-141163095D02*
X143317914Y-141210714D01*
X143317914Y-141210714D02*
X143222676Y-141258333D01*
X143222676Y-141258333D02*
X143127438Y-141353571D01*
X143127438Y-141353571D02*
X143079819Y-141496428D01*
X143079819Y-141496428D02*
X143079819Y-141591666D01*
X143079819Y-141591666D02*
X143127438Y-141734523D01*
X143127438Y-141734523D02*
X143175057Y-141782142D01*
X143175057Y-142163095D02*
X143127438Y-142210714D01*
X143127438Y-142210714D02*
X143079819Y-142305952D01*
X143079819Y-142305952D02*
X143079819Y-142544047D01*
X143079819Y-142544047D02*
X143127438Y-142639285D01*
X143127438Y-142639285D02*
X143175057Y-142686904D01*
X143175057Y-142686904D02*
X143270295Y-142734523D01*
X143270295Y-142734523D02*
X143365533Y-142734523D01*
X143365533Y-142734523D02*
X143508390Y-142686904D01*
X143508390Y-142686904D02*
X144079819Y-142115476D01*
X144079819Y-142115476D02*
X144079819Y-142734523D01*
X143079819Y-143353571D02*
X143079819Y-143448809D01*
X143079819Y-143448809D02*
X143127438Y-143544047D01*
X143127438Y-143544047D02*
X143175057Y-143591666D01*
X143175057Y-143591666D02*
X143270295Y-143639285D01*
X143270295Y-143639285D02*
X143460771Y-143686904D01*
X143460771Y-143686904D02*
X143698866Y-143686904D01*
X143698866Y-143686904D02*
X143889342Y-143639285D01*
X143889342Y-143639285D02*
X143984580Y-143591666D01*
X143984580Y-143591666D02*
X144032200Y-143544047D01*
X144032200Y-143544047D02*
X144079819Y-143448809D01*
X144079819Y-143448809D02*
X144079819Y-143353571D01*
X144079819Y-143353571D02*
X144032200Y-143258333D01*
X144032200Y-143258333D02*
X143984580Y-143210714D01*
X143984580Y-143210714D02*
X143889342Y-143163095D01*
X143889342Y-143163095D02*
X143698866Y-143115476D01*
X143698866Y-143115476D02*
X143460771Y-143115476D01*
X143460771Y-143115476D02*
X143270295Y-143163095D01*
X143270295Y-143163095D02*
X143175057Y-143210714D01*
X143175057Y-143210714D02*
X143127438Y-143258333D01*
X143127438Y-143258333D02*
X143079819Y-143353571D01*
X191466666Y-81904819D02*
X191799999Y-81428628D01*
X192038094Y-81904819D02*
X192038094Y-80904819D01*
X192038094Y-80904819D02*
X191657142Y-80904819D01*
X191657142Y-80904819D02*
X191561904Y-80952438D01*
X191561904Y-80952438D02*
X191514285Y-81000057D01*
X191514285Y-81000057D02*
X191466666Y-81095295D01*
X191466666Y-81095295D02*
X191466666Y-81238152D01*
X191466666Y-81238152D02*
X191514285Y-81333390D01*
X191514285Y-81333390D02*
X191561904Y-81381009D01*
X191561904Y-81381009D02*
X191657142Y-81428628D01*
X191657142Y-81428628D02*
X192038094Y-81428628D01*
X191133332Y-80904819D02*
X190514285Y-80904819D01*
X190514285Y-80904819D02*
X190847618Y-81285771D01*
X190847618Y-81285771D02*
X190704761Y-81285771D01*
X190704761Y-81285771D02*
X190609523Y-81333390D01*
X190609523Y-81333390D02*
X190561904Y-81381009D01*
X190561904Y-81381009D02*
X190514285Y-81476247D01*
X190514285Y-81476247D02*
X190514285Y-81714342D01*
X190514285Y-81714342D02*
X190561904Y-81809580D01*
X190561904Y-81809580D02*
X190609523Y-81857200D01*
X190609523Y-81857200D02*
X190704761Y-81904819D01*
X190704761Y-81904819D02*
X190990475Y-81904819D01*
X190990475Y-81904819D02*
X191085713Y-81857200D01*
X191085713Y-81857200D02*
X191133332Y-81809580D01*
X182616666Y-91004819D02*
X183092856Y-91004819D01*
X183092856Y-91004819D02*
X183092856Y-90004819D01*
X181759523Y-91004819D02*
X182330951Y-91004819D01*
X182045237Y-91004819D02*
X182045237Y-90004819D01*
X182045237Y-90004819D02*
X182140475Y-90147676D01*
X182140475Y-90147676D02*
X182235713Y-90242914D01*
X182235713Y-90242914D02*
X182330951Y-90290533D01*
D12*
X154960000Y-147000000D02*
X144960000Y-147000000D01*
X144960000Y-147000000D02*
X144960000Y-143000000D01*
X144960000Y-143000000D02*
X154960000Y-143000000D01*
X154960000Y-143000000D02*
X154960000Y-147000000D01*
X197710000Y-89750000D02*
X195050000Y-89750000D01*
X197710000Y-88050000D02*
X197710000Y-89750000D01*
X197710000Y-88050000D02*
X195050000Y-88050000D01*
X185438752Y-93240000D02*
X184916248Y-93240000D01*
X185438752Y-91770000D02*
X184916248Y-91770000D01*
X196161252Y-85735000D02*
X195638748Y-85735000D01*
X196161252Y-84265000D02*
X195638748Y-84265000D01*
X195672936Y-86265000D02*
X196127064Y-86265000D01*
X195672936Y-87735000D02*
X196127064Y-87735000D01*
X141535000Y-92138748D02*
X141535000Y-92661252D01*
X140065000Y-92138748D02*
X140065000Y-92661252D01*
X145785000Y-138338748D02*
X145785000Y-138861252D01*
X144315000Y-138338748D02*
X144315000Y-138861252D01*
X185438752Y-95240000D02*
X184916248Y-95240000D01*
X185438752Y-93770000D02*
X184916248Y-93770000D01*
X140065000Y-96861252D02*
X140065000Y-96338748D01*
X141535000Y-96861252D02*
X141535000Y-96338748D01*
X144315000Y-142661252D02*
X144315000Y-142138748D01*
X145785000Y-142661252D02*
X145785000Y-142138748D01*
X191527064Y-83835000D02*
X191072936Y-83835000D01*
X191527064Y-82365000D02*
X191072936Y-82365000D01*
X184916248Y-89795000D02*
X185438752Y-89795000D01*
X184916248Y-91215000D02*
X185438752Y-91215000D01*
%LPC*%
D13*
X99960000Y-50000000D02*
X199960000Y-50000000D01*
X199960000Y-50000000D02*
X199960000Y-52250000D01*
X199960000Y-52250000D02*
X99960000Y-52250000D01*
X99960000Y-52250000D02*
X99960000Y-50000000D01*
G36*
X99960000Y-50000000D02*
G01*
X199960000Y-50000000D01*
X199960000Y-52250000D01*
X99960000Y-52250000D01*
X99960000Y-50000000D01*
G37*
X99960000Y-147750000D02*
X199960000Y-147750000D01*
X199960000Y-147750000D02*
X199960000Y-150000000D01*
X199960000Y-150000000D02*
X99960000Y-150000000D01*
X99960000Y-150000000D02*
X99960000Y-147750000D01*
G36*
X99960000Y-147750000D02*
G01*
X199960000Y-147750000D01*
X199960000Y-150000000D01*
X99960000Y-150000000D01*
X99960000Y-147750000D01*
G37*
D14*
X106197500Y-84330000D03*
D15*
X103657500Y-84330000D03*
X106197500Y-81790000D03*
X103657500Y-81790000D03*
X106197500Y-79250000D03*
X103657500Y-79250000D03*
X106197500Y-76710000D03*
X103657500Y-76710000D03*
X106197500Y-74170000D03*
X103657500Y-74170000D03*
D16*
X175550000Y-90000000D03*
D17*
X114550000Y-142980000D03*
D18*
X114550000Y-140440000D03*
X114550000Y-137900000D03*
D16*
X184700000Y-83700000D03*
X167150000Y-91350000D03*
X182500000Y-83050000D03*
X178300000Y-62300000D03*
X173600000Y-91000000D03*
X190950000Y-101850000D03*
X174750000Y-62250000D03*
D19*
X106200000Y-108117677D03*
D20*
X106200000Y-111617677D03*
D21*
X193960000Y-66000000D03*
D15*
X196500000Y-66000000D03*
D22*
X104960000Y-55000000D03*
X104960000Y-145000000D03*
D15*
X193960000Y-68540000D03*
D22*
X194960000Y-55000000D03*
X194960000Y-145000000D03*
D15*
X196500000Y-68540000D03*
X193960000Y-71080000D03*
X196500000Y-71080000D03*
X193960000Y-73620000D03*
X196500000Y-73620000D03*
X193960000Y-76160000D03*
X196500000Y-76160000D03*
D21*
X193960000Y-91000000D03*
D15*
X196500000Y-91000000D03*
X193960000Y-93540000D03*
X196500000Y-93540000D03*
X193960000Y-96080000D03*
X196500000Y-96080000D03*
X193960000Y-98620000D03*
X196500000Y-98620000D03*
X193960000Y-101160000D03*
X196500000Y-101160000D03*
D21*
X193960000Y-123000000D03*
D15*
X196500000Y-123000000D03*
X193960000Y-125540000D03*
X196500000Y-125540000D03*
X193960000Y-128080000D03*
X196500000Y-128080000D03*
X193960000Y-130620000D03*
X196500000Y-130620000D03*
X193960000Y-133160000D03*
X196500000Y-133160000D03*
D16*
X166400000Y-89450000D03*
X169100000Y-92200000D03*
X166650000Y-87400000D03*
D19*
X119200000Y-108000000D03*
D20*
X119200000Y-111500000D03*
D16*
X171050000Y-92800000D03*
X172100000Y-94600000D03*
X172100000Y-96900000D03*
D23*
X147800000Y-97180000D03*
X147800000Y-92180000D03*
D16*
X173700000Y-93150000D03*
D24*
X112700000Y-115000000D03*
D25*
X112700000Y-107380000D03*
D16*
X178450000Y-82900000D03*
X180600000Y-83800000D03*
D26*
X197200000Y-88900000D03*
X195000000Y-88900000D03*
D27*
X186215000Y-92505000D03*
X184140000Y-92505000D03*
X196937500Y-85000000D03*
X194862500Y-85000000D03*
D28*
X194900000Y-87000000D03*
X196900000Y-87000000D03*
D29*
X140800000Y-91362500D03*
X140800000Y-93437500D03*
X145050000Y-137562500D03*
X145050000Y-139637500D03*
D27*
X186215000Y-94505000D03*
X184140000Y-94505000D03*
D30*
X140800000Y-97637500D03*
X140800000Y-95562500D03*
X145050000Y-143437500D03*
X145050000Y-141362500D03*
D31*
X192300000Y-83100000D03*
X190300000Y-83100000D03*
D32*
X184152500Y-90505000D03*
X186202500Y-90505000D03*
%LPD*%
M02*
