%TF.GenerationSoftware,KiCad,Pcbnew,7.0.10*%
%TF.CreationDate,2024-01-28T11:03:55+01:00*%
%TF.ProjectId,EuroMeasure-IonGaugeController,4575726f-4d65-4617-9375-72652d496f6e,1.1.0*%
%TF.SameCoordinates,Original*%
%TF.FileFunction,Plated,1,2,PTH,Drill*%
%TF.FilePolarity,Positive*%
%FSLAX46Y46*%
G04 Gerber Fmt 4.6, Leading zero omitted, Abs format (unit mm)*
G04 Created by KiCad (PCBNEW 7.0.10) date 2024-01-28 11:03:55*
%MOMM*%
%LPD*%
G01*
G04 APERTURE LIST*
%TA.AperFunction,ViaDrill*%
%ADD10C,0.250000*%
%TD*%
%TA.AperFunction,ComponentDrill*%
%ADD11C,0.300000*%
%TD*%
%TA.AperFunction,ViaDrill*%
%ADD12C,0.400000*%
%TD*%
%TA.AperFunction,ComponentDrill*%
%ADD13C,0.700000*%
%TD*%
%TA.AperFunction,ComponentDrill*%
%ADD14C,0.800000*%
%TD*%
%TA.AperFunction,ComponentDrill*%
%ADD15C,1.000000*%
%TD*%
%TA.AperFunction,ComponentDrill*%
%ADD16C,1.100000*%
%TD*%
%TA.AperFunction,ComponentDrill*%
%ADD17C,3.200000*%
%TD*%
G04 APERTURE END LIST*
D10*
X100500000Y-90000000D03*
X100500000Y-93500000D03*
X100500000Y-97000000D03*
X100500000Y-100500000D03*
X100500000Y-104000000D03*
X100500000Y-107500000D03*
X100500000Y-110500000D03*
X100500000Y-114000000D03*
X100500000Y-117500000D03*
X100600000Y-85900000D03*
X102200000Y-87200000D03*
X102500000Y-90000000D03*
X102500000Y-93500000D03*
X102500000Y-97000000D03*
X102500000Y-100500000D03*
X102500000Y-104000000D03*
X102500000Y-107500000D03*
X102500000Y-110500000D03*
X102500000Y-114000000D03*
X102500000Y-117500000D03*
X102500000Y-120000000D03*
X102700000Y-83000000D03*
X103600000Y-85800000D03*
X105000000Y-120000000D03*
X106600000Y-65000000D03*
X106600000Y-68100000D03*
X106600000Y-69900000D03*
X106600000Y-73000000D03*
X107400000Y-60800000D03*
X107500000Y-120000000D03*
X109900000Y-65000000D03*
X109900000Y-68100000D03*
X109900000Y-69900000D03*
X109900000Y-73000000D03*
X110000000Y-120000000D03*
X110400000Y-62500000D03*
X110600000Y-57600000D03*
X112500000Y-120000000D03*
X112900000Y-60000000D03*
X113800000Y-59100000D03*
X114000000Y-125700000D03*
X115000000Y-120000000D03*
X116100000Y-63200000D03*
X116100000Y-78000000D03*
X116200000Y-121500000D03*
X116375000Y-123925000D03*
X117200000Y-130100000D03*
X117500000Y-120000000D03*
X117600000Y-56800000D03*
X118600000Y-135400000D03*
X119100000Y-58300000D03*
X119300000Y-131600000D03*
X120000000Y-70600000D03*
X120000000Y-120000000D03*
X120800000Y-120500000D03*
X121000000Y-70600000D03*
X121047630Y-62910130D03*
X121200000Y-79500000D03*
X121200000Y-81500000D03*
X121400000Y-57900000D03*
X121400500Y-55800000D03*
X121861865Y-70599820D03*
X121900000Y-128900000D03*
X122000000Y-60750500D03*
X122400000Y-130800000D03*
X122800000Y-128000000D03*
X123000000Y-73200000D03*
X123324500Y-67600000D03*
X123649500Y-77500000D03*
X123768886Y-74268886D03*
X123800000Y-69000000D03*
X123800000Y-72200000D03*
X123900000Y-122900000D03*
X124000000Y-61088000D03*
X124050500Y-67128377D03*
X124400000Y-142000000D03*
X124400000Y-142800000D03*
X124500000Y-135000000D03*
X124500000Y-136500000D03*
X124500000Y-137500000D03*
X124500000Y-138500000D03*
X124500000Y-139500000D03*
X124500000Y-145500000D03*
X124500000Y-146500000D03*
X124500000Y-147500000D03*
X124600000Y-124600000D03*
X124650000Y-74306305D03*
X124700000Y-122900000D03*
X124800000Y-125400000D03*
X125000000Y-69000000D03*
X125000000Y-72200000D03*
X125350500Y-73800000D03*
X125600000Y-125000000D03*
X125749500Y-67425000D03*
X126000000Y-81100000D03*
X126400000Y-131100000D03*
X126800000Y-126200000D03*
X126900000Y-70100000D03*
X126900000Y-71100000D03*
X127000000Y-81100000D03*
X127000000Y-135000000D03*
X127500000Y-120000000D03*
X127600000Y-55800000D03*
X127600000Y-57000000D03*
X127600000Y-58200000D03*
X127600000Y-59400000D03*
X127900000Y-77500000D03*
X128600000Y-62300000D03*
X128800000Y-55800000D03*
X128800000Y-57000000D03*
X128800000Y-58200000D03*
X128800000Y-59400000D03*
X129000000Y-135000000D03*
X129400000Y-63800000D03*
X130000000Y-55800000D03*
X130000000Y-57000000D03*
X130000000Y-58200000D03*
X130000000Y-59400000D03*
X130000000Y-120000000D03*
X131000000Y-135000000D03*
X132400000Y-106000000D03*
X132500000Y-120000000D03*
X132500000Y-122500000D03*
X132500000Y-125000000D03*
X132500000Y-127500000D03*
X132500000Y-130000000D03*
X132600000Y-111900000D03*
X133000000Y-135000000D03*
X133200000Y-55600000D03*
X134200000Y-103400000D03*
X135000000Y-130000000D03*
X135000000Y-135000000D03*
X137000000Y-105400000D03*
X137000000Y-131000000D03*
X137000000Y-133000000D03*
X137000000Y-135000000D03*
X137000000Y-137500000D03*
X137000000Y-140000000D03*
X137000000Y-142500000D03*
X137000000Y-145000000D03*
X137000000Y-147500000D03*
X137500000Y-130000000D03*
X137800000Y-103100000D03*
X138300000Y-92900000D03*
X138300000Y-94000000D03*
X138300000Y-95200000D03*
X138300000Y-96300000D03*
X138700000Y-115300000D03*
X138863000Y-114000000D03*
X139400000Y-92900000D03*
X139400000Y-94000000D03*
X139400000Y-95200000D03*
X139400000Y-96300000D03*
X139400000Y-106400000D03*
X139600000Y-109800000D03*
X139700000Y-108700000D03*
X140000000Y-130000000D03*
X140600000Y-114400000D03*
X141400000Y-109500000D03*
X141600000Y-55600000D03*
X141700000Y-105400000D03*
X141800000Y-114400000D03*
X142500000Y-130000000D03*
X143800000Y-139300000D03*
X143800000Y-140500000D03*
X143800000Y-141900000D03*
X144150000Y-111103313D03*
X144300000Y-101600000D03*
X144800000Y-103300000D03*
X144800000Y-110300000D03*
X145000000Y-130000000D03*
X145100000Y-140500000D03*
X146100000Y-114000000D03*
X146500000Y-139300000D03*
X146500000Y-140500000D03*
X146500000Y-141900000D03*
X147500000Y-106100000D03*
X147500000Y-130000000D03*
X147700000Y-139300000D03*
X147700000Y-140500000D03*
X147700000Y-141900000D03*
X147800000Y-100400000D03*
X147850000Y-111300000D03*
X148050000Y-107200000D03*
X148050000Y-108050000D03*
X148050000Y-108900000D03*
X149100000Y-140000000D03*
X149100000Y-141000000D03*
X149150000Y-107200000D03*
X149150000Y-108050000D03*
X149150000Y-108900000D03*
X149350000Y-143800000D03*
X149600000Y-103200000D03*
X149600000Y-104200000D03*
X149600000Y-105200000D03*
X150000000Y-130000000D03*
X150250000Y-107200000D03*
X150250000Y-108050000D03*
X150250000Y-108900000D03*
X150400000Y-103800000D03*
X150400000Y-104800000D03*
X150400000Y-105800000D03*
X150600000Y-140000000D03*
X150600000Y-141000000D03*
X151100000Y-85000000D03*
X151100000Y-85900000D03*
X151200000Y-103200000D03*
X151200000Y-104200000D03*
X151200000Y-105200000D03*
X151350000Y-107200000D03*
X151350000Y-108050000D03*
X151350000Y-108900000D03*
X151684877Y-83499859D03*
X151700000Y-82700500D03*
X152425000Y-143425000D03*
X152500000Y-130000000D03*
X152600000Y-92300000D03*
X152600000Y-93300000D03*
X152600000Y-94300000D03*
X152600000Y-106500000D03*
X153800000Y-92300000D03*
X153800000Y-93300000D03*
X153800000Y-94300000D03*
X154588171Y-83499500D03*
X154700000Y-137350000D03*
X154700000Y-138200000D03*
X154700000Y-139050000D03*
X155000000Y-92300000D03*
X155000000Y-93300000D03*
X155000000Y-94300000D03*
X155000000Y-130000000D03*
X155100000Y-82800000D03*
X155450000Y-143700000D03*
X155800000Y-58400000D03*
X155800000Y-137350000D03*
X155800000Y-138200000D03*
X155800000Y-139050000D03*
X156500000Y-110800000D03*
X156900000Y-137350000D03*
X156900000Y-138200000D03*
X156900000Y-139050000D03*
X157400000Y-71000000D03*
X157500000Y-130000000D03*
X158000000Y-137350000D03*
X158000000Y-138200000D03*
X158000000Y-139050000D03*
X158400000Y-58600000D03*
X158400000Y-63600000D03*
X158400000Y-86400000D03*
X158400000Y-95600000D03*
X158600000Y-88200000D03*
X158600000Y-100600000D03*
X158600000Y-101800000D03*
X158963920Y-85001691D03*
X159150000Y-85875000D03*
X159400000Y-92000000D03*
X159400000Y-93100000D03*
X159400000Y-94200000D03*
X159400000Y-95300000D03*
X159900000Y-69500000D03*
X159900000Y-82800000D03*
X160000000Y-102800000D03*
X160000000Y-130000000D03*
X160250000Y-92000000D03*
X160250000Y-93100000D03*
X160250000Y-94200000D03*
X160250000Y-95300000D03*
X161100000Y-92000000D03*
X161100000Y-93100000D03*
X161100000Y-94200000D03*
X161100000Y-95300000D03*
X161400000Y-73300000D03*
X161800000Y-96400000D03*
X162200000Y-99800000D03*
X162400500Y-88800000D03*
X162400500Y-90100000D03*
X162400500Y-91000000D03*
X162500000Y-130000000D03*
X163400000Y-75500000D03*
X163700500Y-86775000D03*
X163800000Y-106600000D03*
X164200000Y-72000000D03*
X164400000Y-77000000D03*
X165000000Y-130000000D03*
X165400000Y-103200000D03*
X166500000Y-78300000D03*
X166800000Y-76000000D03*
X167250000Y-83750000D03*
X167500000Y-130000000D03*
X167600000Y-90100000D03*
X168350000Y-86650000D03*
X168600000Y-96800000D03*
X168600000Y-109000000D03*
X169600000Y-89150000D03*
X169800000Y-105400000D03*
X170000000Y-91650000D03*
X170000000Y-130000000D03*
X170325000Y-80049500D03*
X170600000Y-88200000D03*
X171200000Y-74400000D03*
X171200000Y-91000000D03*
X171200000Y-121600000D03*
X171501556Y-86502328D03*
X171650000Y-77650000D03*
X171650000Y-78500000D03*
X171650000Y-79350000D03*
X172250000Y-81500000D03*
X172250000Y-83250000D03*
X172750000Y-77650000D03*
X172750000Y-78500000D03*
X172750000Y-79350000D03*
X172800000Y-105400000D03*
X173000000Y-82500000D03*
X173000000Y-115250000D03*
X173250000Y-83750000D03*
X173600000Y-74400000D03*
X173850000Y-77650000D03*
X173850000Y-78500000D03*
X173850000Y-79350000D03*
X174200000Y-117000000D03*
X174877500Y-94305000D03*
X174950000Y-77650000D03*
X174950000Y-78500000D03*
X174950000Y-79350000D03*
X175000000Y-119800000D03*
X175000000Y-130000000D03*
X175000000Y-132500000D03*
X175000000Y-135000000D03*
X175000000Y-140000000D03*
X175000000Y-142500000D03*
X175000000Y-145000000D03*
X175000000Y-147500000D03*
X175200000Y-92205000D03*
X175250000Y-60500000D03*
X175250000Y-64250000D03*
X175250000Y-66250000D03*
X175250000Y-68500000D03*
X175250000Y-70500000D03*
X175750000Y-74000000D03*
X175868234Y-94295734D03*
X176200000Y-108000000D03*
X176750000Y-86500000D03*
X177000000Y-58250000D03*
X177750000Y-96750000D03*
X178600000Y-115200000D03*
X179200000Y-94400000D03*
X179486013Y-90436865D03*
X179918234Y-89764266D03*
X180100000Y-84950000D03*
X180600000Y-116800000D03*
X180777500Y-89705000D03*
X180800000Y-85350000D03*
X182200000Y-89800000D03*
X183800000Y-81200000D03*
X183800000Y-99400000D03*
X184140000Y-93460000D03*
X184200000Y-102000000D03*
X184400000Y-116000000D03*
X184600000Y-108600000D03*
X184750000Y-101000000D03*
X184777500Y-86705000D03*
X184777500Y-99705000D03*
X185000000Y-81200000D03*
X185000000Y-92105000D03*
X185389831Y-85801683D03*
X185577500Y-87105000D03*
X186030612Y-85073805D03*
X186200000Y-81200000D03*
X186800000Y-84400000D03*
X187000000Y-96250000D03*
X187000000Y-109000000D03*
X187725515Y-92429151D03*
X187729305Y-93750693D03*
X187750000Y-72700000D03*
X188177500Y-93088631D03*
X188239472Y-90658004D03*
X188282153Y-89824500D03*
X188400000Y-80400000D03*
X188950000Y-81150000D03*
X189000000Y-101250000D03*
X190600000Y-81600000D03*
X190600000Y-94200000D03*
X190675500Y-85700000D03*
X190777500Y-100305000D03*
X191150000Y-68450000D03*
X191240000Y-106770000D03*
X191250000Y-62500000D03*
X191250000Y-64250000D03*
X191250000Y-65750000D03*
X191977500Y-59305000D03*
X192150000Y-67800000D03*
X192150000Y-69000000D03*
X192250000Y-61500000D03*
X192250000Y-63250000D03*
X192250000Y-65000000D03*
X192300000Y-85400000D03*
X192750000Y-107750000D03*
X193300000Y-102550000D03*
X193449500Y-79500000D03*
X193500000Y-114000000D03*
X193977500Y-103905000D03*
X194400000Y-79000000D03*
X194850000Y-82100000D03*
X196050000Y-78050000D03*
X197250000Y-108000000D03*
X197250000Y-113250000D03*
X198200000Y-116200000D03*
D11*
%TO.C,TP2*%
X166400000Y-89450000D03*
%TO.C,TP1*%
X166650000Y-87400000D03*
%TO.C,TP4*%
X167150000Y-91350000D03*
%TO.C,TP3*%
X169100000Y-92200000D03*
%TO.C,TP6*%
X171050000Y-92800000D03*
%TO.C,TP15*%
X172100000Y-94600000D03*
%TO.C,TP16*%
X172100000Y-96900000D03*
%TO.C,TP13*%
X173600000Y-91000000D03*
%TO.C,TP14*%
X173700000Y-93150000D03*
%TO.C,TP8*%
X174750000Y-62250000D03*
%TO.C,TP12*%
X175550000Y-90000000D03*
%TO.C,TP17*%
X178300000Y-62300000D03*
%TO.C,TP5*%
X178450000Y-82900000D03*
%TO.C,TP11*%
X180600000Y-83800000D03*
%TO.C,TP10*%
X182500000Y-83050000D03*
%TO.C,TP9*%
X184700000Y-83700000D03*
%TO.C,TP7*%
X190950000Y-101850000D03*
%TD*%
D12*
X123400000Y-58200000D03*
X127100000Y-64400000D03*
X132250000Y-109650000D03*
X145600000Y-93680000D03*
X147050688Y-90229312D03*
X176250000Y-72250000D03*
X177000000Y-104000000D03*
X184500000Y-53000000D03*
X187600000Y-89200000D03*
D13*
%TO.C,R13*%
X112700000Y-107380000D03*
X112700000Y-115000000D03*
D14*
%TO.C,C11*%
X147800000Y-92180000D03*
X147800000Y-97180000D03*
D15*
%TO.C,J1*%
X103657500Y-74170000D03*
X103657500Y-76710000D03*
X103657500Y-79250000D03*
X103657500Y-81790000D03*
X103657500Y-84330000D03*
X106197500Y-74170000D03*
X106197500Y-76710000D03*
X106197500Y-79250000D03*
X106197500Y-81790000D03*
X106197500Y-84330000D03*
%TO.C,C16*%
X106200000Y-108117677D03*
X106200000Y-111617677D03*
%TO.C,C15*%
X119200000Y-108000000D03*
X119200000Y-111500000D03*
%TO.C,B1*%
X193960000Y-66000000D03*
X193960000Y-68540000D03*
X193960000Y-71080000D03*
X193960000Y-73620000D03*
X193960000Y-76160000D03*
X193960000Y-91000000D03*
X193960000Y-93540000D03*
X193960000Y-96080000D03*
X193960000Y-98620000D03*
X193960000Y-101160000D03*
X193960000Y-123000000D03*
X193960000Y-125540000D03*
X193960000Y-128080000D03*
X193960000Y-130620000D03*
X193960000Y-133160000D03*
X196500000Y-66000000D03*
X196500000Y-68540000D03*
X196500000Y-71080000D03*
X196500000Y-73620000D03*
X196500000Y-76160000D03*
X196500000Y-91000000D03*
X196500000Y-93540000D03*
X196500000Y-96080000D03*
X196500000Y-98620000D03*
X196500000Y-101160000D03*
X196500000Y-123000000D03*
X196500000Y-125540000D03*
X196500000Y-128080000D03*
X196500000Y-130620000D03*
X196500000Y-133160000D03*
D16*
%TO.C,U6*%
X114550000Y-137900000D03*
X114550000Y-140440000D03*
X114550000Y-142980000D03*
D17*
%TO.C,B1*%
X104960000Y-55000000D03*
X104960000Y-145000000D03*
X194960000Y-55000000D03*
X194960000Y-145000000D03*
M02*
