G04 #@! TF.GenerationSoftware,KiCad,Pcbnew,7.0.9*
G04 #@! TF.CreationDate,2023-12-09T13:14:58+01:00*
G04 #@! TF.ProjectId,EuroMeasure-IonGaugeController,4575726f-4d65-4617-9375-72652d496f6e,1.0.0*
G04 #@! TF.SameCoordinates,Original*
G04 #@! TF.FileFunction,Paste,Top*
G04 #@! TF.FilePolarity,Positive*
%FSLAX46Y46*%
G04 Gerber Fmt 4.6, Leading zero omitted, Abs format (unit mm)*
G04 Created by KiCad (PCBNEW 7.0.9) date 2023-12-09 13:14:58*
%MOMM*%
%LPD*%
G01*
G04 APERTURE LIST*
G04 Aperture macros list*
%AMRoundRect*
0 Rectangle with rounded corners*
0 $1 Rounding radius*
0 $2 $3 $4 $5 $6 $7 $8 $9 X,Y pos of 4 corners*
0 Add a 4 corners polygon primitive as box body*
4,1,4,$2,$3,$4,$5,$6,$7,$8,$9,$2,$3,0*
0 Add four circle primitives for the rounded corners*
1,1,$1+$1,$2,$3*
1,1,$1+$1,$4,$5*
1,1,$1+$1,$6,$7*
1,1,$1+$1,$8,$9*
0 Add four rect primitives between the rounded corners*
20,1,$1+$1,$2,$3,$4,$5,0*
20,1,$1+$1,$4,$5,$6,$7,0*
20,1,$1+$1,$6,$7,$8,$9,0*
20,1,$1+$1,$8,$9,$2,$3,0*%
%AMFreePoly0*
4,1,15,0.512500,0.050000,0.512500,-0.050000,1.162500,-0.700000,-0.262500,-0.700000,-0.358171,-0.680970,-0.439277,-0.626777,-0.493470,-0.545671,-0.512500,-0.450000,-0.512500,0.450000,-0.493470,0.545671,-0.439277,0.626777,-0.358171,0.680970,-0.262500,0.700000,1.162500,0.700000,0.512500,0.050000,0.512500,0.050000,$1*%
%AMFreePoly1*
4,1,20,0.358171,0.680970,0.439277,0.626777,0.493470,0.545671,0.512500,0.450000,0.512500,-0.450000,0.493470,-0.545671,0.439277,-0.626777,0.358171,-0.680970,0.262500,-0.700000,-0.362500,-0.700000,-0.428566,-0.633933,-0.439277,-0.626777,-0.446433,-0.616066,-1.062500,0.000000,-0.446433,0.616066,-0.439277,0.626777,-0.428566,0.633933,-0.362500,0.700000,0.262500,0.700000,0.358171,0.680970,
0.358171,0.680970,$1*%
G04 Aperture macros list end*
%ADD10RoundRect,0.250000X-0.475000X0.337500X-0.475000X-0.337500X0.475000X-0.337500X0.475000X0.337500X0*%
%ADD11RoundRect,0.250000X-0.350000X-0.450000X0.350000X-0.450000X0.350000X0.450000X-0.350000X0.450000X0*%
%ADD12RoundRect,0.125000X-0.125000X0.125000X-0.125000X-0.125000X0.125000X-0.125000X0.125000X0.125000X0*%
%ADD13RoundRect,0.250000X0.350000X0.450000X-0.350000X0.450000X-0.350000X-0.450000X0.350000X-0.450000X0*%
%ADD14RoundRect,0.150000X0.512500X0.150000X-0.512500X0.150000X-0.512500X-0.150000X0.512500X-0.150000X0*%
%ADD15RoundRect,0.250000X0.450000X-0.350000X0.450000X0.350000X-0.450000X0.350000X-0.450000X-0.350000X0*%
%ADD16RoundRect,0.250000X0.475000X-0.337500X0.475000X0.337500X-0.475000X0.337500X-0.475000X-0.337500X0*%
%ADD17RoundRect,0.150000X-0.150000X0.587500X-0.150000X-0.587500X0.150000X-0.587500X0.150000X0.587500X0*%
%ADD18RoundRect,0.250000X0.262500X0.450000X-0.262500X0.450000X-0.262500X-0.450000X0.262500X-0.450000X0*%
%ADD19RoundRect,0.250000X-0.300000X-0.300000X0.300000X-0.300000X0.300000X0.300000X-0.300000X0.300000X0*%
%ADD20R,0.700000X0.700000*%
%ADD21RoundRect,0.250000X0.337500X0.475000X-0.337500X0.475000X-0.337500X-0.475000X0.337500X-0.475000X0*%
%ADD22RoundRect,0.250000X-2.050000X-0.300000X2.050000X-0.300000X2.050000X0.300000X-2.050000X0.300000X0*%
%ADD23RoundRect,0.250000X-2.025000X-2.375000X2.025000X-2.375000X2.025000X2.375000X-2.025000X2.375000X0*%
%ADD24RoundRect,0.324675X-0.925325X-2.975325X0.925325X-2.975325X0.925325X2.975325X-0.925325X2.975325X0*%
%ADD25RoundRect,0.250000X-1.500000X-0.550000X1.500000X-0.550000X1.500000X0.550000X-1.500000X0.550000X0*%
%ADD26RoundRect,0.250000X-0.337500X-0.475000X0.337500X-0.475000X0.337500X0.475000X-0.337500X0.475000X0*%
%ADD27FreePoly0,270.000000*%
%ADD28FreePoly1,270.000000*%
%ADD29RoundRect,0.250000X-0.450000X0.350000X-0.450000X-0.350000X0.450000X-0.350000X0.450000X0.350000X0*%
%ADD30RoundRect,0.317500X0.637500X0.317500X-0.637500X0.317500X-0.637500X-0.317500X0.637500X-0.317500X0*%
%ADD31R,0.650000X0.850000*%
%ADD32RoundRect,0.249999X1.075001X-0.450001X1.075001X0.450001X-1.075001X0.450001X-1.075001X-0.450001X0*%
%ADD33RoundRect,0.250000X0.650000X-0.412500X0.650000X0.412500X-0.650000X0.412500X-0.650000X-0.412500X0*%
%ADD34RoundRect,0.250000X0.300000X0.300000X-0.300000X0.300000X-0.300000X-0.300000X0.300000X-0.300000X0*%
%ADD35R,2.000000X1.500000*%
%ADD36R,2.000000X3.800000*%
%ADD37RoundRect,0.172500X-0.172500X-0.172500X0.172500X-0.172500X0.172500X0.172500X-0.172500X0.172500X0*%
%ADD38RoundRect,0.050000X-0.362500X-0.050000X0.362500X-0.050000X0.362500X0.050000X-0.362500X0.050000X0*%
%ADD39RoundRect,0.050000X-0.050000X-0.362500X0.050000X-0.362500X0.050000X0.362500X-0.050000X0.362500X0*%
%ADD40RoundRect,0.150000X-0.825000X-0.150000X0.825000X-0.150000X0.825000X0.150000X-0.825000X0.150000X0*%
%ADD41RoundRect,0.075000X0.662500X0.075000X-0.662500X0.075000X-0.662500X-0.075000X0.662500X-0.075000X0*%
%ADD42RoundRect,0.075000X0.075000X0.662500X-0.075000X0.662500X-0.075000X-0.662500X0.075000X-0.662500X0*%
%ADD43RoundRect,0.250000X-0.412500X-1.100000X0.412500X-1.100000X0.412500X1.100000X-0.412500X1.100000X0*%
%ADD44RoundRect,0.250000X0.375000X1.075000X-0.375000X1.075000X-0.375000X-1.075000X0.375000X-1.075000X0*%
%ADD45RoundRect,0.250000X1.000000X-1.950000X1.000000X1.950000X-1.000000X1.950000X-1.000000X-1.950000X0*%
%ADD46R,1.550000X1.300000*%
%ADD47R,5.400000X2.900000*%
%ADD48R,0.760000X1.250000*%
%ADD49RoundRect,0.250000X0.400000X1.075000X-0.400000X1.075000X-0.400000X-1.075000X0.400000X-1.075000X0*%
%ADD50RoundRect,0.122000X0.788000X0.488000X-0.788000X0.488000X-0.788000X-0.488000X0.788000X-0.488000X0*%
%ADD51RoundRect,0.250000X-0.450000X0.325000X-0.450000X-0.325000X0.450000X-0.325000X0.450000X0.325000X0*%
%ADD52R,0.400000X1.500000*%
%ADD53RoundRect,0.050000X0.075000X0.250000X-0.075000X0.250000X-0.075000X-0.250000X0.075000X-0.250000X0*%
%ADD54RoundRect,0.050000X-0.250000X0.075000X-0.250000X-0.075000X0.250000X-0.075000X0.250000X0.075000X0*%
%ADD55RoundRect,0.050000X0.250000X-0.075000X0.250000X0.075000X-0.250000X0.075000X-0.250000X-0.075000X0*%
%ADD56RoundRect,0.250000X1.000000X0.900000X-1.000000X0.900000X-1.000000X-0.900000X1.000000X-0.900000X0*%
%ADD57RoundRect,0.075000X0.075000X-0.650000X0.075000X0.650000X-0.075000X0.650000X-0.075000X-0.650000X0*%
%ADD58RoundRect,0.087500X1.022500X-0.787500X1.022500X0.787500X-1.022500X0.787500X-1.022500X-0.787500X0*%
%ADD59RoundRect,0.250000X-1.000000X-0.900000X1.000000X-0.900000X1.000000X0.900000X-1.000000X0.900000X0*%
%ADD60R,1.500000X0.400000*%
%ADD61RoundRect,0.200000X-0.250000X0.200000X-0.250000X-0.200000X0.250000X-0.200000X0.250000X0.200000X0*%
%ADD62R,7.200000X2.300000*%
%ADD63RoundRect,0.250000X0.550000X-1.500000X0.550000X1.500000X-0.550000X1.500000X-0.550000X-1.500000X0*%
%ADD64RoundRect,0.250000X-1.000000X1.950000X-1.000000X-1.950000X1.000000X-1.950000X1.000000X1.950000X0*%
%ADD65RoundRect,0.050000X0.880000X-0.350000X0.880000X0.350000X-0.880000X0.350000X-0.880000X-0.350000X0*%
%ADD66RoundRect,0.250001X0.462499X1.074999X-0.462499X1.074999X-0.462499X-1.074999X0.462499X-1.074999X0*%
%ADD67RoundRect,0.324675X2.975325X-0.925325X2.975325X0.925325X-2.975325X0.925325X-2.975325X-0.925325X0*%
%ADD68RoundRect,0.125000X0.125000X0.125000X-0.125000X0.125000X-0.125000X-0.125000X0.125000X-0.125000X0*%
%ADD69RoundRect,0.250000X-0.400000X-1.075000X0.400000X-1.075000X0.400000X1.075000X-0.400000X1.075000X0*%
%ADD70RoundRect,0.250000X1.500000X0.550000X-1.500000X0.550000X-1.500000X-0.550000X1.500000X-0.550000X0*%
%ADD71R,2.900000X5.400000*%
%ADD72RoundRect,0.150000X-0.725000X-0.150000X0.725000X-0.150000X0.725000X0.150000X-0.725000X0.150000X0*%
G04 APERTURE END LIST*
G36*
X122710000Y-71760000D02*
G01*
X123600000Y-71760000D01*
X123600000Y-71520000D01*
X122710000Y-71520000D01*
X122710000Y-71760000D01*
G37*
G36*
X123950000Y-71760000D02*
G01*
X124850000Y-71760000D01*
X124850000Y-71520000D01*
X123950000Y-71520000D01*
X123950000Y-71760000D01*
G37*
G36*
X125180000Y-71760000D02*
G01*
X126090000Y-71760000D01*
X126090000Y-71520000D01*
X125180000Y-71520000D01*
X125180000Y-71760000D01*
G37*
G36*
X122710000Y-71260000D02*
G01*
X123600000Y-71260000D01*
X123600000Y-71020000D01*
X122710000Y-71020000D01*
X122710000Y-71260000D01*
G37*
G36*
X123950000Y-71260000D02*
G01*
X124850000Y-71260000D01*
X124850000Y-71020000D01*
X123950000Y-71020000D01*
X123950000Y-71260000D01*
G37*
G36*
X125180000Y-71260000D02*
G01*
X126090000Y-71260000D01*
X126090000Y-71020000D01*
X125180000Y-71020000D01*
X125180000Y-71260000D01*
G37*
G36*
X123950000Y-70750000D02*
G01*
X124850000Y-70750000D01*
X124850000Y-70450000D01*
X123950000Y-70450000D01*
X123950000Y-70750000D01*
G37*
G36*
X122700000Y-70725000D02*
G01*
X123600000Y-70725000D01*
X123600000Y-70475000D01*
X122700000Y-70475000D01*
X122700000Y-70725000D01*
G37*
G36*
X125200000Y-70725000D02*
G01*
X126100000Y-70725000D01*
X126100000Y-70475000D01*
X125200000Y-70475000D01*
X125200000Y-70725000D01*
G37*
G36*
X122710000Y-70180000D02*
G01*
X123600000Y-70180000D01*
X123600000Y-69940000D01*
X122710000Y-69940000D01*
X122710000Y-70180000D01*
G37*
G36*
X123950000Y-70180000D02*
G01*
X124850000Y-70180000D01*
X124850000Y-69940000D01*
X123950000Y-69940000D01*
X123950000Y-70180000D01*
G37*
G36*
X125180000Y-70180000D02*
G01*
X126090000Y-70180000D01*
X126090000Y-69940000D01*
X125180000Y-69940000D01*
X125180000Y-70180000D01*
G37*
G36*
X122710000Y-69680000D02*
G01*
X123600000Y-69680000D01*
X123600000Y-69440000D01*
X122710000Y-69440000D01*
X122710000Y-69680000D01*
G37*
G36*
X123950000Y-69680000D02*
G01*
X124850000Y-69680000D01*
X124850000Y-69440000D01*
X123950000Y-69440000D01*
X123950000Y-69680000D01*
G37*
G36*
X125180000Y-69680000D02*
G01*
X126090000Y-69680000D01*
X126090000Y-69440000D01*
X125180000Y-69440000D01*
X125180000Y-69680000D01*
G37*
D10*
X124000000Y-60100000D03*
X124000000Y-62175000D03*
X115487500Y-122862500D03*
X115487500Y-124937500D03*
D11*
X129200000Y-104000000D03*
X131200000Y-104000000D03*
D12*
X120750000Y-139775000D03*
X120750000Y-141975000D03*
D13*
X154300000Y-85300000D03*
X152300000Y-85300000D03*
D14*
X135700000Y-105400000D03*
X135700000Y-103500000D03*
X133425000Y-104450000D03*
D15*
X137600000Y-114100000D03*
X137600000Y-112100000D03*
D16*
X121300000Y-69437500D03*
X121300000Y-67362500D03*
D13*
X155000000Y-145000000D03*
X153000000Y-145000000D03*
D15*
X152550000Y-141800000D03*
X152550000Y-139800000D03*
D17*
X135750000Y-111962500D03*
X133850000Y-111962500D03*
X134800000Y-113837500D03*
D18*
X119150000Y-124850000D03*
X117325000Y-124850000D03*
D19*
X128450000Y-136900000D03*
X131250000Y-136900000D03*
D20*
X109800000Y-54450000D03*
X109800000Y-55550000D03*
X111800000Y-55550000D03*
X111800000Y-54450000D03*
D21*
X191637500Y-91600000D03*
X189562500Y-91600000D03*
D22*
X143025000Y-119660000D03*
D23*
X149750000Y-119425000D03*
X149750000Y-124975000D03*
X154600000Y-119425000D03*
X154600000Y-124975000D03*
D22*
X143025000Y-124740000D03*
D13*
X126300000Y-55900000D03*
X124300000Y-55900000D03*
D24*
X153600000Y-63000000D03*
X161400000Y-63000000D03*
D13*
X122500000Y-55900000D03*
X120500000Y-55900000D03*
D25*
X179700000Y-137400000D03*
X185100000Y-137400000D03*
D18*
X161787500Y-80650000D03*
X159962500Y-80650000D03*
D13*
X158000000Y-84800000D03*
X156000000Y-84800000D03*
D15*
X126000000Y-65900000D03*
X126000000Y-63900000D03*
D26*
X189562500Y-89500000D03*
X191637500Y-89500000D03*
D13*
X124362500Y-79500000D03*
X122362500Y-79500000D03*
X162000000Y-74750000D03*
X160000000Y-74750000D03*
D10*
X151250000Y-134062500D03*
X151250000Y-136137500D03*
D16*
X115700000Y-55575000D03*
X115700000Y-53500000D03*
D27*
X182750000Y-100837500D03*
D28*
X182750000Y-102662500D03*
D13*
X143200000Y-134800000D03*
X141200000Y-134800000D03*
D10*
X124700000Y-75462500D03*
X124700000Y-77537500D03*
D29*
X126700000Y-75500000D03*
X126700000Y-77500000D03*
D30*
X143550000Y-99830000D03*
X143550000Y-97330000D03*
X143550000Y-94830000D03*
X143550000Y-92330000D03*
X143550000Y-89830000D03*
X143550000Y-87330000D03*
X120690000Y-87330000D03*
X120690000Y-89830000D03*
X120690000Y-97330000D03*
X120690000Y-99830000D03*
D16*
X130200000Y-69737500D03*
X130200000Y-67662500D03*
D10*
X128200000Y-71462500D03*
X128200000Y-73537500D03*
D21*
X191615000Y-87400000D03*
X189540000Y-87400000D03*
D31*
X191425000Y-93425000D03*
X189775000Y-93425000D03*
X189775000Y-94975000D03*
X191425000Y-94975000D03*
D26*
X170762500Y-85050000D03*
X172837500Y-85050000D03*
D13*
X122500000Y-57900000D03*
X120500000Y-57900000D03*
D26*
X173462500Y-87050000D03*
X175537500Y-87050000D03*
D15*
X124000000Y-65900000D03*
X124000000Y-63900000D03*
D26*
X166962500Y-85400000D03*
X169037500Y-85400000D03*
D21*
X119337500Y-63200000D03*
X117262500Y-63200000D03*
D32*
X128600000Y-65700000D03*
X128600000Y-60900000D03*
D13*
X128062500Y-79500000D03*
X126062500Y-79500000D03*
D10*
X122000000Y-59762500D03*
X122000000Y-61837500D03*
D15*
X115287500Y-128750000D03*
X115287500Y-126750000D03*
D27*
X175750000Y-100837500D03*
D28*
X175750000Y-102662500D03*
D13*
X143200000Y-146100000D03*
X141200000Y-146100000D03*
D33*
X123150000Y-143962500D03*
X123150000Y-140837500D03*
D26*
X133762500Y-109900000D03*
X135837500Y-109900000D03*
D13*
X119400000Y-116000000D03*
X117400000Y-116000000D03*
D21*
X122937500Y-124700000D03*
X120862500Y-124700000D03*
D34*
X131250000Y-139250000D03*
X128450000Y-139250000D03*
D21*
X122825000Y-132350000D03*
X120750000Y-132350000D03*
D35*
X185950000Y-74100000D03*
X185950000Y-71800000D03*
D36*
X179650000Y-71800000D03*
D35*
X185950000Y-69500000D03*
D37*
X169675000Y-88212500D03*
X169675000Y-89062500D03*
X170525000Y-88212500D03*
X170525000Y-89062500D03*
D38*
X168637500Y-87837500D03*
X168637500Y-88237500D03*
X168637500Y-88637500D03*
X168637500Y-89037500D03*
X168637500Y-89437500D03*
D39*
X169300000Y-90100000D03*
X169700000Y-90100000D03*
X170100000Y-90100000D03*
X170500000Y-90100000D03*
X170900000Y-90100000D03*
D38*
X171562500Y-89437500D03*
X171562500Y-89037500D03*
X171562500Y-88637500D03*
X171562500Y-88237500D03*
X171562500Y-87837500D03*
D39*
X170900000Y-87175000D03*
X170500000Y-87175000D03*
X170100000Y-87175000D03*
X169700000Y-87175000D03*
X169300000Y-87175000D03*
D40*
X119512500Y-126685000D03*
X119512500Y-127955000D03*
X119512500Y-129225000D03*
X119512500Y-130495000D03*
X124462500Y-130495000D03*
X124462500Y-129225000D03*
X124462500Y-127955000D03*
X124462500Y-126685000D03*
D41*
X186140000Y-95055000D03*
X186140000Y-94555000D03*
X186140000Y-94055000D03*
X186140000Y-93555000D03*
X186140000Y-93055000D03*
X186140000Y-92555000D03*
X186140000Y-92055000D03*
X186140000Y-91555000D03*
X186140000Y-91055000D03*
X186140000Y-90555000D03*
X186140000Y-90055000D03*
X186140000Y-89555000D03*
D42*
X184727500Y-88142500D03*
X184227500Y-88142500D03*
X183727500Y-88142500D03*
X183227500Y-88142500D03*
X182727500Y-88142500D03*
X182227500Y-88142500D03*
X181727500Y-88142500D03*
X181227500Y-88142500D03*
X180727500Y-88142500D03*
X180227500Y-88142500D03*
X179727500Y-88142500D03*
X179227500Y-88142500D03*
D41*
X177815000Y-89555000D03*
X177815000Y-90055000D03*
X177815000Y-90555000D03*
X177815000Y-91055000D03*
X177815000Y-91555000D03*
X177815000Y-92055000D03*
X177815000Y-92555000D03*
X177815000Y-93055000D03*
X177815000Y-93555000D03*
X177815000Y-94055000D03*
X177815000Y-94555000D03*
X177815000Y-95055000D03*
D42*
X179227500Y-96467500D03*
X179727500Y-96467500D03*
X180227500Y-96467500D03*
X180727500Y-96467500D03*
X181227500Y-96467500D03*
X181727500Y-96467500D03*
X182227500Y-96467500D03*
X182727500Y-96467500D03*
X183227500Y-96467500D03*
X183727500Y-96467500D03*
X184227500Y-96467500D03*
X184727500Y-96467500D03*
D26*
X138362500Y-104700000D03*
X140437500Y-104700000D03*
D15*
X114850000Y-134112500D03*
X114850000Y-132112500D03*
D43*
X124137500Y-104500000D03*
X127262500Y-104500000D03*
D12*
X118650000Y-136300000D03*
X118650000Y-138500000D03*
D44*
X191600000Y-71100000D03*
X188800000Y-71100000D03*
D45*
X136800000Y-79200000D03*
X136800000Y-70800000D03*
D46*
X178402500Y-54455000D03*
X186352500Y-54455000D03*
X178402500Y-58955000D03*
X186352500Y-58955000D03*
D47*
X149100000Y-69150000D03*
X149100000Y-79050000D03*
D33*
X111750000Y-143562500D03*
X111750000Y-140437500D03*
D29*
X118750000Y-139900000D03*
X118750000Y-141900000D03*
D48*
X182405000Y-99000000D03*
X181135000Y-99000000D03*
X179865000Y-99000000D03*
X178595000Y-99000000D03*
X178595000Y-105150000D03*
X179865000Y-105150000D03*
X181135000Y-105150000D03*
X182405000Y-105150000D03*
D26*
X189562500Y-73900000D03*
X191637500Y-73900000D03*
D15*
X162075000Y-78650000D03*
X162075000Y-76650000D03*
D10*
X145200000Y-106662500D03*
X145200000Y-108737500D03*
D21*
X147137500Y-134800000D03*
X145062500Y-134800000D03*
D29*
X143800000Y-113100000D03*
X143800000Y-115100000D03*
D34*
X131250000Y-141600000D03*
X128450000Y-141600000D03*
D16*
X128200000Y-69737500D03*
X128200000Y-67662500D03*
D13*
X151200000Y-145000000D03*
X149200000Y-145000000D03*
D21*
X120687500Y-143800000D03*
X118612500Y-143800000D03*
D10*
X121300000Y-71762500D03*
X121300000Y-73837500D03*
D49*
X114200000Y-104500000D03*
X111100000Y-104500000D03*
D35*
X150850000Y-88480000D03*
X150850000Y-90780000D03*
D36*
X157150000Y-90780000D03*
D35*
X150850000Y-93080000D03*
D50*
X147065000Y-143040000D03*
X147065000Y-140500000D03*
X147065000Y-137960000D03*
X133635000Y-137960000D03*
X133635000Y-140500000D03*
X133635000Y-143040000D03*
D13*
X119300000Y-65200000D03*
X117300000Y-65200000D03*
D51*
X188777500Y-53880000D03*
X188777500Y-55930000D03*
D26*
X174262500Y-82150000D03*
X176337500Y-82150000D03*
D27*
X180750000Y-100837500D03*
D28*
X180750000Y-102662500D03*
D52*
X157925000Y-75720000D03*
X157275000Y-75720000D03*
X156625000Y-75720000D03*
X156625000Y-78380000D03*
X157275000Y-78380000D03*
X157925000Y-78380000D03*
D16*
X126000000Y-62200000D03*
X126000000Y-60125000D03*
D11*
X188577500Y-57905000D03*
X190577500Y-57905000D03*
D15*
X117237500Y-128750000D03*
X117237500Y-126750000D03*
D53*
X123650000Y-73000000D03*
X124150000Y-73000000D03*
X124650000Y-73000000D03*
X125150000Y-73000000D03*
D54*
X125800000Y-72640000D03*
X125800000Y-72140000D03*
X125800000Y-69060000D03*
D55*
X125800000Y-68560000D03*
D53*
X125150000Y-68200000D03*
X124650000Y-68200000D03*
X124150000Y-68200000D03*
X123650000Y-68200000D03*
D55*
X123000000Y-68560000D03*
D54*
X123000000Y-69060000D03*
X123000000Y-72140000D03*
D55*
X123000000Y-72640000D03*
D56*
X116600000Y-96000000D03*
X112300000Y-96000000D03*
D33*
X125550000Y-143962500D03*
X125550000Y-140837500D03*
D35*
X150850000Y-95980000D03*
X150850000Y-98280000D03*
D36*
X157150000Y-98280000D03*
D35*
X150850000Y-100580000D03*
D27*
X178750000Y-100837500D03*
D28*
X178750000Y-102662500D03*
D10*
X130200000Y-71462500D03*
X130200000Y-73537500D03*
D57*
X148850000Y-142700000D03*
X149350000Y-142700000D03*
X149850000Y-142700000D03*
X150350000Y-142700000D03*
X150850000Y-142700000D03*
X150850000Y-138300000D03*
X150350000Y-138300000D03*
X149850000Y-138300000D03*
X149350000Y-138300000D03*
X148850000Y-138300000D03*
D58*
X149850000Y-140500000D03*
D59*
X112300000Y-86800000D03*
X116600000Y-86800000D03*
D16*
X159875000Y-78687500D03*
X159875000Y-76612500D03*
D10*
X188800000Y-96662500D03*
X188800000Y-98737500D03*
D60*
X120817500Y-122700000D03*
X120817500Y-122050000D03*
X120817500Y-121400000D03*
X118157500Y-121400000D03*
X118157500Y-122050000D03*
X118157500Y-122700000D03*
D61*
X176325000Y-83925000D03*
X174475000Y-83925000D03*
X174475000Y-85375000D03*
X176325000Y-85375000D03*
D21*
X119337500Y-78000000D03*
X117262500Y-78000000D03*
D10*
X126837500Y-127512500D03*
X126837500Y-129587500D03*
D62*
X116000000Y-73150000D03*
X116000000Y-68050000D03*
D63*
X188800000Y-67200000D03*
X188800000Y-61800000D03*
D10*
X121700000Y-63562500D03*
X121700000Y-65637500D03*
D21*
X147137500Y-146100000D03*
X145062500Y-146100000D03*
D64*
X136800000Y-57400000D03*
X136800000Y-65800000D03*
D65*
X171200000Y-120000000D03*
X171200000Y-116800000D03*
X171200000Y-114600000D03*
X171200000Y-112400000D03*
X164460000Y-112400000D03*
X164460000Y-114600000D03*
X164460000Y-116800000D03*
X164460000Y-120000000D03*
D25*
X185800000Y-79400000D03*
X191200000Y-79400000D03*
D26*
X181962500Y-76700000D03*
X184037500Y-76700000D03*
D66*
X125837500Y-138200000D03*
X122862500Y-138200000D03*
D59*
X112300000Y-100500000D03*
X116600000Y-100500000D03*
D16*
X116850000Y-134150000D03*
X116850000Y-132075000D03*
D19*
X128450000Y-143950000D03*
X131250000Y-143950000D03*
D13*
X126300000Y-57900000D03*
X124300000Y-57900000D03*
D11*
X118650000Y-145800000D03*
X120650000Y-145800000D03*
D63*
X189450000Y-118150000D03*
X189450000Y-112750000D03*
D11*
X133800000Y-107900000D03*
X135800000Y-107900000D03*
D47*
X154400000Y-104350000D03*
X154400000Y-114250000D03*
D10*
X191577500Y-96662500D03*
X191577500Y-98737500D03*
D67*
X181850000Y-118700000D03*
X181850000Y-110900000D03*
D56*
X116600000Y-91400000D03*
X112300000Y-91400000D03*
D15*
X170900000Y-83150000D03*
X170900000Y-81150000D03*
D26*
X122325000Y-81500000D03*
X124400000Y-81500000D03*
D68*
X168700000Y-123200000D03*
X166500000Y-123200000D03*
D13*
X119300000Y-76000000D03*
X117300000Y-76000000D03*
D15*
X168900000Y-83500000D03*
X168900000Y-81500000D03*
D69*
X143050000Y-104100000D03*
X146150000Y-104100000D03*
D29*
X149250000Y-134100000D03*
X149250000Y-136100000D03*
D70*
X149700000Y-63300000D03*
X144300000Y-63300000D03*
D21*
X141637500Y-112300000D03*
X139562500Y-112300000D03*
D71*
X189350000Y-127100000D03*
X179450000Y-127100000D03*
D29*
X153250000Y-134100000D03*
X153250000Y-136100000D03*
D72*
X137825000Y-106595000D03*
X137825000Y-107865000D03*
X137825000Y-109135000D03*
X137825000Y-110405000D03*
X142975000Y-110405000D03*
X142975000Y-109135000D03*
X142975000Y-107865000D03*
X142975000Y-106595000D03*
M02*
